<svg xmlns="http://www.w3.org/2000/svg" viewBox="0 0 598.88 175.42"><g id="レイヤー_2" data-name="レイヤー 2"><g id="テキスト"><path d="M598,155.15c-2.52,3.37-4.9-1.3-9.9-3s-5-2.55-10-4.08-5-.24-10-1.57-5-1.44-10-2.59-5-2-10-2.94-5-.47-10-1.27-5-.69-10-1.32-5-1.61-10-2.09-5-.59-10-.92-5-.37-10-.57-5,.83-10,.76-5,0-10,.11-5-.57-10-.4-5,1.39-10,1.67-5-1.16-10-.78-5,.85-10,1.33-5,1.7-10,2.25-5,.28-10,.91-5,.47-10,1.17-5,.63-10,1.39-5-.3-10,.51-5,1.54-10,2.39-5,.09-10,1-5,.95-10,1.87-5,2.59-10,3.53-5,1-10,2-5,.16-10,1.12-5,.4-10,1.35-5,2.41-10,3.35-5-.14-10,.79-5,.22-10,1.12-5,1.92-10,2.79-5,1.29-10,2.11-5,.9-10,1.67-5,.43-10,1.15-5,.19-10,.84-5,1.08-10,1.66-5-.38-10,.11-5,2-10,2.39-5,0-10,.32-5-.22-10,0-5-.73-10-.64-5,.11-10,.08-5,.54-10,.38-5,.61-10,.32-5-1.68-10-2.12-5,.81-10,.22-5-1.51-10-2.26-5,.23-10-.69-5-2-10-3.11-5-1.53-10-2.81-5-.5-10-2-5-1.33-10-3-6.66,1.22-9.2-4.05c-2.67-5.57,2.14-3.16,4.32-7.19s.94-5,3.13-9.08,2.05-4.16,4.23-8.25,3-3.5,5.14-7.63,2.83-3.65,5-7.83,1.72-4.53,3.91-8.74,3.61-3.51,3.61-8.8S87.22,92.67,85,87.26s-2.5-5.35-4.69-10.79S77,71.19,74.85,65.7s-2.15-5.51-4.34-11S69.35,49,67.17,43.45s-2.12-5.58-4.31-11.18-7.2-7.47-4.53-11c2.52-3.37,4.78,1.55,9.78,3.26s5,1.74,10,3.27,5,2.31,10,3.65,5-.36,10,.79,5,2.76,10,3.73,5,.94,10,1.74,5-.72,10-.08,5,1.29,10,1.77,5,.19,10,.52,5,.43,10,.63,5-.69,10-.62,5,1.78,10,1.73,5-1.21,10-1.38,5,.43,10,.15,5,.31,10-.07,5-.7,10-1.17,5-.66,10-1.21,5-.86,10-1.49,5-1.71,10-2.41,5,1,10,.2,5-1.83,10-2.64,5-.54,10-1.4,5-.24,10-1.13,5-2.2,10-3.12,5-1.27,10-2.21,5-.51,10-1.47,5-.06,10-1,5-.61,10-1.57,5-1.67,10-2.62,5-.83,10-1.76,5-1.09,10-2,5-.9,10-1.77,5-1.32,10-2.14,5-1,10-1.82,5-.45,10-1.17,5-.29,10-.94,5,0,10-.54,5-.41,10-.91,5-.91,10-1.32,5-.76,10-1.07,5,.1,10-.11,5,.11,10,0,5,0,10,0,5-1.26,10-1.11,5,.23,10,.52,5,1.48,10,1.91,5-.57,10,0,5,1.85,10,2.59,5-.35,10,.57,5,1.14,10,2.24,5,2.25,10,3.53,5-.14,10,1.33,5,1.16,10,2.83,6.9-.61,9.44,4.65c2.67,5.57-1.89,3.62-4.08,7.65s-1.75,4.37-3.94,8.42-3.12,3.32-5.3,7.42-1,5.05-3.17,9.17S579,57.54,576.8,61.7s-2,4.3-4.21,8.5-4.16,2.89-4.16,8.18.74,5.23,2.92,10.64,2.46,5.36,4.64,10.8,2.06,5.47,4.25,11,2.17,5.49,4.36,11,2,5.54,4.18,11.1,1.07,6,4.3,11.38C596.59,150,600.69,151.61,598,155.15Z" style="fill:#00adff"/><path d="M180.71,81c0-11.42,7.68-18.08,16.84-18.61a14.39,14.39,0,0,1,10.95,3.71c-1.46,1.86-2.91,3.72-4.37,5.57a8.27,8.27,0,0,0-6.3-2.26c-5.06.29-8.7,4.38-8.7,11s3,10.67,9.39,10.3a6,6,0,0,0,3.26-1.08V84.15l-5.43.33V77.76q6.38-.35,12.75-.86v16a17.71,17.71,0,0,1-11.41,5C188.17,98.44,180.71,92.57,180.71,81Z" style="fill:#ff0"/><path d="M213.88,83c0-8.7,6.16-14.3,12.83-15s12.79,3.52,12.79,12.21-6.16,14.53-12.79,15.26S213.88,91.63,213.88,83Zm17.25-1.8c0-4.37-1.38-7-4.42-6.62s-4.46,3.23-4.46,7.61,1.38,6.94,4.46,6.6S231.13,85.5,231.13,81.18Z" style="fill:#ff0"/><path d="M262.45,62.46q-4.62.74-9.24,1.42V57.07q13.38-2,26.77-4.33v6.81c-3.1.54-6.19,1.06-9.29,1.58V88.55c-2.75.45-5.49.9-8.24,1.33Z" style="fill:#ff0"/><path d="M283.15,73.35A16.09,16.09,0,0,1,296,57.28c6.62-1.22,12.79,2.67,12.79,11.36A16.17,16.17,0,0,1,296,84.74C289.32,86,283.15,82,283.15,73.35Zm17.25-3.14c0-4.37-1.38-6.87-4.41-6.31s-4.46,3.58-4.46,7.95,1.38,6.83,4.46,6.27S300.4,74.54,300.4,70.21Z" style="fill:#ff0"/><path d="M331.73,49.9l-9.25,1.77V44.86q13.39-2.56,26.78-5.12v6.81L340,48.32V75.74l-8.23,1.58Z" style="fill:#ff0"/><path d="M353.9,46.92l6.67-1.23c.18,1.48.37,3,.55,4.45l.19,0c1.93-3.86,4.83-6.09,7.45-6.56a7,7,0,0,1,3.17,0l-1.38,7.28a10.36,10.36,0,0,0-2.85.1c-1.93.35-4.28,2-5.66,5.72v15L353.9,73.1Z" style="fill:#ff0"/><path d="M374.09,62.11c0-5.51,4.33-9.29,14.54-12.08-.18-2.09-1.29-3.15-4-2.7-2.07.34-4.23,1.54-6.85,3.46L375,45.91a25.32,25.32,0,0,1,11.27-5.38c6.76-1.12,10.58,2.08,10.58,10.27V65.66c-2.22.34-4.45.69-6.67,1l-.6-2.52-.18,0c-2.17,2.28-4.6,4-7.5,4.51C377,69.55,374.09,66.49,374.09,62.11Zm14.54-2.92V55c-5.11,1.53-6.76,3.29-6.76,5.13,0,1.52,1.1,2.06,2.8,1.78A6.38,6.38,0,0,0,388.63,59.19Z" style="fill:#ff0"/><path d="M400.45,38.92c2.75-.41,5.49-.81,8.24-1.2q1.57,5.81,3.17,11.61c.64,2.49,1.29,5.11,2,7.78l.23,0c.6-2.84,1.29-5.65,1.93-8.31q1.61-6.24,3.22-12.47c2.62-.33,5.25-.65,7.87-.95q-4.23,13.57-8.47,27.21c-3.16.4-6.32.83-9.47,1.27Q404.8,51.35,400.45,38.92Z" style="fill:#ff0"/><path d="M429.57,48.18c0-8.51,6.07-14.44,12.42-15,7.54-.67,11.23,4.59,11.22,11.75a15,15,0,0,1-.36,3.53c-5.13.35-10.25.79-15.37,1.29.74,3.52,3.22,4.75,6.53,4.46a11.56,11.56,0,0,0,5.52-2.11c.91,1.57,1.81,3.15,2.72,4.73a18.78,18.78,0,0,1-9.39,3.74C435.36,61.22,429.57,56.83,429.57,48.18Zm16.7-4.57c0-2.62-1.15-4.46-4.14-4.2-2.26.21-4.23,1.83-4.79,5C440.32,44.13,443.29,43.86,446.27,43.61Z" style="fill:#ff0"/><path d="M458.46,50.25V22q4.07-.24,8.14-.41V50.16c0,1.7.83,2.18,1.47,2.15a3.82,3.82,0,0,0,.92-.13c.32,2,.65,4,1,6a11.08,11.08,0,0,1-4,.84C460.3,59.27,458.46,55.73,458.46,50.25Z" style="fill:#ff0"/><path d="M164.91,137.16c-1.38.07-3.49.38-5.24.61-2,.25-5.43.68-9.2,1.06.64,3.4,1.19,6.28,1.52,7.86.32,1.4.78,3.12,1.19,4.75q-4,.5-8,.9c-.23-1.81-.33-3.47-.6-4.87s-.78-4.38-1.43-7.93c-4.37.4-8.32.69-10.21.85-2.07.14-3.82.26-4.88.4l-1.56-7.55a48.24,48.24,0,0,0,5.15.06c2-.09,5.94-.28,10.26-.62l-1.2-6.4c-3.81.28-7.13.47-8.37.57-1.66.13-2.94.31-4.51.53l-1.47-7.78c1.61.11,3.08.2,4.51.18s4.78-.11,8.56-.38c-.25-1.29-.49-2.59-.74-3.88s-.64-2.59-1-3.77q3.93-.25,7.86-.6c.14.93.28,2.64.51,3.81.09.69.37,2.09.69,3.91,3.54-.32,6.67-.72,8.14-.93s3.59-.59,4.88-.92c.44,2.44.89,4.87,1.33,7.31-1.19.06-3.31.31-4.78.43-2.78.34-5.55.64-8.33.91l1.2,6.37c3.82-.41,7.27-.87,9.2-1.17s3.73-.72,5.06-1.06Z" style="fill:#ff0"/><path d="M193.61,139.06a41.55,41.55,0,0,0,6.17-7.93c-1.06.25-4.65,1.2-8.79,2.26,1.7,6.09,3.5,12.58,4.28,15.11.23.77,1,3.12,1.34,4.07-2.52.75-5,1.49-7.55,2.2a30.54,30.54,0,0,0-.92-4.38c-.74-2.64-2.44-9.25-4-15.28-3.54.89-6.67,1.62-8.14,1.95q-.85-3.3-1.7-6.61c1.51-.15,2.85-.3,4.46-.6.6-.1,2-.36,3.77-.72-.37-1.47-.73-2.79-1.06-3.75a19.11,19.11,0,0,0-1.42-3.51c2.48-.63,5-1.29,7.45-2,.18,1.24.51,2.56.78,3.75l1.11,4c5.42-1.27,11.13-2.73,13.06-3.28a12.89,12.89,0,0,0,2.62-1l4.51,2.83a86.29,86.29,0,0,1-9.8,15.61Q196.67,140.43,193.61,139.06Z" style="fill:#ff0"/><path d="M236.49,134.83A53.34,53.34,0,0,0,254.06,114l4.32,7.22c-3.68,7.1-10.21,14.47-17.89,20a52.49,52.49,0,0,1-16.47,8q-2.37-3.42-4.74-6.87A50,50,0,0,0,236.49,134.83Zm1.56-15.24-5.7,6.55a87.33,87.33,0,0,0-11.55-8.8c1.76-2.07,3.53-4.14,5.29-6.22A82.9,82.9,0,0,1,238.05,119.59Z" style="fill:#ff0"/><path d="M265.92,123.94c2-2.35,5.39-7.09,8.7-11.61,2.9-3.94,5.75-4.76,9.75-2.06a85,85,0,0,1,9.34,7.57c3.08,2.75,8.14,7.19,11.41,10.35l-6,7.66c-2.8-3.07-6.94-7.65-9.52-10.27a90.1,90.1,0,0,0-8.19-7.51c-1.42-1-2.34-.88-3.49.83-1.61,2.4-4.6,7.18-6.35,10-1.11,1.79-2.26,3.73-3.13,5.21l-6.58-5.71A59.94,59.94,0,0,0,265.92,123.94ZM297,101.22a5,5,0,0,1,6.21,5,7.73,7.73,0,0,1-6.21,7.32,4.94,4.94,0,0,1-6.16-5A7.7,7.7,0,0,1,297,101.22Zm0,8.88a3.35,3.35,0,0,0,2.67-3.17,2.16,2.16,0,0,0-2.67-2.17,3.35,3.35,0,0,0-2.66,3.16A2.16,2.16,0,0,0,297,110.1Z" style="fill:#ff0"/><path d="M310.59,111.28c1.84-.21,5.7-.76,8-1.19,8.14-1.56,16.29-3.14,24.43-4.69,2.07-.39,4.32-1.05,5.66-1.39v8.78c-1.2.18-3.78.44-5.66.8l-24.43,4.68c-2.62.51-6.07,1.3-8,1.8Z" style="fill:#ff0"/><path d="M374.49,110.59c8.28-6.23,14.49-14.37,17.57-21.35l4.32,7.18c-3.68,7.11-10.21,14.55-17.89,20.38a61.58,61.58,0,0,1-16.47,9l-4.74-6.49A58.67,58.67,0,0,0,374.49,110.59Zm1.56-15.31-5.7,6.85a72,72,0,0,0-11.55-8l5.29-6.63A70,70,0,0,1,376.05,95.28Z" style="fill:#ff0"/><path d="M436.4,86.07c-1.61,1.13-3.26,2.17-5.1,3.29a128.63,128.63,0,0,0-12.06,7.77c-3.54,2.75-6.07,5.54-6.07,8.53s2.9,4,8.74,3.29a94.76,94.76,0,0,0,15-3.43c0,2.66-.07,5.31-.1,8a104.86,104.86,0,0,1-14.76,2.79c-9.39,1.16-16.61-.29-16.61-8.71,0-5.2,3.22-9.4,7.41-13.14A136.45,136.45,0,0,1,406.64,82q3.47-1.9,6.95-3.78a82.89,82.89,0,0,0,5.47,11.43c3.36-2.36,6.81-4.56,8.79-5.94a39.11,39.11,0,0,0,4.74-3.6Z" style="fill:#ff0"/><path d="M458.48,75.15a46.22,46.22,0,0,0-1.24,4.72,131.42,131.42,0,0,0-2.12,17.34,7.89,7.89,0,0,0,.05,1.06c.55-1.38,1.1-2.28,1.7-3.66l3.36,2.48c-1.38,4.17-2.76,8.85-3.31,11.51a14,14,0,0,0-.28,2.18c0,.5,0,1.33.05,2.06q-3.1.41-6.21.84a50.56,50.56,0,0,1-1.89-14.44,143.39,143.39,0,0,1,1.79-19c.19-1.4.46-3.49.51-5.19C453.42,75,456,75.08,458.48,75.15Zm27.1,34.27a48,48,0,0,0-4.88-4.12c-.6,4.29-3.4,7-9.38,7.13-6.4.21-10.63-2.3-10.63-7.46s4.19-8.62,10.53-8.82c.79,0,1.57,0,2.31,0-.14-2.39-.28-5.19-.33-8.05-.87.07-1.74.1-2.57.13-2.72.09-5.43.11-8.15.06,0-2.19,0-4.39,0-6.58q4,.21,8.14.08c.88,0,1.7-.06,2.58-.13-.05-2.11-.05-3.81-.09-4.64a23.93,23.93,0,0,0-.37-3.12q3.93-.11,7.86-.15c-.13.88-.23,2-.27,3s-.09,2.4-.14,4.28c2.3-.25,4.55-.62,6.62-1v6.86c-2,.26-4.27.54-6.67.75.1,4.14.33,7.41.46,10.07a27.83,27.83,0,0,1,8.74,5.9Zm-11.82-7.59a11.44,11.44,0,0,0-3.09-.33c-2.11.07-3.54,1-3.54,2.39,0,1.61,1.61,2.09,3.54,2,2.21-.07,3.09-1.28,3.09-3.77Z" style="fill:#ff0"/><path d="M518.05,86.8c0-2.53-2.16-3.89-5.2-4.12a7.78,7.78,0,0,0-6.57,2.88l-4.51-4.38a14.23,14.23,0,0,1,12.05-5.05c6.76.53,12,4.16,12,10.74S516.35,93,516.76,99.1q-3.59-.31-7.17-.55C508.85,91.48,518.05,90.81,518.05,86.8Zm-4.87,14.68a5.54,5.54,0,0,1,5.43,5.47c0,3-2.26,4.89-5.43,4.65a5.55,5.55,0,0,1-5.43-5.48C507.75,103.17,510,101.23,513.18,101.48Z" style="fill:#ff0"/><polygon points="46.89 45.45 46.99 44.11 47.7 42.93 47.47 41.57 46.54 40.66 45.74 39.69 45.3 38.55 45.11 37.27 44.17 36.38 43.72 35.23 43.17 34.14 42.41 33.16 42.08 31.96 41.74 30.76 40.97 29.78 40.45 28.67 39.63 27.71 39.19 26.55 39.25 25.15 38.3 24.26 37.97 23.05 36.92 22.2 36.7 20.93 36.19 19.83 37.09 19.08 37.48 17.8 38.76 17.27 39.57 16.35 39.9 15.02 40.67 14.07 41.71 13.32 42.51 12.38 43.06 11.26 43.49 10.07 44.54 9.3 45.25 8.29 45.57 7.06 46.6 6.22 47.06 5.06 47.26 3.83 47.4 2.63 47.17 1.51 47.18 0.08 45.78 0 44.63 0.2 43.33 0.12 42.3 0.84 41.35 1.63 40.38 2.35 38.98 2.53 38.55 3.96 37.54 4.65 36.13 4.91 35.7 6.26 34.35 6.62 33.64 7.66 32.67 8.43 32.09 9.58 30.92 10.16 30.23 11.21 29.66 12.36 28.59 13.08 27.48 12.56 26.34 12.09 25.17 11.73 24.02 11.31 22.82 11.03 21.8 10.28 20.58 10.03 19.54 9.35 18.39 8.93 17.18 8.65 16.2 7.81 14.79 8.06 13.69 7.49 12.48 7.23 11.62 6.05 10.28 6.11 9.09 5.8 8.17 4.76 6.88 4.69 5.76 4.15 4.48 3.85 3.3 4.43 2.34 5.13 1.34 6.28 0.25 7.34 0 8.35 0.26 9.9 1.72 9.96 2.55 10.94 3.37 11.94 4.75 12.11 5.43 13.33 6.89 13.39 7.9 14.11 8.71 15.14 9.54 16.13 10.83 16.45 11.84 17.18 12.71 18.12 14.09 18.3 14.94 19.27 16.09 19.79 17.12 20.49 17.95 21.5 19.28 21.74 20.11 22.71 19.46 23.8 18.6 24.72 17.63 25.55 16.75 26.46 16.24 27.67 14.96 28.23 14.63 29.61 13.83 30.58 12.51 31.11 11.98 32.3 11.34 33.39 10.35 34.48 9.14 33.62 7.86 33.25 6.64 32.63 5.28 32.52 3.86 32.56 2.93 32.46 2.08 32.89 1.13 33.53 0.35 34.99 1.13 36.58 2.62 36.76 3.52 37.66 4.33 38.7 5.21 39.65 6.26 40.38 7.33 41.09 6.91 42.29 6.56 43.46 7.06 44.38 7.99 44.5 9.15 44.32 10.4 43.59 11.48 44.41 12.31 45.37 12.81 46.68 14.18 47.12 14.88 48.24 15.54 49.38 17.07 50.08 18.24 49.03 18.94 48.16 19.33 47.31 19.6 46.2 19.11 44.95 18.29 43.85 17.85 42.58 17.25 41.38 16.92 40.08 17.89 39.33 18.86 38.53 19.75 37.65 20.09 36.24 21.43 35.78 22.25 34.83 22.7 33.53 24.08 33.11 24.87 32.12 25.38 30.88 26.67 30.36 27.32 29.17 28.1 30.21 28.89 31.17 29.75 32.07 30.74 32.87 31.46 33.88 32.17 34.91 32.81 35.98 33.28 37.21 34.22 38.05 34.96 39.06 36.21 39.66 36.51 41.02 37.83 41.55 38.3 42.77 39.44 43.45 39.97 44.63 41.06 45.33 41.49 46.6 42.39 47.45 43.58 48.43 45.14 47.95 46.11 46.8 46.89 45.45" style="fill:#00adff"/></g></g></svg>