<svg xmlns="http://www.w3.org/2000/svg" viewBox="0 0 529.68 69.48"><g id="レイヤー_2" data-name="レイヤー 2"><g id="テキスト"><path d="M529.28,62c-.9,1.42-1.76-.06-3.55-.32s-1.79-.58-3.58-.82-1.8.19-3.59,0-1.79-.29-3.59-.51-1.79-.55-3.58-.76-1.8,0-3.59-.26-1.79-.18-3.58-.37-1.8-.56-3.59-.74-1.79-.23-3.58-.41-1.79-.2-3.59-.36-1.79.2-3.58,0-1.79-.12-3.58-.26-1.79-.38-3.59-.51-1.79.29-3.58.17-1.79-.65-3.58-.77-1.79,0-3.58-.05-1.8.32-3.59.23-1.79-.2-3.58-.29-1.79-.15-3.58-.23-1.8-.11-3.59-.18-1.79-.46-3.58-.52-1.8.2-3.59.14-1.79-.33-3.59-.37-1.79,0-3.58-.07-1.8.56-3.59.53-1.79,0-3.59,0-1.79-.31-3.58-.33-1.79-.21-3.58-.22-1.8.51-3.59.51-1.79-.39-3.58-.39-1.79-.24-3.59-.23-1.79.38-3.58.4-1.79.17-3.58.2-1.8,0-3.59.08-1.79-.08-3.58,0-1.8-.14-3.59-.1-1.79.2-3.59.25-1.79-.29-3.58-.23-1.8.59-3.59.65-1.79-.07-3.59,0-1.79-.12-3.58,0-1.79-.26-3.59-.18-1.79.09-3.58.17-1.79.29-3.59.37-1.79.38-3.58.46-1.79-.39-3.59-.3-1.79.55-3.58.64-1.79-.21-3.59-.11-1.79.46-3.58.56-1.8-.27-3.59-.16-1.8,0-3.59.07-1.79.41-3.59.52-1.79.19-3.58.3-1.79-.32-3.59-.21-1.79.16-3.58.28-1.79.61-3.59.73-1.79.17-3.58.3-1.8-.18-3.59-.06-1.79-.12-3.59,0-1.79.32-3.58.45-1.8.41-3.59.54-1.8-.3-3.59-.17-1.79.26-3.58.39-1.8.58-3.59.71l-3.59.25c-1.79.14-1.79-.27-3.58-.13s-1.8.1-3.59.24-1.79.19-3.59.33-1.79.27-3.59.41-1.79.11-3.58.25-1.8-.17-3.59,0-1.79.73-3.58.86-1.8-.46-3.59-.33l-3.59.27c-1.79.13-1.79.66-3.59.79s-1.79-.12-3.58,0-1.8.23-3.59.36-1.8.08-3.59.21-1.79.43-3.59.56-1.79-.5-3.58-.38-1.8.53-3.59.65-1.79-.1-3.59,0-1.79-.11-3.59,0-1.79.23-3.58.35-1.79.17-3.59.28-1.79.22-3.58.33-1.79.49-3.58.6-1.79-.49-3.58-.39-1.79.48-3.59.59-1.79,0-3.58.09-1.8-.12-3.59,0-1.8.56-3.59.65-1.79.21-3.59.3-1.79-.07-3.58,0-1.79-.24-3.58-.16-1.8-.06-3.59,0-1.79.33-3.58.4-1.8,0-3.59.1-1.8.12-3.59.18l-3.59.11c-1.79.06-1.79.22-3.58.27s-1.8.13-3.59.17-1.79-.06-3.59,0-1.79-.11-3.59-.07-1.79-.22-3.59-.19-1.79,0-3.58,0-1.8.18-3.59.19-1.79.15-3.59.16-1.79-.13-3.59-.13-1.79-.11-3.59-.11-1.79,0-3.59,0-1.79.46-3.59.44l-3.59-.07c-1.79,0-1.79-.44-3.58-.47s-1.8.34-3.59.3-1.8-.49-3.59-.54-1.8.36-3.59.3-1.8-.12-3.59-.19-1.8-.47-3.59-.54-1.8.45-3.6.36-1.79.05-3.59,0-1.79-.67-3.59-.77-1.79,0-3.58-.08-1.8,0-3.6-.07S82.82,67.17,81,67s-1.8.35-3.59.21-1.8-.1-3.59-.25-1.8-.08-3.59-.24-1.8-.11-3.59-.28-1.8-.71-3.6-.89-1.79-.08-3.59-.27-1.8-.24-3.59-.44l-3.6-.42c-1.79-.22-1.79-.29-3.59-.52s-1.8-.29-3.59-.53-1.8,0-3.6-.29-1.8.2-3.6,0-2.57.76-3.48-.93.89-1.42,1.67-3,.48-1.8,1.27-3.41S38,54,38.74,52.35s.88-1.56,1.66-3.18,1.09-1.44,1.87-3.06.47-1.81,1.26-3.44,1.65-1.25,1.65-3.15-.77-1.77-1.56-3.6-.95-1.78-1.74-3.61-.6-1.9-1.39-3.73-.61-1.9-1.39-3.73-1-1.79-1.75-3.63-.76-1.85-1.55-3.7S33.07,15.09,34,13.59s2.07.25,3.87.51,1.79.81,3.58,1.05,1.79-.11,3.59.13,1.79.43,3.58.66,1.8-.22,3.59,0,1.79.51,3.59.72,1.79.23,3.58.43,1.79.29,3.59.47,1.79-.26,3.58-.09,1.79.67,3.58.83,1.79.18,3.59.33,1.79-.32,3.58-.18l3.58.27c1.79.13,1.79.41,3.58.53s1.8.18,3.59.29,1.79-.07,3.58,0,1.79-.18,3.58-.08S97,20,98.83,20s1.79.13,3.58.21,1.79-.2,3.59-.13,1.79.48,3.58.54,1.79,0,3.59.07,1.79-.14,3.58-.1,1.8,0,3.59,0,1.79-.11,3.59-.08,1.79.65,3.58.67,1.79-.41,3.59-.4,1.79-.1,3.58-.09,1.79.39,3.58.39,1.8-.17,3.59-.18,1.79-.17,3.58-.18,1.79-.06,3.59-.08,1.79.53,3.58.5,1.79-.71,3.58-.74,1.8.05,3.59,0,1.79.55,3.59.5,1.79-.61,3.58-.66,1.8.48,3.59.43,1.79-.26,3.59-.32,1.79.05,3.58,0,1.8-.39,3.59-.46,1.79.29,3.58.21,1.8-.25,3.59-.33,1.79-.37,3.58-.46,1.79.16,3.59.07,1.79,0,3.58-.11,1.79-.07,3.59-.16,1.79-.17,3.58-.26,1.8-.13,3.59-.23,1.79-.24,3.59-.35,1.79.17,3.59.06,1.79-.28,3.58-.39,1.79.1,3.59,0,1.79-.13,3.58-.25,1.8-.26,3.59-.38,1.79.22,3.58.1,1.8-.72,3.59-.84,1.79,0,3.59-.14,1.79-.28,3.58-.41,1.8.51,3.59.38,1.79-.56,3.59-.69,1.79-.25,3.58-.38,1.8.38,3.59.25,1.79-.46,3.59-.59,1.79-.06,3.58-.19,1.8-.06,3.59-.19,1.79-.41,3.59-.55,1.79-.17,3.58-.31,1.8-.2,3.59-.34,1.8-.1,3.59-.23,1.79-.17,3.59-.31,1.79.43,3.58.29,1.79-.74,3.59-.88,1.79.15,3.59,0,1.79.17,3.58,0,1.8-.64,3.59-.78,1.79.39,3.59.26,1.79-.75,3.59-.87,1.79-.1,3.58-.22,1.8.19,3.59.07,1.79.16,3.59,0,1.79-.49,3.59-.61,1.79-.08,3.58-.2,1.8.12,3.59,0,1.79-.61,3.58-.72,1.79.16,3.58.05,1.8-.28,3.59-.39l3.58-.2c1.79-.1,1.79.2,3.58.1s1.8-.53,3.59-.62,1.8.18,3.59.09,1.79-.27,3.59-.36,1.79,0,3.58-.14,1.79.07,3.59,0,1.79,0,3.58-.1,1.79-.4,3.59-.48,1.79.42,3.58.35S383.91,7,385.7,7s1.79-.08,3.59-.14,1.79.48,3.59.42,1.79-.34,3.58-.39,1.79-.21,3.59-.26,1.79-.08,3.58-.12,1.8.35,3.59.32,1.8,0,3.59-.07,1.8.17,3.59.15,1.79-.26,3.59-.27,1.79-.38,3.59-.39,1.79,0,3.59,0,1.79.06,3.58.06,1.8.23,3.59.25,1.8.25,3.59.27,1.8.06,3.59.09,1.8-.61,3.59-.58,1.8.15,3.59.2,1.8.28,3.59.33,1.8.21,3.59.26,1.8,0,3.59.06,1.8,0,3.59,0,1.8-.08,3.59,0,1.8.15,3.59.24,1.8-.06,3.59,0,1.8,0,3.59.14,1.8.29,3.59.41,1.8.11,3.59.24,1.79,0,3.59.13,1.79.21,3.59.36,1.8.61,3.59.77,1.8-.38,3.59-.21,1.8.41,3.59.59,1.8.45,3.6.64,1.79.25,3.59.45,1.8-.2,3.59,0,1.8.16,3.6.38l3.59.45c1.8.24,1.8.61,3.59.86s1.8.27,3.6.53,2.79-1.36,3.7.33-.84,1.67-1.63,3.28-.72,1.65-1.5,3.26-.93,1.53-1.72,3.15-.89,1.55-1.67,3.17S522,28,521.22,29.67s-.8,1.61-1.59,3.24-1,1.54-1,3.44.28,1.85,1.07,3.68.83,1.82,1.62,3.65,1.2,1.7,2,3.54.28,2,1.07,3.84.86,1.81,1.65,3.65a13.32,13.32,0,0,0,1.9,3.54C529.18,60.06,530.23,60.53,529.28,62Z" style="fill:#00adff"/><path d="M77.7,43.44c0-6.57,4.42-10,9.7-9.65a9.39,9.39,0,0,1,6.31,3l-2.52,2.88a5.38,5.38,0,0,0-3.63-1.76c-2.92-.19-5,1.94-5,5.79S84.3,50,88,50.21a3.3,3.3,0,0,0,1.89-.39V46.64l-3.13-.19V42.57c2.45.16,4.89.31,7.34.44v9.23a9.15,9.15,0,0,1-6.57,2C82,53.91,77.7,50.12,77.7,43.44Z" style="fill:#ff0"/><path d="M96.8,46.89c0-5,3.56-7.74,7.4-7.58s7.37,3.18,7.37,8.19-3.56,7.79-7.37,7.63S96.8,51.88,96.8,46.89Zm9.94.44c0-2.52-.79-4.14-2.54-4.21s-2.57,1.48-2.57,4,.79,4.12,2.57,4.19S106.74,49.82,106.74,47.33Z" style="fill:#ff0"/><path d="M124.79,39.53l-5.33-.1V35.51q7.71.16,15.43.2v3.92l-5.36,0v15.8l-4.74-.06Z" style="fill:#ff0"/><path d="M136.71,47.9c0-5,3.55-7.91,7.4-7.94s7.36,2.85,7.36,7.86-3.55,8-7.36,8S136.71,52.89,136.71,47.9Zm9.94,0c0-2.52-.79-4.1-2.54-4.09s-2.57,1.6-2.57,4.12.79,4.08,2.57,4.07S146.65,50.36,146.65,47.87Z" style="fill:#ff0"/><path d="M164.7,39.3l-5.33.12V35.5q7.71-.16,15.42-.42V39l-5.35.17V55l-4.74.13Z" style="fill:#ff0"/><path d="M177.47,39.62l3.84-.14c.11.87.21,1.74.32,2.61h.11A5.42,5.42,0,0,1,186,38.92a4.14,4.14,0,0,1,1.83.24c-.27,1.36-.53,2.73-.8,4.09a6,6,0,0,0-1.64-.17c-1.11.05-2.47.82-3.26,2.84v8.61l-4.69.17Z" style="fill:#ff0"/><path d="M189.1,50c0-3.19,2.49-5,8.38-5.93-.11-1.22-.75-1.9-2.28-1.83a8.76,8.76,0,0,0-3.95,1.51c-.55-1-1.1-2-1.64-3a13.06,13.06,0,0,1,6.49-2.28c3.89-.19,6.09,1.86,6.09,6.58v8.56l-3.84.2c-.11-.5-.23-1-.34-1.5h-.11a6.81,6.81,0,0,1-4.32,2.09A4.13,4.13,0,0,1,189.1,50Zm8.38-.66V47c-2.95.54-3.9,1.43-3.9,2.49,0,.88.64,1.27,1.62,1.22A3.12,3.12,0,0,0,197.48,49.37Z" style="fill:#ff0"/><path d="M204.29,38.42l4.74-.26L210.86,45c.37,1.46.74,3,1.14,4.57h.13c.35-1.61.74-3.19,1.11-4.7l1.86-7,4.53-.28q-2.43,7.69-4.88,15.38l-5.45.31Z" style="fill:#ff0"/><path d="M221.06,45c0-4.9,3.5-8.14,7.16-8.38,4.34-.28,6.46,2.72,6.46,6.86a8.58,8.58,0,0,1-.21,2l-8.85.58c.42,2,1.85,2.8,3.76,2.67a6.42,6.42,0,0,0,3.18-1.16l1.57,2.73a10.28,10.28,0,0,1-5.41,2.08C224.4,52.69,221.06,50,221.06,45Zm9.62-2.31c0-1.51-.66-2.58-2.38-2.47a3,3,0,0,0-2.76,2.8Z" style="fill:#ff0"/><path d="M237.7,46.53V30.26l4.69-.32V46.4c0,1,.48,1.23.85,1.21a2.23,2.23,0,0,0,.53-.09c.19,1.14.37,2.29.56,3.43a6.38,6.38,0,0,1-2.33.56C238.76,51.74,237.7,49.69,237.7,46.53Z" style="fill:#ff0"/><path d="M275,41.35c-.8.11-2,.42-3,.65l-5.31,1.25c.38,1.91.69,3.53.88,4.41s.45,1.75.69,2.66l-4.61,1.13c-.14-1-.19-2-.35-2.75s-.45-2.46-.82-4.45c-2.52.61-4.8,1.18-5.88,1.47s-2.2.56-2.81.76l-.9-4.17c.74-.08,2.06-.34,3-.54l5.91-1.36c-.22-1.19-.45-2.39-.68-3.58-2.2.51-4.11,1-4.83,1.15-.95.26-1.69.5-2.6.8l-.84-4.31c.92-.12,1.77-.24,2.59-.4s2.76-.58,4.93-1.08l-.42-2.17c-.19-.78-.37-1.43-.58-2.08l4.53-1c.08.53.16,1.5.29,2.15.05.4.21,1.18.4,2.2,2-.47,3.84-.92,4.69-1.15s2.07-.58,2.81-.84c.25,1.37.51,2.75.77,4.13-.69.1-1.91.38-2.76.55l-4.8,1.13.69,3.58c2.2-.54,4.19-1,5.3-1.33s2.15-.64,2.92-.91C274.45,38.58,274.73,40,275,41.35Z" style="fill:#ff0"/><path d="M291.55,41.48a25.06,25.06,0,0,0,3.55-4.64c-.61.15-2.67.73-5.06,1.42,1,3.47,2,7.19,2.47,8.64.13.44.55,1.78.76,2.32l-4.34,1.39a17.42,17.42,0,0,0-.53-2.5c-.43-1.51-1.41-5.28-2.34-8.71l-4.69,1.39c-.32-1.25-.65-2.49-1-3.74.88-.15,1.65-.28,2.57-.51l2.18-.54c-.22-.83-.43-1.58-.61-2.13a11.36,11.36,0,0,0-.82-2L288,30.56c.11.71.29,1.47.45,2.14s.42,1.51.64,2.26c3.12-.84,6.41-1.73,7.52-2.05a7.55,7.55,0,0,0,1.51-.59l2.6,1.64a51.48,51.48,0,0,1-5.64,9Z" style="fill:#ff0"/><path d="M316.25,39.45a28.37,28.37,0,0,0,10.12-11.31q1.25,2.19,2.5,4.36a31.88,31.88,0,0,1-10.32,10.76,30.48,30.48,0,0,1-9.48,4.18l-2.73-4A29.64,29.64,0,0,0,316.25,39.45Zm.9-8.73-3.29,3.6A48.59,48.59,0,0,0,307.21,29l3.05-3.48A47.16,47.16,0,0,1,317.15,30.72Z" style="fill:#ff0"/><path d="M333.21,34.47c1.16-1.25,3.1-3.78,5-6.18,1.67-2.1,3.31-2.39,5.62-.57a58.37,58.37,0,0,1,5.38,5c1.77,1.8,4.69,4.73,6.57,6.8l-3.47,4c-1.62-2-4-4.91-5.49-6.59A57.56,57.56,0,0,0,342.11,32c-.82-.67-1.35-.66-2,.25-.93,1.28-2.65,3.86-3.66,5.35-.64,1-1.3,2-1.8,2.82l-3.79-3.64C331.7,36.05,332.33,35.4,333.21,34.47Zm17.91-11.08a3.33,3.33,0,0,1,3.58,3.37,3.8,3.8,0,0,1-3.58,3.76,3.29,3.29,0,0,1-3.55-3.34A3.81,3.81,0,0,1,351.12,23.39Zm0,5.12a1.65,1.65,0,0,0,1.54-1.63,1.44,1.44,0,0,0-1.54-1.45,1.65,1.65,0,0,0-1.53,1.63A1.44,1.44,0,0,0,351.12,28.51Z" style="fill:#ff0"/><path d="M358.94,30.22c1.06,0,3.29,0,4.58-.06q7-.36,14.08-.65c1.19-.05,2.49-.24,3.26-.32v5.06c-.69,0-2.18-.07-3.26,0q-7,.29-14.08.65c-1.51.08-3.49.26-4.58.4Z" style="fill:#ff0"/><path d="M395.75,35.21a26.64,26.64,0,0,0,10.12-10.84l2.5,4.49a29.87,29.87,0,0,1-10.32,10.26,29.53,29.53,0,0,1-9.48,3.78l-2.73-4.14A28.72,28.72,0,0,0,395.75,35.21Zm.9-8.69L393.36,30a50.73,50.73,0,0,0-6.65-5.59L389.76,21A50.2,50.2,0,0,1,396.65,26.52Z" style="fill:#ff0"/><path d="M431.42,25.78c-.93.55-1.88,1-2.94,1.57a65.81,65.81,0,0,0-7,3.66c-2,1.33-3.5,2.75-3.5,4.47s1.67,2.53,5,2.52a48.06,48.06,0,0,0,8.67-1l-.06,4.58a52,52,0,0,1-8.5.64c-5.41,0-9.57-1.39-9.57-6.24,0-3,1.85-5.17,4.27-7-1.22-2.25-2.44-4.91-3.61-7.66l4-1.65a55.27,55.27,0,0,0,3.16,7c1.93-1.12,3.92-2.15,5.06-2.81a19.93,19.93,0,0,0,2.73-1.77C430,23.31,430.69,24.54,431.42,25.78Z" style="fill:#ff0"/><path d="M444.14,20.68a25.61,25.61,0,0,0-.72,2.67,72.85,72.85,0,0,0-1.22,9.88,4.29,4.29,0,0,0,0,.61c.32-.76.64-1.26,1-2l1.93,1.58a67.08,67.08,0,0,0-1.9,6.48,8,8,0,0,0-.16,1.24c0,.29,0,.77,0,1.2l-3.57.17a30.23,30.23,0,0,1-1.09-8.42,80.27,80.27,0,0,1,1-10.88,27.24,27.24,0,0,0,.29-3Zm15.61,20.69a31.7,31.7,0,0,0-2.81-2.5c-.35,2.46-2,3.93-5.41,3.82-3.68-.11-6.12-1.75-6.12-4.72s2.41-4.78,6.07-4.66c.45,0,.9,0,1.32.09-.08-1.38-.16-3-.18-4.64-.5,0-1,0-1.49,0-1.56,0-3.12-.15-4.69-.29,0-1.26,0-2.53,0-3.79,1.53.2,3.1.32,4.69.37.5,0,1,0,1.48,0,0-1.22,0-2.2,0-2.68a13.63,13.63,0,0,0-.21-1.81l4.53.16c-.08.5-.13,1.16-.16,1.74s-.05,1.38-.08,2.46c1.33-.08,2.62-.24,3.82-.43v4c-1.17.11-2.47.21-3.85.27.06,2.39.19,4.27.27,5.81a17.6,17.6,0,0,1,5,3.6Zm-6.81-4.7a6.77,6.77,0,0,0-1.78-.3c-1.22,0-2,.42-2,1.24s.93,1.27,2,1.31c1.27,0,1.78-.64,1.78-2.07Z" style="fill:#ff0"/><path d="M478.46,28.49c0-1.45-1.25-2.2-3-2.31a4.54,4.54,0,0,0-3.79,1.68c-.86-.85-1.73-1.69-2.6-2.53A8.36,8.36,0,0,1,476,22.4c3.89.24,6.94,2.2,6.94,6s-5.48,3.69-5.25,7.21l-4.13-.26C473.16,31.28,478.46,30.82,478.46,28.49ZM475.65,37a3.12,3.12,0,0,1,3.12,3.1,2.71,2.71,0,0,1-3.12,2.73,3.15,3.15,0,0,1-3.13-3.13A2.7,2.7,0,0,1,475.65,37Z" style="fill:#ff0"/><polygon points="26.91 26.14 27.19 25.53 27.28 24.86 27.09 24.22 27.13 23.42 26.43 23 26.29 22.29 26.17 21.57 25.53 21.11 25.54 20.31 24.83 19.89 24.53 19.25 24.42 18.52 24.29 17.8 23.74 17.29 23.44 16.65 23.28 15.94 22.65 15.47 22.5 14.76 22.07 14.19 21.76 13.55 21.64 12.82 21.05 12.33 20.91 11.6 21.29 10.99 21.77 10.48 22.32 10.02 22.82 9.5 23.09 8.81 23.81 8.48 23.96 7.7 24.37 7.14 25.1 6.8 25.34 6.11 25.63 5.46 25.98 4.86 26.57 4.39 26.9 3.76 27.32 3.17 27.4 2.43 27.29 1.71 27.28 1.08 27 0.54 26.46 0.13 25.72 0 25.01 0.19 24.57 0.91 23.94 1.19 23.26 1.43 22.63 1.76 22.11 2.24 21.61 2.74 21.15 3.29 20.6 3.73 20.17 4.3 19.7 4.82 19.12 5.23 18.63 5.73 18.21 6.31 17.69 6.79 16.97 7.08 16.58 7.94 15.92 7.52 15.34 7.09 14.71 6.8 13.96 6.81 13.29 6.59 12.63 6.35 12.07 5.84 11.43 5.57 10.7 5.5 10.06 5.2 9.39 4.99 8.78 4.63 8.15 4.3 7.52 3.98 6.87 3.71 6.06 3.85 5.53 3.25 4.86 3.03 4.08 3.08 3.56 2.45 2.77 2.38 2.11 2.8 1.31 2.94 0.85 3.71 0.21 4.3 0 5.04 0.48 5.69 1.16 5.96 1.73 6.39 2.28 6.84 2.82 7.32 3.28 7.92 3.93 8.22 4.5 8.65 5.28 8.76 5.67 9.46 6.48 9.53 6.95 10.13 7.69 10.31 8.17 10.87 8.9 11.07 9.34 11.7 9.99 12.02 10.48 12.58 11.02 13.05 11.5 13.26 11.2 13.74 10.71 14.28 10.15 14.75 9.81 15.4 9.5 16.09 9.06 16.66 8.48 17.12 8.02 17.67 7.46 18.13 7.15 18.82 6.76 19.43 6.14 19.79 5.4 19.64 4.65 19.49 3.94 19.16 3.16 19.08 2.45 18.78 1.81 18.56 1.32 19.02 0.71 19.33 0.62 20.27 1.02 20.98 1.63 21.4 2.2 21.84 2.84 22.21 3.34 22.77 3.97 23.15 4.61 23.66 4.18 24.48 3.65 25.13 4.09 25.85 4.78 25.75 5.42 25.58 6.15 25.26 6.68 25.79 7.24 26.26 7.8 26.74 8.09 27.48 8.7 27.91 9.18 28.47 9.98 28.66 10.62 28.3 11.04 27.82 11.53 27.39 11.34 26.76 11.16 26.01 10.84 25.31 10.28 24.71 10.04 23.97 9.72 23.23 10.55 22.88 10.74 22.06 11.35 21.65 11.71 21.01 12.54 20.81 12.73 19.99 13.37 19.61 13.83 19.05 14.25 18.45 14.88 18.06 15.25 17.41 15.88 17.14 16.39 17.48 16.78 18.09 17.37 18.52 17.71 19.16 18.15 19.72 18.56 20.3 19.11 20.77 19.57 21.31 19.84 22.01 20.5 22.41 21 22.93 21.34 23.57 21.7 24.21 22.09 24.81 22.84 25.12 23.01 25.91 23.58 26.37 24 26.95 24.34 27.57 25.21 27.74 25.98 27.63 26.39 26.85 26.91 26.14" style="fill:#00adff"/></g></g></svg>