<svg xmlns="http://www.w3.org/2000/svg" viewBox="0 0 156 82"><g id="レイヤー_2" data-name="レイヤー 2"><g id="テキスト"><rect width="156" height="82" style="fill:#ff0"/><path d="M16.45,49.44A9.58,9.58,0,0,1,19,49.06c1.79,0,3.15,1,3.15,2.52S21.29,54,19.5,54.45a8,8,0,0,1-1.52.17l-.44-1.22A7.64,7.64,0,0,0,19,53.31c1-.18,1.91-.72,1.91-1.74s-.85-1.44-1.95-1.44a7.94,7.94,0,0,0-2.47.4c0,1,.05,2,.05,2.49,0,1.28-.48,1.65-1.19,1.65-1.05,0-2.66-1-2.66-2.13,0-1,1.23-2.08,2.66-2.71v-.75c0-.43,0-.88,0-1.33l-.79,0c-.54,0-1.11,0-1.59-.06l0-1.17a11.31,11.31,0,0,0,1.6.1l.83,0c0-.55,0-1,0-1.2a7.17,7.17,0,0,0-.08-1h1.32c0,.23-.06.64-.07.93s0,.68-.05,1.11A15.48,15.48,0,0,0,18.88,46l0,1.19a24.53,24.53,0,0,1-2.43.41c0,.48,0,1,0,1.39Zm-1,3.38c0-.37,0-1.07,0-1.85-.88.43-1.49,1-1.49,1.53s.7.89,1.12.89C15.26,53.39,15.4,53.23,15.4,52.82Zm4.86-7a22.94,22.94,0,0,1,2.86,1.74l-.6,1a18.3,18.3,0,0,0-2.8-1.78Z"/><path d="M25.92,48.87v6.35H24.79V44.5h4.5v4.37Zm0-3.47v.86h2.29V45.4ZM28.21,48v-.92H25.92V48Zm.28,5.53v.71h-1V49.85h4.61v3.66Zm0-2.71v1.77H31V50.8Zm6.36,3c0,.68-.16,1-.6,1.23a7.06,7.06,0,0,1-2.27.2,3.7,3.7,0,0,0-.39-1.16c.77,0,1.57,0,1.81,0s.29-.09.29-.31V48.88H30.25V44.5h4.6Zm-3.51-8.39v.87h2.35v-.87ZM33.69,48v-.93H31.34V48Z"/><path d="M38.72,47a26.1,26.1,0,0,0,.08,2.72c.18,1.9.67,3.17,1.48,3.17.61,0,1.13-1.31,1.4-2.43l1,1.14c-.77,2.07-1.52,2.8-2.41,2.8-1.22,0-2.34-1.18-2.67-4.36-.12-1.06-.13-2.51-.13-3.24a6.36,6.36,0,0,0-.09-1.13l1.48,0A10.12,10.12,0,0,0,38.72,47Zm8.47,5-1.26.49a12.12,12.12,0,0,0-2.11-6.12L45,46A12.78,12.78,0,0,1,47.19,52Z"/><path d="M54.68,44A13.53,13.53,0,0,0,60,48.3a4.86,4.86,0,0,0-.74,1,16.41,16.41,0,0,1-2-1.23v.86H51.16v-.83a15.59,15.59,0,0,1-2,1.25,4.46,4.46,0,0,0-.69-.91,13.55,13.55,0,0,0,5-4.41Zm-4.22,6.28H58v4.91H56.82v-.48H51.58v.48H50.46ZM57,47.93a13.69,13.69,0,0,1-2.88-2.78,13.05,13.05,0,0,1-2.75,2.78Zm-5.45,3.42v2.39h5.24V51.35Z"/><path d="M65.33,46.81c-.16.22-.38.56-.58.86,0,.2,0,.41,0,.6a6,6,0,0,1,3.71-1.39A3.11,3.11,0,0,1,71.66,50c0,2.44-1.66,3.79-4.47,4.34l-.55-1.16C68.72,52.9,70.4,52,70.4,50a2,2,0,0,0-2.17-2,5.34,5.34,0,0,0-3.61,1.64c0,.44,0,.87,0,1.24,0,1,0,1.92,0,3,0,.22.05.57.07.82H63.38c0-.21,0-.6,0-.8,0-1.12,0-1.82,0-3.16-.56.83-1.27,1.88-1.78,2.58l-.76-1.06c.67-.83,2-2.58,2.64-3.56l.06-1L61.35,48l-.13-1.25c.31,0,.57,0,.91,0s1-.1,1.58-.18c0-.53.06-.92.06-1a5.49,5.49,0,0,0-.06-1l1.43.05c-.06.31-.16.95-.24,1.73Z"/><path d="M81.63,44.8a6.65,6.65,0,0,0-.06,1c0,.51,0,1,0,1.51.41,0,.81-.06,1.15-.08s.73,0,1-.08v1.2c-.19,0-.73,0-1,0s-.72,0-1.18.06a17.77,17.77,0,0,1-.18,2.49c-.11.58-.39.73-1,.73a14.65,14.65,0,0,1-1.68-.18l0-1.06a9,9,0,0,0,1.16.15c.27,0,.4,0,.43-.3a14.5,14.5,0,0,0,.11-1.74c-1.16.08-2.48.22-3.6.33,0,1.18,0,2.38,0,2.87,0,1.24.09,1.62,2,1.62a24.82,24.82,0,0,0,3.6-.29l0,1.3c-.82.09-2.3.2-3.5.2-2.94,0-3.25-.66-3.3-2.65,0-.51,0-1.75,0-2.93L74.5,49l-1.32.18L73,48c.37,0,.87,0,1.37-.07l1.17-.11V46.33a8.82,8.82,0,0,0-.07-1.16h1.34c0,.33-.06.67-.06,1.1s0,.85,0,1.43l3.63-.34V45.79a7.27,7.27,0,0,0-.09-1Z"/><path d="M24.64,33.37A3.3,3.3,0,0,1,28,29.83a2.92,2.92,0,0,1,2,.77l-.7.92A1.74,1.74,0,0,0,28,31c-1.12,0-1.93,1-1.93,2.38s.77,2.36,1.9,2.36a2.29,2.29,0,0,0,1.46-.61l.57.93a3.26,3.26,0,0,1-2.17.83A3.17,3.17,0,0,1,24.64,33.37Z"/><path d="M31.56,33.37a3.18,3.18,0,1,1,6.32,0,3.18,3.18,0,1,1-6.32,0Zm4.88,0c0-1.42-.66-2.38-1.72-2.38S33,32,33,33.37s.66,2.36,1.71,2.36S36.44,34.79,36.44,33.37Z"/><path d="M40.14,30h1.14l.11.92h0a3.2,3.2,0,0,1,2.22-1.1c1.43,0,2.06,1,2.06,2.67v4.22h-1.4v-4c0-1.16-.34-1.63-1.14-1.63a2.29,2.29,0,0,0-1.64.92v4.76H40.14Z"/><path d="M48.58,34.52V31.13h-1V30.08l1-.07.16-1.86H50V30h1.75v1.12H50v3.4c0,.81.28,1.22,1,1.22a2.15,2.15,0,0,0,.72-.15l.25,1a4,4,0,0,1-1.31.25C49.1,36.88,48.58,35.94,48.58,34.52Z"/><path d="M53.41,34.94c0-1.44,1.22-2.19,4-2.49,0-.78-.29-1.47-1.28-1.47a3.71,3.71,0,0,0-1.94.69l-.52-1a5.1,5.1,0,0,1,2.71-.88c1.67,0,2.44,1.07,2.44,2.85v4H57.68L57.56,36h0a3.31,3.31,0,0,1-2.13.93A1.86,1.86,0,0,1,53.41,34.94Zm4,.05V33.34c-2,.24-2.66.74-2.66,1.5s.46.93,1.05.93A2.34,2.34,0,0,0,57.42,35Z"/><path d="M61,33.37a3.3,3.3,0,0,1,3.32-3.54,2.9,2.9,0,0,1,2,.77l-.69.92A1.78,1.78,0,0,0,64.33,31c-1.12,0-1.93,1-1.93,2.38s.77,2.36,1.89,2.36a2.32,2.32,0,0,0,1.47-.61l.57.93a3.26,3.26,0,0,1-2.17.83A3.17,3.17,0,0,1,61,33.37Z"/><path d="M68.56,34.52V31.13h-1V30.08l1-.07.16-1.86H70V30h1.75v1.12H70v3.4c0,.81.29,1.22,1,1.22a2.1,2.1,0,0,0,.72-.15l.26,1a4.08,4.08,0,0,1-1.32.25C69.09,36.88,68.56,35.94,68.56,34.52Z"/><path d="M142.56,58.59h-50V23.66h50ZM93.77,57.37h47.57V24.87H93.77Z" style="fill:#646464"/><polygon points="141.52 58.41 124.81 41.98 117.56 49.11 110.31 41.98 93.59 58.41 92.74 57.55 110.31 40.27 117.56 47.4 124.81 40.27 142.38 57.55 141.52 58.41" style="fill:#646464"/><polygon points="117.56 49.11 92.74 24.7 93.59 23.83 117.56 47.4 141.52 23.83 142.38 24.7 117.56 49.11" style="fill:#646464"/></g></g></svg>