<svg xmlns="http://www.w3.org/2000/svg" xmlns:xlink="http://www.w3.org/1999/xlink" viewBox="0 0 750 90"><defs><pattern id="_6_lpi_20_2" data-name="6 lpi 20% 2" width="72" height="72" patternTransform="matrix(0.85, -0.89, 0.85, 0.89, 15.54, 43.16)" patternUnits="userSpaceOnUse" viewBox="0 0 72 72"><rect width="72" height="72" style="fill:none"/><line x1="71.75" y1="66" x2="144.25" y2="66" style="fill:none;stroke:#fff;stroke-width:2.4000000000000004px"/><line x1="71.75" y1="42" x2="144.25" y2="42" style="fill:none;stroke:#fff;stroke-width:2.4000000000000004px"/><line x1="71.75" y1="18" x2="144.25" y2="18" style="fill:none;stroke:#fff;stroke-width:2.4000000000000004px"/><line x1="71.75" y1="54" x2="144.25" y2="54" style="fill:none;stroke:#fff;stroke-width:2.4000000000000004px"/><line x1="71.75" y1="30" x2="144.25" y2="30" style="fill:none;stroke:#fff;stroke-width:2.4000000000000004px"/><line x1="71.75" y1="6" x2="144.25" y2="6" style="fill:none;stroke:#fff;stroke-width:2.4000000000000004px"/><line x1="-0.25" y1="66" x2="72.25" y2="66" style="fill:none;stroke:#fff;stroke-width:2.4000000000000004px"/><line x1="-0.25" y1="42" x2="72.25" y2="42" style="fill:none;stroke:#fff;stroke-width:2.4000000000000004px"/><line x1="-0.25" y1="18" x2="72.25" y2="18" style="fill:none;stroke:#fff;stroke-width:2.4000000000000004px"/><line x1="-0.25" y1="54" x2="72.25" y2="54" style="fill:none;stroke:#fff;stroke-width:2.4000000000000004px"/><line x1="-0.25" y1="30" x2="72.25" y2="30" style="fill:none;stroke:#fff;stroke-width:2.4000000000000004px"/><line x1="-0.25" y1="6" x2="72.25" y2="6" style="fill:none;stroke:#fff;stroke-width:2.4000000000000004px"/><line x1="-72.25" y1="66" x2="0.25" y2="66" style="fill:none;stroke:#fff;stroke-width:2.4000000000000004px"/><line x1="-72.25" y1="42" x2="0.25" y2="42" style="fill:none;stroke:#fff;stroke-width:2.4000000000000004px"/><line x1="-72.25" y1="18" x2="0.25" y2="18" style="fill:none;stroke:#fff;stroke-width:2.4000000000000004px"/><line x1="-72.25" y1="54" x2="0.25" y2="54" style="fill:none;stroke:#fff;stroke-width:2.4000000000000004px"/><line x1="-72.25" y1="30" x2="0.25" y2="30" style="fill:none;stroke:#fff;stroke-width:2.4000000000000004px"/><line x1="-72.25" y1="6" x2="0.25" y2="6" style="fill:none;stroke:#fff;stroke-width:2.4000000000000004px"/></pattern></defs><g id="レイヤー_2" data-name="レイヤー 2"><g id="背景"><rect width="750" height="90" style="fill:#00adff"/><rect width="750" height="90" style="opacity:0.2;fill:url(#_6_lpi_20_2)"/></g><g id="テキスト"><path d="M297.6,45.9a23.72,23.72,0,0,1,5.7-.79c4.56,0,8.16,2.43,8.16,6.51,0,3.51-1.83,6.15-6.54,7.32a24.2,24.2,0,0,1-3.9.48l-1.38-3.81a22.71,22.71,0,0,0,3.66-.21c2.4-.42,4.32-1.65,4.32-3.81s-1.8-3.18-4.38-3.18a21.09,21.09,0,0,0-5.58.81c.06,2.37.15,4.65.15,5.67,0,3.69-1.35,4.65-3.27,4.65-2.91,0-7-2.49-7-5.64,0-2.61,3-5.28,6.66-6.87,0-.69,0-1.38,0-2.07V42.48c-.57,0-1.11.06-1.59.06-1.35,0-2.85,0-4.14-.16l-.06-3.59a32.23,32.23,0,0,0,4.11.23c.54,0,1.11,0,1.71-.05,0-1,0-1.92,0-2.43a23.58,23.58,0,0,0-.21-2.61h4.08c-.06.54-.18,1.83-.24,2.58s-.06,1.38-.09,2.13a40.68,40.68,0,0,0,5.46-1.11l.09,3.72c-1.68.38-3.72.69-5.67.92,0,.91,0,1.81,0,2.67Zm-3.27,8.33c0-.75,0-2.1-.09-3.66-1.83.93-3,2.16-3,3.21,0,.9,1.38,1.74,2.16,1.74C293.91,55.52,294.33,55.25,294.33,54.23Zm12.24-17.09a65.63,65.63,0,0,1,7.29,4.17l-1.8,3A45.13,45.13,0,0,0,304.92,40Z" style="fill:#fff"/><path d="M321,45.08V60.8h-3.54V33.93h11.46V45.08Zm0-8.42v1.62h4.59V36.66Zm4.59,5.72V40.67H321v1.71Zm1.83,14.19v1.68h-3.33V47.15H335.7v9.42Zm0-6.48v3.54h4.95V50.09Zm15.33,6.45c0,2-.42,3-1.68,3.57s-3.12.69-5.88.69a12.77,12.77,0,0,0-1.2-3.66c1.74.12,3.78.09,4.35.06s.78-.18.78-.72V45.11H331V33.93h11.76Zm-8.37-19.92v1.66h4.74V36.62Zm4.74,5.8V40.67h-4.74v1.75Z" style="fill:#fff"/><path d="M352.5,40.44c0,1.91,0,4.16.18,6.29.42,4.29,1.32,7.2,3.18,7.2,1.41,0,2.58-3.48,3.15-5.82l3,3.6c-2,5.16-3.84,7-6.24,7-3.24,0-6.09-2.94-6.93-10.92-.27-2.73-.33-6.18-.33-8a17.17,17.17,0,0,0-.21-3l4.56,0A23.66,23.66,0,0,0,352.5,40.44Zm20.64,12.2-3.93,1.5c-.45-4.77-2-11.76-5.28-15.41l3.78-1.26C370.53,40.92,372.81,48.08,373.14,52.64Z" style="fill:#fff"/><path d="M391.59,32.82a30.11,30.11,0,0,0,12.84,10.31,17.44,17.44,0,0,0-2.31,3.21,37,37,0,0,1-4.59-2.84v2.06H382.59v-2.1a41.8,41.8,0,0,1-4.65,2.94,14.51,14.51,0,0,0-2.25-2.9A31.84,31.84,0,0,0,387.9,32.82Zm-11,15.71h19v12.3H396V59.72H384.12v1.11h-3.51Zm15.45-6.11a33.17,33.17,0,0,1-6.15-6.09,31.19,31.19,0,0,1-6,6.09Zm-11.94,9.26v4.89H396V51.68Z" style="fill:#fff"/><path d="M417.9,39.75c-.39.5-1,1.46-1.53,2.25,0,.29,0,.56-.06.86A14.56,14.56,0,0,1,425,39.77a7.86,7.86,0,0,1,8.19,8c0,6-3.75,9.6-11.13,11.07l-1.77-3.6c5.22-.81,8.94-2.91,8.94-7.56a4.52,4.52,0,0,0-4.83-4.4c-3.15,0-5.94,1.49-8.43,3.8,0,.84-.06,1.68-.06,2.46,0,2.43,0,4.92.18,7.71,0,.54.15,1.62.21,2.28h-4.08c.06-.63.09-1.71.09-2.19.06-2.31.06-4,.12-6.54-1.26,1.89-2.73,4-3.75,5.49L406.38,53c1.68-2,4.68-6,6.36-8.49l.12-2.07-5.4.69-.36-3.8c.84,0,1.53,0,2.58,0,.87,0,2.16-.21,3.42-.38.06-1.12.12-1.95.12-2.29A15.77,15.77,0,0,0,413.1,34l4.35.12c-.18.84-.42,2.37-.66,4.22Z" style="fill:#fff"/><path d="M457.89,34.77a25.31,25.31,0,0,0-.18,2.55c0,1.17-.06,2.22-.09,3.2.81-.06,1.56-.11,2.25-.14s2-.15,2.85-.21v3.65c-.51,0-2.07,0-2.88,0-.63,0-1.41.07-2.28.13a52,52,0,0,1-.45,5.93c-.3,1.56-1.05,2-2.58,2a37.6,37.6,0,0,1-4.47-.45l.09-3.27a18.53,18.53,0,0,0,2.73.36c.6,0,.84-.12.93-.69a33.54,33.54,0,0,0,.21-3.56c-2.61.21-5.52.48-8.07.75,0,2.72-.06,5.45,0,6.71.09,2.91.33,3.57,4.8,3.57a55.25,55.25,0,0,0,8.88-.78l-.15,4.08a83.47,83.47,0,0,1-8.46.48c-7.71,0-8.64-1.62-8.76-6.75,0-1.26,0-4.14,0-6.93l-2,.21c-.93.12-2.79.42-3.57.54l-.39-3.8c.84,0,2.22-.06,3.72-.18l2.25-.21v-3a22.43,22.43,0,0,0-.24-3.3h4.2a23.39,23.39,0,0,0-.18,3.09c0,.69,0,1.68,0,2.85,2.52-.25,5.4-.52,8.1-.75V37.47a23,23,0,0,0-.21-2.7Z" style="fill:#fff"/></g></g></svg>