<svg xmlns="http://www.w3.org/2000/svg" viewBox="0 0 652 147"><g id="レイヤー_2" data-name="レイヤー 2"><g id="テキスト"><polygon points="651 0 651 35 651 70 651 105 651 140 651 140 651 0 651 0" style="fill:#fff"/><rect x="488.5" y="41" width="162.5" height="35" style="fill:#ff7ba8"/><rect x="488.5" y="76" width="162.5" height="35" style="fill:#fff"/><rect x="326" y="76" width="162.5" height="35" style="fill:#fff"/><rect x="326" y="41" width="162.5" height="35" style="fill:#ff7ba8"/><rect x="163.5" y="76" width="162.5" height="35" style="fill:#fff"/><rect x="163.5" y="41" width="162.5" height="35" style="fill:#ff7ba8"/><rect x="163.5" y="111" width="162.5" height="35" style="fill:#fff"/><rect x="488.5" y="111" width="162.5" height="35" style="fill:#fff"/><rect x="326" y="111" width="162.5" height="35" style="fill:#fff"/><polygon points="163.5 76 163.5 41 1 41 1 76 51 76 163.5 76" style="fill:#ffb9d1"/><rect x="488.5" y="6" width="162.5" height="35" style="fill:#d7d7d7"/><rect x="51" y="76" width="112.5" height="35" style="fill:#d7d7d7"/><rect x="326" y="6" width="162.5" height="35" style="fill:#d7d7d7"/><rect x="163.5" y="6" width="162.5" height="35" style="fill:#d7d7d7"/><rect x="51" y="111" width="112.5" height="35" style="fill:#d7d7d7"/><rect x="1" y="6" width="162.5" height="35" style="fill:#d7d7d7"/><polygon points="51 76 1 76 1 146 51 146 51 111 51 76" style="fill:#d7d7d7"/><path d="M66,20.27a17.39,17.39,0,0,1-1.15,2.06v7.54h-1v-6.2a12.83,12.83,0,0,1-1.58,1.62,9.45,9.45,0,0,0-.66-.92A12.21,12.21,0,0,0,65.05,20Zm-2.5.48h-1V18.28h5.25V17.09h1v1.19h5.34v2.29H73.06V19.23H63.51Zm7.12,1.05c-.16.5-.32,1-.48,1.47h3.46v6.58h-1v-.49H67.77v.53h-1V23.27h2.34a12.55,12.55,0,0,0,.35-1.47H66.12v-.94h8.07v.94Zm2,2.38H67.77v1.6H72.6Zm0,4.27V26.64H67.77v1.81Z" style="fill:#040000"/><path d="M78.37,23.31a9.64,9.64,0,0,0-2.45-1.48l.57-.77A10.74,10.74,0,0,1,79,22.46Zm-2,5.67a43.17,43.17,0,0,0,2.35-4.48l.79.63c-.64,1.46-1.51,3.21-2.24,4.5Zm.87-11.75a10.87,10.87,0,0,1,2.54,1.46l-.62.82A10.24,10.24,0,0,0,76.66,18Zm10.63,2.35V29.75h-1v-.6H81.41v.72h-1V19.58h2.31a17.46,17.46,0,0,0,.59-2.4l1.17.15c-.22.76-.47,1.58-.71,2.25Zm-6.48,1v3.18h5.43V20.59Zm5.43,7.54V24.75H81.41v3.38Z" style="fill:#040000"/><path d="M101.82,20.62a16.18,16.18,0,0,1-1.74,5.62A6.94,6.94,0,0,0,102.79,29a3.44,3.44,0,0,0-.72.89,7.64,7.64,0,0,1-2.62-2.65,9.14,9.14,0,0,1-3.25,2.69,4.4,4.4,0,0,0-.44-.73l-.33.34a13.82,13.82,0,0,0-1.63-1.11,8,8,0,0,1-3.42,1.46A2.15,2.15,0,0,0,89.9,29a7.09,7.09,0,0,0,3-1.09c-.45-.22-.92-.45-1.38-.64l-.22.39-.9-.33c.31-.53.69-1.24,1.07-2H89.87V24.5h2c.21-.42.41-.83.57-1.2l.37.08V21.45a9.43,9.43,0,0,1-2.45,2.06,3.5,3.5,0,0,0-.58-.79,7.56,7.56,0,0,0,2.75-2.23H90v-.85h2.87V17.08h1v2.56h2.84v.85H93.8v.08c.6.34,2.11,1.3,2.49,1.58l-.58.74c-.36-.34-1.24-1-1.91-1.51v2.08h-.61l.24.06-.48,1h3.74v.87H95.48a5.75,5.75,0,0,1-1,2.34,13,13,0,0,1,1.61,1,7.68,7.68,0,0,0,2.8-2.55,19.64,19.64,0,0,1-1.26-3.86,9.25,9.25,0,0,1-1,1.75,5,5,0,0,0-.84-.72,13.63,13.63,0,0,0,2.28-6.27l1.07.15c-.14.83-.32,1.64-.52,2.41h4.06v1ZM91.34,19.57a7.09,7.09,0,0,0-.86-1.83l.78-.33a7.09,7.09,0,0,1,.91,1.8Zm1.18,5.8c-.2.39-.41.77-.59,1.13.56.23,1.12.48,1.67.75a4.49,4.49,0,0,0,.88-1.88Zm3.8-7.63c-.41.64-.89,1.34-1.25,1.8l-.7-.33a12.49,12.49,0,0,0,1-1.85Zm2,2.92a19.49,19.49,0,0,0,1.22,4.43,15.36,15.36,0,0,0,1.23-4.47H98.31Z" style="fill:#040000"/><path d="M60,59.43a8,8,0,0,1-2,3.3,7.9,7.9,0,0,0,2.68,1.2,3.61,3.61,0,0,0-.77,1,7.73,7.73,0,0,1-2.79-1.45,9.59,9.59,0,0,1-2.59,1.41,4.4,4.4,0,0,0-.65-1v1H52.68V63.69c-1.65.18-3.31.37-4.58.49L48,63.05l1.27-.11v-4.5H48.13V57.37H60.4v1.07H53.92v5.41a8.29,8.29,0,0,0,2.36-1.18,8.68,8.68,0,0,1-1.42-2.28l.76-.21H54.36v-1H59l.22-.05Zm-1.16-2.71h-9V52.53h9Zm-8.35,1.72v.78h2.2v-.78Zm0,2.53h2.2v-.82h-2.2Zm2.2,1.64v-.7h-2.2v.91Zm4.85-9.2H51v.8h6.5Zm0,1.62H51v.82h6.5ZM56,60.18a6.21,6.21,0,0,0,1.17,1.76,6.9,6.9,0,0,0,1.28-1.76Z" style="fill:#040000"/><path d="M69.31,57.32a9.9,9.9,0,0,0,5.37,6.39,5,5,0,0,0-1,1.21c-2.62-1.21-4.31-3.48-5.41-6.45a9.65,9.65,0,0,1-5.4,6.45,4.44,4.44,0,0,0-1-1.09,8.71,8.71,0,0,0,5.25-6.51h-5V56h5.21a33.65,33.65,0,0,0,.17-3.86H69a36.32,36.32,0,0,1-.2,3.86h5.64v1.35Z" style="fill:#040000"/><path d="M81.21,57.84c-.36.5-.74,1-1.09,1.45l.77,1-.77.88c-.24-.42-.72-1.12-1.16-1.75V65H77.75V60.11a11.49,11.49,0,0,1-1.41,1.45,6.31,6.31,0,0,0-.63-1.15,12.5,12.5,0,0,0,3.36-4.56H76V54.67h1.71V52.14h1.19v2.53h.73l.21-.06.68.45a13.87,13.87,0,0,1-1.4,3.06l.45.53a11,11,0,0,0,.83-1.39Zm4.17-2.62v1.14h3v7.29c0,.56-.11.9-.46,1.09a3.24,3.24,0,0,1-1.54.23,4.68,4.68,0,0,0-.4-1.14,7.78,7.78,0,0,0,1,0c.14,0,.18,0,.18-.18V62.12H85.38v2.76H84.15V62.12H82.46v2.82H81.24V56.36h2.91V55.22H80.8V54.07h3.35v-2h1.23v2h2.19a9.31,9.31,0,0,0-1.74-1.19l.72-.69a8.73,8.73,0,0,1,1.92,1.25l-.61.63h.8v1.15Zm-2.92,2.25v1.26h1.69V57.47Zm1.69,3.6V59.78H82.46v1.29Zm1.23-3.6v1.26h1.74V57.47Zm1.74,3.6V59.78H85.38v1.29Z" style="fill:#040000"/><path d="M96.22,62.12c-2.2.53-4.54,1.1-6.22,1.49l-.24-1.35,1-.18V52.74h4.65V61.1l.68-.15Zm-4.3-8.21v1.77H94.2V53.91Zm2.28,2.9H91.92v1.78H94.2Zm-2.28,5,2.28-.47V59.74H91.92Zm10.35-6.67s0,.45,0,.62c-.14,5.8-.27,7.82-.72,8.42a1.37,1.37,0,0,1-1.06.62,14.74,14.74,0,0,1-1.91,0,3.28,3.28,0,0,0-.38-1.25c.73.06,1.42.06,1.71.06a.53.53,0,0,0,.52-.21c.31-.41.46-2.23.58-7H99.13c-.22,3.65-1,6.72-3.75,8.57a4.27,4.27,0,0,0-.91-1c2.53-1.62,3.21-4.3,3.4-7.58h-2V55.17h2.08c0-1,0-2,0-3.06h1.28c0,1,0,2.08,0,3.06Z" style="fill:#040000"/><path d="M109.11,64a7.41,7.41,0,0,0,2.55-1.58l1.08.66a9.46,9.46,0,0,1-2.91,1.83c-.21-.23-.59-.61-.86-.85h-3v.63h-1.1V61l-.51.22a4.67,4.67,0,0,0-.67-.93,8.76,8.76,0,0,0,2.79-1.7l-1.15-.83a7.71,7.71,0,0,1-.77.66,6.25,6.25,0,0,0-.84-.77,7,7,0,0,0,2.55-3l1.08.28c-.12.25-.24.5-.38.74h1.58l.2-.06.74.34a8.22,8.22,0,0,1-1.37,2.49c.78.58,1.51,1.14,2,1.57l-.76.9-.2-.18Zm-4-8.6h-1.06V53.3h2.31V52.12h1.22V53.3h2.32v2.11H108.8V54.35h-3.68Zm3.64,5c-.4-.35-.91-.75-1.44-1.15a9,9,0,0,1-1.44,1.15Zm-.78,1h-2v1.69h2Zm-1.64-4.85c-.11.15-.22.29-.34.43.38.26.79.52,1.19.8a6.48,6.48,0,0,0,.8-1.23Zm6-1.54c.08-.37.16-.79.23-1.16H110V52.7h6.48v1.12h-2.57c-.12.39-.26.79-.39,1.16h2.62v7.27H110.5V55Zm2.62,1h-3.25v1.14h3.25Zm0,2.06h-3.25v1.15h3.25Zm0,2.08h-3.25v1.16h3.25Zm-.33,2.39a15.93,15.93,0,0,1,2.33,1.78l-1,.69a18,18,0,0,0-2.27-1.87Z" style="fill:#040000"/><path d="M91.21,88.45H94.4v2.22h-.8v.71H91.18v.91h2.27v.76H91.18v1h3.08v.83H87.08V94h3.13v-1H87.93v-.76h2.28v-.91H87.83v-.71h-.75V88.45h3.11V87.21h1Zm-3.29,7.17h5.7v4.15h-1V99.2H88.86v.71h-.94Zm5.53-6.33H88V90.6h2.2v-.91h1v.91h2.27Zm-4.59,7.13v2h3.78v-2Zm7.38-.07h-1V88.68h1Zm2.85-8.92V98.51c0,.71-.15,1-.58,1.2a7.7,7.7,0,0,1-2.3.2,4.58,4.58,0,0,0-.38-1.09c.87,0,1.7,0,2,0s.31-.09.31-.33V87.43Z" style="fill:#040000"/><path d="M107.31,93.9s0,.34,0,.48c-.25,3.3-.49,4.61-1,5.08a1.36,1.36,0,0,1-1.11.45,21.55,21.55,0,0,1-2.21,0,2.37,2.37,0,0,0-.37-1.06c.93.08,1.85.1,2.2.1a.82.82,0,0,0,.62-.16c.33-.29.57-1.37.75-3.89h-3.68c0,.24-.11.46-.15.67l-1-.17c.28-1.16.62-3,.82-4.42h4.09V88.73h-4.57v-1h5.59v4.18H103c-.11.65-.22,1.34-.35,2Zm4.79-6.58V100h-1V87.32Z" style="fill:#040000"/><path d="M116.76,99.06v.65h-.9V95.85a5.72,5.72,0,0,1-.66.32,4,4,0,0,0-.56-.74,8.76,8.76,0,0,0,3-1.92l-1.31-.94a10.79,10.79,0,0,1-.88.8,5.25,5.25,0,0,0-.7-.62,7.62,7.62,0,0,0,2.54-3.12l.88.22c-.13.28-.27.55-.42.82h1.81l.15,0,.6.27a8.27,8.27,0,0,1-1.38,2.49,23.75,23.75,0,0,1,2.08,1.7l-.61.73c-.1-.1-.23-.21-.35-.34v3.59Zm-.8-8.62h-.87v-2h2.38V87.19h1v1.25h2.38v2h-.9V89.28h-4Zm4,5c-.45-.41-1-.87-1.62-1.34a10.88,10.88,0,0,1-1.65,1.34Zm-.84.83h-2.32v2h2.32Zm-1.85-4.81a6.26,6.26,0,0,1-.39.51c.44.29.88.61,1.35.93a6.74,6.74,0,0,0,.91-1.44Zm6.35,6.68a8.87,8.87,0,0,1-2.9,1.82,8.93,8.93,0,0,0-.69-.68,7.48,7.48,0,0,0,2.69-1.65Zm-.24-8a11.64,11.64,0,0,0,.29-1.33H121v-.91h6.47v.91h-2.7c-.14.45-.28.93-.43,1.33h2.76v7.25h-5.57V90.06Zm2.77.83h-3.65v1.35h3.65Zm0,2.1h-3.65v1.35h3.65Zm0,2.13h-3.65v1.36h3.65Zm-.61,2.52a16.8,16.8,0,0,1,2.37,1.79l-.8.55a17.2,17.2,0,0,0-2.36-1.83Z" style="fill:#040000"/><path d="M24.61,116.61c0,.67-.16,1-.63,1.17a9,9,0,0,1-2.61.19,3.93,3.93,0,0,0-.35-1c1,0,1.93,0,2.23,0s.33-.1.33-.36v-8H19.52a10.17,10.17,0,0,1-.25,1.82,41.91,41.91,0,0,1,3.95,3.89l-.85.68A34.7,34.7,0,0,0,19,111.43a7.53,7.53,0,0,1-3.4,3.75,4.93,4.93,0,0,0-.74-.78,6.32,6.32,0,0,0,3.67-5.79h-4V118h-1V107.59H18.5v-2.4h1v2.4h5.07Z" style="fill:#040000"/><path d="M31.77,108.37H26.59v-.85h5.18Zm4.72,3a8.27,8.27,0,0,0,3,5.77,2.62,2.62,0,0,0-.71.87c-2.11-1.78-2.9-3.77-3.35-6.64H33.69c0,2.12-.34,4.83-1.81,6.62a4.48,4.48,0,0,0-.8-.68l.1-.13H28.13v.65h-.91v-4.7h4.09V117c1.26-1.77,1.37-4.21,1.37-6.12v-5.07h6.14v5.55Zm-5.2-1.13H27.23v-.83h4.06Zm-4.06,1h4.06v.84H27.23Zm4-4.74h-4v-.84h4ZM30.41,114H28.13v2.35h2.28Zm3.28-7.17v3.57h4.09v-3.57Z" style="fill:#040000"/><path d="M91.46,125.18a5.53,5.53,0,0,0-.33.74,13.61,13.61,0,0,1-2.48,4.82,12.36,12.36,0,0,1-5.58,3.81l-1-.91a11.29,11.29,0,0,0,5.58-3.52,11.15,11.15,0,0,0,2.23-4.37H85.15a13.78,13.78,0,0,1-3.55,3.45l-1-.73a11.51,11.51,0,0,0,4.4-4.73,4.36,4.36,0,0,0,.43-1.11l1.3.43c-.24.37-.49.83-.63,1.09s-.21.4-.33.59h3.81a2.86,2.86,0,0,0,.91-.12Z" style="fill:#040000"/><path d="M94.68,127.87c.42,0,1.16.07,1.95.07h7.67a15.1,15.1,0,0,0,1.51-.07v1.37c-.28,0-.86-.07-1.49-.07H96.63c-.77,0-1.52,0-1.95.07Z" style="fill:#040000"/><path d="M111.76,128.79a20.23,20.23,0,0,1-2.69,3.85l-1-.65a15,15,0,0,0,2.68-3.67Zm3-2.16v6.78c0,.75-.37,1.12-1.21,1.12-.59,0-1.42,0-2-.09l-.11-1.12a10.38,10.38,0,0,0,1.63.16c.38,0,.54-.16.54-.53v-6.32h-3.89c-.42,0-.81,0-1.19.05V125.5a10.89,10.89,0,0,0,1.19.07h3.89v-1.44a5.7,5.7,0,0,0-.09-1h1.31a7,7,0,0,0-.08,1v1.43h3.7a7.42,7.42,0,0,0,1.14-.07v1.16c-.37,0-.79,0-1.13,0Zm2.86,1.7A30.48,30.48,0,0,1,120,132l-1,.57a22.79,22.79,0,0,0-2.34-3.73Zm-.44-4.75a1.54,1.54,0,1,1,3.07,0,1.54,1.54,0,0,1-3.07,0Zm.65,0a.89.89,0,1,0,.88-.9A.89.89,0,0,0,117.83,123.58Z" style="fill:#040000"/><path d="M128.83,131a13.19,13.19,0,0,0,4.68-5.15l.67,1.19a13.92,13.92,0,0,1-4.71,5,15.1,15.1,0,0,1-5.5,2.19l-.75-1.15A14.32,14.32,0,0,0,128.83,131Zm-.83-4.44-.88.89a28.65,28.65,0,0,0-3.49-2.93l.8-.86A31.3,31.3,0,0,1,128,126.56Z" style="fill:#040000"/><path d="M235.1,27.74h2.28V20.07h-1.82v-.81a6.38,6.38,0,0,0,2.13-.73h1v9.21h2.06V28.8H235.1Z" style="fill:#040000"/><path d="M244.73,23.31a9.3,9.3,0,0,0-2.45-1.48l.57-.77a10.82,10.82,0,0,1,2.47,1.4Zm-2,5.67a43.08,43.08,0,0,0,2.36-4.48l.78.63c-.64,1.46-1.51,3.21-2.24,4.5Zm.87-11.75a10.87,10.87,0,0,1,2.54,1.46l-.62.82A10.24,10.24,0,0,0,243,18Zm10.64,2.35V29.75h-1v-.6h-5.44v.72h-1V19.58h2.31a17.46,17.46,0,0,0,.59-2.4l1.18.15c-.23.76-.48,1.58-.72,2.25Zm-6.49,1v3.18h5.44V20.59Zm5.44,7.54V24.75h-5.44v3.38Z" style="fill:#040000"/><path d="M209.19,63.7c3.41-3.06,5.44-5.43,5.44-7.36a1.8,1.8,0,0,0-1.89-2,3.24,3.24,0,0,0-2.31,1.29l-1.36-1.36a5.08,5.08,0,0,1,4-1.91,3.69,3.69,0,0,1,4,3.88c0,2.28-1.88,4.73-4.18,7,.63-.07,1.46-.14,2-.14h2.74v2.11h-8.43Z" style="fill:#fff"/><path d="M219.22,58.8c0-4.35,1.7-6.48,4.26-6.48s4.25,2.15,4.25,6.48-1.7,6.58-4.25,6.58S219.22,63.14,219.22,58.8Zm6.15,0c0-3.52-.82-4.54-1.89-4.54s-1.9,1-1.9,4.54.82,4.62,1.9,4.62S225.37,62.34,225.37,58.8Z" style="fill:#fff"/><path d="M229.38,67.4c1.31-.49,2-1.34,2-2.33h-.15a1.47,1.47,0,0,1-1.57-1.48,1.5,1.5,0,0,1,1.62-1.47c1.16,0,1.8.91,1.8,2.46a4.28,4.28,0,0,1-3.21,4.18Z" style="fill:#fff"/><path d="M234.75,58.8c0-4.35,1.7-6.48,4.27-6.48s4.25,2.15,4.25,6.48-1.7,6.58-4.25,6.58S234.75,63.14,234.75,58.8Zm6.16,0c0-3.52-.82-4.54-1.89-4.54s-1.9,1-1.9,4.54.81,4.62,1.9,4.62S240.91,62.34,240.91,58.8Z" style="fill:#fff"/><path d="M244.77,58.8c0-4.35,1.7-6.48,4.26-6.48s4.25,2.15,4.25,6.48-1.7,6.58-4.25,6.58S244.77,63.14,244.77,58.8Zm6.15,0c0-3.52-.82-4.54-1.89-4.54s-1.9,1-1.9,4.54.82,4.62,1.9,4.62S250.92,62.34,250.92,58.8Z" style="fill:#fff"/><path d="M254.78,58.8c0-4.35,1.7-6.48,4.27-6.48s4.25,2.15,4.25,6.48-1.7,6.58-4.25,6.58S254.78,63.14,254.78,58.8Zm6.15,0c0-3.52-.81-4.54-1.88-4.54s-1.91,1-1.91,4.54.82,4.62,1.91,4.62S260.93,62.34,260.93,58.8Z" style="fill:#fff"/><path d="M279.78,64.24c0,1.11-.23,1.67-.95,2a7.86,7.86,0,0,1-3.21.37,8.18,8.18,0,0,0-.73-2c1,.07,2.07,0,2.41,0s.44-.12.44-.41V60.11H267.48V66.6h-2V51.81h14.34Zm-12.3-6.14h4V53.82h-4Zm10.26,0V53.82H273.5V58.1Z" style="fill:#fff"/><path d="M214.93,97.46h2.42V89.78h-2V88.69a6.92,6.92,0,0,0,2.4-.84h1.3v9.61h2.16v1.43h-6.3Z" style="fill:#231815"/><path d="M230.29,95.92h-1.41v3h-1.62v-3h-4.77V94.76l4.4-6.91h2v6.73h1.41Zm-3-1.34V91.69c0-.6.06-1.53.09-2.13h-.06c-.27.55-.57,1.12-.88,1.69l-2.18,3.33Z" style="fill:#231815"/><path d="M231.54,100.91a2.31,2.31,0,0,0,1.63-2H233a1.08,1.08,0,0,1-1.16-1.11,1.12,1.12,0,0,1,1.2-1.11c.84,0,1.34.71,1.34,1.86a3.53,3.53,0,0,1-2.46,3.38Z" style="fill:#231815"/><path d="M235.92,93.32c0-3.82,1.39-5.68,3.56-5.68s3.58,1.87,3.58,5.68-1.41,5.76-3.58,5.76S235.92,97.16,235.92,93.32Zm5.48,0c0-3.16-.79-4.32-1.92-4.32s-1.92,1.16-1.92,4.32.8,4.4,1.92,4.4S241.4,96.52,241.4,93.32Z" style="fill:#231815"/><path d="M244.47,93.32c0-3.82,1.39-5.68,3.56-5.68s3.57,1.87,3.57,5.68-1.41,5.76-3.57,5.76S244.47,97.16,244.47,93.32Zm5.48,0c0-3.16-.79-4.32-1.92-4.32s-1.92,1.16-1.92,4.32.8,4.4,1.92,4.4S250,96.52,250,93.32Z" style="fill:#231815"/><path d="M253,93.32c0-3.82,1.39-5.68,3.56-5.68s3.57,1.87,3.57,5.68-1.41,5.76-3.57,5.76S253,97.16,253,93.32Zm5.48,0c0-3.16-.79-4.32-1.92-4.32s-1.92,1.16-1.92,4.32.8,4.4,1.92,4.4S258.5,96.52,258.5,93.32Z" style="fill:#231815"/><path d="M274.6,98.33c0,.81-.18,1.23-.73,1.47a8.05,8.05,0,0,1-2.75.26,4.56,4.56,0,0,0-.51-1.4c1,0,1.92,0,2.2,0s.38-.09.38-.36V94.15h-9.58v5.92h-1.4V87.29H274.6Zm-11-5.56h4v-4.1h-4Zm9.58,0v-4.1H269v4.1Z" style="fill:#231815"/><path d="M224.69,124.92a2.35,2.35,0,0,0-1.72-.83c-1.41,0-2.58,1.07-2.65,4.22a3.29,3.29,0,0,1,2.4-1.28c1.86,0,3.1,1.14,3.1,3.48a3.37,3.37,0,0,1-3.3,3.62c-2.1,0-3.81-1.76-3.81-5.51,0-4.24,2-5.94,4.17-5.94a3.71,3.71,0,0,1,2.76,1.19Zm-.47,5.59c0-1.42-.63-2.22-1.82-2.22a2.58,2.58,0,0,0-2.05,1.29c.18,2.19,1,3.23,2.16,3.23C223.47,132.81,224.22,131.94,224.22,130.51Z" style="fill:#231815"/><path d="M227.26,136a2.34,2.34,0,0,0,1.64-2.06.5.5,0,0,1-.17,0,1.08,1.08,0,0,1-1.15-1.11,1.11,1.11,0,0,1,1.19-1.11c.84,0,1.34.7,1.34,1.86a3.52,3.52,0,0,1-2.46,3.37Z" style="fill:#231815"/><path d="M231.64,128.37c0-3.83,1.39-5.69,3.57-5.69s3.57,1.88,3.57,5.69-1.41,5.76-3.57,5.76S231.64,132.21,231.64,128.37Zm5.49,0c0-3.17-.8-4.32-1.92-4.32s-1.92,1.15-1.92,4.32.79,4.39,1.92,4.39S237.13,131.56,237.13,128.37Z" style="fill:#231815"/><path d="M240.19,128.37c0-3.83,1.39-5.69,3.57-5.69s3.57,1.88,3.57,5.69-1.41,5.76-3.57,5.76S240.19,132.21,240.19,128.37Zm5.49,0c0-3.17-.8-4.32-1.92-4.32s-1.92,1.15-1.92,4.32.79,4.39,1.92,4.39S245.68,131.56,245.68,128.37Z" style="fill:#231815"/><path d="M248.74,128.37c0-3.83,1.39-5.69,3.57-5.69s3.57,1.88,3.57,5.69-1.41,5.76-3.57,5.76S248.74,132.21,248.74,128.37Zm5.49,0c0-3.17-.8-4.32-1.92-4.32s-1.92,1.15-1.92,4.32.79,4.39,1.92,4.39S254.23,131.56,254.23,128.37Z" style="fill:#231815"/><path d="M270.32,133.38c0,.81-.18,1.23-.73,1.47a8.39,8.39,0,0,1-2.75.25,4.42,4.42,0,0,0-.51-1.39c1,0,1.92,0,2.21,0s.37-.09.37-.36v-4.17h-9.58v5.93h-1.4V122.34h12.39Zm-11-5.57h4v-4.09h-4Zm9.58,0v-4.09h-4.18v4.09Z" style="fill:#231815"/><path d="M397,28c3.22-2.81,4.71-4.86,4.71-6.62a1.8,1.8,0,0,0-1.89-2,2.88,2.88,0,0,0-2.13,1.19l-.74-.73a3.92,3.92,0,0,1,3-1.51,2.81,2.81,0,0,1,3,3c0,2-1.61,4.13-4,6.41.53,0,1.16-.09,1.68-.09h2.84v1.1H397Z" style="fill:#040000"/><path d="M407.23,23.31a9.3,9.3,0,0,0-2.45-1.48l.57-.77a10.82,10.82,0,0,1,2.47,1.4Zm-2,5.67a43.08,43.08,0,0,0,2.36-4.48l.78.63c-.64,1.46-1.51,3.21-2.24,4.5Zm.87-11.75a10.87,10.87,0,0,1,2.54,1.46l-.62.82A10.24,10.24,0,0,0,405.52,18Zm10.64,2.35V29.75h-1.05v-.6h-5.44v.72h-1V19.58h2.31a17.46,17.46,0,0,0,.59-2.4l1.18.15c-.23.76-.48,1.58-.72,2.25Zm-6.49,1v3.18h5.44V20.59Zm5.44,7.54V24.75h-5.44v3.38Z" style="fill:#040000"/><path d="M380.49,61.88H379v3.26h-2.33V61.88h-5.36v-1.7L376,52.56h3V60h1.49ZM376.67,60V57.41c0-.73.06-1.87.1-2.6h-.07c-.31.66-.65,1.36-1,2l-2,3.12Z" style="fill:#fff"/><path d="M381.72,58.8c0-4.35,1.7-6.48,4.26-6.48s4.25,2.15,4.25,6.48-1.7,6.58-4.25,6.58S381.72,63.14,381.72,58.8Zm6.15,0c0-3.52-.82-4.54-1.89-4.54s-1.9,1-1.9,4.54.81,4.62,1.9,4.62S387.87,62.34,387.87,58.8Z" style="fill:#fff"/><path d="M391.88,67.4c1.31-.49,2-1.34,2-2.33h-.15a1.47,1.47,0,0,1-1.57-1.48,1.5,1.5,0,0,1,1.62-1.47c1.15,0,1.8.91,1.8,2.46a4.28,4.28,0,0,1-3.21,4.18Z" style="fill:#fff"/><path d="M397.25,58.8c0-4.35,1.7-6.48,4.27-6.48s4.25,2.15,4.25,6.48-1.7,6.58-4.25,6.58S397.25,63.14,397.25,58.8Zm6.16,0c0-3.52-.82-4.54-1.89-4.54s-1.9,1-1.9,4.54.81,4.62,1.9,4.62S403.41,62.34,403.41,58.8Z" style="fill:#fff"/><path d="M407.27,58.8c0-4.35,1.7-6.48,4.26-6.48s4.25,2.15,4.25,6.48-1.7,6.58-4.25,6.58S407.27,63.14,407.27,58.8Zm6.15,0c0-3.52-.82-4.54-1.89-4.54s-1.9,1-1.9,4.54.82,4.62,1.9,4.62S413.42,62.34,413.42,58.8Z" style="fill:#fff"/><path d="M417.28,58.8c0-4.35,1.7-6.48,4.27-6.48s4.24,2.15,4.24,6.48-1.69,6.58-4.24,6.58S417.28,63.14,417.28,58.8Zm6.15,0c0-3.52-.81-4.54-1.88-4.54s-1.91,1-1.91,4.54.82,4.62,1.91,4.62S423.43,62.34,423.43,58.8Z" style="fill:#fff"/><path d="M442.28,64.24c0,1.11-.23,1.67-.95,2a7.86,7.86,0,0,1-3.21.37,8.18,8.18,0,0,0-.73-2c1,.07,2.07,0,2.41,0s.44-.12.44-.41V60.11H430V66.6h-2V51.81h14.34ZM430,58.1h4V53.82h-4Zm10.26,0V53.82H436V58.1Z" style="fill:#fff"/><path d="M376.8,97.88c3.26-2.88,4.94-5,4.94-6.84a1.8,1.8,0,0,0-1.88-2,3,3,0,0,0-2.17,1.23l-1-1a4.34,4.34,0,0,1,3.36-1.65A3.12,3.12,0,0,1,383.4,91c0,2.13-1.69,4.34-4,6.57.57-.06,1.26-.1,1.8-.1h2.76v1.47H376.8Z" style="fill:#231815"/><path d="M385.38,96.14a3.39,3.39,0,0,1,2-3V93.1a3.14,3.14,0,0,1-1.48-2.58,3.15,3.15,0,0,1,6.27.07,3.44,3.44,0,0,1-1.46,2.6v.07a3.25,3.25,0,0,1,1.86,2.93c0,1.63-1.44,2.89-3.57,2.89S385.38,97.85,385.38,96.14Zm5.54,0c0-1.35-1.22-1.86-2.72-2.47A2.82,2.82,0,0,0,386.91,96a1.94,1.94,0,0,0,2.1,1.86A1.72,1.72,0,0,0,390.92,96.14Zm-.23-5.44A1.64,1.64,0,0,0,389,88.91a1.52,1.52,0,0,0-1.58,1.61c0,1.2,1.05,1.75,2.28,2.23A2.78,2.78,0,0,0,390.69,90.7Z" style="fill:#231815"/><path d="M394,100.91a2.33,2.33,0,0,0,1.63-2h-.17a1.08,1.08,0,0,1-1.15-1.11,1.12,1.12,0,0,1,1.2-1.11c.84,0,1.33.71,1.33,1.86a3.52,3.52,0,0,1-2.46,3.38Z" style="fill:#231815"/><path d="M398.42,93.32c0-3.82,1.39-5.68,3.56-5.68s3.57,1.87,3.57,5.68-1.41,5.76-3.57,5.76S398.42,97.16,398.42,93.32Zm5.48,0c0-3.16-.79-4.32-1.92-4.32s-1.92,1.16-1.92,4.32.8,4.4,1.92,4.4S403.9,96.52,403.9,93.32Z" style="fill:#231815"/><path d="M407,93.32c0-3.82,1.4-5.68,3.57-5.68s3.57,1.87,3.57,5.68-1.41,5.76-3.57,5.76S407,97.16,407,93.32Zm5.49,0c0-3.16-.79-4.32-1.92-4.32s-1.92,1.16-1.92,4.32.8,4.4,1.92,4.4S412.45,96.52,412.45,93.32Z" style="fill:#231815"/><path d="M415.51,93.32c0-3.82,1.4-5.68,3.57-5.68s3.57,1.87,3.57,5.68-1.41,5.76-3.57,5.76S415.51,97.16,415.51,93.32Zm5.49,0c0-3.16-.79-4.32-1.92-4.32s-1.92,1.16-1.92,4.32.8,4.4,1.92,4.4S421,96.52,421,93.32Z" style="fill:#231815"/><path d="M437.1,98.33c0,.81-.18,1.23-.73,1.47a8.05,8.05,0,0,1-2.75.26,4.84,4.84,0,0,0-.51-1.4c1,0,1.92,0,2.2,0s.38-.09.38-.36V94.15h-9.58v5.92h-1.4V87.29H437.1Zm-11-5.56h4v-4.1h-4Zm9.58,0v-4.1H431.5v4.1Z" style="fill:#231815"/><path d="M377.43,132.51h2.42v-7.68h-2v-1.1a6.72,6.72,0,0,0,2.4-.84h1.3v9.62h2.16v1.42h-6.3Z" style="fill:#231815"/><path d="M385.35,132.93c3.26-2.88,4.94-5,4.94-6.84a1.81,1.81,0,0,0-1.88-2,3,3,0,0,0-2.17,1.23l-1-1a4.34,4.34,0,0,1,3.36-1.65A3.12,3.12,0,0,1,392,126c0,2.13-1.7,4.33-4,6.57.57-.06,1.25-.11,1.79-.11h2.77v1.47h-7.13Z" style="fill:#231815"/><path d="M394,136a2.33,2.33,0,0,0,1.63-2.06.47.47,0,0,1-.17,0,1.08,1.08,0,0,1-1.15-1.11,1.12,1.12,0,0,1,1.2-1.11c.84,0,1.33.7,1.33,1.86a3.5,3.5,0,0,1-2.46,3.37Z" style="fill:#231815"/><path d="M398.42,128.37c0-3.83,1.39-5.69,3.56-5.69s3.57,1.88,3.57,5.69-1.41,5.76-3.57,5.76S398.42,132.21,398.42,128.37Zm5.48,0c0-3.17-.79-4.32-1.92-4.32s-1.92,1.15-1.92,4.32.8,4.39,1.92,4.39S403.9,131.56,403.9,128.37Z" style="fill:#231815"/><path d="M407,128.37c0-3.83,1.4-5.69,3.57-5.69s3.57,1.88,3.57,5.69-1.41,5.76-3.57,5.76S407,132.21,407,128.37Zm5.49,0c0-3.17-.79-4.32-1.92-4.32s-1.92,1.15-1.92,4.32.8,4.39,1.92,4.39S412.45,131.56,412.45,128.37Z" style="fill:#231815"/><path d="M415.51,128.37c0-3.83,1.4-5.69,3.57-5.69s3.57,1.88,3.57,5.69-1.41,5.76-3.57,5.76S415.51,132.21,415.51,128.37Zm5.49,0c0-3.17-.79-4.32-1.92-4.32s-1.92,1.15-1.92,4.32.8,4.39,1.92,4.39S421,131.56,421,128.37Z" style="fill:#231815"/><path d="M437.1,133.38c0,.81-.18,1.23-.73,1.47a8.39,8.39,0,0,1-2.75.25,4.68,4.68,0,0,0-.51-1.39c1,0,1.92,0,2.2,0s.38-.09.38-.36v-4.17h-9.58v5.93h-1.4V122.34H437.1Zm-11-5.57h4v-4.09h-4Zm9.58,0v-4.09H431.5v4.09Z" style="fill:#231815"/><path d="M559.27,21.58l.65-.84a3.38,3.38,0,0,0,2.55,1.18A1.89,1.89,0,0,0,564.55,20c0-1.23-.82-2.06-3.19-2.06V17c2.11,0,2.84-.85,2.84-2a1.6,1.6,0,0,0-1.73-1.65,3.21,3.21,0,0,0-2.13,1l-.69-.81a4.12,4.12,0,0,1,2.87-1.23c1.73,0,3,.92,3,2.57a2.56,2.56,0,0,1-1.84,2.48v.06a2.64,2.64,0,0,1,2.19,2.61c0,1.83-1.48,2.92-3.3,2.92A4.24,4.24,0,0,1,559.27,21.58Z" style="fill:#040000"/><path d="M569.73,17.31a9.3,9.3,0,0,0-2.45-1.48l.57-.77a10.61,10.61,0,0,1,2.47,1.4Zm-2,5.67a43.17,43.17,0,0,0,2.35-4.48l.78.63c-.64,1.46-1.51,3.21-2.24,4.5Zm.87-11.75a11,11,0,0,1,2.53,1.46l-.62.82A10.24,10.24,0,0,0,568,12Zm10.63,2.35V23.75h-1v-.6h-5.44v.72h-1V13.58h2.31a17.46,17.46,0,0,0,.59-2.4l1.18.15c-.23.76-.48,1.58-.72,2.25Zm-6.49,1v3.18h5.44V14.59Zm5.44,7.54V18.75h-5.44v3.38Z" style="fill:#040000"/><path d="M541.26,49.25a2.74,2.74,0,0,0-1.94-.92c-1.44,0-2.64,1.09-2.74,4.23a3.67,3.67,0,0,1,2.59-1.34c2.1,0,3.6,1.26,3.6,4a3.94,3.94,0,0,1-3.94,4.2c-2.4,0-4.53-1.92-4.53-6.36,0-4.69,2.33-6.7,4.87-6.7a4.64,4.64,0,0,1,3.41,1.43Zm-.78,5.93c0-1.49-.7-2.19-1.79-2.19a2.48,2.48,0,0,0-2.06,1.32c.24,2.3,1.09,3.18,2.15,3.18S540.48,56.71,540.48,55.18Z" style="fill:#fff"/><path d="M544.22,52.8c0-4.35,1.7-6.48,4.26-6.48s4.25,2.15,4.25,6.48-1.7,6.58-4.25,6.58S544.22,57.14,544.22,52.8Zm6.15,0c0-3.52-.82-4.54-1.89-4.54s-1.9,1-1.9,4.54.81,4.62,1.9,4.62S550.37,56.34,550.37,52.8Z" style="fill:#fff"/><path d="M554.38,61.4c1.31-.49,2-1.34,2-2.33h-.15a1.47,1.47,0,0,1-1.57-1.48,1.5,1.5,0,0,1,1.62-1.47c1.15,0,1.8.91,1.8,2.46a4.28,4.28,0,0,1-3.21,4.18Z" style="fill:#fff"/><path d="M559.75,52.8c0-4.35,1.7-6.48,4.27-6.48s4.25,2.15,4.25,6.48-1.7,6.58-4.25,6.58S559.75,57.14,559.75,52.8Zm6.16,0c0-3.52-.82-4.54-1.89-4.54s-1.9,1-1.9,4.54.81,4.62,1.9,4.62S565.91,56.34,565.91,52.8Z" style="fill:#fff"/><path d="M569.77,52.8c0-4.35,1.7-6.48,4.26-6.48s4.25,2.15,4.25,6.48-1.7,6.58-4.25,6.58S569.77,57.14,569.77,52.8Zm6.15,0c0-3.52-.82-4.54-1.89-4.54s-1.9,1-1.9,4.54.82,4.62,1.9,4.62S575.92,56.34,575.92,52.8Z" style="fill:#fff"/><path d="M579.78,52.8c0-4.35,1.7-6.48,4.27-6.48s4.24,2.15,4.24,6.48-1.69,6.58-4.24,6.58S579.78,57.14,579.78,52.8Zm6.15,0c0-3.52-.81-4.54-1.88-4.54s-1.91,1-1.91,4.54.82,4.62,1.91,4.62S585.93,56.34,585.93,52.8Z" style="fill:#fff"/><path d="M604.78,58.24c0,1.11-.23,1.67-.95,2a7.86,7.86,0,0,1-3.21.37,8.18,8.18,0,0,0-.73-2c1,.07,2.07.05,2.41.05s.44-.12.44-.41V54.11H592.48V60.6h-2V45.81h14.34Zm-12.3-6.14h4V47.82h-4Zm10.26,0V47.82H598.5V52.1Z" style="fill:#fff"/><path d="M546.74,89.92h-1.41v3h-1.62v-3h-4.77V88.76l4.39-6.91h2v6.73h1.41Zm-3-1.34V85.69c0-.6.06-1.53.09-2.13h-.06c-.27.55-.57,1.12-.88,1.69l-2.18,3.33Z" style="fill:#231815"/><path d="M547.85,91.88c3.26-2.88,4.94-5,4.94-6.84a1.8,1.8,0,0,0-1.88-2,3,3,0,0,0-2.17,1.23l-1-1a4.34,4.34,0,0,1,3.36-1.65A3.12,3.12,0,0,1,554.45,85c0,2.13-1.7,4.34-4,6.57.57-.06,1.25-.1,1.79-.1H555v1.47h-7.13Z" style="fill:#231815"/><path d="M556.54,94.91a2.33,2.33,0,0,0,1.63-2H558a1.08,1.08,0,0,1-1.15-1.11,1.12,1.12,0,0,1,1.2-1.11c.84,0,1.33.71,1.33,1.86a3.52,3.52,0,0,1-2.46,3.38Z" style="fill:#231815"/><path d="M560.92,87.32c0-3.82,1.39-5.68,3.56-5.68s3.57,1.87,3.57,5.68-1.41,5.76-3.57,5.76S560.92,91.16,560.92,87.32Zm5.48,0c0-3.16-.79-4.32-1.92-4.32s-1.92,1.16-1.92,4.32.8,4.4,1.92,4.4S566.4,90.52,566.4,87.32Z" style="fill:#231815"/><path d="M569.46,87.32c0-3.82,1.4-5.68,3.57-5.68s3.57,1.87,3.57,5.68-1.41,5.76-3.57,5.76S569.46,91.16,569.46,87.32Zm5.49,0c0-3.16-.79-4.32-1.92-4.32s-1.92,1.16-1.92,4.32.8,4.4,1.92,4.4S575,90.52,575,87.32Z" style="fill:#231815"/><path d="M578,87.32c0-3.82,1.4-5.68,3.57-5.68s3.57,1.87,3.57,5.68-1.41,5.76-3.57,5.76S578,91.16,578,87.32Zm5.49,0c0-3.16-.79-4.32-1.92-4.32s-1.92,1.16-1.92,4.32.8,4.4,1.92,4.4S583.5,90.52,583.5,87.32Z" style="fill:#231815"/><path d="M599.6,92.33c0,.81-.18,1.23-.73,1.47a8.05,8.05,0,0,1-2.75.26,4.84,4.84,0,0,0-.51-1.4c1,0,1.92,0,2.2,0s.38-.09.38-.36V88.15h-9.58v5.92h-1.4V81.29H599.6Zm-11-5.56h4v-4.1h-4Zm9.58,0v-4.1H594v4.1Z" style="fill:#231815"/><path d="M539.93,126.51h2.42v-7.68h-2v-1.1a6.72,6.72,0,0,0,2.4-.84h1.3v9.62h2.16v1.42h-6.3Z" style="fill:#231815"/><path d="M547.88,125.19a3.38,3.38,0,0,1,2-3v-.08a3.12,3.12,0,0,1-1.48-2.58,3.15,3.15,0,0,1,6.27.08,3.43,3.43,0,0,1-1.46,2.59v.08a3.24,3.24,0,0,1,1.86,2.92c0,1.64-1.44,2.9-3.57,2.9S547.88,126.9,547.88,125.19Zm5.54,0c0-1.35-1.22-1.86-2.72-2.48a2.84,2.84,0,0,0-1.29,2.31,1.93,1.93,0,0,0,2.1,1.86A1.71,1.71,0,0,0,553.42,125.19Zm-.23-5.45A1.63,1.63,0,0,0,551.5,118a1.51,1.51,0,0,0-1.58,1.6c0,1.2,1.05,1.76,2.28,2.24A2.8,2.8,0,0,0,553.19,119.74Z" style="fill:#231815"/><path d="M556.54,130a2.33,2.33,0,0,0,1.63-2.06.47.47,0,0,1-.17,0,1.08,1.08,0,0,1-1.15-1.11,1.12,1.12,0,0,1,1.2-1.11c.84,0,1.33.7,1.33,1.86a3.5,3.5,0,0,1-2.46,3.37Z" style="fill:#231815"/><path d="M560.92,122.37c0-3.83,1.39-5.69,3.56-5.69s3.57,1.88,3.57,5.69-1.41,5.76-3.57,5.76S560.92,126.21,560.92,122.37Zm5.48,0c0-3.17-.79-4.32-1.92-4.32s-1.92,1.15-1.92,4.32.8,4.39,1.92,4.39S566.4,125.56,566.4,122.37Z" style="fill:#231815"/><path d="M569.46,122.37c0-3.83,1.4-5.69,3.57-5.69s3.57,1.88,3.57,5.69-1.41,5.76-3.57,5.76S569.46,126.21,569.46,122.37Zm5.49,0c0-3.17-.79-4.32-1.92-4.32s-1.92,1.15-1.92,4.32.8,4.39,1.92,4.39S575,125.56,575,122.37Z" style="fill:#231815"/><path d="M578,122.37c0-3.83,1.4-5.69,3.57-5.69s3.57,1.88,3.57,5.69-1.41,5.76-3.57,5.76S578,126.21,578,122.37Zm5.49,0c0-3.17-.79-4.32-1.92-4.32s-1.92,1.15-1.92,4.32.8,4.39,1.92,4.39S583.5,125.56,583.5,122.37Z" style="fill:#231815"/><path d="M599.6,127.38c0,.81-.18,1.23-.73,1.47a8.39,8.39,0,0,1-2.75.25,4.68,4.68,0,0,0-.51-1.39c1,0,1.92,0,2.2,0s.38-.09.38-.36v-4.17h-9.58v5.93h-1.4V116.34H599.6Zm-11-5.57h4v-4.09h-4Zm9.58,0v-4.09H594v4.09Z" style="fill:#231815"/><rect x="1" y="6" width="650" height="140" style="fill:none;stroke:#ffffb2;stroke-miterlimit:10;stroke-width:2px;opacity:0"/><line x1="1" y1="41" x2="651" y2="41" style="fill:none;stroke:#ffffb2;stroke-miterlimit:10;stroke-width:2px"/><line x1="1" y1="76" x2="651" y2="76" style="fill:none;stroke:#ffffb2;stroke-miterlimit:10;stroke-width:2px"/><line x1="51" y1="111" x2="651" y2="111" style="fill:none;stroke:#ffffb2;stroke-miterlimit:10;stroke-width:2px"/><line x1="51" y1="76" x2="51" y2="146" style="fill:none;stroke:#ffffb2;stroke-miterlimit:10;stroke-width:2px"/><line x1="163.5" y1="6" x2="163.5" y2="146" style="fill:none;stroke:#ffffb2;stroke-miterlimit:10;stroke-width:2px"/><line x1="326" y1="6" x2="326" y2="146" style="fill:none;stroke:#ffffb2;stroke-miterlimit:10;stroke-width:2px"/><line x1="488.5" y1="6" x2="488.5" y2="146" style="fill:none;stroke:#ffffb2;stroke-miterlimit:10;stroke-width:2px"/></g></g></svg>