<svg xmlns="http://www.w3.org/2000/svg" viewBox="0 0 710 370"><g id="レイヤー_2" data-name="レイヤー 2"><g id="テキスト"><rect width="710" height="370" rx="15" style="fill:#fff"/><rect x="30" y="30" width="170" height="120" style="fill:#fff;stroke:#00adff;stroke-linecap:round;stroke-linejoin:round;stroke-width:2px"/><path d="M37.33,185.51H36v2.83H34.75v-2.83H30.28v-.84l4.27-6.6H36v6.42h1.36Zm-2.58-1v-3.16c0-.5.06-1.33.08-1.86h0c-.25.51-.54,1-.83,1.51l-2.34,3.51Z" style="fill:#040000"/><path d="M43.54,178.69c0,.92-.07,1.89-.17,2.85h6.22s0,.37,0,.51c-.25,4.51-.48,6.18-1,6.76a1.6,1.6,0,0,1-1.19.51,20.11,20.11,0,0,1-2.47-.06,2,2,0,0,0-.36-1,23.83,23.83,0,0,0,2.43.11.86.86,0,0,0,.66-.18c.42-.38.66-1.92.86-5.62H43.25c-.41,2.75-1.45,5.35-4.2,6.89a3.07,3.07,0,0,0-.76-.81c3.88-2.06,4.08-6.37,4.16-9.94H38.68v-1H50.87v1Z" style="fill:#040000"/><path d="M64.56,188c0,.67-.17,1-.64,1.19a9.25,9.25,0,0,1-2.5.18,4.41,4.41,0,0,0-.39-1c.95,0,1.86,0,2.13,0s.35-.09.35-.35v-4.29H54.12v5.69h-1V177.58H64.56Zm-10.44-5.33h4.11v-4.1H54.12Zm9.39,0v-4.1H59.25v4.1Z" style="fill:#040000"/><path d="M72.58,187.65a9.19,9.19,0,0,0,1.19-.17,4.15,4.15,0,0,0,3.51-4.1,3.84,3.84,0,0,0-3.68-4,28.61,28.61,0,0,1-.83,4c-.85,2.84-2,4.32-3.25,4.32s-2.47-1.43-2.47-3.72a5.92,5.92,0,0,1,6.07-5.64,5,5,0,0,1,5.33,5.1c0,2.91-1.92,4.86-5.23,5.29Zm-.91-4.54a22.92,22.92,0,0,0,.77-3.74,4.85,4.85,0,0,0-4.29,4.49c0,1.75.81,2.52,1.42,2.52S71,185.45,71.67,183.11Z" style="fill:#040000"/><path d="M85.65,182.13c-.11,4.69-.19,6.28-.56,6.75a.93.93,0,0,1-.79.44,10.34,10.34,0,0,1-1.5,0,2.47,2.47,0,0,0-.27-.94c.57.06,1.09.07,1.3.07a.46.46,0,0,0,.44-.19c.22-.34.32-1.71.42-5.66H83a11.82,11.82,0,0,1-2,6.83,5,5,0,0,0-.77-.63,11.61,11.61,0,0,0,1.85-7.06v-1.92H80.46v-1h2.43v-2.24h1v2.24h2.24v1H83v1.84h2.66Zm2-2.7a9.52,9.52,0,0,1-1.42,2.1,6.58,6.58,0,0,0-.85-.66,9.73,9.73,0,0,0,2.27-4.26l1,.21c-.16.56-.35,1.12-.56,1.66H93v1Zm5.56,3.46a23.38,23.38,0,0,1-2.47,2,7,7,0,0,0,2.54,3.64,3,3,0,0,0-.71.84c-1.91-1.36-2.9-4-3.42-7.19-.31.14-.63.27-.94.38v6.85h-1v-6.5c-.26.09-.51.16-.75.23a3.22,3.22,0,0,0-.63-.86,17.36,17.36,0,0,0,5.85-2.44l.75.55A13.81,13.81,0,0,1,90,181.8a18.33,18.33,0,0,0,.49,2.21,18.72,18.72,0,0,0,2-1.77Z" style="fill:#040000"/><path d="M99.07,180a17.61,17.61,0,0,1-1.55,2.12v7.36h-1v-6.21a17.1,17.1,0,0,1-1.58,1.45,11.23,11.23,0,0,0-.73-.87,15.34,15.34,0,0,0,3.92-4.21Zm-.55-3a17.12,17.12,0,0,1-3.59,3.47,9.83,9.83,0,0,0-.61-.83,13.71,13.71,0,0,0,3.2-3Zm8.59,5.28H105v5.78c0,.65-.15,1-.62,1.14a10.81,10.81,0,0,1-2.63.15,3.84,3.84,0,0,0-.33-1c1,0,1.91,0,2.18,0s.35-.07.35-.31v-5.77H99.26v-1h7.85Zm-.41-3.84H99.86v-1h6.84Z" style="fill:#040000"/><path d="M113.74,177.5c-.06.26-.13.54-.17.82s-.21,1.22-.36,2c.64-.05,1.21-.09,1.55-.09,1.25,0,2.26.49,2.26,2.36a13.39,13.39,0,0,1-.8,5,2,2,0,0,1-2,1.15,9.11,9.11,0,0,1-1.64-.19l-.18-1.19a6.42,6.42,0,0,0,1.7.3,1.17,1.17,0,0,0,1.21-.71,11.49,11.49,0,0,0,.66-4.23c0-1.26-.58-1.49-1.47-1.49-.34,0-.89.05-1.49.1a27.87,27.87,0,0,1-2.91,7.44l-1.14-.46a22,22,0,0,0,2.92-6.87c-.73.07-1.39.14-1.75.19s-.9.09-1.25.16l-.11-1.21c.43,0,.78,0,1.23,0s1.26-.09,2.1-.16a14.42,14.42,0,0,0,.35-3Zm4.76,1.58A23.73,23.73,0,0,1,121,184l-1.08.53a17,17,0,0,0-2.48-5Zm.57.22a16.57,16.57,0,0,0-1.13-1.94l.74-.31a21.31,21.31,0,0,1,1.17,1.92Zm1.59-.57a15,15,0,0,0-1.17-1.93l.75-.31a17.37,17.37,0,0,1,1.17,1.9Z" style="fill:#040000"/><path d="M134,179.58a5,5,0,0,0-.34.74,13.53,13.53,0,0,1-2.48,4.82A12.17,12.17,0,0,1,125.6,189l-1-.91a10.79,10.79,0,0,0,7.81-7.88h-4.73a13.92,13.92,0,0,1-3.55,3.44l-1-.73a11.51,11.51,0,0,0,4.4-4.73A4.21,4.21,0,0,0,128,177l1.3.44c-.24.36-.49.82-.63,1.09s-.21.39-.33.59h3.81a2.58,2.58,0,0,0,.91-.13Z" style="fill:#040000"/><path d="M137.2,182.27c.42,0,1.16.07,2,.07h7.67c.7,0,1.21,0,1.52-.07v1.38c-.28,0-.87-.08-1.5-.08h-7.69c-.77,0-1.52,0-2,.08Z" style="fill:#040000"/><path d="M154.28,183.2a20.89,20.89,0,0,1-2.69,3.85l-1-.66a15.08,15.08,0,0,0,2.67-3.67Zm3-2.16v6.78c0,.74-.37,1.12-1.21,1.12-.58,0-1.42,0-2-.1l-.12-1.12a10.59,10.59,0,0,0,1.63.17c.38,0,.54-.17.54-.53V181h-3.89c-.42,0-.81,0-1.19,0v-1.17a10.89,10.89,0,0,0,1.19.07h3.89v-1.45a5.58,5.58,0,0,0-.09-1h1.31a6.89,6.89,0,0,0-.08,1V180H161a9.09,9.09,0,0,0,1.15-.07v1.16c-.38,0-.8,0-1.14,0Zm2.86,1.69a30.48,30.48,0,0,1,2.42,3.66l-1,.57a22.28,22.28,0,0,0-2.34-3.72ZM159.7,178a1.54,1.54,0,1,1,3.07,0,1.54,1.54,0,0,1-3.07,0Zm.65,0a.88.88,0,0,0,.88.89.89.89,0,0,0,.9-.89.9.9,0,0,0-.9-.9A.89.89,0,0,0,160.35,178Z" style="fill:#040000"/><path d="M171.35,185.41a13.18,13.18,0,0,0,4.68-5.15l.67,1.19a14,14,0,0,1-4.71,5,14.93,14.93,0,0,1-5.5,2.18l-.74-1.15A14.33,14.33,0,0,0,171.35,185.41Zm-.83-4.44-.88.88a28.65,28.65,0,0,0-3.49-2.93l.8-.85A30.45,30.45,0,0,1,170.52,181Z" style="fill:#040000"/><path d="M185,186.45c.05-.54.06-1.43.06-2.16-1.29.7-2.18,1.41-2.18,2.33,0,1.09,1.07,1.24,2.5,1.24a24.27,24.27,0,0,0,3.78-.33l0,1.13a34.73,34.73,0,0,1-3.8.22c-2,0-3.58-.42-3.58-2.11s1.65-2.68,3.26-3.52a1.18,1.18,0,0,0-1.25-.85,3.69,3.69,0,0,0-2.39,1,19.1,19.1,0,0,0-1.26,1.46l-1-.72a14.58,14.58,0,0,0,3.2-4.23h-.58c-.59,0-1.52,0-2.28-.08v-1c.74.08,1.71.14,2.34.14.29,0,.59,0,.91,0a7.29,7.29,0,0,0,.35-1.72l1.15.1c-.1.39-.23,1-.42,1.6a38,38,0,0,0,4.24-.42v1a43.76,43.76,0,0,1-4.6.4A9.71,9.71,0,0,1,182.2,182a3.93,3.93,0,0,1,1.92-.51,1.74,1.74,0,0,1,1.83,1.26c1-.45,1.79-.79,2.52-1.12.42-.19.76-.35,1.15-.55l.45,1c-.35.1-.85.29-1.22.43-.78.31-1.78.72-2.83,1.21,0,.8,0,2,0,2.65Z" style="fill:#040000"/><path d="M37.38,198.6a15.83,15.83,0,0,0,6.14,3.71,4.37,4.37,0,0,0-.63.87,19.67,19.67,0,0,1-3.13-1.54v.76h-5.4v-.8a20.48,20.48,0,0,1-3.22,1.68,4.88,4.88,0,0,0-.59-.83,14.56,14.56,0,0,0,5.85-3.85Zm3.8,5.17c-.44.87-1,1.88-1.56,2.74H41.4v4.91H40.34v-.55H33.73v.55h-1v-4.91h5.71c.4-.63.85-1.4,1.21-2H32.47v-.91H40.2l.19-.07Zm-.84,3.67H33.73V210h6.61Zm-.79-5.93a14.08,14.08,0,0,1-2.6-2,13,13,0,0,1-2.47,2Z" style="fill:#040000"/><path d="M53.36,199.54c-.09.33-.17.81-.24,1.08s-.14.61-.22.93A4.36,4.36,0,0,1,56.65,206c0,2.76-2,4.46-4.95,4.86l-.67-1c2.89-.25,4.5-1.78,4.5-3.91a3.37,3.37,0,0,0-2.89-3.46,17.54,17.54,0,0,1-2,4.72,8.14,8.14,0,0,0,.86,1l-.87.71a10.05,10.05,0,0,1-.66-.78,3.76,3.76,0,0,1-2.75,1.72c-1,0-1.94-.88-1.94-2.52a5.85,5.85,0,0,1,2.14-4.29c-.15-.43-.29-.86-.42-1.27a10.63,10.63,0,0,0-.45-1.25l1.16-.36c.07.38.19.84.29,1.22s.19.67.32,1.06a7.14,7.14,0,0,1,3.56-1c.08-.34.15-.67.2-1a5.19,5.19,0,0,0,.09-1Zm-4,7.72q-.16-.25-.33-.54a17.87,17.87,0,0,1-1.24-2.66,4.72,4.72,0,0,0-1.48,3.21c0,.92.41,1.48,1,1.48S48.71,208.07,49.32,207.26Zm.65-1a17.56,17.56,0,0,0,1.61-3.85,6.06,6.06,0,0,0-3,1,16,16,0,0,0,1.07,2.44C49.77,206,49.87,206.15,50,206.3Z" style="fill:#040000"/><path d="M68.49,200.62c-.25.16-.56.37-.77.53-.68.52-2.55,2.16-3.61,3a5.89,5.89,0,0,1,1.88-.29c2.31,0,4,1.4,4,3.28,0,2.24-1.86,3.69-4.79,3.69-1.89,0-3.05-.84-3.05-2a2,2,0,0,1,2.14-1.83,2.74,2.74,0,0,1,2.86,2.46,2.42,2.42,0,0,0,1.72-2.36c0-1.36-1.37-2.35-3.12-2.35-2.28,0-3.54,1-5.31,2.76l-.81-.83,3.74-3.11c.77-.64,2.49-2.1,3.18-2.72l-4.18.2a7.15,7.15,0,0,0-.94.08l0-1.16a8.2,8.2,0,0,0,1,0c.71,0,4-.09,4.73-.16a4.78,4.78,0,0,0,.76-.12Zm-2.39,9.17a1.86,1.86,0,0,0-1.84-1.85c-.63,0-1.1.38-1.1.86,0,.68.79,1.08,1.83,1.08A6.48,6.48,0,0,0,66.1,209.79Z" style="fill:#040000"/><path d="M83.08,202c-.31.2-.66.38-1.06.59-.93.48-2.86,1.39-4.22,2.28s-2.06,1.76-2.06,2.81,1.09,1.86,3.28,1.86a20.45,20.45,0,0,0,4.44-.48v1.26a26.32,26.32,0,0,1-4.39.34c-2.6,0-4.49-.78-4.49-2.86,0-1.43.91-2.56,2.39-3.6a45.77,45.77,0,0,1-2-4.27l1.1-.45a31.5,31.5,0,0,0,1.87,4.11c1.3-.79,2.8-1.52,3.55-2a6.19,6.19,0,0,0,1-.66Z" style="fill:#040000"/><path d="M94.1,207.77c1,1.5,2.78,2.41,5.22,2.76a4,4,0,0,0-.63.9c-2.73-.48-4.64-1.65-5.7-3.66h-.13c-.72,1.39-2.25,2.68-5.44,3.63a4.57,4.57,0,0,0-.64-.84c2.74-.75,4.17-1.74,4.89-2.79H86.93v-.92h5.22a4.37,4.37,0,0,0,.27-1.32H88.54v-.87h3.9v-1.24H88.31v-.88h4.13v-1.17h1v1.17h4.33v-1.62H88.14v1.76h-1V200h5.33v-1.36h1V200h5.35v2.69h-1v.74H93.48v1.24h4.13v.87H93.45a6.62,6.62,0,0,1-.22,1.32h5.94v.92Z" style="fill:#040000"/><path d="M102.66,201.44a4.34,4.34,0,0,1-1.3,2.52,3,3,0,0,0-.7-.67,3.72,3.72,0,0,0,1.16-2.91V199l.83.24a24.16,24.16,0,0,0,3.23-.57l.7.64a23.59,23.59,0,0,1-3.83.62v.71H107v.81H105.3v1.75h-.93v-1.75Zm3.18,8.32a19.28,19.28,0,0,1-4.27,1.68,8.06,8.06,0,0,0-.77-.78,15.79,15.79,0,0,0,4.1-1.34Zm-3.3-6.29h9.09v5.7h-9.09Zm1,1.67h7.06v-1h-7.06Zm0,1.65h7.06v-1h-7.06Zm0,1.68h7.06v-1h-7.06Zm9.69-7.84v.81h-2.07v1.78h-.94v-1.78h-1.94a3.45,3.45,0,0,1-1.46,1.94,2.25,2.25,0,0,0-.65-.69,2.66,2.66,0,0,0,1.35-2.41V199l.8.2a23.4,23.4,0,0,0,3.53-.56l.7.66a25.44,25.44,0,0,1-4.11.6v.38c0,.1,0,.21,0,.32Zm-4.2,8.73c1.51.49,3.18,1.09,4.2,1.55l-1.14.52a30.37,30.37,0,0,0-3.91-1.54Z" style="fill:#040000"/><path d="M114.62,209.58c3.22-2.81,4.7-4.86,4.7-6.62a1.81,1.81,0,0,0-1.89-2,2.86,2.86,0,0,0-2.13,1.2l-.74-.73a3.93,3.93,0,0,1,3-1.52,2.82,2.82,0,0,1,3,3c0,2.05-1.61,4.14-4,6.42.53,0,1.16-.1,1.68-.1h2.84v1.11h-6.45Z" style="fill:#040000"/><path d="M127.54,200.69c0,.92-.07,1.89-.17,2.85h6.22s0,.37,0,.51c-.25,4.51-.48,6.18-1,6.76a1.6,1.6,0,0,1-1.19.51,20.11,20.11,0,0,1-2.47-.06,2,2,0,0,0-.36-1,23.83,23.83,0,0,0,2.43.11.86.86,0,0,0,.66-.18c.42-.38.66-1.92.86-5.62h-5.24c-.41,2.75-1.45,5.35-4.2,6.89a3.07,3.07,0,0,0-.76-.81c3.88-2.06,4.08-6.37,4.16-9.94h-3.77v-1h12.19v1Z" style="fill:#040000"/><path d="M148.56,210c0,.67-.17,1-.64,1.19a9.25,9.25,0,0,1-2.5.18,4.41,4.41,0,0,0-.39-1c.95,0,1.86,0,2.13,0s.35-.09.35-.35v-4.29h-9.39v5.69h-1V199.58h11.47Zm-10.44-5.33h4.11v-4.1h-4.11Zm9.39,0v-4.1h-4.26v4.1Z" style="fill:#040000"/><path d="M160.85,202c-.31.2-.66.38-1.06.59-.93.48-2.86,1.39-4.22,2.28s-2.06,1.76-2.06,2.81,1.09,1.86,3.28,1.86a20.45,20.45,0,0,0,4.44-.48v1.26a26.32,26.32,0,0,1-4.39.34c-2.6,0-4.49-.78-4.49-2.86,0-1.43.91-2.56,2.39-3.6a45.77,45.77,0,0,1-2-4.27l1.1-.45a31.5,31.5,0,0,0,1.87,4.11c1.3-.79,2.8-1.52,3.55-2a6.19,6.19,0,0,0,1-.66Z" style="fill:#040000"/><path d="M171.76,201.93a17.61,17.61,0,0,1-2.51.51,25,25,0,0,1-3,5.87l-1.09-.56a20,20,0,0,0,3-5.19c-.41,0-.81.05-1.22.05s-1.09,0-1.61-.05l-.08-1.05a12.86,12.86,0,0,0,1.7.1c.49,0,1,0,1.55-.07a11.47,11.47,0,0,0,.43-2.39l1.25.11c-.14.5-.33,1.34-.55,2.14a14.4,14.4,0,0,0,2.16-.5Zm1.62,1.61a12.58,12.58,0,0,0,0,1.5c0,.51.07,1.42.09,2.26a9.52,9.52,0,0,1,2.88,1.73l-.61,1a9.42,9.42,0,0,0-2.22-1.58c0,.21,0,.4,0,.55,0,1.11-.73,2-2.44,2-1.52,0-2.77-.63-2.77-2s1.2-2.1,2.77-2.1a6.89,6.89,0,0,1,1.32.12c0-1.13-.11-2.49-.14-3.46Zm-.94,4.44a5.26,5.26,0,0,0-1.4-.19c-1,0-1.69.46-1.69,1.09s.51,1.08,1.59,1.08,1.52-.63,1.52-1.32C172.46,208.46,172.46,208.24,172.44,208Zm3.7-4.06A16.44,16.44,0,0,0,173,202l.55-.87a20.67,20.67,0,0,1,3.25,1.85Z" style="fill:#040000"/><path d="M188.26,200.62c-.25.16-.56.37-.77.53-.68.52-2.55,2.16-3.61,3a5.89,5.89,0,0,1,1.88-.29c2.31,0,4,1.4,4,3.28,0,2.24-1.86,3.69-4.79,3.69-1.89,0-3.05-.84-3.05-2a2,2,0,0,1,2.14-1.83,2.74,2.74,0,0,1,2.86,2.46,2.42,2.42,0,0,0,1.72-2.36c0-1.36-1.37-2.35-3.12-2.35-2.28,0-3.54,1-5.31,2.76l-.81-.83,3.74-3.11c.77-.64,2.49-2.1,3.18-2.72l-4.18.2a7.15,7.15,0,0,0-.94.08l0-1.16a8.2,8.2,0,0,0,1,0c.71,0,4-.09,4.73-.16a4.78,4.78,0,0,0,.76-.12Zm-2.39,9.17a1.86,1.86,0,0,0-1.84-1.85c-.63,0-1.1.38-1.1.86,0,.68.79,1.08,1.83,1.08A6.48,6.48,0,0,0,185.87,209.79Z" style="fill:#040000"/><path d="M33.89,228.12a5.79,5.79,0,0,0-.28,1.58c0,1,1.07,1.77,3.28,1.77a18.14,18.14,0,0,0,4.75-.53l0,1.2a20.21,20.21,0,0,1-4.74.48c-2.82,0-4.45-.93-4.45-2.66a8.55,8.55,0,0,1,.28-2Zm-.57-5.6a32.34,32.34,0,0,0,3.67.18c1.33,0,2.75-.1,3.74-.2v1.15c-.94.07-2.46.17-3.74.17s-2.56,0-3.67-.15Z" style="fill:#040000"/><path d="M55.08,224c-.31.2-.66.38-1.06.59-.93.48-2.86,1.39-4.22,2.28s-2.06,1.76-2.06,2.81,1.09,1.86,3.28,1.86a20.45,20.45,0,0,0,4.44-.48v1.26a26.32,26.32,0,0,1-4.39.34c-2.6,0-4.49-.78-4.49-2.86,0-1.43.91-2.56,2.39-3.6a45.77,45.77,0,0,1-2-4.27l1.1-.45a31.5,31.5,0,0,0,1.87,4.11c1.3-.79,2.8-1.52,3.55-2a6.19,6.19,0,0,0,1-.66Z" style="fill:#040000"/><path d="M65.21,230.45c.05-.54.06-1.43.06-2.16-1.29.7-2.18,1.41-2.18,2.33,0,1.09,1.07,1.24,2.5,1.24a24.27,24.27,0,0,0,3.78-.33l0,1.13a34.73,34.73,0,0,1-3.8.22c-2,0-3.58-.42-3.58-2.11s1.65-2.68,3.26-3.52A1.18,1.18,0,0,0,64,226.4a3.69,3.69,0,0,0-2.39,1,19.1,19.1,0,0,0-1.26,1.46l-1-.72a14.58,14.58,0,0,0,3.2-4.23H62c-.59,0-1.52,0-2.28-.08v-1c.74.08,1.71.14,2.34.14.29,0,.59,0,.91,0a7.29,7.29,0,0,0,.35-1.72l1.15.1c-.1.39-.23,1-.42,1.6a38,38,0,0,0,4.24-.42v1a43.76,43.76,0,0,1-4.6.4A9.71,9.71,0,0,1,62.43,226a3.93,3.93,0,0,1,1.92-.51,1.74,1.74,0,0,1,1.83,1.26c.95-.45,1.79-.79,2.52-1.12.42-.19.76-.35,1.15-.55l.45,1c-.35.1-.85.29-1.22.43-.78.31-1.78.72-2.83,1.21,0,.8,0,2,0,2.65Z" style="fill:#040000"/><path d="M80.07,225.64a31.45,31.45,0,0,1-2.79,1.77,37.25,37.25,0,0,0,5.49-.89l.69.72a38.79,38.79,0,0,1-6.44.94c-.09.36-.17.71-.27,1h6.7s0,.31-.06.47c-.34,2.06-.63,3-1.09,3.38a1.65,1.65,0,0,1-1.08.35c-.42,0-1.25,0-2.12,0a2.15,2.15,0,0,0-.32-.95c.87.08,1.78.09,2.1.09s.48,0,.6-.12c.31-.24.55-.91.8-2.31H76.53l-.2.7-1-.16c.22-.67.47-1.62.71-2.56-1,.48-2,.91-2.94,1.29a5.19,5.19,0,0,0-.67-.83,29.34,29.34,0,0,0,3.88-1.65l.07-.32.45.05c.57-.31,1.12-.64,1.66-1H73v-.89h4.61v-1.62H74v-.85h3.54v-1.67h1v1.67h3.33V223a17.57,17.57,0,0,0,1.57-1.68l.86.46a21.13,21.13,0,0,1-3.1,3h3.66v.89Zm-.31-.89a22.49,22.49,0,0,0,2-1.62H78.6v1.62Z" style="fill:#040000"/><path d="M95.4,225.92c-.53.48-2.07,1.91-2.59,2.45a1.51,1.51,0,0,1,.52,0,1.25,1.25,0,0,1,1.06,1c.13.41.31,1.11.46,1.55s.48.75,1.19.75a11.59,11.59,0,0,0,2.62-.3l-.07,1.19a20.22,20.22,0,0,1-2.6.2c-1.11,0-1.81-.25-2.12-1.18-.12-.4-.33-1.21-.46-1.62s-.46-.73-.84-.73a1.51,1.51,0,0,0-1,.5c-.52.51-2,2.08-2.8,3.07l-1.08-.73a5.93,5.93,0,0,0,.68-.63c.56-.54,4.35-4.32,5.72-5.7-1.09.07-3.42.28-4.27.35-.45,0-.82.09-1.12.13l-.1-1.23a10.85,10.85,0,0,0,1.17,0c.8,0,4-.23,5.08-.36a3.32,3.32,0,0,0,.65-.15l.68.75A6.86,6.86,0,0,0,95.4,225.92Zm.48-3.86-.16,1c-1.38-.12-3.81-.43-5.5-.74l.18-1A50.21,50.21,0,0,0,95.88,222.06Z" style="fill:#040000"/><path d="M110.49,222.62c-.25.16-.56.37-.77.53-.68.52-2.55,2.16-3.61,3a5.89,5.89,0,0,1,1.88-.29c2.31,0,4,1.4,4,3.28,0,2.24-1.86,3.69-4.79,3.69-1.89,0-3-.84-3-2a2,2,0,0,1,2.14-1.83,2.74,2.74,0,0,1,2.86,2.46,2.42,2.42,0,0,0,1.72-2.36c0-1.36-1.37-2.35-3.12-2.35-2.28,0-3.54,1-5.31,2.76l-.81-.83,3.74-3.11c.77-.64,2.49-2.1,3.18-2.72l-4.18.2a7.15,7.15,0,0,0-.94.08l0-1.16a8.2,8.2,0,0,0,1,0c.71,0,4-.09,4.73-.16a4.78,4.78,0,0,0,.76-.12Zm-2.39,9.17a1.86,1.86,0,0,0-1.84-1.85c-.63,0-1.1.38-1.1.86,0,.68.79,1.08,1.83,1.08A6.48,6.48,0,0,0,108.1,231.79Z" style="fill:#040000"/><path d="M125.08,224c-.31.2-.66.38-1.06.59-.93.48-2.86,1.39-4.22,2.28s-2.06,1.76-2.06,2.81,1.09,1.86,3.28,1.86a20.45,20.45,0,0,0,4.44-.48v1.26a26.32,26.32,0,0,1-4.39.34c-2.6,0-4.49-.78-4.49-2.86,0-1.43.91-2.56,2.39-3.6a45.77,45.77,0,0,1-2-4.27l1.1-.45a31.5,31.5,0,0,0,1.87,4.11c1.3-.79,2.8-1.52,3.55-2a6.19,6.19,0,0,0,1-.66Z" style="fill:#040000"/><path d="M131.82,233.12a22.27,22.27,0,0,0-3.09-3.12l.91-.8a26.33,26.33,0,0,1,3.14,3.11Z" style="fill:#040000"/><path d="M148.15,221.45c-.06.26-.11.55-.17.82s-.19,1.22-.35,2c.65,0,1.22-.09,1.56-.09,1.23,0,2.25.48,2.25,2.36a13.45,13.45,0,0,1-.81,5,2,2,0,0,1-2,1.16,8.24,8.24,0,0,1-1.63-.21l-.18-1.18a7,7,0,0,0,1.7.31,1.16,1.16,0,0,0,1.21-.71,11.8,11.8,0,0,0,.65-4.25c0-1.26-.57-1.48-1.46-1.48-.33,0-.88,0-1.48.1a27.81,27.81,0,0,1-2.92,7.45l-1.14-.46a21.87,21.87,0,0,0,2.91-6.88l-1.75.18-1.25.17-.11-1.22c.43,0,.8,0,1.23,0s1.28-.08,2.12-.16a16.76,16.76,0,0,0,.35-3Zm4.78,1.47a23.92,23.92,0,0,1,2.53,5l-1.09.52a16.86,16.86,0,0,0-2.48-5Z" style="fill:#040000"/><path d="M164,223.93a17.61,17.61,0,0,1-2.51.51,25,25,0,0,1-3,5.87l-1.09-.56a20,20,0,0,0,3-5.19c-.41,0-.81.05-1.22.05s-1.09,0-1.61-.05l-.08-1.05a12.86,12.86,0,0,0,1.7.1c.49,0,1,0,1.55-.07a11.47,11.47,0,0,0,.43-2.39l1.25.11c-.14.5-.33,1.34-.55,2.14a14.4,14.4,0,0,0,2.16-.5Zm1.62,1.61a12.58,12.58,0,0,0,0,1.5c0,.51.07,1.42.09,2.26a9.52,9.52,0,0,1,2.88,1.73l-.61,1a9.42,9.42,0,0,0-2.22-1.58c0,.21,0,.4,0,.55,0,1.11-.73,2-2.44,2-1.52,0-2.77-.63-2.77-2s1.2-2.1,2.77-2.1a6.89,6.89,0,0,1,1.32.12c0-1.13-.11-2.49-.14-3.46Zm-.94,4.44a5.26,5.26,0,0,0-1.4-.19c-1,0-1.69.46-1.69,1.09s.51,1.08,1.59,1.08,1.52-.63,1.52-1.32C164.69,230.46,164.69,230.24,164.67,230Zm3.7-4.06a16.44,16.44,0,0,0-3.17-1.9l.55-.87A20.67,20.67,0,0,1,169,225Z" style="fill:#040000"/><path d="M174.78,221.33a25.6,25.6,0,0,0-.65,3.85c.55-1.43,2-3.15,3.76-3.15s3.18,1.85,3.18,4.76c0,3.85-2.43,5.55-5.87,6.18l-.66-1c3-.46,5.36-1.67,5.36-5.16,0-2.18-.72-3.75-2.2-3.75-1.72,0-3.31,2.51-3.48,4.33a6,6,0,0,0,0,1.69l-1.09.09A17,17,0,0,1,173,227a35.91,35.91,0,0,1,.42-4.48,12,12,0,0,0,.11-1.19Z" style="fill:#040000"/><path d="M189.58,227a10.1,10.1,0,0,1,3-.5c2,0,3.47,1.1,3.47,2.76s-1.05,2.74-3,3.2a9.39,9.39,0,0,1-1.71.19l-.39-1.11a8.16,8.16,0,0,0,1.63-.1c1.22-.22,2.32-.88,2.32-2.17s-1.06-1.81-2.38-1.81a8.9,8.9,0,0,0-3,.55c0,1.18.06,2.4.06,3,0,1.29-.49,1.69-1.24,1.69-1.09,0-2.9-1-2.9-2.29s1.45-2.34,3-3v-.79c0-.56,0-1.2,0-1.82-.38,0-.73,0-1,0-.63,0-1.23,0-1.76-.07l0-1.07a12.31,12.31,0,0,0,1.77.11c.32,0,.68,0,1.06,0,0-.73,0-1.33,0-1.58a6.08,6.08,0,0,0-.08-1h1.21c0,.25-.05.63-.07.95s0,.88,0,1.5a18.68,18.68,0,0,0,2.85-.56v1.11a28.19,28.19,0,0,1-2.89.47c0,.66,0,1.32,0,1.88Zm-1,3.87c0-.51,0-1.45,0-2.45-1.12.53-1.95,1.31-1.95,1.94s.95,1.18,1.5,1.18C188.44,231.54,188.61,231.3,188.61,230.87Zm5.46-8.16a23.5,23.5,0,0,1,3.17,2l-.56.89a17.71,17.71,0,0,0-3.11-2.07Z" style="fill:#040000"/><path d="M34.71,246.09a16.1,16.1,0,0,1-1.15,1.72v7.59h-1V249a15,15,0,0,1-1.64,1.51,7.91,7.91,0,0,0-.55-1,13.06,13.06,0,0,0,3.45-3.78Zm-.17-3a14.2,14.2,0,0,1-3.42,3.32,4,4,0,0,0-.55-.84,10.7,10.7,0,0,0,3-2.86Zm8.77,8.53H41.22v2.69c0,.56-.13.82-.53,1a7,7,0,0,1-2.13.17,3.5,3.5,0,0,0-.34-1c.79,0,1.49,0,1.68,0s.28-.07.28-.25v-2.66H34.57v-.9h5.61v-1.19H34.89v-.9h8.17v.9H41.22v1.19h2.09Zm-.91-3.92H35.74v-4.6H42.4Zm-5.89,4.16a11.94,11.94,0,0,1,1.78,1.94l-.8.56a12.39,12.39,0,0,0-1.72-2Zm4.85-8H36.75V245h4.61Zm0,1.87H36.75v1.14h4.61Z" style="fill:#040000"/><path d="M47.77,243.83c-.09.24-.21.69-.27.94a32.46,32.46,0,0,0-.67,5.31,15.13,15.13,0,0,0,.11,1.9c.24-.63.55-1.44.77-2l.61.45a32.19,32.19,0,0,0-1,3.11,3.79,3.79,0,0,0-.07.62l.05.49-1,.07a17.34,17.34,0,0,1-.51-4.45,38.34,38.34,0,0,1,.62-5.57,8.57,8.57,0,0,0,.1-1Zm3.16,6.73a5.36,5.36,0,0,0-.18,1.27c0,.63.42,1.25,2.33,1.25a15.22,15.22,0,0,0,3.43-.37v1.18a18.19,18.19,0,0,1-3.46.28c-2.32,0-3.36-.77-3.36-2.07a7.78,7.78,0,0,1,.23-1.64Zm-.54-5.66a24.69,24.69,0,0,0,5.7,0V246a33.78,33.78,0,0,1-5.69,0Z" style="fill:#040000"/><path d="M63.88,248.13c-.11,4.69-.19,6.28-.56,6.75a.93.93,0,0,1-.79.44,10.34,10.34,0,0,1-1.5,0,2.47,2.47,0,0,0-.27-.94c.57.06,1.09.07,1.3.07a.46.46,0,0,0,.44-.19c.22-.34.32-1.71.42-5.66H61.21a11.82,11.82,0,0,1-2,6.83,5,5,0,0,0-.77-.63,11.61,11.61,0,0,0,1.85-7.06v-1.92H58.69v-1h2.43v-2.24h1v2.24h2.24v1H61.22v1.84h2.66Zm2.05-2.7a9.52,9.52,0,0,1-1.42,2.1,6.58,6.58,0,0,0-.85-.66,9.73,9.73,0,0,0,2.27-4.26l1,.21c-.16.56-.35,1.12-.56,1.66H71.2v1Zm5.56,3.46a23.38,23.38,0,0,1-2.47,2,7,7,0,0,0,2.54,3.64,3,3,0,0,0-.71.84c-1.91-1.36-2.9-4-3.42-7.19-.31.14-.63.27-.94.38v6.85h-1v-6.5c-.26.09-.51.16-.75.23a3.22,3.22,0,0,0-.63-.86A17.36,17.36,0,0,0,70,245.83l.75.55a13.81,13.81,0,0,1-2.44,1.42,18.33,18.33,0,0,0,.49,2.21,18.72,18.72,0,0,0,2-1.77Z" style="fill:#040000"/><path d="M77.3,246a17.61,17.61,0,0,1-1.55,2.12v7.36h-1v-6.21a17.1,17.1,0,0,1-1.58,1.45,11.23,11.23,0,0,0-.73-.87,15.34,15.34,0,0,0,3.92-4.21Zm-.55-3a17.12,17.12,0,0,1-3.59,3.47,9.83,9.83,0,0,0-.61-.83,13.71,13.71,0,0,0,3.2-3Zm8.59,5.28H83.22v5.78c0,.65-.15,1-.62,1.14a10.81,10.81,0,0,1-2.63.15,3.84,3.84,0,0,0-.33-1c1,0,1.91,0,2.18,0s.35-.07.35-.31v-5.77H77.49v-1h7.85Zm-.41-3.84H78.09v-1h6.84Z" style="fill:#040000"/><path d="M87.84,249.53c.74-.75,1.9-2.32,2.71-3.3s1.54-1.08,2.47-.16,1.9,2.23,2.79,3.18,2.21,2.38,3.46,3.5l-.89,1c-1-1-2.32-2.4-3.27-3.47s-2-2.36-2.61-3.07-.85-.55-1.32,0c-.64.81-1.79,2.35-2.49,3.19-.29.37-.6.79-.81,1.08l-1-1.08A8,8,0,0,0,87.84,249.53Z" style="fill:#040000"/><path d="M105.3,246a17.61,17.61,0,0,1-1.55,2.12v7.36h-1v-6.21a17.1,17.1,0,0,1-1.58,1.45,11.23,11.23,0,0,0-.73-.87,15.34,15.34,0,0,0,3.92-4.21Zm-.55-3a17.12,17.12,0,0,1-3.59,3.47,9.83,9.83,0,0,0-.61-.83,13.71,13.71,0,0,0,3.2-3Zm8.59,5.28h-2.12v5.78c0,.65-.15,1-.62,1.14a10.81,10.81,0,0,1-2.63.15,3.84,3.84,0,0,0-.33-1c1,0,1.91,0,2.18,0s.35-.07.35-.31v-5.77h-4.68v-1h7.85Zm-.41-3.84h-6.84v-1h6.84Z" style="fill:#040000"/><path d="M117.63,243.66c-.09.26-.18.63-.25.9a18.88,18.88,0,0,0-.4,7.3c.2-.59.48-1.42.73-2.1l.62.38a29.07,29.07,0,0,0-.9,3.05,3.79,3.79,0,0,0-.07.62l0,.47-1,.11a15.29,15.29,0,0,1-.73-4.4,37.17,37.17,0,0,1,.52-5.53,5.26,5.26,0,0,0,.07-.92Zm9.23,3.52a20.63,20.63,0,0,1-2.24.25v.48c0,3.19,0,5.45-2.94,7.18l-1-.81a4.57,4.57,0,0,0,1.36-.87c1.49-1.29,1.56-2.84,1.56-5.52v-.4c-.59,0-1.19,0-1.77,0s-1.64,0-2.24-.1v-1.12a15.17,15.17,0,0,0,2.23.16c.57,0,1.16,0,1.75-.05,0-.87-.06-1.79-.08-2.14s-.09-.62-.13-.83h1.3c0,.24,0,.51,0,.82s0,1.22,0,2.08a15.55,15.55,0,0,0,2.26-.32Z" style="fill:#040000"/><path d="M139.45,254.17a10.62,10.62,0,0,0-3.35-2.09c0,.35,0,.66,0,.87,0,1-.65,2-2.46,2-2,0-3.09-.72-3.09-2.06s1.22-2.12,3.22-2.12a7.27,7.27,0,0,1,1.16.09c0-.62-.05-1.28-.07-1.85h-.77c-1,0-2.49-.09-3.49-.2V247.7a24.43,24.43,0,0,0,3.49.26h.74v-2h-.68c-1,0-2.44-.12-3.27-.21v-1a22.75,22.75,0,0,0,3.25.26h.72v-.91c0-.22,0-.63,0-.82H136a6.78,6.78,0,0,0-.07.92c0,.17,0,.44,0,.77a30.79,30.79,0,0,0,3.56-.33v1c-1.09.11-2.28.22-3.58.29v2a36.43,36.43,0,0,0,3.85-.36l0,1.05c-1.31.17-2.54.26-3.86.32,0,.72.07,1.44.1,2.1a11.52,11.52,0,0,1,4,2.16Zm-4.45-2.4a7.34,7.34,0,0,0-1.34-.12c-1.32,0-2,.5-2,1.13s.55,1.12,1.92,1.12c.8,0,1.47-.23,1.47-1.19C135,252.47,135,252.15,135,251.77Z" style="fill:#040000"/><path d="M150.69,246c0,.79,0,1.64,0,2.27a3.36,3.36,0,0,1,.45,1.78c0,1.88-.91,4-4.13,4.93l-1-.93c1.82-.42,3.11-1.18,3.69-2.41a2.06,2.06,0,0,1-1.19.35,2.24,2.24,0,0,1-2.3-2.33,2.43,2.43,0,0,1,2.45-2.42,2.79,2.79,0,0,1,.93.15c0-.4,0-.89,0-1.37-2.1,0-4.45.11-6.19.24l0-1.1c1.54,0,4.15-.11,6.21-.14,0-.39,0-.71,0-.91s-.06-.7-.09-.86h1.28l-.07.86c0,.21,0,.54,0,.9H155l0,1.06c-.78-.05-2-.08-4.07-.08Zm-.75,3a1.22,1.22,0,0,0-1.23-.85,1.41,1.41,0,0,0-1.4,1.46,1.33,1.33,0,0,0,1.41,1.37C149.54,251.06,150.07,250.4,149.94,249.08Z" style="fill:#040000"/><path d="M161.59,245.85c-.17.25-.41.63-.62,1,0,.22,0,.44-.05.68,1.17-1.05,2.9-2.28,4.41-2.28,1.88,0,2.87,1.68,2.87,4a12.31,12.31,0,0,1-.18,2.31,9.87,9.87,0,0,1,1.54,1.36l-.59.91a10.73,10.73,0,0,0-1.23-1.21,2.64,2.64,0,0,1-2.69,1.85c-1.33,0-2.45-.57-2.45-2,0-1.11,1-1.92,2.41-1.92a4.85,4.85,0,0,1,2,.42,13.17,13.17,0,0,0,.12-1.95c0-1.74-.86-2.8-2-2.8s-3.08,1.33-4.3,2.63c0,.63-.05,1.25-.05,1.78,0,1.26,0,2.1.05,3.35l.07.84h-1.22c0-.2,0-.6,0-.83,0-1.33,0-2,0-3.55,0-.14,0-.33,0-.54-.67,1-1.58,2.36-2.25,3.28l-.7-1c.77-1,2.36-3.12,3.06-4.21,0-.45.06-.9.09-1.33-.63.07-1.84.24-2.7.35l-.12-1.15c.31,0,.58,0,.91,0a19.22,19.22,0,0,0,2-.23c0-.65.07-1.15.07-1.31a5.22,5.22,0,0,0-.06-1l1.33,0c-.07.34-.18,1.12-.28,2.09l.07,0Zm5.21,6.09a4,4,0,0,0-1.89-.5c-.71,0-1.35.4-1.35,1s.64,1,1.42,1A1.85,1.85,0,0,0,166.8,251.94Z" style="fill:#040000"/><path d="M174.86,253.05a2.14,2.14,0,1,1-2.14-2.13A2.14,2.14,0,0,1,174.86,253.05Zm-.73,0a1.41,1.41,0,0,0-1.41-1.42,1.43,1.43,0,0,0,0,2.85A1.4,1.4,0,0,0,174.13,253.05Z" style="fill:#040000"/><path d="M438.59,211.88v8.94H445v0l-12.5,10.63L420,220.86v0h6.42v-8.94Z" style="fill:#58aac8"/><line x1="380" y1="64.12" x2="380" y2="65.62" style="fill:none;stroke:#c8c8c8;stroke-miterlimit:10"/><line x1="380" y1="68.62" x2="380" y2="91.12" style="fill:none;stroke:#c8c8c8;stroke-miterlimit:10;stroke-dasharray:3,3"/><line x1="380" y1="92.62" x2="380" y2="94.12" style="fill:none;stroke:#c8c8c8;stroke-miterlimit:10"/><line x1="380" y1="128.12" x2="380" y2="129.62" style="fill:none;stroke:#c8c8c8;stroke-miterlimit:10"/><line x1="380" y1="132.62" x2="380" y2="155.12" style="fill:none;stroke:#c8c8c8;stroke-miterlimit:10;stroke-dasharray:3,3"/><line x1="380" y1="156.62" x2="380" y2="158.12" style="fill:none;stroke:#c8c8c8;stroke-miterlimit:10"/><line x1="530" y1="58.12" x2="530" y2="59.62" style="fill:none;stroke:#c8c8c8;stroke-miterlimit:10"/><line x1="530" y1="62.62" x2="530" y2="85.12" style="fill:none;stroke:#c8c8c8;stroke-miterlimit:10;stroke-dasharray:3,3"/><line x1="530" y1="86.62" x2="530" y2="88.12" style="fill:none;stroke:#c8c8c8;stroke-miterlimit:10"/><line x1="680" y1="59.65" x2="680" y2="61.15" style="fill:none;stroke:#c8c8c8;stroke-miterlimit:10"/><line x1="680" y1="64.12" x2="680" y2="222.89" style="fill:none;stroke:#c8c8c8;stroke-miterlimit:10;stroke-dasharray:2.967778444290161,2.967778444290161"/><line x1="680" y1="224.38" x2="680" y2="225.88" style="fill:none;stroke:#c8c8c8;stroke-miterlimit:10"/><line x1="530" y1="122.12" x2="530" y2="123.62" style="fill:none;stroke:#c8c8c8;stroke-miterlimit:10"/><line x1="530" y1="126.62" x2="530" y2="149.12" style="fill:none;stroke:#c8c8c8;stroke-miterlimit:10;stroke-dasharray:3,3"/><line x1="530" y1="150.62" x2="530" y2="152.12" style="fill:none;stroke:#c8c8c8;stroke-miterlimit:10"/><line x1="530" y1="185.88" x2="530" y2="187.38" style="fill:none;stroke:#c8c8c8;stroke-miterlimit:10"/><line x1="530" y1="190.22" x2="530" y2="222.95" style="fill:none;stroke:#c8c8c8;stroke-miterlimit:10;stroke-dasharray:2.846153736114502,2.846153736114502"/><line x1="530" y1="224.38" x2="530" y2="225.88" style="fill:none;stroke:#c8c8c8;stroke-miterlimit:10"/><line x1="485" y1="191.88" x2="485" y2="193.38" style="fill:none;stroke:#c8c8c8;stroke-miterlimit:10"/><line x1="485" y1="196.22" x2="485" y2="228.95" style="fill:none;stroke:#c8c8c8;stroke-miterlimit:10;stroke-dasharray:2.846153736114502,2.846153736114502"/><line x1="485" y1="230.38" x2="485" y2="231.88" style="fill:none;stroke:#c8c8c8;stroke-miterlimit:10"/><line x1="485" y1="265.88" x2="485" y2="267.38" style="fill:none;stroke:#c8c8c8;stroke-miterlimit:10"/><line x1="485" y1="270.38" x2="485" y2="292.88" style="fill:none;stroke:#c8c8c8;stroke-miterlimit:10;stroke-dasharray:3,3"/><line x1="485" y1="294.38" x2="485" y2="295.88" style="fill:none;stroke:#c8c8c8;stroke-miterlimit:10"/><line x1="530" y1="259.88" x2="530" y2="261.38" style="fill:none;stroke:#c8c8c8;stroke-miterlimit:10"/><line x1="530" y1="264.38" x2="530" y2="286.88" style="fill:none;stroke:#c8c8c8;stroke-miterlimit:10;stroke-dasharray:3,3"/><line x1="530" y1="288.38" x2="530" y2="289.88" style="fill:none;stroke:#c8c8c8;stroke-miterlimit:10"/><path d="M279.62,45.82c-.07,4.85-.15,6.63-.52,7.19a1.41,1.41,0,0,1-1,.63,9.87,9.87,0,0,1-1.54.06,4.25,4.25,0,0,0-.44-1.59c.47,0,.86.06,1.1.06a.43.43,0,0,0,.42-.23c.19-.31.28-1.59.34-5.19h-1.08a11.79,11.79,0,0,1-2.08,7,8.42,8.42,0,0,0-1.32-1.09A10.74,10.74,0,0,0,275.38,46V43.66h-1.53V42h2.25V39.73h1.71V42H280v1.14a10.67,10.67,0,0,0,1.41-3.42l1.75.33c-.12.5-.27,1-.43,1.47h4.66v1.62h-5.34a9.46,9.46,0,0,1-1.54,2.25,12.67,12.67,0,0,0-1.44-1.14,5.37,5.37,0,0,0,.55-.6h-2.71v1.47h2.68Zm8.22,1.25a22.35,22.35,0,0,1-2.31,1.9,6.3,6.3,0,0,0,2.37,3.23,6.37,6.37,0,0,0-1.21,1.5c-2-1.44-2.9-4.05-3.44-7.28l-.52.23v7.08H281V47.26l-.31.09a8.52,8.52,0,0,0-1.05-1.48,17.14,17.14,0,0,0,6.13-2.55l1.28.93a14.51,14.51,0,0,1-2.37,1.5c.09.58.21,1.17.34,1.72a13,13,0,0,0,1.53-1.54Z" style="fill:#72b447"/><path d="M294.29,43.63a19.47,19.47,0,0,1-1.6,2.3v7.83H290.9V47.89c-.42.41-.82.78-1.23,1.11a15.92,15.92,0,0,0-1.21-1.54A14.56,14.56,0,0,0,292.58,43Zm-.55-3.19a20,20,0,0,1-4.13,3.94,9.3,9.3,0,0,0-1-1.45,13.36,13.36,0,0,0,3.39-3.2Zm8.82,6H300.5v5.26c0,1-.18,1.46-.84,1.73a8.51,8.51,0,0,1-2.92.3,7.58,7.58,0,0,0-.54-1.82c.85,0,1.84,0,2.11,0s.38-.06.38-.28V46.41h-4.43v-1.7h8.3Zm-.38-4.13h-7.29V40.59h7.29Z" style="fill:#72b447"/><path d="M309.17,40.41a24.6,24.6,0,0,1-1.39,2.76V53.71h-1.86V45.84a14.13,14.13,0,0,1-1.56,1.68,12.62,12.62,0,0,0-1-1.82,15.63,15.63,0,0,0,4.09-5.85Zm4.11,5.43c.42,3.33,1.22,5.55,2.42,5.69.34,0,.52-.71.64-2.38a6.16,6.16,0,0,0,1.46,1c-.38,2.9-1.19,3.59-2,3.54-2.53-.24-3.72-3.06-4.26-7.63l-2.95.4-.26-1.72,3-.41c-.1-1.35-.19-2.82-.24-4.39h1.82c0,1.47.09,2.88.19,4.15l4.28-.55.25,1.68ZM316,43.18a13.29,13.29,0,0,0-2.06-2.52l1.34-.82a14.12,14.12,0,0,1,2.16,2.41Z" style="fill:#72b447"/><path d="M330.34,49.41c-.57.82-1.16,1.74-1.68,2.37h3.39v1.53H319.36V51.78h2.92A10.3,10.3,0,0,0,321,49.36l1.36-.58h-2.29V47.25h4.56V45.76h-2.76V45a18.54,18.54,0,0,1-2.24,1.39A7,7,0,0,0,318.56,45a16,16,0,0,0,6.06-5.29h1.85a15.34,15.34,0,0,0,6.4,5.11,8.24,8.24,0,0,0-1.18,1.61A19,19,0,0,1,329.41,45v.78h-2.87v1.49h4.62v1.53h-4.62v3h1.64l-1-.41a15.21,15.21,0,0,0,1.43-2.59Zm-7.85-.63a9.85,9.85,0,0,1,1.38,2.47l-1.23.53h2v-3Zm5.9-4.58a16,16,0,0,1-2.76-2.77A15.86,15.86,0,0,1,323,44.2Z" style="fill:#72b447"/><rect x="380" y="30.12" width="300" height="34" style="fill:#72b447"/><path d="M502.35,50.17h-1.5v3.27h-2.33V50.17h-5.35v-1.7l4.69-7.61h3v7.41h1.5Zm-3.83-1.9V45.7c0-.73.07-1.87.11-2.6h-.07c-.31.66-.65,1.36-1,2l-1.95,3.13Z" style="fill:#fff"/><path d="M503.57,47.09c0-4.35,1.7-6.47,4.27-6.47s4.25,2.14,4.25,6.47-1.7,6.58-4.25,6.58S503.57,51.43,503.57,47.09Zm6.16,0c0-3.51-.82-4.53-1.89-4.53s-1.9,1-1.9,4.53.81,4.63,1.9,4.63S509.73,50.63,509.73,47.09Z" style="fill:#fff"/><path d="M513.74,55.7c1.31-.5,2-1.35,2-2.33h-.15a1.47,1.47,0,0,1-1.57-1.48,1.51,1.51,0,0,1,1.62-1.48c1.15,0,1.8.92,1.8,2.46a4.29,4.29,0,0,1-3.21,4.19Z" style="fill:#fff"/><path d="M519.11,47.09c0-4.35,1.7-6.47,4.27-6.47s4.25,2.14,4.25,6.47-1.7,6.58-4.25,6.58S519.11,51.43,519.11,47.09Zm6.15,0c0-3.51-.81-4.53-1.88-4.53s-1.91,1-1.91,4.53.82,4.63,1.91,4.63S525.26,50.63,525.26,47.09Z" style="fill:#fff"/><path d="M529.12,47.09c0-4.35,1.7-6.47,4.27-6.47s4.25,2.14,4.25,6.47-1.7,6.58-4.25,6.58S529.12,51.43,529.12,47.09Zm6.16,0c0-3.51-.82-4.53-1.89-4.53s-1.9,1-1.9,4.53.81,4.63,1.9,4.63S535.28,50.63,535.28,47.09Z" style="fill:#fff"/><path d="M539.14,47.09c0-4.35,1.7-6.47,4.26-6.47s4.25,2.14,4.25,6.47-1.7,6.58-4.25,6.58S539.14,51.43,539.14,47.09Zm6.15,0c0-3.51-.82-4.53-1.89-4.53s-1.9,1-1.9,4.53.82,4.63,1.9,4.63S545.29,50.63,545.29,47.09Z" style="fill:#fff"/><path d="M564.14,52.53c0,1.11-.24,1.67-.95,2a7.82,7.82,0,0,1-3.21.38,8.24,8.24,0,0,0-.73-2c1,.07,2.07.06,2.41.06s.44-.12.44-.41V48.4H551.84v6.5h-2V40.11h14.34Zm-12.3-6.13h4V42.11h-4Zm10.26,0V42.11h-4.25V46.4Z" style="fill:#fff"/><rect x="380" y="94.12" width="150" height="34" style="fill:#4d4d96"/><path d="M419.43,116c3.42-3.06,5.44-5.42,5.44-7.36a1.8,1.8,0,0,0-1.88-2,3.26,3.26,0,0,0-2.31,1.29l-1.36-1.36a5.09,5.09,0,0,1,4-1.9,3.69,3.69,0,0,1,4,3.87c0,2.28-1.88,4.73-4.18,7,.63-.06,1.46-.13,2-.13h2.74v2.11h-8.44Z" style="fill:#fff"/><path d="M429.47,111.09c0-4.35,1.69-6.47,4.26-6.47s4.25,2.14,4.25,6.47-1.7,6.58-4.25,6.58S429.47,115.43,429.47,111.09Zm6.15,0c0-3.51-.82-4.53-1.89-4.53s-1.9,1-1.9,4.53.81,4.63,1.9,4.63S435.62,114.63,435.62,111.09Z" style="fill:#fff"/><path d="M439.63,119.7c1.31-.5,2-1.35,2-2.33h-.15a1.47,1.47,0,0,1-1.57-1.48,1.51,1.51,0,0,1,1.62-1.48c1.15,0,1.8.92,1.8,2.46a4.29,4.29,0,0,1-3.21,4.19Z" style="fill:#fff"/><path d="M445,111.09c0-4.35,1.7-6.47,4.27-6.47s4.25,2.14,4.25,6.47-1.7,6.58-4.25,6.58S445,115.43,445,111.09Zm6.16,0c0-3.51-.82-4.53-1.89-4.53s-1.9,1-1.9,4.53.81,4.63,1.9,4.63S451.16,114.63,451.16,111.09Z" style="fill:#fff"/><path d="M455,111.09c0-4.35,1.7-6.47,4.26-6.47s4.25,2.14,4.25,6.47-1.7,6.58-4.25,6.58S455,115.43,455,111.09Zm6.15,0c0-3.51-.82-4.53-1.89-4.53s-1.9,1-1.9,4.53.81,4.63,1.9,4.63S461.17,114.63,461.17,111.09Z" style="fill:#fff"/><path d="M465,111.09c0-4.35,1.7-6.47,4.27-6.47s4.24,2.14,4.24,6.47-1.69,6.58-4.24,6.58S465,115.43,465,111.09Zm6.15,0c0-3.51-.81-4.53-1.88-4.53s-1.91,1-1.91,4.53.82,4.63,1.91,4.63S471.18,114.63,471.18,111.09Z" style="fill:#fff"/><path d="M490,116.53c0,1.11-.23,1.67-.95,2a7.82,7.82,0,0,1-3.21.38,8.24,8.24,0,0,0-.73-2c1,.07,2.07.06,2.41.06s.44-.12.44-.41V112.4H477.73v6.5h-2V104.11H490Zm-12.3-6.13h4v-4.29h-4Zm10.26,0v-4.29h-4.25v4.29Z" style="fill:#fff"/><rect x="485" y="231.88" width="195" height="34" style="fill:#e9a031"/><path d="M546.94,253.74c3.41-3.06,5.44-5.42,5.44-7.36a1.81,1.81,0,0,0-1.89-2,3.25,3.25,0,0,0-2.31,1.3l-1.36-1.36a5.08,5.08,0,0,1,4-1.91,3.69,3.69,0,0,1,4,3.88c0,2.28-1.88,4.72-4.18,7,.63-.07,1.46-.14,2-.14h2.74v2.11h-8.43Z" style="fill:#fff"/><path d="M564,245.3a2.7,2.7,0,0,0-1.94-.92c-1.44,0-2.63,1.09-2.73,4.23a3.65,3.65,0,0,1,2.58-1.34c2.11,0,3.6,1.26,3.6,4a3.94,3.94,0,0,1-3.94,4.2c-2.4,0-4.52-1.92-4.52-6.36,0-4.69,2.33-6.7,4.86-6.7a4.69,4.69,0,0,1,3.42,1.43Zm-.78,5.93c0-1.5-.7-2.2-1.79-2.2a2.48,2.48,0,0,0-2.05,1.33c.24,2.3,1.08,3.18,2.14,3.18S563.24,252.76,563.24,251.23Z" style="fill:#fff"/><path d="M567.13,257.45c1.31-.49,2-1.34,2-2.33H569a1.47,1.47,0,0,1-1.57-1.48,1.51,1.51,0,0,1,1.62-1.48c1.15,0,1.8.92,1.8,2.47a4.28,4.28,0,0,1-3.21,4.18Z" style="fill:#fff"/><path d="M572.5,248.85c0-4.35,1.7-6.48,4.27-6.48s4.25,2.14,4.25,6.48-1.7,6.58-4.25,6.58S572.5,253.18,572.5,248.85Zm6.16,0c0-3.52-.82-4.54-1.89-4.54s-1.9,1-1.9,4.54.81,4.62,1.9,4.62S578.66,252.38,578.66,248.85Z" style="fill:#fff"/><path d="M582.52,248.85c0-4.35,1.7-6.48,4.26-6.48s4.25,2.14,4.25,6.48-1.7,6.58-4.25,6.58S582.52,253.18,582.52,248.85Zm6.15,0c0-3.52-.82-4.54-1.89-4.54s-1.9,1-1.9,4.54.82,4.62,1.9,4.62S588.67,252.38,588.67,248.85Z" style="fill:#fff"/><path d="M592.53,248.85c0-4.35,1.7-6.48,4.27-6.48s4.25,2.14,4.25,6.48-1.7,6.58-4.25,6.58S592.53,253.18,592.53,248.85Zm6.15,0c0-3.52-.81-4.54-1.88-4.54s-1.91,1-1.91,4.54.82,4.62,1.91,4.62S598.68,252.38,598.68,248.85Z" style="fill:#fff"/><path d="M617.53,254.29c0,1.1-.23,1.66-.95,2a7.86,7.86,0,0,1-3.21.37,8,8,0,0,0-.73-2c1,.07,2.07.05,2.41.05s.44-.12.44-.41v-4.11H605.23v6.49h-2V241.86h14.34Zm-12.3-6.14h4v-4.28h-4Zm10.26,0v-4.28h-4.24v4.28Z" style="fill:#fff"/><path d="M548.78,295.23a4.55,4.55,0,0,0-.39.86,12.6,12.6,0,0,1-2.09,4,11.3,11.3,0,0,1-4.85,3.38L540,302.21a9.56,9.56,0,0,0,4.83-3,8.65,8.65,0,0,0,1.71-3.28h-3.37a13.78,13.78,0,0,1-3,2.91l-1.34-1a10.53,10.53,0,0,0,3.74-3.86,5.83,5.83,0,0,0,.54-1.26l1.75.57a12.86,12.86,0,0,0-.73,1.23l0,.06h2.42a3.62,3.62,0,0,0,1-.15Z" style="fill:#d93b3f"/><path d="M551.1,297.14c.44,0,1.31.07,1.93.07h6.44c.56,0,1.1,0,1.41-.07V299c-.29,0-.9-.06-1.41-.06H553c-.68,0-1.48,0-1.93.06Z" style="fill:#d93b3f"/><path d="M566.09,298.38a19.27,19.27,0,0,1-2.31,3.35l-1.3-.89a12.5,12.5,0,0,0,2.25-3.09Zm2.71-1.7v5.58c0,.69-.4,1.12-1.25,1.12a17.8,17.8,0,0,1-1.95-.1l-.15-1.49a7.88,7.88,0,0,0,1.34.14c.31,0,.43-.12.44-.43s0-4.24,0-4.81h-3a11.13,11.13,0,0,0-1.16.05v-1.6a8.93,8.93,0,0,0,1.16.1h3v-1a5.93,5.93,0,0,0-.11-1h1.78a8.11,8.11,0,0,0-.11,1v1h2.8a11.11,11.11,0,0,0,1.17-.08v1.57c-.37,0-.84,0-1.16,0Zm2.45,1a28,28,0,0,1,2,3.16l-1.42.76a21.8,21.8,0,0,0-1.94-3.21Zm-.69-4a1.38,1.38,0,0,1,1.39-1.37,1.37,1.37,0,0,1,1.38,1.37,1.39,1.39,0,0,1-1.38,1.4A1.4,1.4,0,0,1,570.56,293.69Zm.74,0a.65.65,0,1,0,1.3,0,.65.65,0,0,0-1.3,0Z" style="fill:#d93b3f"/><path d="M580,300a11.34,11.34,0,0,0,4.37-4.67l.94,1.7a13.26,13.26,0,0,1-8.89,6.13l-1-1.59A12.18,12.18,0,0,0,580,300Zm0-3.88-1.22,1.25a25.22,25.22,0,0,0-3-2.59l1.13-1.2A25.3,25.3,0,0,1,580,296.11Z" style="fill:#d93b3f"/><path d="M545.8,311.2a2.72,2.72,0,0,0-1.94-.92c-1.44,0-2.63,1.09-2.73,4.23a3.67,3.67,0,0,1,2.58-1.34c2.11,0,3.61,1.26,3.61,4a4,4,0,0,1-4,4.2c-2.4,0-4.52-1.92-4.52-6.36,0-4.69,2.33-6.7,4.86-6.7a4.69,4.69,0,0,1,3.42,1.43Zm-.78,5.93c0-1.5-.7-2.19-1.78-2.19a2.48,2.48,0,0,0-2.06,1.32c.24,2.3,1.09,3.18,2.14,3.18S545,318.66,545,317.13Z" style="fill:#d93b3f"/><path d="M548.91,323.35c1.31-.49,2-1.34,2-2.33h-.15a1.46,1.46,0,0,1-1.56-1.48,1.5,1.5,0,0,1,1.61-1.48c1.16,0,1.8.92,1.8,2.47a4.28,4.28,0,0,1-3.21,4.18Z" style="fill:#d93b3f"/><path d="M554.29,314.75c0-4.35,1.7-6.48,4.26-6.48s4.25,2.14,4.25,6.48-1.7,6.58-4.25,6.58S554.29,319.08,554.29,314.75Zm6.15,0c0-3.52-.82-4.54-1.89-4.54s-1.9,1-1.9,4.54.82,4.62,1.9,4.62S560.44,318.28,560.44,314.75Z" style="fill:#d93b3f"/><path d="M564.3,314.75c0-4.35,1.7-6.48,4.27-6.48s4.24,2.14,4.24,6.48-1.69,6.58-4.24,6.58S564.3,319.08,564.3,314.75Zm6.15,0c0-3.52-.81-4.54-1.88-4.54s-1.91,1-1.91,4.54.82,4.62,1.91,4.62S570.45,318.28,570.45,314.75Z" style="fill:#d93b3f"/><path d="M574.31,314.75c0-4.35,1.7-6.48,4.27-6.48s4.25,2.14,4.25,6.48-1.7,6.58-4.25,6.58S574.31,319.08,574.31,314.75Zm6.16,0c0-3.52-.82-4.54-1.89-4.54s-1.91,1-1.91,4.54.82,4.62,1.91,4.62S580.47,318.28,580.47,314.75Z" style="fill:#d93b3f"/><path d="M599.32,320.19c0,1.1-.24,1.66-1,2a7.83,7.83,0,0,1-3.21.37,8.18,8.18,0,0,0-.73-2c1,.07,2.08.05,2.42.05s.44-.12.44-.41v-4.11H587v6.49h-2V307.76h14.35ZM587,314.05h4v-4.28h-4Zm10.27,0v-4.28H593v4.28Z" style="fill:#d93b3f"/><path d="M612.25,306.88a19.75,19.75,0,0,0,5,6.05,9.84,9.84,0,0,0-1.71,1.82c-.36-.32-.72-.7-1.09-1.09v.12c-.19,5.13-.39,7.14-1,7.85a2,2,0,0,1-1.54.8,15.73,15.73,0,0,1-2.57.05,5.09,5.09,0,0,0-.66-2c.93.07,1.81.09,2.24.09a.8.8,0,0,0,.68-.24c.34-.36.53-1.87.68-5.42H609c-.42,3.26-1.53,6.17-5.93,7.82a6.92,6.92,0,0,0-1.34-1.87c3.84-1.24,4.72-3.47,5.06-5.95h-2.87v-1.19a11.69,11.69,0,0,1-1.36,1.22,12.25,12.25,0,0,0-1.74-1.63,14.06,14.06,0,0,0,5-6.36l2.18.63a20.61,20.61,0,0,1-3.37,5.36h9.18a28.63,28.63,0,0,1-3.55-5.22Z" style="fill:#d93b3f"/><path d="M278.59,105.07h3.15v2.58H281v1.14h-2.4v.63h2.19v1.18h-2.19v.65h3v1.36h-7.71v-1.36h3.06v-.65H274.7v-1.18h2.22v-.63h-2.37v-1.14h-.73v-2.58h3.06v-1.25h1.71Zm-3.93,8.05h6.28v4.45h-1.69v-.5h-3v.66h-1.6Zm5.43-6.7h-4.7v1.11h1.53v-.81h1.64v.81h1.53Zm-3.83,8v1.27h3v-1.27Zm7.8-.75h-1.69v-8.39h1.69ZM287.2,104v11.57c0,1-.18,1.48-.78,1.77a6.64,6.64,0,0,1-2.75.36,7.32,7.32,0,0,0-.58-1.85c.87.05,1.72,0,2,0s.36-.09.36-.33V104Z" style="fill:#4d4d96"/><path d="M296,110.92a5.57,5.57,0,0,1-.06.73c-.24,3.32-.51,4.77-1,5.36a2.07,2.07,0,0,1-1.49.64,19.11,19.11,0,0,1-2.35,0,4.57,4.57,0,0,0-.66-1.87c.9.09,1.86.1,2.26.1a1,1,0,0,0,.68-.18c.31-.25.51-1.2.67-3.16h-3c-.05.24-.09.46-.14.67L289,113a47.6,47.6,0,0,0,.92-5.28h4.15V106H289.6V104.3h6.28v5h-4.35c-.07.53-.16,1.07-.25,1.58Zm5-7v13.78h-1.78V104Z" style="fill:#4d4d96"/><path d="M309.91,108.22a20.74,20.74,0,0,1-1.23,4.36,14.47,14.47,0,0,1,1.54,2.43l-1.42,1.22a15,15,0,0,0-1-1.85,10.15,10.15,0,0,1-3.08,3.24,7.6,7.6,0,0,0-1.2-1.39,8.35,8.35,0,0,0,3.2-3.41c-.8-1.06-1.68-2.13-2.51-3l1.28-1c.64.69,1.33,1.46,2,2.25a18.44,18.44,0,0,0,.72-3Zm7.74.55H316v6.75c0,1-.18,1.53-.75,1.82a6,6,0,0,1-2.7.39,7.11,7.11,0,0,0-.57-1.92c.84,0,1.65,0,1.91,0s.36-.08.36-.32v-6.75h-3.77v-1.08h-6.6V106h2.61v-2.29h1.71V106H311v1h3.27v-3.33H316v3.33h1.61ZM311.8,110a11.94,11.94,0,0,1,1.66,3.16l-1.54.8a12.45,12.45,0,0,0-1.55-3.27Z" style="fill:#4d4d96"/><path d="M332.33,111.61a27.64,27.64,0,0,1-3.16,1.75,7.47,7.47,0,0,0,3.48,2.43,7.52,7.52,0,0,0-1.14,1.5c-2.85-1.17-4.5-3.51-5.45-6.7-.39.24-.81.46-1.24.67,3.06,2.06,3.06,5.09,1.53,6.06a2.93,2.93,0,0,1-1.74.5c-.36,0-.8,0-1.2,0a3.38,3.38,0,0,0-.51-1.58,21,21,0,0,1-3,1.12,12.06,12.06,0,0,0-1-1.29,18.21,18.21,0,0,0,6.18-2.58,3.74,3.74,0,0,0-.32-.4,17.85,17.85,0,0,1-4.66,1.9,7.89,7.89,0,0,0-1-1.2,17.38,17.38,0,0,0,4.68-1.53l-.48-.31a30.81,30.81,0,0,1-3.35,1,8.94,8.94,0,0,0-.9-1.26,23.58,23.58,0,0,0,4.32-1.12h-2.83V108.2a5.54,5.54,0,0,1-.51.33,5.93,5.93,0,0,0-1.19-1.26,10.85,10.85,0,0,0,4.07-3.6l1.86.36-.45.63H327l.27-.07,1.21.79a12.3,12.3,0,0,1-1,1.4H331v3.75h-3.4a11,11,0,0,0,.76,1.71,19.21,19.21,0,0,0,2.49-1.68Zm-10.12-2.37h2.56v-1.16h-2.56Zm1-3.24a9.9,9.9,0,0,1-.8.78h3a7.68,7.68,0,0,0,.6-.78Zm2.44,8.67a17.62,17.62,0,0,1-2.68,1.51,11.66,11.66,0,0,0,1.38.06,1.41,1.41,0,0,0,.91-.22A1.22,1.22,0,0,0,325.61,114.67Zm3.69-6.59h-2.79v1.16h2.79Z" style="fill:#4d4d96"/><path d="M339.53,116.47a8.7,8.7,0,0,0,2.58-1.65l1.44.9a10.69,10.69,0,0,1-3.19,2,10.76,10.76,0,0,0-.83-.85H336.2v.59h-1.5v-3.88l-.31.14a5.56,5.56,0,0,0-.9-1.28,8.84,8.84,0,0,0,2.76-1.57l-1-.69a6.34,6.34,0,0,1-.65.51,6.52,6.52,0,0,0-1.12-1,7.16,7.16,0,0,0,2.74-3.13l1.46.36a6.38,6.38,0,0,1-.35.69h1.4l.27-.08,1,.47a8.8,8.8,0,0,1-1.47,2.7c.8.54,1.53,1.08,2,1.5l-1,1.24,0,0Zm-4.21-9.08h-1.44V105h2.4v-1.22h1.66V105h2.45v2.41H338.9v-1h-3.58Zm2.7,6.72H336.2v1.38H338Zm.75-1.38c-.38-.3-.83-.63-1.28-1a8.45,8.45,0,0,1-1.26,1Zm-2.19-4-.32.39,1,.68a6.52,6.52,0,0,0,.73-1.07Zm6.19-1.89c.06-.33.12-.69.18-1h-2.52v-1.51h7v1.51h-2.6c-.12.36-.24.71-.36,1h2.66v7.91h-6.26v-7.91Zm2.69,1.34h-3v.91h3Zm0,2.14h-3v.92h3Zm0,2.18h-3v.93h3Zm0,2.38a19,19,0,0,1,2.43,2l-1.38.92a16.54,16.54,0,0,0-2.34-2.06Z" style="fill:#4d4d96"/><path d="M285.92,247.6a10.61,10.61,0,0,1-3.52,4.83,17,17,0,0,0,5.32,1.35,9.85,9.85,0,0,0-1.14,1.74,16,16,0,0,1-6-1.93,19.78,19.78,0,0,1-6,1.9,6.7,6.7,0,0,0-1-1.72A19.81,19.81,0,0,0,279,252.4a11.36,11.36,0,0,1-2.52-3.24l1.32-.45H275V247h4.71v-1.74h-5.46v-1.77h5.46V241.5h1.85v1.95h5.49v1.77h-5.49V247h2.8l.32-.06Zm-7.72,1.11a8,8,0,0,0,2.52,2.76,8.11,8.11,0,0,0,2.64-2.76Z" style="fill:#e9a031"/><path d="M292.69,249.94v3.59c0,.91-.18,1.35-.71,1.63a5.76,5.76,0,0,1-2.46.33,6.57,6.57,0,0,0-.51-1.68c.68,0,1.41,0,1.62,0s.32-.09.32-.33v-3.18l-2,.42-.37-1.75c.66-.09,1.45-.24,2.34-.39V246h-2.12v-1.65H291v-2.85h1.74v2.85h1.92V246h-1.92v2.3c.66-.14,1.32-.26,2-.39l.12,1.57Zm8.4,5.54c-.08-.39-.2-.84-.33-1.32-2.6.39-5.31.73-7.29,1l-.39-1.86,1.57-.15a77.72,77.72,0,0,0,2.21-11.3l1.95.32A95.66,95.66,0,0,1,296.5,253c1.18-.12,2.44-.27,3.7-.42a40.46,40.46,0,0,0-1.66-3.77l1.57-.55a31.24,31.24,0,0,1,2.75,6.6Z" style="fill:#e9a031"/><path d="M311.27,247.48a13.57,13.57,0,0,0-3.87.72c-.43.14-1,.36-1.44.51l-.55-2.11a14.76,14.76,0,0,0,1.62-.26,20.56,20.56,0,0,1,4.48-.67c2.36,0,4,1.33,4,3.66,0,3.18-2.94,5.16-7.07,5.73l-1.08-1.86c3.69-.42,6.05-1.62,6.05-3.95C313.42,248.28,312.67,247.47,311.27,247.48Zm3-4.69-.3,1.83c-1.74-.12-5-.41-6.67-.71l.3-1.8A41.35,41.35,0,0,0,314.27,242.79Z" style="fill:#e9a031"/><path d="M324.62,247.57c-.07,4.85-.15,6.63-.52,7.19a1.41,1.41,0,0,1-1,.63,9.87,9.87,0,0,1-1.54.06,4.25,4.25,0,0,0-.44-1.59c.47,0,.86.06,1.1.06a.43.43,0,0,0,.42-.23c.19-.31.28-1.59.34-5.19h-1.08a11.84,11.84,0,0,1-2.08,7,7.94,7.94,0,0,0-1.32-1.1,10.74,10.74,0,0,0,1.86-6.72v-2.31h-1.53v-1.65h2.25v-2.28h1.71v2.28H325v1.14a10.67,10.67,0,0,0,1.41-3.42l1.75.33c-.12.5-.27,1-.43,1.47h4.66v1.62h-5.34a9.46,9.46,0,0,1-1.54,2.25A12.67,12.67,0,0,0,324.1,246a5.37,5.37,0,0,0,.55-.6h-2.71v1.47h2.68Zm8.22,1.25a22.35,22.35,0,0,1-2.31,1.9A6.3,6.3,0,0,0,332.9,254a6.37,6.37,0,0,0-1.21,1.5c-2-1.44-2.9-4-3.44-7.28l-.52.23v7.08H326V249l-.31.09a8.52,8.52,0,0,0-1.05-1.48,17.14,17.14,0,0,0,6.13-2.55l1.28.93a14.51,14.51,0,0,1-2.37,1.5c.09.58.21,1.17.34,1.72a13,13,0,0,0,1.53-1.54Z" style="fill:#e9a031"/><path d="M339.29,245.38a19.47,19.47,0,0,1-1.6,2.3v7.83H335.9v-5.87c-.42.41-.82.78-1.23,1.11a15.92,15.92,0,0,0-1.21-1.54,14.56,14.56,0,0,0,4.12-4.49Zm-.55-3.19a20,20,0,0,1-4.13,3.94,9.3,9.3,0,0,0-1-1.45,13.36,13.36,0,0,0,3.39-3.2Zm8.82,6H345.5v5.26c0,1-.18,1.46-.84,1.73a8.27,8.27,0,0,1-2.92.3,7.58,7.58,0,0,0-.54-1.82c.85.05,1.84.05,2.11,0s.38-.06.38-.28v-5.22h-4.43v-1.7h8.3Zm-.38-4.13h-7.29v-1.69h7.29Z" style="fill:#e9a031"/><path d="M354.17,242.16a24.6,24.6,0,0,1-1.39,2.76v10.54h-1.86v-7.87a14.13,14.13,0,0,1-1.56,1.68,12.62,12.62,0,0,0-1-1.82,15.63,15.63,0,0,0,4.09-5.85Zm4.11,5.43c.42,3.33,1.22,5.55,2.42,5.7.34,0,.52-.72.64-2.39a6.16,6.16,0,0,0,1.46,1c-.38,2.9-1.19,3.59-2,3.54-2.53-.24-3.72-3.06-4.26-7.63l-2.95.4-.26-1.72,3-.41c-.1-1.35-.19-2.82-.24-4.39h1.82c0,1.47.09,2.88.19,4.15l4.28-.55.25,1.68Zm2.69-2.66a13.29,13.29,0,0,0-2.06-2.52l1.34-.82a14.12,14.12,0,0,1,2.16,2.41Z" style="fill:#e9a031"/><path d="M375.34,251.16c-.57.82-1.16,1.74-1.68,2.37h3.39v1.53H364.36v-1.53h2.92a10.3,10.3,0,0,0-1.24-2.42l1.36-.58h-2.29V249h4.56v-1.49h-2.76v-.73a18.54,18.54,0,0,1-2.24,1.39,7,7,0,0,0-1.11-1.44,16,16,0,0,0,6.06-5.29h1.85a15.34,15.34,0,0,0,6.4,5.11,8.24,8.24,0,0,0-1.18,1.61,19,19,0,0,1-2.28-1.43v.78h-2.87V249h4.62v1.53h-4.62v3h1.64l-1-.41a15.21,15.21,0,0,0,1.43-2.59Zm-7.85-.63a9.85,9.85,0,0,1,1.38,2.47l-1.23.53h2v-3Zm5.9-4.58a16,16,0,0,1-2.76-2.77A15.86,15.86,0,0,1,368,246Z" style="fill:#e9a031"/><rect x="380" y="158.12" width="105" height="34" style="fill:#58aac8"/><path d="M397.6,179.41h2.7v-7.95H398v-1.55a8.28,8.28,0,0,0,2.93-1h1.85v10.55h2.36v2H397.6Z" style="fill:#fff"/><path d="M415.75,178.17h-1.49v3.27h-2.33v-3.27h-5.35v-1.7l4.69-7.61h3v7.41h1.49Zm-3.82-1.9V173.7c0-.73.07-1.87.1-2.6H412c-.3.66-.64,1.36-1,2L409,176.27Z" style="fill:#fff"/><path d="M417.13,183.7c1.31-.5,2-1.35,2-2.33H419a1.47,1.47,0,0,1-1.57-1.48,1.51,1.51,0,0,1,1.62-1.48c1.15,0,1.8.92,1.8,2.46a4.29,4.29,0,0,1-3.21,4.19Z" style="fill:#fff"/><path d="M422.5,175.09c0-4.35,1.7-6.47,4.27-6.47s4.25,2.14,4.25,6.47-1.7,6.58-4.25,6.58S422.5,179.43,422.5,175.09Zm6.16,0c0-3.51-.82-4.53-1.89-4.53s-1.9,1-1.9,4.53.81,4.63,1.9,4.63S428.66,178.63,428.66,175.09Z" style="fill:#fff"/><path d="M432.52,175.09c0-4.35,1.7-6.47,4.26-6.47s4.25,2.14,4.25,6.47-1.7,6.58-4.25,6.58S432.52,179.43,432.52,175.09Zm6.15,0c0-3.51-.82-4.53-1.89-4.53s-1.9,1-1.9,4.53.82,4.63,1.9,4.63S438.67,178.63,438.67,175.09Z" style="fill:#fff"/><path d="M442.53,175.09c0-4.35,1.7-6.47,4.27-6.47s4.25,2.14,4.25,6.47-1.7,6.58-4.25,6.58S442.53,179.43,442.53,175.09Zm6.15,0c0-3.51-.81-4.53-1.88-4.53s-1.91,1-1.91,4.53.82,4.63,1.91,4.63S448.68,178.63,448.68,175.09Z" style="fill:#fff"/><path d="M467.53,180.53c0,1.11-.23,1.67-.95,2a7.82,7.82,0,0,1-3.21.38,8.24,8.24,0,0,0-.73-2c1,.07,2.07.06,2.41.06s.44-.12.44-.41V176.4H455.23v6.5h-2V168.11h14.34Zm-12.3-6.13h4v-4.29h-4Zm10.26,0v-4.29h-4.24v4.29Z" style="fill:#fff"/><path d="M548.78,157.51a4.55,4.55,0,0,0-.39.86,12.7,12.7,0,0,1-2.09,4,11.3,11.3,0,0,1-4.85,3.38L540,164.49a9.56,9.56,0,0,0,4.83-3,8.65,8.65,0,0,0,1.71-3.28h-3.37a13.78,13.78,0,0,1-3,2.91l-1.34-1a10.53,10.53,0,0,0,3.74-3.86,5.83,5.83,0,0,0,.54-1.26l1.75.57a12.86,12.86,0,0,0-.73,1.23l0,.06h2.42a3.62,3.62,0,0,0,1-.15Z" style="fill:#d93b3f"/><path d="M551.1,159.42c.44,0,1.31.07,1.93.07h6.44c.56,0,1.1-.05,1.41-.07v1.88c-.29,0-.9-.06-1.41-.06H553c-.68,0-1.48,0-1.93.06Z" style="fill:#d93b3f"/><path d="M566.09,160.66a19.27,19.27,0,0,1-2.31,3.35l-1.3-.89a12.69,12.69,0,0,0,2.25-3.09Zm2.71-1.7v5.58c0,.69-.4,1.12-1.25,1.12a17.8,17.8,0,0,1-1.95-.1l-.15-1.49a9.07,9.07,0,0,0,1.34.14c.31,0,.43-.12.44-.43s0-4.24,0-4.81h-3a11.13,11.13,0,0,0-1.16,0v-1.6a8.93,8.93,0,0,0,1.16.1h3v-1a5.93,5.93,0,0,0-.11-1h1.78a8.11,8.11,0,0,0-.11,1v1h2.8a8.94,8.94,0,0,0,1.17-.09V159c-.37,0-.84,0-1.16,0Zm2.45,1a28,28,0,0,1,2,3.16l-1.42.76a21.8,21.8,0,0,0-1.94-3.21Zm-.69-4a1.39,1.39,0,0,1,1.39-1.38,1.39,1.39,0,0,1,0,2.78A1.4,1.4,0,0,1,570.56,156Zm.74,0a.65.65,0,1,0,1.3,0,.65.65,0,0,0-1.3,0Z" style="fill:#d93b3f"/><path d="M580,162.27a11.34,11.34,0,0,0,4.37-4.67l.94,1.7a13.2,13.2,0,0,1-8.89,6.12l-1-1.58A12.18,12.18,0,0,0,580,162.27Zm0-3.89-1.22,1.26a24.34,24.34,0,0,0-3-2.59l1.13-1.2A25.22,25.22,0,0,1,580,158.38Z" style="fill:#d93b3f"/><path d="M545.8,173.48a2.72,2.72,0,0,0-1.94-.92c-1.44,0-2.63,1.09-2.73,4.23a3.67,3.67,0,0,1,2.58-1.34c2.11,0,3.61,1.26,3.61,4a4,4,0,0,1-4,4.2c-2.4,0-4.52-1.92-4.52-6.36,0-4.69,2.33-6.7,4.86-6.7a4.69,4.69,0,0,1,3.42,1.43Zm-.78,5.93c0-1.5-.7-2.19-1.78-2.19a2.48,2.48,0,0,0-2.06,1.32c.24,2.3,1.09,3.18,2.14,3.18S545,180.94,545,179.41Z" style="fill:#d93b3f"/><path d="M548.91,185.63c1.31-.49,2-1.34,2-2.33h-.15a1.46,1.46,0,0,1-1.56-1.48,1.5,1.5,0,0,1,1.61-1.48c1.16,0,1.8.92,1.8,2.47a4.28,4.28,0,0,1-3.21,4.18Z" style="fill:#d93b3f"/><path d="M554.29,177c0-4.35,1.7-6.48,4.26-6.48s4.25,2.14,4.25,6.48-1.7,6.58-4.25,6.58S554.29,181.36,554.29,177Zm6.15,0c0-3.52-.82-4.54-1.89-4.54s-1.9,1-1.9,4.54.82,4.62,1.9,4.62S560.44,180.56,560.44,177Z" style="fill:#d93b3f"/><path d="M564.3,177c0-4.35,1.7-6.48,4.27-6.48s4.24,2.14,4.24,6.48-1.69,6.58-4.24,6.58S564.3,181.36,564.3,177Zm6.15,0c0-3.52-.81-4.54-1.88-4.54s-1.91,1-1.91,4.54.82,4.62,1.91,4.62S570.45,180.56,570.45,177Z" style="fill:#d93b3f"/><path d="M574.31,177c0-4.35,1.7-6.48,4.27-6.48s4.25,2.14,4.25,6.48-1.7,6.58-4.25,6.58S574.31,181.36,574.31,177Zm6.16,0c0-3.52-.82-4.54-1.89-4.54s-1.91,1-1.91,4.54.82,4.62,1.91,4.62S580.47,180.56,580.47,177Z" style="fill:#d93b3f"/><path d="M599.32,182.47c0,1.1-.24,1.66-1,2a7.83,7.83,0,0,1-3.21.37,8,8,0,0,0-.73-2c1,.07,2.08.05,2.42.05s.44-.12.44-.41v-4.11H587v6.49h-2V170h14.35ZM587,176.33h4v-4.28h-4Zm10.27,0v-4.28H593v4.28Z" style="fill:#d93b3f"/><path d="M612.25,169.16a19.75,19.75,0,0,0,5,6.05,9.54,9.54,0,0,0-1.71,1.82c-.36-.32-.72-.7-1.09-1.09v.12c-.19,5.13-.39,7.14-1,7.85a2,2,0,0,1-1.54.8,15.73,15.73,0,0,1-2.57,0,5.09,5.09,0,0,0-.66-2c.93.07,1.81.09,2.24.09a.8.8,0,0,0,.68-.24c.34-.36.53-1.87.68-5.42H609c-.42,3.26-1.53,6.17-5.93,7.82a6.92,6.92,0,0,0-1.34-1.87c3.84-1.24,4.72-3.47,5.06-5.95h-2.87V176a12.68,12.68,0,0,1-1.36,1.22,12.25,12.25,0,0,0-1.74-1.63,14.06,14.06,0,0,0,5-6.36l2.18.63a20.61,20.61,0,0,1-3.37,5.36h9.18a28.63,28.63,0,0,1-3.55-5.22Z" style="fill:#d93b3f"/><path d="M539.21,109.1h2.25v-7.17h-1.85v-1a6.36,6.36,0,0,0,2.24-.78h1.22v9h2v1.34h-5.88Z" style="fill:#4d4d96"/><path d="M549.06,105.11a11.34,11.34,0,0,0-2.45-1.5l.71-1a10.59,10.59,0,0,1,2.48,1.4Zm-2,5.4a42.49,42.49,0,0,0,2.32-4.44l1,.79c-.65,1.46-1.46,3.11-2.19,4.43Zm1-11.66a10.77,10.77,0,0,1,2.53,1.44l-.77,1a9.65,9.65,0,0,0-2.49-1.54Zm10.57,2.31v10.27h-1.33v-.57h-5v.68h-1.27V101.16h2.33c.19-.75.4-1.71.5-2.41l1.51.17c-.22.77-.46,1.57-.68,2.24Zm-6.29,1.25v2.9h5v-2.9Zm5,7.18v-3.08h-5v3.08Z" style="fill:#4d4d96"/><path d="M570.26,102.74c-.08.19-.18.52-.26.78a3.49,3.49,0,0,1,2.73,3.33c0,2-1.26,3.78-4.56,4.3l-.74-1.16c2.58-.28,3.92-1.6,3.92-3.21a2.28,2.28,0,0,0-1.75-2.17,11.17,11.17,0,0,1-3,4.37c.09.38.21.74.32,1.08l-1.28.38a6.08,6.08,0,0,1-.19-.68,4.84,4.84,0,0,1-2.26.68,1.68,1.68,0,0,1-1.75-1.88c0-1.78,1.53-3.64,3.45-4.53,0-.64.08-1.29.14-1.89h-.68c-.65,0-1.73,0-2.32-.1l0-1.28a21.91,21.91,0,0,0,2.41.18h.75l.1-.94c0-.24,0-.53,0-.73l1.46,0a6.43,6.43,0,0,0-.17.66c-.06.27-.11.59-.17.93a26.69,26.69,0,0,0,4.79-.59v1.29a45.94,45.94,0,0,1-5,.5c0,.48-.09,1-.13,1.5a8.78,8.78,0,0,1,2.21-.31,2.42,2.42,0,0,1,.39,0,6.1,6.1,0,0,0,.16-.9Zm-5.1,5.73a17.55,17.55,0,0,1-.31-3.12,4.09,4.09,0,0,0-2.08,3c0,.51.22.77.71.77A3.24,3.24,0,0,0,565.16,108.47Zm.93-3.34a14.07,14.07,0,0,0,.21,2.42,9.08,9.08,0,0,0,2.07-3.12h-.08a7.08,7.08,0,0,0-2.2.36Z" style="fill:#4d4d96"/><path d="M582.45,102.3c-.86.19-1.83.35-2.78.46-.13.6-.28,1.22-.44,1.81a41.8,41.8,0,0,1-2.18,6.38l-1.54-.51a30.54,30.54,0,0,0,2.35-6.22c.13-.42.24-.89.34-1.33l-1.11,0c-.65,0-1.15,0-1.65,0l0-1.38a12,12,0,0,0,1.69.12c.44,0,.9,0,1.39-.06.07-.41.14-.77.17-1a7,7,0,0,0,0-1.26l1.69.12c-.09.35-.21.91-.26,1.19l-.17.82a24.37,24.37,0,0,0,2.49-.48ZM582,107a5.35,5.35,0,0,0-.2,1.2c0,.63.34,1.19,2.11,1.19a15.31,15.31,0,0,0,2.77-.28l0,1.42a19.55,19.55,0,0,1-2.75.19c-2.25,0-3.42-.74-3.42-2.11a9.4,9.4,0,0,1,.21-1.74Zm-.55-3.42a25.67,25.67,0,0,1,2.6-.14,21.8,21.8,0,0,1,2.42.13l0,1.33a18.82,18.82,0,0,0-2.36-.17,22.4,22.4,0,0,0-2.62.14Z" style="fill:#4d4d96"/><path d="M592.88,99.34a23.92,23.92,0,0,0-.6,3.43c.6-1.27,2-2.76,3.61-2.76,1.9,0,3.3,1.87,3.3,4.85,0,3.87-2.43,5.65-6,6.29l-.84-1.26c3-.48,5.31-1.6,5.31-5,0-2.16-.71-3.57-2-3.57-1.69,0-3.23,2.49-3.34,4.31a6.79,6.79,0,0,0,0,1.6l-1.35.1a16.68,16.68,0,0,1-.17-2.24,36.57,36.57,0,0,1,.42-4.47c0-.46.1-.94.11-1.31Z" style="fill:#4d4d96"/><path d="M614.7,106a8,8,0,0,1-2,3.3,7.9,7.9,0,0,0,2.68,1.2,3.61,3.61,0,0,0-.77,1,7.65,7.65,0,0,1-2.79-1.45,9.74,9.74,0,0,1-2.59,1.41,4.4,4.4,0,0,0-.65-1v1h-1.24v-1.25c-1.66.18-3.31.37-4.58.49l-.1-1.13,1.27-.11V105h-1.15V104H615.1V105h-6.47v5.41a8.29,8.29,0,0,0,2.36-1.18,8.68,8.68,0,0,1-1.42-2.28l.76-.21h-1.26v-1h4.61l.22-.05Zm-1.16-2.71h-9V99.12h9ZM605.19,105v.78h2.2V105Zm0,2.53h2.2v-.82h-2.2Zm2.2,1.64v-.7h-2.2v.91Zm4.84-9.2h-6.5v.8h6.5Zm0,1.62h-6.5v.82h6.5Zm-1.57,5.15a6.25,6.25,0,0,0,1.18,1.76,6.9,6.9,0,0,0,1.28-1.76Z" style="fill:#4d4d96"/><path d="M624,103.91a9.9,9.9,0,0,0,5.37,6.39,4.78,4.78,0,0,0-1,1.21c-2.62-1.21-4.32-3.48-5.41-6.45a9.66,9.66,0,0,1-5.41,6.45,4.6,4.6,0,0,0-1-1.09,8.73,8.73,0,0,0,5.25-6.51h-5v-1.35h5.21a33.65,33.65,0,0,0,.17-3.86h1.41a33.69,33.69,0,0,1-.19,3.86h5.64v1.35Z" style="fill:#4d4d96"/><path d="M630.6,109.5c3-2.69,4.6-4.7,4.6-6.39a1.68,1.68,0,0,0-1.75-1.89,2.81,2.81,0,0,0-2,1.15l-.91-.9a4,4,0,0,1,3.14-1.54,2.92,2.92,0,0,1,3.11,3.1c0,2-1.58,4-3.77,6.13a16.25,16.25,0,0,1,1.68-.1h2.58v1.38H630.6Z" style="fill:#4d4d96"/><path d="M643.77,101c0,.85,0,1.72-.14,2.59h6.22s0,.42,0,.6c-.24,4.4-.48,6.08-1,6.68a1.74,1.74,0,0,1-1.32.58,18.33,18.33,0,0,1-2.44,0,3,3,0,0,0-.45-1.27c1,.08,2,.08,2.37.08a.76.76,0,0,0,.66-.17c.41-.35.62-1.82.8-5.22h-5c-.41,2.69-1.42,5.2-4.11,6.74a3.73,3.73,0,0,0-.94-1c3.74-2,3.9-6.06,4-9.54h-3.54V99.69h12.17V101Z" style="fill:#4d4d96"/><path d="M664.79,109.92c0,.75-.17,1.15-.69,1.37a7.6,7.6,0,0,1-2.56.24,3.8,3.8,0,0,0-.48-1.3c.9,0,1.8,0,2.06,0s.35-.08.35-.34V106h-9v5.53h-1.3V99.61h11.57Zm-10.27-5.2h3.76V100.9h-3.76Zm9,0V100.9h-3.9v3.82Z" style="fill:#4d4d96"/><path d="M389.6,199.35s0,.32,0,.46c-.08,3.94-.15,5.32-.45,5.74a.91.91,0,0,1-.73.43,6.19,6.19,0,0,1-1.25,0,2.54,2.54,0,0,0-.28-1c.43,0,.82,0,1,0a.35.35,0,0,0,.36-.16c.18-.26.25-1.37.31-4.52h-1.18a9.76,9.76,0,0,1-1.68,5.72,5.69,5.69,0,0,0-.83-.68,9.33,9.33,0,0,0,1.53-5.73V198h-1.31v-1.05h2v-1.86h1.07v1.86H390v1a8.73,8.73,0,0,0,1.23-2.85l1.11.23q-.18.66-.42,1.29h3.93v1h-4.39a7.89,7.89,0,0,1-1.21,1.79,6.67,6.67,0,0,0-.91-.71,4.59,4.59,0,0,0,.6-.7h-2.52v1.38Zm6.49,1.25a17.34,17.34,0,0,1-2,1.62,5.5,5.5,0,0,0,2,2.88,4.43,4.43,0,0,0-.76.91c-1.58-1.15-2.4-3.31-2.83-6-.22.1-.43.18-.65.26v5.75h-1.05v-5.36l-.48.14a4,4,0,0,0-.67-.93,14.37,14.37,0,0,0,4.94-2.07l.81.6a11.24,11.24,0,0,1-2,1.19,14.68,14.68,0,0,0,.35,1.68,13.58,13.58,0,0,0,1.49-1.39Z" style="fill:#58aac8"/><path d="M401.19,198a16.43,16.43,0,0,1-1.31,1.84v6.25h-1.11v-5c-.4.4-.81.77-1.19,1.08a6.05,6.05,0,0,0-.77-1,12.54,12.54,0,0,0,3.32-3.59Zm-.46-2.52a15.71,15.71,0,0,1-3.16,3,4.62,4.62,0,0,0-.64-.9,11,11,0,0,0,2.74-2.58Zm7.2,4.61H406.2v4.62c0,.63-.14,1-.6,1.14a7.72,7.72,0,0,1-2.26.18,4.71,4.71,0,0,0-.36-1.12c.76,0,1.57,0,1.78,0s.3-.06.3-.23v-4.6h-3.79V199h6.66Zm-.34-3.28h-5.81v-1.06h5.81Z" style="fill:#58aac8"/><path d="M413.19,195.51a18.94,18.94,0,0,1-1.21,2.32V206h-1.15v-6.56a12.91,12.91,0,0,1-1.44,1.57,6.59,6.59,0,0,0-.64-1.12,13,13,0,0,0,3.38-4.77Zm3.19,4.15c.38,2.94,1.1,4.91,2.24,5.05.3,0,.48-.65.59-2a3.72,3.72,0,0,0,.92.62c-.27,2.17-.82,2.75-1.46,2.72-2-.17-2.94-2.55-3.39-6.23l-2.63.34-.17-1.06,2.69-.33c-.1-1.09-.17-2.27-.22-3.53h1.13c0,1.2.1,2.34.19,3.37l3.52-.44.14,1Zm2.46-1.92a11.73,11.73,0,0,0-1.8-2l.83-.53a11.83,11.83,0,0,1,1.86,1.92Z" style="fill:#58aac8"/><path d="M427,204.73h4.54v1H421.45v-1h4.4V202H422v-1h3.83v-1.43H423.5V199a17.21,17.21,0,0,1-1.87,1.17,4.39,4.39,0,0,0-.7-.9,12.86,12.86,0,0,0,4.9-4.24H427a13.15,13.15,0,0,0,5.13,4.1,6.08,6.08,0,0,0-.72,1,15.3,15.3,0,0,1-1.92-1.18v.68H427v1.43h3.91v1H427Zm-3.21-2.54a7.66,7.66,0,0,1,1.12,2.06l-1,.43a7.9,7.9,0,0,0-1.05-2.13Zm5.24-3.55a13.34,13.34,0,0,1-2.6-2.52,13.28,13.28,0,0,1-2.48,2.52Zm-1.23,5.67a13.82,13.82,0,0,0,1.21-2.13l1.07.39a20.14,20.14,0,0,1-1.46,2.11Z" style="fill:#58aac8"/><path d="M437.89,195.75c-.06.25-.13.55-.17.81s-.18.94-.29,1.48c.49,0,.91-.06,1.19-.06,1.15,0,2,.48,2,2.13a11.51,11.51,0,0,1-.68,4.31,1.77,1.77,0,0,1-1.83,1,6.32,6.32,0,0,1-1.41-.18l-.2-1.25a6,6,0,0,0,1.46.25.92.92,0,0,0,1-.56,9.52,9.52,0,0,0,.53-3.47c0-1-.46-1.18-1.21-1.18-.24,0-.64,0-1.08.06a24.81,24.81,0,0,1-2.45,6.37l-1.23-.5a18.59,18.59,0,0,0,2.44-5.74l-1.28.14c-.31,0-.85.11-1.19.17l-.1-1.29c.39,0,.74,0,1.13,0s1-.06,1.7-.12a13.93,13.93,0,0,0,.27-2.55Zm4.08,1.18a20.93,20.93,0,0,1,2.14,4.32l-1.18.57a14.14,14.14,0,0,0-2.07-4.41Z" style="fill:#58aac8"/><path d="M448,201a5.76,5.76,0,0,1,3.68-1.29c1.93,0,3.15,1.19,3.15,2.59,0,2.15-1.82,3.68-6.45,3.3l-.37-1.24c3.67.47,5.53-.51,5.53-2.08,0-.88-.82-1.49-2-1.49a4.45,4.45,0,0,0-3.5,1.49,2.84,2.84,0,0,0-.4.63l-1.1-.26a43.4,43.4,0,0,0,.6-4.88l1.27.16C448.27,198.64,448.06,200.23,448,201Zm.56-5.32a34,34,0,0,0,4.67.91l-.28,1.16c-1.16-.15-3.78-.69-4.69-.93Z" style="fill:#58aac8"/><path d="M460.78,196.13h2.63v2h-.65v.74h-2v.65h1.85v.78h-1.85V201h2.52v.85h-6.14V201h2.58v-.69h-1.87v-.78h1.87v-.65h-2v-.74h-.61v-2h2.55v-1h1.08Zm-2.94,6.25h4.92v3.53h-1.05v-.45h-2.86V206h-1Zm4.54-5.37h-4.25v1h1.6v-.72h1V198h1.61Zm-3.53,6.21v1.39h2.86v-1.39Zm6.25-.29H464v-6.61h1.06Zm2.46-7.66v9.34c0,.7-.13,1-.55,1.2A5.89,5.89,0,0,1,465,206a4.47,4.47,0,0,0-.39-1.17c.72,0,1.42,0,1.66,0s.25-.06.25-.26v-9.34Z" style="fill:#58aac8"/><path d="M474.64,200.77a3,3,0,0,1-.05.49c-.2,2.74-.41,3.88-.83,4.31a1.34,1.34,0,0,1-1.05.43,12.7,12.7,0,0,1-1.87,0,2.75,2.75,0,0,0-.41-1.16c.76.07,1.54.08,1.84.08a.77.77,0,0,0,.54-.13c.26-.23.45-1.08.61-3h-2.84l-.12.58-1.12-.18c.25-1,.54-2.69.71-4h3.4v-1.68h-3.76v-1h4.87v3.75H471c-.07.5-.17,1-.25,1.49Zm4.05-5.57v10.85h-1.12V195.2Z" style="fill:#58aac8"/><path d="M386.18,145.14h2.62v2h-.65v.75h-2v.65H388v.78h-1.85V150h2.52v.85h-6.14V150h2.58v-.69h-1.87v-.78h1.87v-.65h-2v-.75h-.61v-2h2.56v-1h1.08Zm-2.94,6.25h4.91v3.52h-1v-.44h-2.86v.58h-1Zm4.53-5.37h-4.25v1h1.6v-.72h1V147h1.61Zm-3.53,6.21v1.39h2.86v-1.39Zm6.25-.29h-1.05v-6.61h1.05Zm2.46-7.66v9.34c0,.7-.13,1-.55,1.2a6,6,0,0,1-2,.21,4.91,4.91,0,0,0-.38-1.16c.71,0,1.41,0,1.65,0s.25-.06.25-.26v-9.34Z" style="fill:#58aac8"/><path d="M400,149.78a4.15,4.15,0,0,1,0,.49c-.21,2.74-.41,3.88-.83,4.31a1.41,1.41,0,0,1-1.06.43,12.68,12.68,0,0,1-1.87,0,2.62,2.62,0,0,0-.41-1.16c.76.07,1.54.08,1.84.08a.75.75,0,0,0,.54-.13c.26-.23.46-1.08.61-3H396l-.12.58-1.12-.18c.26-1.05.54-2.69.71-4h3.41v-1.68h-3.77v-1H400v3.75h-3.54c-.07.5-.17,1-.25,1.49Zm4.06-5.58v10.86H403V144.2Z" style="fill:#58aac8"/><path d="M411.17,147.41a16.75,16.75,0,0,1-1,3.61,14.42,14.42,0,0,1,1.28,2l-.9.76a11.59,11.59,0,0,0-.94-1.62A8,8,0,0,1,407,155a6.4,6.4,0,0,0-.75-.86,7,7,0,0,0,2.66-2.93c-.65-.87-1.37-1.75-2.05-2.49l.78-.64c.57.6,1.17,1.3,1.75,2a16,16,0,0,0,.66-2.78Zm6.2.49H416v5.72c0,.68-.16,1-.54,1.21a5.69,5.69,0,0,1-2.07.23,4.62,4.62,0,0,0-.36-1.19c.72,0,1.37,0,1.58,0s.28-.06.28-.26V147.9h-3.14V147h-5.2v-1h2.18v-1.9h1.08V146h2.31v.85h2.77v-2.76H416v2.76h1.35Zm-4.32,4.17a9.71,9.71,0,0,0-1.26-2.62l.92-.44a9.19,9.19,0,0,1,1.3,2.58Z" style="fill:#58aac8"/><path d="M429,150.06a23,23,0,0,1-2.69,1.57,6.32,6.32,0,0,0,3,2.15,4.19,4.19,0,0,0-.72.93,7.74,7.74,0,0,1-4.51-5.37A11.92,11.92,0,0,1,423,150c2.43,1.62,2.54,4,1.34,4.81a2.12,2.12,0,0,1-1.27.35l-1,0a2.42,2.42,0,0,0-.3-1c.39,0,.8,0,1.07,0a1.13,1.13,0,0,0,.76-.19,1.23,1.23,0,0,0,.28-1.44,15.69,15.69,0,0,1-4.75,2.29,4.26,4.26,0,0,0-.65-.82,14.44,14.44,0,0,0,5-2.23,3.26,3.26,0,0,0-.38-.47,13.73,13.73,0,0,1-3.81,1.59,6.26,6.26,0,0,0-.6-.76,13.82,13.82,0,0,0,3.82-1.37,3.78,3.78,0,0,0-.53-.37,25.72,25.72,0,0,1-2.77.85,6.59,6.59,0,0,0-.57-.8,20.25,20.25,0,0,0,3.79-1.11h-2.65v-1.93c-.18.12-.37.25-.58.37a3.28,3.28,0,0,0-.75-.78,9.56,9.56,0,0,0,3.31-3l1.15.24c-.13.19-.28.4-.43.59h2.38l.18-.05.76.49a11.94,11.94,0,0,1-.85,1.18h3.09v2.84h-3a7.93,7.93,0,0,0,.73,1.62,17.69,17.69,0,0,0,2.28-1.52Zm-8.16-1.6h2.43v-1.17h-2.43Zm.94-2.78c-.26.26-.53.53-.82.78h2.7a9,9,0,0,0,.6-.78Zm5.18,1.61h-2.59v1.17H427Z" style="fill:#58aac8"/><path d="M434.89,154.27a6.62,6.62,0,0,0,2.19-1.36l.92.57a8.17,8.17,0,0,1-2.49,1.57,8.53,8.53,0,0,0-.74-.73h-2.6v.53h-.95v-3.2l-.43.19a4,4,0,0,0-.57-.8,7.16,7.16,0,0,0,2.38-1.45c-.33-.25-.67-.49-1-.71a6.89,6.89,0,0,1-.66.57,4.59,4.59,0,0,0-.72-.66,5.93,5.93,0,0,0,2.18-2.59l.93.24c-.1.21-.21.43-.33.63h1.36l.17,0,.63.29a7.15,7.15,0,0,1-1.17,2.14c.67.49,1.29,1,1.7,1.34l-.65.77-.17-.16Zm-3.41-7.37h-.91v-1.81h2v-1h1v1h2v1.81h-.95V146h-3.15Zm3.12,4.24c-.35-.3-.78-.64-1.24-1a7,7,0,0,1-1.24,1Zm-.68.86h-1.75v1.45h1.75Zm-1.4-4.15-.29.37,1,.69a5.5,5.5,0,0,0,.69-1.06Zm5.11-1.32c.07-.31.14-.67.2-1h-2.15v-1h5.54v1H439c-.11.33-.23.68-.34,1h2.25v6.23h-4.85v-6.23Zm2.24.85h-2.78v1h2.78Zm0,1.77h-2.78v1h2.78Zm0,1.77h-2.78v1h2.78ZM439.6,153a14.76,14.76,0,0,1,2,1.52l-.87.59a15.47,15.47,0,0,0-1.94-1.59Z" style="fill:#58aac8"/><path d="M447.64,153.39a5.23,5.23,0,0,0,1.05-.17,3.4,3.4,0,0,0,2.88-3.37,3.15,3.15,0,0,0-2.85-3.31,28.53,28.53,0,0,1-.71,3.34c-.72,2.42-1.7,3.78-2.89,3.78s-2.25-1.34-2.25-3.32a5.15,5.15,0,0,1,5.31-4.92,4.4,4.4,0,0,1,4.66,4.48c0,2.48-1.59,4.21-4.49,4.62Zm-.84-3.76a16.6,16.6,0,0,0,.65-3.06,4,4,0,0,0-3.39,3.67c0,1.36.62,2,1.1,2S446.25,151.46,446.8,149.63Z" style="fill:#58aac8"/><path d="M459.64,144.87h-5V143H462v1.34c-2.58,3.15-2.92,5.41-3.1,9.76h-2.24C456.88,150.27,457.52,147.81,459.64,144.87Z" style="fill:#58aac8"/><path d="M463.39,148.53c0-3.84,1.5-5.72,3.76-5.72s3.75,1.89,3.75,5.72-1.5,5.8-3.75,5.8S463.39,152.35,463.39,148.53Zm5.43,0c0-3.11-.72-4-1.67-4s-1.68.9-1.68,4,.72,4.08,1.68,4.08S468.82,151.65,468.82,148.53Z" style="fill:#58aac8"/><path d="M472,147.87c0-1.77.88-2.79,2.16-2.79s2.17,1,2.17,2.79-.9,2.83-2.17,2.83S472,149.66,472,147.87Zm3.08,0c0-1.3-.41-1.8-.92-1.8s-.92.5-.92,1.8.4,1.84.92,1.84S475,149.18,475,147.87Zm4.2-2.79h1l-4.83,9.21h-1Zm-.83,6.38c0-1.79.9-2.81,2.16-2.81s2.17,1,2.17,2.81-.91,2.83-2.17,2.83S478.4,153.24,478.4,151.46Zm3.08,0c0-1.31-.41-1.81-.92-1.81s-.93.5-.93,1.81.41,1.82.93,1.82S481.48,152.77,481.48,151.46Z" style="fill:#58aac8"/><path d="M415,84.36s0,.32,0,.46c-.07,3.94-.15,5.32-.44,5.74a.92.92,0,0,1-.74.43,8,8,0,0,1-1.24,0,2.56,2.56,0,0,0-.29-1c.43,0,.83,0,1,0a.37.37,0,0,0,.36-.16c.18-.26.25-1.37.31-4.53h-1.19a9.77,9.77,0,0,1-1.68,5.73,5.2,5.2,0,0,0-.83-.68,9.34,9.34,0,0,0,1.54-5.73V83h-1.32v-1h2V80.07h1.06v1.86h1.85v1a9,9,0,0,0,1.24-2.85l1.1.23a11.43,11.43,0,0,1-.42,1.29h3.93v1h-4.39a7.29,7.29,0,0,1-1.21,1.79,6.1,6.1,0,0,0-.91-.71,4.09,4.09,0,0,0,.6-.7h-2.52v1.38Zm6.49,1.25a17.34,17.34,0,0,1-2,1.62,5.61,5.61,0,0,0,2,2.88,4.43,4.43,0,0,0-.76.91c-1.58-1.15-2.4-3.31-2.83-6-.21.1-.43.18-.64.26v5.75h-1.06V85.7l-.48.14a3.72,3.72,0,0,0-.67-.93A14.29,14.29,0,0,0,420,82.84l.82.6a11.73,11.73,0,0,1-2,1.19c.09.58.21,1.14.35,1.68a12.73,12.73,0,0,0,1.49-1.39Z" style="fill:#4d4d96"/><path d="M426.55,83a16.32,16.32,0,0,1-1.3,1.84V91.1h-1.12v-5a14.36,14.36,0,0,1-1.19,1.08,6.59,6.59,0,0,0-.76-1,12.83,12.83,0,0,0,3.32-3.59Zm-.45-2.52a16,16,0,0,1-3.17,3,5,5,0,0,0-.63-.9A11.08,11.08,0,0,0,425,80.05Zm7.19,4.61h-1.72v4.62c0,.63-.15,1-.6,1.14a7.94,7.94,0,0,1-2.27.17,4.36,4.36,0,0,0-.36-1.11c.77,0,1.57,0,1.79,0s.3-.06.3-.23V85.1h-3.79V84h6.65ZM433,81.82h-5.82V80.76H433Z" style="fill:#4d4d96"/><path d="M438.55,80.52a16.52,16.52,0,0,1-1.21,2.32v8.21h-1.15V84.49a12.84,12.84,0,0,1-1.44,1.57,6.53,6.53,0,0,0-.63-1.12,13.11,13.11,0,0,0,3.38-4.77Zm3.19,4.15c.39,2.94,1.11,4.91,2.25,5,.3,0,.48-.65.58-2a3.3,3.3,0,0,0,.93.61c-.28,2.18-.83,2.76-1.47,2.73-2-.17-2.93-2.55-3.39-6.23l-2.63.34-.16-1.06,2.68-.33c-.09-1.09-.17-2.27-.21-3.53h1.12c0,1.2.1,2.34.2,3.37l3.51-.44.14,1Zm2.46-1.92a11.73,11.73,0,0,0-1.8-2l.83-.53a11.42,11.42,0,0,1,1.86,1.92Z" style="fill:#4d4d96"/><path d="M452.39,89.74h4.53v1H446.81v-1h4.4V87h-3.82v-1h3.82V84.63h-2.35V84A17.21,17.21,0,0,1,447,85.18a4.32,4.32,0,0,0-.69-.9A12.9,12.9,0,0,0,451.19,80h1.14a13.15,13.15,0,0,0,5.13,4.1,6.74,6.74,0,0,0-.72,1A16.05,16.05,0,0,1,454.82,84v.68h-2.43v1.43h3.91v1h-3.91Zm-3.22-2.54a7.66,7.66,0,0,1,1.12,2.06l-1,.43a8,8,0,0,0-1.06-2.13Zm5.25-3.55a13.41,13.41,0,0,1-2.61-2.52,13,13,0,0,1-2.48,2.52Zm-1.24,5.67a13,13,0,0,0,1.21-2.13l1.07.39A21.82,21.82,0,0,1,454,89.69Z" style="fill:#4d4d96"/><path d="M463.61,89.39a5.23,5.23,0,0,0,1.05-.17,3.4,3.4,0,0,0,2.88-3.37,3.15,3.15,0,0,0-2.85-3.31,28.53,28.53,0,0,1-.71,3.34c-.72,2.42-1.7,3.78-2.89,3.78s-2.25-1.34-2.25-3.31a5.15,5.15,0,0,1,5.31-4.93,4.4,4.4,0,0,1,4.66,4.48c0,2.48-1.59,4.21-4.49,4.62Zm-.84-3.76a16.6,16.6,0,0,0,.65-3.06A4,4,0,0,0,460,86.24c0,1.37.62,2,1.1,2S462.22,87.46,462.77,85.63Z" style="fill:#4d4d96"/><path d="M470.28,88.74l1.08-1.49A3.66,3.66,0,0,0,474,88.44,2,2,0,0,0,476,86.28a1.9,1.9,0,0,0-2-2.13,2.79,2.79,0,0,0-1.77.62l-1.06-.7.31-5.71h6.3v2h-4.28l-.22,2.5a3.05,3.05,0,0,1,1.41-.33,3.41,3.41,0,0,1,3.63,3.73,4,4,0,0,1-4.12,4.14A5.32,5.32,0,0,1,470.28,88.74Z" style="fill:#4d4d96"/><path d="M479.93,84.19c0-4.07,1.59-6,4-6s4,2,4,6-1.59,6.16-4,6.16S479.93,88.25,479.93,84.19Zm5.75,0c0-3.29-.76-4.24-1.76-4.24s-1.78,1-1.78,4.24.76,4.33,1.78,4.33S485.68,87.5,485.68,84.19Z" style="fill:#4d4d96"/><path d="M489,83.87c0-1.77.88-2.79,2.16-2.79s2.17,1,2.17,2.79-.9,2.84-2.17,2.84S489,85.66,489,83.87Zm3.08,0c0-1.3-.41-1.79-.92-1.79s-.92.49-.92,1.79.4,1.84.92,1.84S492.06,85.18,492.06,83.87Zm4.2-2.79h1l-4.83,9.21h-1Zm-.83,6.38c0-1.79.9-2.8,2.16-2.8s2.17,1,2.17,2.8-.91,2.83-2.17,2.83S495.43,89.24,495.43,87.46Zm3.08,0c0-1.31-.41-1.81-.92-1.81s-.93.5-.93,1.81.41,1.82.93,1.82S498.51,88.77,498.51,87.46Z" style="fill:#4d4d96"/><path d="M493.28,152.79l1-1.4a3.5,3.5,0,0,0,2.47,1.14c1.13,0,1.89-.55,1.89-1.54s-.64-1.77-3.06-1.77v-1.59c2,0,2.7-.71,2.7-1.7a1.32,1.32,0,0,0-1.48-1.39,3.13,3.13,0,0,0-2.1,1l-1.13-1.35a4.94,4.94,0,0,1,3.33-1.37c2.15,0,3.6,1.05,3.6,3a2.61,2.61,0,0,1-1.86,2.53v.08a2.77,2.77,0,0,1,2.22,2.73c0,2-1.78,3.22-3.9,3.22A4.74,4.74,0,0,1,493.28,152.79Z" style="fill:#d93b3f"/><path d="M502.39,148.53c0-3.84,1.5-5.72,3.76-5.72s3.75,1.89,3.75,5.72-1.5,5.8-3.75,5.8S502.39,152.35,502.39,148.53Zm5.43,0c0-3.11-.72-4-1.67-4s-1.68.9-1.68,4,.72,4.08,1.68,4.08S507.82,151.65,507.82,148.53Z" style="fill:#d93b3f"/><path d="M511,147.87c0-1.77.89-2.79,2.16-2.79s2.17,1,2.17,2.79-.9,2.83-2.17,2.83S511,149.66,511,147.87Zm3.08,0c0-1.3-.41-1.8-.92-1.8s-.92.5-.92,1.8.4,1.84.92,1.84S514,149.18,514,147.87Zm4.2-2.79h1l-4.83,9.21h-1Zm-.83,6.38c0-1.79.9-2.81,2.16-2.81s2.17,1,2.17,2.81-.91,2.83-2.17,2.83S517.4,153.24,517.4,151.46Zm3.08,0c0-1.31-.41-1.81-.92-1.81s-.92.5-.92,1.81.4,1.82.92,1.82S520.48,152.77,520.48,151.46Z" style="fill:#d93b3f"/><path d="M279.2,293.3c-.07,4.52-.14,6.19-.5,6.71a1.25,1.25,0,0,1-.91.58,8.6,8.6,0,0,1-1.44.06,4,4,0,0,0-.4-1.48c.43,0,.79.05,1,.05a.39.39,0,0,0,.39-.21c.18-.29.27-1.48.32-4.84h-1a11,11,0,0,1-1.94,6.57,7,7,0,0,0-1.24-1,10,10,0,0,0,1.74-6.27v-2.16H273.8v-1.54h2.1v-2.13h1.6v2.13h2.07v1.06a9.77,9.77,0,0,0,1.32-3.19l1.64.31a13.44,13.44,0,0,1-.41,1.37h4.36v1.51h-5a9.19,9.19,0,0,1-1.44,2.11,9.63,9.63,0,0,0-1.35-1.07,4,4,0,0,0,.52-.56h-2.53v1.37h2.51Zm7.67,1.16a21.89,21.89,0,0,1-2.16,1.78,5.81,5.81,0,0,0,2.22,3,6,6,0,0,0-1.14,1.4c-1.85-1.34-2.7-3.78-3.2-6.79l-.49.21v6.61h-1.59v-6l-.29.09a7.62,7.62,0,0,0-1-1.39A16.09,16.09,0,0,0,285,291l1.19.87a13.78,13.78,0,0,1-2.22,1.4c.09.54.2,1.09.33,1.61a13.79,13.79,0,0,0,1.43-1.44Z" style="fill:#d93b3f"/><path d="M292.89,291.25a18.16,18.16,0,0,1-1.5,2.15v7.31h-1.67v-5.48c-.39.38-.77.73-1.15,1a17.37,17.37,0,0,0-1.13-1.45,13.67,13.67,0,0,0,3.85-4.18Zm-.52-3a18.89,18.89,0,0,1-3.85,3.68,9.93,9.93,0,0,0-.93-1.36,12.28,12.28,0,0,0,3.17-3Zm8.24,5.57h-1.92v4.92c0,.9-.17,1.36-.79,1.61a7.77,7.77,0,0,1-2.73.28,7,7,0,0,0-.5-1.69c.79,0,1.72,0,2,0s.35-.05.35-.26v-4.88h-4.13v-1.58h7.75Zm-.35-3.85h-6.81v-1.58h6.81Z" style="fill:#d93b3f"/><path d="M312.48,298.91c.42,0,.5-.26.56-1.92a4.32,4.32,0,0,0,1.51.68c-.17,2.21-.62,2.81-1.92,2.81H311c-1.57,0-1.93-.52-1.93-2.1V295h-2c-.31,2.49-1,4.58-4.24,5.8a5.32,5.32,0,0,0-1-1.47c2.79-.91,3.32-2.48,3.53-4.33H302v-1.61h5.36V291.1h-2.41a10.3,10.3,0,0,1-1.08,1.9,11.81,11.81,0,0,0-1.47-.73,11.51,11.51,0,0,0,1.86-4.46l1.71.33c-.12.44-.26.89-.42,1.36h1.81v-1.89H309v1.89h4.29v1.6H309v2.27h5.38V295h-3.65v3.4c0,.46.07.53.5.53Z" style="fill:#d93b3f"/><path d="M317.57,289.82c1.16-.09,3.46-.3,6-.53,1.43-.11,2.94-.2,3.93-.24v1.8a14.27,14.27,0,0,0-2.68.18,4.21,4.21,0,0,0-2.92,3.88c0,2.28,2.13,3.11,4.48,3.22l-.65,1.92c-2.91-.18-5.66-1.75-5.66-4.76a5.5,5.5,0,0,1,2.05-4.28c-1.2.13-4.12.44-5.73.79l-.18-1.91C316.77,289.88,317.3,289.85,317.57,289.82Zm9.1,4.28-1.06.47a11.35,11.35,0,0,0-1.09-1.95l1-.43A16.47,16.47,0,0,1,326.67,294.1Zm1.63-.69-1.05.5A12.82,12.82,0,0,0,326.1,292l1-.47A21.76,21.76,0,0,1,328.3,293.41Z" style="fill:#d93b3f"/><path d="M335.78,298.41c.54-.07.93-.14,1.29-.22a3.76,3.76,0,0,0,3.15-3.72,3.43,3.43,0,0,0-2.9-3.67,29.2,29.2,0,0,1-.82,3.77c-.83,2.8-2,4.51-3.55,4.51s-2.83-1.69-2.83-4a6.18,6.18,0,0,1,6.39-5.94,5.3,5.3,0,0,1,5.61,5.42c0,2.91-1.8,5-5.3,5.52Zm-1.08-4.2a21.7,21.7,0,0,0,.75-3.36,4.34,4.34,0,0,0-3.52,4c0,1.4.56,2.08,1.08,2.08S334.15,296.08,334.7,294.21Z" style="fill:#d93b3f"/><path d="M356.56,298.47v1.63H343.87v-1.63h5.41v-4.88h-4.5v-1.65h4.5v-4.3h1.79v4.3h4.57v1.65h-4.57v4.88Z" style="fill:#d93b3f"/><path d="M370.52,291.53V293H360.37v.84c0,2-.26,4.93-1.57,6.85a6.52,6.52,0,0,0-1.29-1c1.15-1.71,1.26-4.15,1.26-5.81v-2.26h2.53a6.89,6.89,0,0,0-.53-1.4l.31-.08h-2.42v-1.42h4.73v-1h1.67v1h4.78v1.42H368.1c-.32.53-.63,1.06-.9,1.48ZM366.28,299h4.16v1.37h-9.82V299h4v-1.23h-2.93v-1.26l-.1.1a6.47,6.47,0,0,0-1.31-.8,6.65,6.65,0,0,0,1.76-2.73l1.47.33a6.07,6.07,0,0,1-.31.76h1.42v-1h1.64v1h3.4v1.27h-3.4v1h3v1.28h-3Zm-1.64-2.51v-1h-2.12a7.59,7.59,0,0,1-.8,1Zm-2.17-6.48a6.39,6.39,0,0,1,.52,1.37l-.42.11h3.29l-.25-.07a12.21,12.21,0,0,0,.5-1.41Z" style="fill:#d93b3f"/><path d="M377.14,295.26c-.5.14-1,.31-1.51.46v5H374.1v-4.53c-.76.23-1.46.45-2.1.62l-.41-1.58c.7-.16,1.56-.38,2.51-.65V291.9h-.94a11.76,11.76,0,0,1-.52,1.79,12.45,12.45,0,0,0-1.17-.77,17.5,17.5,0,0,0,.79-4.51l1.39.24c0,.56-.12,1.1-.21,1.66h.66v-2.69h1.53v2.69h1.16v1.59h-1.16v2.25l1.29-.36Zm7.54-5.48s0,.56,0,.76c-.27,6.24-.52,8.53-1,9.23a1.56,1.56,0,0,1-1.09.73,8,8,0,0,1-1.59,0,4.7,4.7,0,0,0-.46-1.63,10.65,10.65,0,0,0,1.25.06.57.57,0,0,0,.51-.27c.35-.44.61-2.35.83-7.38H383c-.68,3.53-2.13,7.17-4.38,9a6.28,6.28,0,0,0-1.36-1c2.24-1.61,3.64-4.79,4.34-8.07h-.66a14.06,14.06,0,0,1-3.21,6.14,5.9,5.9,0,0,0-1.27-.94,10.88,10.88,0,0,0,3.1-5.2h-.72a10.67,10.67,0,0,1-1.44,2.51,9.83,9.83,0,0,0-1.26-.94,11.66,11.66,0,0,0,2.29-5.28l1.52.28c-.14.64-.32,1.27-.52,1.89Z" style="fill:#d93b3f"/><path d="M398.59,289.24v1.58H388.44v1.94c0,2.26-.21,5.72-1.47,7.9a7.47,7.47,0,0,0-1.45-.93c1.15-2,1.25-5,1.25-7v-3.52h5v-1.62h1.73v1.62Zm-4.55,3.1h4.37v1.48H394v1.52h3.54v5.34h-1.71v-.51h-5v.52h-1.62v-5.35h3.07V291H394Zm1.83,4.47h-5v1.91h5Z" style="fill:#d93b3f"/><path d="M402.76,300.44a26.72,26.72,0,0,0-3-3.09l1.45-1.27a26.83,26.83,0,0,1,3.06,3.07Z" style="fill:#d93b3f"/><path d="M423.87,293a8.17,8.17,0,0,0,2.95,6.26,16,16,0,0,0-1,1.47,7.78,7.78,0,0,1-2.73-4.85,7.91,7.91,0,0,1-3.14,4.85,9.62,9.62,0,0,0-.93-1.36l-.68.26c0-.19-.11-.43-.19-.68-1.39.45-2.79.91-3.95,1.26l-.52-1.53,1-.22v-6.61l-.28.22a5.29,5.29,0,0,0-1-1.15,8.57,8.57,0,0,0,2.7-3.28h1.57a22.33,22.33,0,0,1,2.41,2.5l-1.14,1.08a16.74,16.74,0,0,0-1.84-2.2,12,12,0,0,1-1.92,2.35h1.21v-1.08h1.49v1.08h1.6v1.19a11.82,11.82,0,0,0,1.65-4.93l1.62.22a20.69,20.69,0,0,1-.47,2.22h3.07l.25-.06,1.12.27a18.63,18.63,0,0,1-1,3.85l-1.32-.42a15.74,15.74,0,0,0,.53-2.13h-1Zm-5.32,3.19a21,21,0,0,1,1.12,2.62,8,8,0,0,0,2.58-5.81v-1.42h-.48a9.28,9.28,0,0,1-1.27,2.37,9.59,9.59,0,0,0-1-.72v2.92h-3.37v1.92l1.53-.41c-.14-.35-.29-.69-.43-1Zm-2.44-3.67v.67H418v-.67Zm0,1.78V295H418v-.68Z" style="fill:#d93b3f"/><path d="M440,296.94a24.94,24.94,0,0,1-2.61,1.51,12.19,12.19,0,0,0,3.25.79,6.64,6.64,0,0,0-1,1.45c-3.06-.5-5.07-1.76-6.31-4h-1.61v2.06l3-.25,0,1.47c-2.07.21-4.27.4-5.88.54l-.23-1.52,1.46-.12v-6.75a16.41,16.41,0,0,1-1.51.76,6.7,6.7,0,0,0-1-1.37,14.38,14.38,0,0,0,5.67-4h1.67a14.06,14.06,0,0,0,6,3.82,8.17,8.17,0,0,0-1.05,1.49c-.49-.21-1-.47-1.5-.73v4.1a2.86,2.86,0,0,0,.42-.31Zm-2.8-5.49a14.25,14.25,0,0,1-3-2.42,14.32,14.32,0,0,1-2.92,2.42h2.09v-1.08H435v1.08Zm-5.47,2h5v-.73h-5Zm0,2h5v-.77h-5Zm3.29,1.3a5.83,5.83,0,0,0,1,1c.52-.29,1.11-.62,1.64-1Z" style="fill:#d93b3f"/><path d="M454.59,289.24v1.58H444.44v1.94c0,2.26-.21,5.72-1.47,7.9a7.47,7.47,0,0,0-1.45-.93c1.15-2,1.25-5,1.25-7v-3.52h5v-1.62h1.73v1.62Zm-4.55,3.1h4.37v1.48H450v1.52h3.54v5.34h-1.71v-.51h-5v.52h-1.62v-5.35h3.07V291H450Zm1.83,4.47h-5v1.91h5Z" style="fill:#d93b3f"/><path d="M458.76,300.44a26.72,26.72,0,0,0-3-3.09l1.45-1.27a26.83,26.83,0,0,1,3.06,3.07Z" style="fill:#d93b3f"/><path d="M285.36,317.08c.2,0,.24-.19.28-1.64a4,4,0,0,0,1.27.59c-.12,1.92-.47,2.41-1.38,2.41h-.82c-1.13,0-1.37-.43-1.37-1.74v-2.25h-.61c-.21,1.85-.79,3.33-2.72,4.23a4,4,0,0,0-.58-.87h-3.15v.57h-1.46v-5l-.37.37a10.23,10.23,0,0,0-.94-1.31,8.49,8.49,0,0,0,1.82-2.2h-1.5V309h.84a7.43,7.43,0,0,0-1-.7,6.8,6.8,0,0,0,1.47-2.7l1.47.35a7.22,7.22,0,0,1-.29.82h3.77v1.31h-2.17c-.1.31-.21.61-.34.92h2.63v1.3H277c-.18.38-.38.73-.59,1.08h1a6.79,6.79,0,0,0,.35-1.05l1.5.25c-.15.28-.32.57-.47.8h1.36v1.1h-1.52v.68h1.32v1h-1.32v.66h1.32v1.05h-1.32v.73h1.52v.32a3.6,3.6,0,0,0,1.21-2.48h-.77v-8.32h5.57v8.32h-1.34v2.23c0,.36,0,.4.2.4ZM276,309c.13-.29.25-.61.37-.92h-.7a7.37,7.37,0,0,1-.62.92Zm1.19,3.48h-.91v.68h.91Zm0,1.72h-.91v.66h.91Zm-.91,2.44h.91v-.73h-.91Zm5.73-8.1h2.58v-.93H282Zm0,2.24h2.58v-.94H282Zm0,2.24h2.58v-.94H282Z" style="fill:#d93b3f"/><path d="M298.6,317.08c.45,0,.53-.31.59-2.21a5.09,5.09,0,0,0,1.53.67c-.17,2.45-.59,3.11-2,3.11h-1.66c-1.59,0-2-.53-2-2.13v-4.23h-2c-.24,2.94-.88,5.18-4.55,6.42a4.67,4.67,0,0,0-1-1.46c3.21-.95,3.59-2.68,3.78-5h-3.42v-1.57h5.38v-5.11H295v5.11h5.52v1.57h-3.71v4.22c0,.49.07.57.53.57Zm-8.23-6.85a16.07,16.07,0,0,0-1.45-3.46l1.5-.57a14.94,14.94,0,0,1,1.57,3.39Zm9.34-3.53a31.61,31.61,0,0,1-1.93,3.45l-1.46-.55a17.2,17.2,0,0,0,1.62-3.5Z" style="fill:#d93b3f"/><path d="M312.7,317.26c.55,0,.66-.23.74-1.47a4.63,4.63,0,0,0,1.35.58c-.18,1.75-.6,2.28-2,2.28h-2.46c-1.65,0-2.1-.45-2.1-2v-2.69l-.57.26-.57-1.36c-.06,3.44-.16,4.78-.48,5.23a1.26,1.26,0,0,1-.9.57,6.86,6.86,0,0,1-1.44.07,3.81,3.81,0,0,0-.41-1.48,8.85,8.85,0,0,0,1,.05.41.41,0,0,0,.41-.22c.18-.28.26-1.46.32-4.75h-1.09c-.2,2.52-.65,4.79-1.81,6.39a4.69,4.69,0,0,0-1.19-1.16c1.39-1.92,1.51-5,1.56-8.24h-1.35v-1.54h2.14v-2.12h1.6v2.12h2.19v1.05a10.14,10.14,0,0,0,1.24-3.18l1.64.31a14.18,14.18,0,0,1-.42,1.45h4.4v1.52h-5a9,9,0,0,1-.8,1.36h1v1.34l.76-.35v-2h1.39v1.36l1-.47.05,0,.25-.18,1,.36-.05.23c0,2,0,3.42-.06,3.84a1,1,0,0,1-.6,1,3.2,3.2,0,0,1-1.15.16,4.29,4.29,0,0,0-.31-1.22h.48c.11,0,.18,0,.19-.21s0-.89,0-2.22l-.89.42v3.9H310.5v-3.26l-.76.35v3.38c0,.57.1.65.8.65Zm-4.43-5v-1.46l-.12.14a9.4,9.4,0,0,0-1.25-1.18,4.32,4.32,0,0,0,.45-.5h-2.68c0,.5,0,1,0,1.5h2.52v.63l0,1.4Z" style="fill:#d93b3f"/><path d="M321.13,309.24h-5.48v-1.32h5.48Zm7,2.72A9.54,9.54,0,0,1,326,316a9.72,9.72,0,0,0,2.88,1.21,6.82,6.82,0,0,0-1.07,1.44,9.82,9.82,0,0,1-3.09-1.53,11.15,11.15,0,0,1-3.2,1.53,6.74,6.74,0,0,0-.87-1.44V318h-2.93v.55h-1.42v-4.78h4.35v3.49a9.24,9.24,0,0,0,2.83-1.21,9.46,9.46,0,0,1-1.61-2.42l1.42-.46h-1.94v-1.5h.47a6.73,6.73,0,0,0-1.16-1v.53h-4.31v-1.27h4.31v.67a3.14,3.14,0,0,0,1.36-2.87V306h4.69v3.14c0,.39,0,.43.18.43h.35c.19,0,.24-.18.26-1.4a4.63,4.63,0,0,0,1.36.59c-.14,1.74-.51,2.23-1.45,2.23h-.81c-1.12,0-1.44-.44-1.44-1.82v-1.7h-1.57v.24a4.43,4.43,0,0,1-1.74,3.91h4.93l.28-.07Zm-7.5,1.07h-4.31v-1.24h4.31Zm0-5.73h-4.23V306h4.23ZM319.16,315h-1.48v1.61h1.48Zm4.14-1.92a6.78,6.78,0,0,0,1.36,1.89,6.73,6.73,0,0,0,1.31-1.89Z" style="fill:#d93b3f"/><path d="M332.76,318.44a26.72,26.72,0,0,0-3-3.09l1.45-1.27a26.83,26.83,0,0,1,3.06,3.07Z" style="fill:#d93b3f"/><path d="M356.56,308a6.56,6.56,0,0,0-.54.73,14.12,14.12,0,0,1-3.38,3.84l-1.44-1.16a8.42,8.42,0,0,0,2.58-2.61h-7.3c-.59,0-1.05,0-1.71.1v-1.95a10.39,10.39,0,0,0,1.71.14H354a6.51,6.51,0,0,0,1.41-.13Zm-5.71,1.89c0,3.48-.07,6.33-3.9,8.38l-1.62-1.33a5.65,5.65,0,0,0,1.47-.77c1.78-1.24,2.12-2.72,2.12-5a7.82,7.82,0,0,0-.1-1.26Z" style="fill:#d93b3f"/><path d="M369.78,308.76a5.91,5.91,0,0,0-.46,1,14.66,14.66,0,0,1-2.44,4.68,13.25,13.25,0,0,1-5.66,3.95l-1.65-1.49a11.11,11.11,0,0,0,5.64-3.46,9.77,9.77,0,0,0,2-3.82h-3.93a16.06,16.06,0,0,1-3.53,3.39l-1.57-1.16a12.38,12.38,0,0,0,4.37-4.51,7.07,7.07,0,0,0,.63-1.47l2,.67c-.33.49-.68,1.12-.85,1.43l0,.07h2.81a4.38,4.38,0,0,0,1.22-.17Z" style="fill:#d93b3f"/><path d="M382.9,310.4a12.17,12.17,0,0,0,1.27-.08v1.82c-.35,0-.88,0-1.27,0h-3.38a9,9,0,0,1-.89,3.6,6.73,6.73,0,0,1-2.82,2.68l-1.64-1.19a5.75,5.75,0,0,0,2.54-2,6,6,0,0,0,.86-3.09h-3.85c-.4,0-1,0-1.34,0v-1.83c.42,0,.91.08,1.34.08Zm-7.39-1.92c-.49,0-1.07,0-1.49.06v-1.81a10.32,10.32,0,0,0,1.48.1h5.63a10.84,10.84,0,0,0,1.51-.1v1.81c-.49,0-1-.06-1.51-.06Z" style="fill:#d93b3f"/><path d="M396.59,310a17.77,17.77,0,0,1-3.15,2.54v4.66a7.41,7.41,0,0,0,.1,1.52h-2.08c0-.28.07-1,.07-1.52v-3.6a25.62,25.62,0,0,1-3.95,1.53l-.94-1.62a19,19,0,0,0,4.95-1.89,14.13,14.13,0,0,0,3.6-2.92Z" style="fill:#d93b3f"/><path d="M403.38,315.26c0,.6.28.76.91.88a12.17,12.17,0,0,0,1.62.09,23.64,23.64,0,0,0,4.88-.49v2a39.14,39.14,0,0,1-5,.3,15,15,0,0,1-2.35-.17,2,2,0,0,1-1.92-2.09v-7.63a11.9,11.9,0,0,0-.12-1.46h2.08a10.59,10.59,0,0,0-.11,1.46v2.64a35,35,0,0,0,4.84-1.55,9,9,0,0,0,1.53-.76l.76,1.78c-.55.23-1.18.49-1.64.66a49.15,49.15,0,0,1-5.49,1.71Zm6.13-6.74a15.36,15.36,0,0,0-1.09-1.93l1.1-.46a21.19,21.19,0,0,1,1.12,1.92Zm1.67-3a16.9,16.9,0,0,1,1.13,1.9l-1.1.48a15.53,15.53,0,0,0-1.14-1.93Z" style="fill:#d93b3f"/><path d="M424.9,310.4a12.17,12.17,0,0,0,1.27-.08v1.82c-.35,0-.88,0-1.27,0h-3.38a9,9,0,0,1-.89,3.6,6.73,6.73,0,0,1-2.82,2.68l-1.64-1.19a5.75,5.75,0,0,0,2.54-2,6,6,0,0,0,.86-3.09h-3.85c-.4,0-1,0-1.34,0v-1.83c.42,0,.91.08,1.34.08Zm-7.39-1.92c-.49,0-1.07,0-1.49.06v-1.81a10.32,10.32,0,0,0,1.48.1h5.63a10.84,10.84,0,0,0,1.51-.1v1.81c-.49,0-1-.06-1.51-.06Z" style="fill:#d93b3f"/><path d="M438.59,310a17.77,17.77,0,0,1-3.15,2.54v4.66a7.41,7.41,0,0,0,.1,1.52h-2.08c0-.28.07-1,.07-1.52v-3.6a25.62,25.62,0,0,1-3.95,1.53l-.94-1.62a19,19,0,0,0,4.95-1.89,14.13,14.13,0,0,0,3.6-2.92Z" style="fill:#d93b3f"/><path d="M444.76,318.44a26.72,26.72,0,0,0-3-3.09l1.45-1.27a26.83,26.83,0,0,1,3.06,3.07Z" style="fill:#d93b3f"/><path d="M283.64,329.87a10.55,10.55,0,0,1-2.15,3.28,12.23,12.23,0,0,0,5.27,2,8,8,0,0,0-1.08,1.58,12.16,12.16,0,0,1-5.52-2.36,15.46,15.46,0,0,1-5.46,2.39,9.35,9.35,0,0,0-1.05-1.57,13.87,13.87,0,0,0,5.28-2,12,12,0,0,1-1.93-3.23l1.59-.47A8.57,8.57,0,0,0,280.2,332a7.74,7.74,0,0,0,1.64-2.68Zm-4.56-2.24a15.64,15.64,0,0,1-3.86,3.43,14.36,14.36,0,0,0-1.4-1.29,10.63,10.63,0,0,0,3.54-2.81Zm3.77-.78H274v-1.63h5.3V323.6H281v1.62h5.36v1.63h-3.44a22.83,22.83,0,0,1,3.62,2.94l-1.48,1.15a21.53,21.53,0,0,0-3.56-3.13Z" style="fill:#d93b3f"/><path d="M291.05,333.51A3.22,3.22,0,0,0,294,334.9c1.67.07,5,0,6.91-.13a6.89,6.89,0,0,0-.52,1.63c-1.72.08-4.69.11-6.4,0a4.37,4.37,0,0,1-3.63-1.55c-.64.54-1.3,1.09-2.09,1.68l-.77-1.67a20.9,20.9,0,0,0,2-1.27v-3.06h-1.78V329h3.37Zm-.82-6.26a11.58,11.58,0,0,0-2.34-2.28L289,323.9a11.88,11.88,0,0,1,2.44,2.16Zm3.58,7.08h-1.57v-7.22h3.14c-.63-.29-1.3-.57-1.88-.8l1.08-.89c.49.18,1.08.4,1.66.65a12.77,12.77,0,0,0,1.12-.74h-5v-1.26h6.43l.32-.08,1,.8a16.37,16.37,0,0,1-2.5,1.89c.31.15.6.29.84.43h1.7v5.77c0,.68-.13,1-.58,1.25a4.19,4.19,0,0,1-1.89.24,4.28,4.28,0,0,0-.4-1.3h1.06c.17,0,.21-.07.21-.21v-.65h-1.65v2h-1.49v-2h-1.61Zm0-6v.75h1.61v-.75Zm1.61,2.7v-.78h-1.61V331Zm3.14-2.7h-1.65v.75h1.65Zm0,2.7v-.78h-1.65V331Z" style="fill:#d93b3f"/><path d="M314,332.49a8.06,8.06,0,0,1-1.58,2.17,1.19,1.19,0,0,0,.94.65c.35,0,.47-.27.54-1.38a3.82,3.82,0,0,0,1.08.76c-.25,1.58-.64,2-1.74,2a2.28,2.28,0,0,1-1.91-1.12,10.41,10.41,0,0,1-2.12,1.11,6.18,6.18,0,0,0-.87-1.07,8.59,8.59,0,0,0,2.34-1.26A11.86,11.86,0,0,1,310,332h-1.59a4.25,4.25,0,0,1-.07.53,10.93,10.93,0,0,1,1.67,1.29l-.89,1.11A8.51,8.51,0,0,0,308,334a4.78,4.78,0,0,1-1.87,2.68,3.87,3.87,0,0,0-.94-1.09A4.44,4.44,0,0,0,307,332h-.87v-.63l-.56.83c-.14-.42-.42-1.07-.7-1.68v6.16h-1.49v-5.17a11.87,11.87,0,0,1-1.12,2.63,8.82,8.82,0,0,0-.7-1.41,14.64,14.64,0,0,0,1.71-4.72h-1.39V326.5h1.5v-2.89h1.49v2.89h1.24a2.52,2.52,0,0,0-.3-.27l.61-.91.24.18a16.05,16.05,0,0,0,.69-1.81l1.23.48c-.39.67-.8,1.44-1.13,2l.35.37c.28-.48.51-.94.71-1.36l.94.46c0-.66,0-1.33,0-2h1.47c0,.79,0,1.54,0,2.29l.41-.59.22.17a14.72,14.72,0,0,0,.69-1.81l1.24.48c-.39.7-.79,1.45-1.14,2l.36.36c.27-.46.52-.94.71-1.34l1.14.56c-.56.88-1.23,1.9-1.85,2.73l.84-.06a5.72,5.72,0,0,0-.24-.57l.94-.34a8.53,8.53,0,0,1,.73,2.08l-1,.42a5.07,5.07,0,0,0-.12-.55l-1,.14a5.88,5.88,0,0,1,1.06.88l-.26.24h1.06V332h-2Zm-4.19-1.78c0-.29-.07-.6-.11-.91l-1,.38c0-.13,0-.27-.06-.42l-2.56.29-.22-1.23.43,0c.27-.36.56-.78.84-1.23a10.19,10.19,0,0,0-1-1V328h-1.27v.6c.29.43,1,1.51,1.3,2.1Zm-.7-3a7.93,7.93,0,0,1,.55,1.57c-.1-1-.17-2.1-.2-3.22-.56.87-1.22,1.85-1.82,2.64l.76-.06a4.61,4.61,0,0,0-.23-.63Zm2.22.86c.22-.3.46-.65.7-1a10.81,10.81,0,0,0-1.12-1.13c0,.75.05,1.47.11,2.17Zm1.12,2.14c-.21-.18-.45-.36-.68-.52l.63-.54-1.23.14-.08-.39c0,.46.1.89.17,1.31Zm-1,1.29c.1.46.21.9.32,1.28a6.14,6.14,0,0,0,.81-1.28Z" style="fill:#d93b3f"/><path d="M318,328.88v7.81h-1.63V324.14h5.39v4.74Zm0-3.59V326h2.2v-.69Zm2.2,2.45V327H318v.73Zm8,7.19c0,.77-.13,1.19-.57,1.45a3.85,3.85,0,0,1-1.94.31,5.52,5.52,0,0,0-.33-1.3,5.08,5.08,0,0,0-.44.67,4.74,4.74,0,0,1-2.65-1.76,5.37,5.37,0,0,1-2.8,1.75,5.32,5.32,0,0,0-1-1.08,3.9,3.9,0,0,0,2.64-1.64h-2.39v-1.22h2.65v-.73h-2.46v-1.16H320a5.23,5.23,0,0,0-.47-.91l1.28-.35a4.4,4.4,0,0,1,.67,1.26h1.46c.17-.42.36-.92.47-1.27l1.53.39-.6.88h1.22v1.16h-2.72v.73h2.86v1.22h-2.61a4.24,4.24,0,0,0,2.68,1.53,2.56,2.56,0,0,0-.27.29,5,5,0,0,0,.79,0c.16,0,.22-.07.22-.24v-6h-3.85v-4.78h5.49Zm-3.91-9.64V326h2.27v-.69Zm2.27,2.48V327h-2.27v.76Z" style="fill:#d93b3f"/><path d="M337.23,327.31a19.1,19.1,0,0,1-2.41.47,25.59,25.59,0,0,1-3,5.94l-1.7-.85A21,21,0,0,0,333,328h-.71c-.58,0-1.14,0-1.74,0l-.12-1.63a17.54,17.54,0,0,0,1.84.1c.41,0,.83,0,1.25,0a11.65,11.65,0,0,0,.38-2.33l1.92.2c-.11.45-.28,1.15-.48,1.89a13.84,13.84,0,0,0,1.86-.43Zm1.82,1.24a17.61,17.61,0,0,0,0,1.78c0,.4,0,1.07.08,1.75a9.28,9.28,0,0,1,2.87,1.78l-.92,1.49a12,12,0,0,0-1.88-1.47V334c0,1.29-.7,2.3-2.67,2.3-1.73,0-3.08-.77-3.08-2.3,0-1.35,1.13-2.41,3.06-2.41a9.29,9.29,0,0,1,.94.06c0-1-.11-2.25-.15-3.1Zm-1.53,4.6a5.12,5.12,0,0,0-1.12-.14c-.8,0-1.32.34-1.32.83s.44.86,1.19.86c.94,0,1.25-.54,1.25-1.29Zm3.91-3.85a18.29,18.29,0,0,0-3.33-2L339,326a23.65,23.65,0,0,1,3.42,1.88Z" style="fill:#d93b3f"/><path d="M353.83,327.73c-.42.25-.85.49-1.37.74-.85.45-2.16,1-3.43,1.86s-1.92,1.56-1.92,2.53.95,1.52,2.88,1.52a23.18,23.18,0,0,0,4.53-.5l0,2a25.53,25.53,0,0,1-4.45.35c-2.76,0-4.85-.77-4.85-3.17,0-1.53,1-2.66,2.3-3.64-.63-1.18-1.31-2.66-1.94-4.13l1.75-.72A33,33,0,0,0,349,328.4c1-.6,2-1.09,2.65-1.47a8,8,0,0,0,1.27-.83Zm.21-3.42a18.77,18.77,0,0,1,1.12,1.92l-1.13.48a17,17,0,0,0-1.09-1.95Zm1.67-.64a19.62,19.62,0,0,1,1.12,1.91l-1.11.48a14.32,14.32,0,0,0-1.13-1.93Z" style="fill:#d93b3f"/><path d="M359.57,325.82c1.16-.09,3.46-.3,6-.53,1.43-.11,2.95-.2,3.93-.24v1.8a14.27,14.27,0,0,0-2.68.18,4.21,4.21,0,0,0-2.92,3.88c0,2.28,2.13,3.11,4.48,3.22l-.65,1.92c-2.91-.18-5.65-1.75-5.65-4.76a5.5,5.5,0,0,1,2-4.28c-1.2.13-4.12.44-5.73.79l-.18-1.91C358.77,325.88,359.3,325.85,359.57,325.82Zm9.1,4.28-1.06.47a11.35,11.35,0,0,0-1.09-1.95l1-.43A16.47,16.47,0,0,1,368.67,330.1Zm1.63-.69-1.05.5A12.82,12.82,0,0,0,368.1,328l1-.47A21.76,21.76,0,0,1,370.3,329.41Z" style="fill:#d93b3f"/><path d="M380.94,331.57a6.78,6.78,0,0,1-.77,2.43,13.89,13.89,0,0,0,4.79,1.18,6.88,6.88,0,0,0-1,1.48,12.57,12.57,0,0,1-4.79-1.47,7,7,0,0,1-2.87,1.5,9.07,9.07,0,0,0-1-1.38,6.6,6.6,0,0,0,2.55-1.08,8.35,8.35,0,0,1-1.72-2.09l1.36-.42a5.54,5.54,0,0,0,1.3,1.44,4.65,4.65,0,0,0,.52-1.59h-3.12v-4.09h3.22v-1h-3.52v-1.29c-.25.53-.53,1.08-.84,1.61v9.9h-1.58V329.2a17,17,0,0,1-1.15,1.32,10.28,10.28,0,0,0-.88-1.71,14.94,14.94,0,0,0,3.39-5.23l1.54.51c-.13.29-.25.58-.38.89h3.42v-1.27H381V325h3.71v1.52H381v1h3.33v4.09Zm-1.57-1.35v-1.39h-1.73v1.39Zm1.65-1.39v1.39h1.74v-1.39Z" style="fill:#d93b3f"/><path d="M397.78,334.72c0,.89-.2,1.34-.76,1.6a6.77,6.77,0,0,1-2.69.29,6.14,6.14,0,0,0-.53-1.6c.79,0,1.71,0,2,0s.37-.08.37-.34v-2.1h-3v3.91h-1.68V332.6h-2.86a8,8,0,0,1-1.76,4.16,6.29,6.29,0,0,0-1.32-1.08c1.53-1.68,1.65-4.17,1.65-6.13v-5h10.58ZM391.49,331v-1.72h-2.63v.25c0,.45,0,1-.05,1.47Zm-2.63-4.9v1.63h2.63v-1.63Zm7.27,0h-3v1.63h3Zm0,4.9v-1.72h-3V331Z" style="fill:#d93b3f"/><path d="M401.57,325.82c1.16-.09,3.46-.3,6-.53,1.43-.11,2.95-.2,3.93-.24v1.8a14.27,14.27,0,0,0-2.68.18,4.21,4.21,0,0,0-2.92,3.88c0,2.28,2.13,3.11,4.48,3.22l-.65,1.92c-2.91-.18-5.65-1.75-5.65-4.76a5.5,5.5,0,0,1,2-4.28c-1.2.13-4.12.44-5.73.79l-.18-1.91C400.77,325.88,401.3,325.85,401.57,325.82Zm9.1,4.28-1.06.47a11.35,11.35,0,0,0-1.09-1.95l1-.43A16.47,16.47,0,0,1,410.67,330.1Zm1.63-.69-1.05.5A12.82,12.82,0,0,0,410.1,328l1-.47A21.76,21.76,0,0,1,412.3,329.41Z" style="fill:#d93b3f"/><path d="M425.36,329.09a16.33,16.33,0,0,1-2.14.56c.35.74.74,1.55,1.14,2.31l-.82,1.05c-.77-.14-2.1-.35-3-.46l.16-1.33c.54.07,1.09.11,1.47.15l-.63-1.44a35,35,0,0,1-6.1.08l-.07-1.6a27.79,27.79,0,0,0,5.54,0l-.24-.54-.34-.79a28.43,28.43,0,0,1-4.77-.05l-.09-1.59a25.93,25.93,0,0,0,4.2.16v0a12.36,12.36,0,0,0-.67-1.19l2-.38a12.64,12.64,0,0,0,.43,1.39,16.17,16.17,0,0,0,2.66-.64l.3,1.55a19.52,19.52,0,0,1-2.38.56l.26.6.32.7a14.43,14.43,0,0,0,2.48-.68Zm-7.77,2.6a3.94,3.94,0,0,0-.34,1.35c0,.87.62,1.45,2.42,1.45a20.77,20.77,0,0,0,3.67-.3l0,1.77a24,24,0,0,1-3.58.27c-2.59,0-4.18-.88-4.18-2.8a7.38,7.38,0,0,1,.33-1.89Z" style="fill:#d93b3f"/><path d="M438,325.87c-.33.2-.65.42-1,.63-.74.51-2.2,1.75-3.07,2.45a4.54,4.54,0,0,1,1.3-.16c2.36,0,4.15,1.47,4.15,3.49,0,2.19-1.67,3.92-5,3.92-1.93,0-3.39-.88-3.39-2.27a2.33,2.33,0,0,1,2.5-2.15,2.79,2.79,0,0,1,3,2.36,2,2,0,0,0,1.14-1.89c0-1.24-1.26-2.08-2.87-2.08-2.13,0-3.52,1.13-5,2.81l-1.26-1.3c1-.8,2.64-2.21,3.47-2.89s2.21-1.8,2.9-2.41c-.71,0-2.62.1-3.35.16a7.73,7.73,0,0,0-1.13.11l-.06-1.81c.39,0,.87.07,1.26.07.73,0,3.7-.07,4.48-.14a6.73,6.73,0,0,0,1.07-.14Zm-3.13,8.72c-.09-.89-.61-1.48-1.36-1.48-.52,0-.86.3-.86.66,0,.51.59.86,1.4.86A6.93,6.93,0,0,0,434.88,334.59Z" style="fill:#d93b3f"/><polygon points="485 295.88 485 329.88 530 329.88 530 317.88 520 317.88 525 312.88 520 307.88 530 307.88 530 295.88 485 295.88" style="fill:#d93b3f"/><polygon points="485 158.12 485 192.12 530 192.12 530 180.12 520 180.12 525 175.12 520 170.12 530 170.12 530 158.12 485 158.12" style="fill:#d93b3f"/><line x1="380" y1="193.73" x2="380" y2="195.23" style="fill:none;stroke:#c8c8c8;stroke-miterlimit:10"/><line x1="380" y1="198.43" x2="380" y2="228.78" style="fill:none;stroke:#c8c8c8;stroke-miterlimit:10;stroke-dasharray:3.194800615310669,3.194800615310669"/><line x1="380" y1="230.38" x2="380" y2="231.88" style="fill:none;stroke:#c8c8c8;stroke-miterlimit:10"/><path d="M65.81,63.45h2.7v-8H66.24V53.94a8.11,8.11,0,0,0,2.92-1H71V63.45h2.36v2H65.81Z" style="fill:#00adff"/><path d="M78.1,59.28a13,13,0,0,0-3-1.85L76.16,56a13.18,13.18,0,0,1,3.08,1.68Zm-2.41,6.1A53.84,53.84,0,0,0,78.46,60L80,61.27c-.75,1.78-1.69,3.72-2.57,5.35ZM77.2,51.29a11.8,11.8,0,0,1,3.08,1.77l-1.21,1.6a12.28,12.28,0,0,0-3-1.91ZM90,54.06V66.81H88v-.66H82.64V67h-2V54.06h2.86A22,22,0,0,0,84,51.12l2.38.24c-.24.93-.53,1.87-.8,2.7ZM82.64,56v3.08H88V56ZM88,64.19V61H82.64v3.24Z" style="fill:#00adff"/><path d="M92.16,64C95.58,61,97.6,58.6,97.6,56.66a1.81,1.81,0,0,0-1.89-2,3.27,3.27,0,0,0-2.31,1.3L92,54.56a5.1,5.1,0,0,1,4-1.91,3.69,3.69,0,0,1,4,3.88c0,2.28-1.89,4.72-4.18,7,.62-.07,1.46-.14,2-.14h2.74v2.11H92.16Z" style="fill:#00adff"/><path d="M115.89,52.09V66.71h-2.17V65.64h-7.55v1.1h-2.09V52.09Zm-9.72,2v3.65h7.55V54.13Zm7.55,9.47V59.79h-7.55V63.6Z" style="fill:#00adff"/><path d="M126.45,64.18c.64-.09,1.12-.17,1.56-.27a4.57,4.57,0,0,0,3.83-4.51A4.16,4.16,0,0,0,128.32,55a38.29,38.29,0,0,1-1,4.57c-1,3.4-2.47,5.47-4.31,5.47s-3.43-2-3.43-4.89a7.5,7.5,0,0,1,7.75-7.21,6.42,6.42,0,0,1,6.8,6.58c0,3.53-2.17,6-6.42,6.7Zm-1.31-5.1A26.74,26.74,0,0,0,126,55a5.28,5.28,0,0,0-4.27,4.88c0,1.7.68,2.53,1.31,2.53S124.46,61.36,125.14,59.08Z" style="fill:#00adff"/><path d="M142.73,58c-.08,5.49-.17,7.52-.59,8.14a1.58,1.58,0,0,1-1.11.72,11.08,11.08,0,0,1-1.75.07,4.84,4.84,0,0,0-.49-1.81,11.09,11.09,0,0,0,1.24.07.49.49,0,0,0,.48-.25c.22-.36.32-1.8.39-5.88h-1.23a13.35,13.35,0,0,1-2.36,8,8.25,8.25,0,0,0-1.49-1.24,12.2,12.2,0,0,0,2.1-7.62V55.52h-1.73V53.66h2.55V51.07h1.94v2.59h2.51V55a12,12,0,0,0,1.6-3.88l2,.38c-.14.56-.31,1.12-.49,1.66h5.28V55h-6a10.79,10.79,0,0,1-1.75,2.55,12.4,12.4,0,0,0-1.63-1.3,6,6,0,0,0,.63-.68h-3.08v1.67h3Zm9.32,1.41a27,27,0,0,1-2.62,2.16,7.14,7.14,0,0,0,2.69,3.66,7,7,0,0,0-1.38,1.7c-2.24-1.64-3.28-4.59-3.89-8.25l-.6.26v8h-1.92V59.6l-.35.11A10,10,0,0,0,142.79,58a19.22,19.22,0,0,0,7-2.89l1.44,1.06a16.16,16.16,0,0,1-2.68,1.7c.1.66.23,1.32.39,2a14.92,14.92,0,0,0,1.73-1.75Z" style="fill:#00adff"/><path d="M159.36,55.49a22.29,22.29,0,0,1-1.82,2.6V67h-2V60.32c-.48.46-.94.88-1.4,1.26a18.36,18.36,0,0,0-1.37-1.76,16.51,16.51,0,0,0,4.67-5.08Zm-.63-3.62a22.71,22.71,0,0,1-4.67,4.47,13,13,0,0,0-1.12-1.65,15.18,15.18,0,0,0,3.84-3.62Zm10,6.77H166.4v6c0,1.09-.21,1.65-1,2a9.59,9.59,0,0,1-3.32.34,8.22,8.22,0,0,0-.61-2.06c1,0,2.09,0,2.4,0s.42-.06.42-.32V58.64h-5V56.71h9.4ZM168.3,54H160V52h8.26Z" style="fill:#00adff"/><line x1="50" y1="79.96" x2="180" y2="79.96" style="fill:none;stroke:#00adff;stroke-miterlimit:10"/><path d="M56.22,104.63h2.25V97.46H56.62v-1a6.36,6.36,0,0,0,2.24-.78h1.22v9h2V106H56.22Z" style="fill:#00adff"/><path d="M70.55,94.59c0,.2,0,.44,0,.69.13,1.86.86,8.15,6.1,10.56a4.2,4.2,0,0,0-1,1.09c-3.39-1.64-4.94-4.85-5.67-7.55A11.63,11.63,0,0,1,64.55,107a4.45,4.45,0,0,0-1.08-1c5.6-3,5.52-9.48,5.61-11.33Z" style="fill:#00adff"/><path d="M87.27,98.27c-.08.19-.18.52-.26.77a3.51,3.51,0,0,1,2.73,3.34c0,2-1.26,3.78-4.56,4.3l-.74-1.16c2.58-.28,3.92-1.6,3.92-3.21a2.28,2.28,0,0,0-1.75-2.17,11.17,11.17,0,0,1-3,4.37c.09.38.21.74.32,1.08l-1.28.37a5.9,5.9,0,0,1-.19-.67,5,5,0,0,1-2.26.67,1.67,1.67,0,0,1-1.75-1.87c0-1.78,1.53-3.64,3.45-4.53,0-.64.08-1.29.14-1.89h-.68c-.65,0-1.73,0-2.32-.1l0-1.29a19.51,19.51,0,0,0,2.41.19h.75l.1-.94a6.27,6.27,0,0,0,0-.73l1.46,0a5.83,5.83,0,0,0-.17.66c-.06.27-.11.59-.17.93a26.69,26.69,0,0,0,4.79-.59v1.29a45.94,45.94,0,0,1-5,.5c0,.48-.09,1-.13,1.5a8.78,8.78,0,0,1,2.21-.31h.4a4.73,4.73,0,0,0,.15-.89ZM82.17,104a17.56,17.56,0,0,1-.3-3.12,4.08,4.08,0,0,0-2.09,3c0,.51.22.77.71.77A3.24,3.24,0,0,0,82.17,104Zm.93-3.34a14.07,14.07,0,0,0,.21,2.42A9.18,9.18,0,0,0,85.38,100H85.3a7.08,7.08,0,0,0-2.2.36Z" style="fill:#00adff"/><path d="M99.47,97.83c-.87.19-1.84.35-2.79.46-.13.6-.28,1.22-.44,1.81a41.8,41.8,0,0,1-2.18,6.38L92.52,106a30.1,30.1,0,0,0,2.35-6.22c.13-.42.24-.88.34-1.33l-1.11,0c-.64,0-1.15,0-1.65,0l0-1.38a12,12,0,0,0,1.69.12c.44,0,.9,0,1.39-.06.07-.41.14-.77.17-1a7,7,0,0,0,0-1.26l1.7.12c-.1.35-.21.91-.27,1.19l-.17.82a25.1,25.1,0,0,0,2.5-.48ZM99,102.55a5.26,5.26,0,0,0-.2,1.2c0,.63.34,1.19,2.11,1.19a15.31,15.31,0,0,0,2.77-.28l0,1.42a19.55,19.55,0,0,1-2.75.19c-2.25,0-3.42-.74-3.42-2.11a9.29,9.29,0,0,1,.21-1.74Zm-.55-3.42a23.05,23.05,0,0,1,2.6-.14,21.8,21.8,0,0,1,2.42.13l0,1.33a18.82,18.82,0,0,0-2.36-.17,22.4,22.4,0,0,0-2.62.14Z" style="fill:#00adff"/><path d="M109.89,94.87a23.92,23.92,0,0,0-.6,3.43c.6-1.27,1.95-2.76,3.61-2.76,1.9,0,3.3,1.87,3.3,4.85,0,3.87-2.43,5.64-6,6.29l-.84-1.26c3-.48,5.31-1.6,5.31-5,0-2.16-.71-3.57-2-3.57-1.68,0-3.22,2.49-3.34,4.31a6.79,6.79,0,0,0,0,1.6l-1.35.1a16.68,16.68,0,0,1-.17-2.24,36.57,36.57,0,0,1,.42-4.47c0-.46.1-.94.11-1.31Z" style="fill:#00adff"/><path d="M124.94,99.23s0,.38,0,.54c-.08,4.6-.17,6.21-.52,6.7a1,1,0,0,1-.85.5,7.42,7.42,0,0,1-1.46,0,2.92,2.92,0,0,0-.34-1.16c.51,0,1,0,1.18,0a.4.4,0,0,0,.42-.19c.21-.3.3-1.6.36-5.28h-1.38a11.42,11.42,0,0,1-2,6.68,7,7,0,0,0-1-.78,11,11,0,0,0,1.79-6.7v-2h-1.54V96.4H122V94.23h1.25V96.4h2.15v1.13a10.24,10.24,0,0,0,1.45-3.33l1.29.26a15,15,0,0,1-.49,1.52h4.59v1.2h-5.13a8.88,8.88,0,0,1-1.41,2.09,6.92,6.92,0,0,0-1.07-.83,5,5,0,0,0,.7-.82h-2.94v1.61Zm7.58,1.47a20.32,20.32,0,0,1-2.31,1.89,6.47,6.47,0,0,0,2.38,3.36,4.57,4.57,0,0,0-.88,1.07c-1.85-1.35-2.8-3.87-3.31-7l-.75.31v6.71h-1.24V100.8l-.56.16a4.47,4.47,0,0,0-.78-1.09,16.62,16.62,0,0,0,5.77-2.41l.95.7a13.92,13.92,0,0,1-2.32,1.39,20,20,0,0,0,.4,2,15.47,15.47,0,0,0,1.74-1.62Z" style="fill:#00adff"/><path d="M138.47,97.66a20.69,20.69,0,0,1-1.53,2.14v7.3h-1.3v-5.86a15.69,15.69,0,0,1-1.39,1.26,7,7,0,0,0-.9-1.1,14.72,14.72,0,0,0,3.88-4.2Zm-.53-2.94a18.82,18.82,0,0,1-3.7,3.54,6.3,6.3,0,0,0-.75-1.05,12.67,12.67,0,0,0,3.2-3Zm8.4,5.38h-2v5.39c0,.74-.17,1.12-.7,1.33A8.63,8.63,0,0,1,141,107a4.59,4.59,0,0,0-.42-1.3c.9,0,1.84,0,2.09,0s.35-.07.35-.27V100.1h-4.42V98.85h7.77ZM146,96.27h-6.8V95H146Z" style="fill:#00adff"/><path d="M152.47,94.74a20.69,20.69,0,0,1-1.42,2.72V107h-1.34V99.38a14.25,14.25,0,0,1-1.68,1.84,7.49,7.49,0,0,0-.75-1.31,15.15,15.15,0,0,0,3.95-5.57Zm3.72,4.85c.45,3.43,1.29,5.74,2.62,5.9.35,0,.56-.76.69-2.34a3.94,3.94,0,0,0,1.08.71c-.32,2.54-1,3.22-1.71,3.18-2.34-.19-3.43-3-4-7.27l-3.06.4-.2-1.24,3.14-.39c-.11-1.27-.2-2.65-.25-4.12h1.31c0,1.4.12,2.73.23,3.94l4.1-.52.17,1.22Zm2.88-2.24A13.56,13.56,0,0,0,157,95l1-.62a13.65,13.65,0,0,1,2.17,2.24Z" style="fill:#00adff"/><path d="M168.61,105.52h5.3v1.13H162.1v-1.13h5.14v-3.18h-4.47v-1.12h4.47V99.55h-2.75v-.73a19.88,19.88,0,0,1-2.18,1.37,5.17,5.17,0,0,0-.82-1,14.87,14.87,0,0,0,5.72-5h1.33a15.29,15.29,0,0,0,6,4.79,7.19,7.19,0,0,0-.84,1.17,18.29,18.29,0,0,1-2.25-1.39v.8h-2.84v1.67h4.57v1.12h-4.57Zm-3.75-3a9.25,9.25,0,0,1,1.3,2.41l-1.14.5a9,9,0,0,0-1.23-2.49ZM171,98.4a15.56,15.56,0,0,1-3-2.94A15.07,15.07,0,0,1,165,98.4ZM169.53,105a15.68,15.68,0,0,0,1.42-2.5l1.25.46a24.37,24.37,0,0,1-1.7,2.47Z" style="fill:#00adff"/><path d="M65.67,125.83H64.09v3.45H61.62v-3.45H56V124l5-8.07h3.17v7.85h1.58Zm-4.05-2v-2.72c0-.77.07-2,.11-2.75h-.07c-.33.7-.69,1.44-1.07,2.16l-2.07,3.31Z" style="fill:#00adff"/><path d="M67,122.57c0-4.61,1.81-6.86,4.52-6.86S76,118,76,122.57s-1.81,7-4.51,7S67,127.16,67,122.57Zm6.52,0c0-3.73-.86-4.81-2-4.81s-2,1.08-2,4.81.86,4.9,2,4.9S73.48,126.31,73.48,122.57Z" style="fill:#00adff"/><path d="M77.73,131.68c1.39-.52,2.16-1.42,2.16-2.47h-.16a1.55,1.55,0,0,1-1.66-1.56,1.59,1.59,0,0,1,1.71-1.57c1.23,0,1.91,1,1.91,2.61a4.54,4.54,0,0,1-3.4,4.43Z" style="fill:#00adff"/><path d="M83.42,122.57c0-4.61,1.8-6.86,4.52-6.86s4.5,2.27,4.5,6.86-1.8,7-4.5,7S83.42,127.16,83.42,122.57Zm6.51,0c0-3.73-.86-4.81-2-4.81s-2,1.08-2,4.81.86,4.9,2,4.9S89.93,126.31,89.93,122.57Z" style="fill:#00adff"/><path d="M94,122.57c0-4.61,1.8-6.86,4.52-6.86s4.5,2.27,4.5,6.86-1.8,7-4.5,7S94,127.16,94,122.57Zm6.52,0c0-3.73-.87-4.81-2-4.81s-2,1.08-2,4.81.87,4.9,2,4.9S100.54,126.31,100.54,122.57Z" style="fill:#00adff"/><path d="M104.62,122.57c0-4.61,1.8-6.86,4.52-6.86s4.5,2.27,4.5,6.86-1.8,7-4.5,7S104.62,127.16,104.62,122.57Zm6.52,0c0-3.73-.87-4.81-2-4.81s-2,1.08-2,4.81.87,4.9,2,4.9S111.14,126.31,111.14,122.57Z" style="fill:#00adff"/><path d="M131.1,128.33c0,1.17-.25,1.77-1,2.11a8.33,8.33,0,0,1-3.4.39,9.16,9.16,0,0,0-.77-2.14c1,.07,2.19.05,2.55.05s.47-.12.47-.43V124H118.07v6.87h-2.16V115.17H131.1Zm-13-6.5h4.25v-4.54h-4.25Zm10.87,0v-4.54h-4.5v4.54Z" style="fill:#00adff"/><path d="M139.14,128.43a6.86,6.86,0,0,0,1.23-.2,4,4,0,0,0,3.36-3.93,3.67,3.67,0,0,0-3.33-3.87,32.42,32.42,0,0,1-.83,3.9c-.84,2.83-2,4.41-3.37,4.41s-2.64-1.56-2.64-3.87a6,6,0,0,1,6.21-5.75,5.14,5.14,0,0,1,5.45,5.23c0,2.9-1.86,4.92-5.25,5.4Zm-1-4.4a19.14,19.14,0,0,0,.75-3.57,4.66,4.66,0,0,0-3.95,4.29c0,1.59.72,2.32,1.28,2.32S137.51,126.18,138.16,124Z" style="fill:#00adff"/><path d="M151.5,125.94c-1.4.71-2.91,1.47-4.09,2l-.5-1.3,1.82-.76v-4.17h-1.54V120.5h1.54v-2.83h1.2v2.83h1.42v1.24h-1.42v3.64l1.29-.59Zm2.72-1.66a5.92,5.92,0,0,1-.52.84h5.85s0,.33,0,.5c-.23,2.8-.44,3.89-.82,4.31a1.17,1.17,0,0,1-.84.39,12,12,0,0,1-1.4,0,2.55,2.55,0,0,0-.29-1.06,8.76,8.76,0,0,0,1.09.06c.21,0,.32,0,.44-.15s.39-1,.56-3h-.84a9.69,9.69,0,0,1-2.82,4.25,4.78,4.78,0,0,0-.94-.73,8.1,8.1,0,0,0,2.66-3.52h-1.1a10.79,10.79,0,0,1-3.34,3.65,3.46,3.46,0,0,0-.87-.78,9.08,9.08,0,0,0,3-2.87h-1.18a9.52,9.52,0,0,1-1.72,1.49,6.87,6.87,0,0,0-.88-.81,7.41,7.41,0,0,0,2.64-2.58h-1.79v-1.1h8.76v1.1Zm4.68-1.77h-6.48v-4.6h6.48Zm-1.21-3.66H153.6v.91h4.09Zm0,1.79H153.6v.93h4.09Z" style="fill:#00adff"/><path d="M168,117.56a15.51,15.51,0,0,0,6.07,4.89,6.12,6.12,0,0,0-.86,1.16,18.6,18.6,0,0,1-2.26-1.41v1h-7v-1a19.94,19.94,0,0,1-2.26,1.43,5.11,5.11,0,0,0-.79-1,15.52,15.52,0,0,0,5.75-5.07Zm-4.83,7.21h8.63v5.64h-1.33v-.55h-6v.55h-1.28ZM170.7,122a16.32,16.32,0,0,1-3.31-3.19,15,15,0,0,1-3.15,3.19ZM164.44,126v2.75h6V126Z" style="fill:#00adff"/><line x1="340" y1="47.12" x2="390" y2="47.12" style="fill:none;stroke:#231815;stroke-miterlimit:10;stroke-width:0.5px"/><line x1="354.5" y1="111.12" x2="390" y2="111.12" style="fill:none;stroke:#231815;stroke-miterlimit:10;stroke-width:0.5px"/><line x1="384.75" y1="248.88" x2="495.5" y2="248.88" style="fill:none;stroke:#231815;stroke-miterlimit:10;stroke-width:0.5px"/><line x1="458" y1="312.88" x2="495.5" y2="312.88" style="fill:none;stroke:#231815;stroke-miterlimit:10;stroke-width:0.5px"/></g></g></svg>