<svg xmlns="http://www.w3.org/2000/svg" viewBox="0 0 660 857"><g id="レイヤー_2" data-name="レイヤー 2"><g id="テキスト"><rect width="660" height="857" rx="15" style="fill:#fff"/><rect x="40" y="40.26" width="580" height="112" style="fill:#fff;stroke:#00adff;stroke-linecap:round;stroke-linejoin:round;stroke-width:3px"/><path d="M59.64,709H56.93v5.65H54.49V709H45.56v-1.68l8.54-13.19h2.83V707h2.71Zm-5.15-2v-6.3c0-1,.11-2.66.17-3.72h-.11c-.51,1-1.07,2-1.65,3l-4.68,7Z" style="fill:#040000"/><path d="M72.08,695.36c-.06,1.85-.14,3.78-.34,5.71H84.17s0,.73,0,1c-.5,9-1,12.35-2,13.52a3.17,3.17,0,0,1-2.38,1,37.86,37.86,0,0,1-4.93-.11,4.18,4.18,0,0,0-.73-2,47.79,47.79,0,0,0,4.88.22,1.7,1.7,0,0,0,1.31-.36c.84-.76,1.32-3.84,1.71-11.23H71.49c-.81,5.49-2.89,10.69-8.4,13.77a6,6,0,0,0-1.51-1.62c7.75-4.12,8.14-12.74,8.31-19.88H62.36v-2H86.72v2Z" style="fill:#040000"/><path d="M114.1,714c0,1.34-.33,2-1.28,2.38a18,18,0,0,1-5,.36,8.75,8.75,0,0,0-.78-2.07c1.9.08,3.72.06,4.25,0s.7-.17.7-.7v-8.57H93.24v11.37H91.17V693.15H114.1ZM93.24,703.37h8.21v-8.21H93.24Zm18.76,0v-8.21h-8.51v8.21Z" style="fill:#040000"/><path d="M130.15,713.28a17.89,17.89,0,0,0,2.38-.34c3.55-.78,7-3.41,7-8.2a7.69,7.69,0,0,0-7.37-8,57.16,57.16,0,0,1-1.65,8c-1.71,5.69-3.92,8.63-6.5,8.63s-5-2.86-5-7.42c0-6,5.37-11.29,12.15-11.29,6.5,0,10.64,4.6,10.64,10.2,0,5.82-3.84,9.71-10.44,10.58Zm-1.82-9.07a45,45,0,0,0,1.54-7.48c-5.32.67-8.57,5.24-8.57,9,0,3.5,1.62,5,2.83,5S126.9,708.88,128.33,704.21Z" style="fill:#040000"/><path d="M156.3,702.25c-.22,9.38-.39,12.54-1.12,13.49a1.86,1.86,0,0,1-1.6.87,19,19,0,0,1-3,0,4.7,4.7,0,0,0-.53-1.88c1.14.12,2.18.14,2.6.14a.91.91,0,0,0,.87-.39c.45-.67.64-3.41.84-11.31H151c-.11,4.37-.84,9.35-4,13.66a9.44,9.44,0,0,0-1.54-1.26c3.33-4.53,3.69-10,3.69-14.11v-3.83h-3.22v-1.91h4.87v-4.48h2v4.48h4.48v1.91H151v3.66h5.32Zm4.09-5.41a18.46,18.46,0,0,1-2.83,4.2,11.83,11.83,0,0,0-1.71-1.31,19.44,19.44,0,0,0,4.54-8.51l2,.42a30.48,30.48,0,0,1-1.12,3.3h9.64v1.9Zm11.11,6.92a47.32,47.32,0,0,1-4.92,4c1.14,3.19,2.77,5.79,5.06,7.28a6.13,6.13,0,0,0-1.42,1.68c-3.81-2.72-5.8-8-6.84-14.37-.61.28-1.26.53-1.87.76v13.69h-2v-13c-.53.17-1,.31-1.51.45a6.57,6.57,0,0,0-1.26-1.71c3.92-.87,9.21-2.94,11.7-4.87l1.49,1.09a27.88,27.88,0,0,1-4.88,2.83,43.47,43.47,0,0,0,1,4.42,36.44,36.44,0,0,0,4-3.53Z" style="fill:#040000"/><path d="M183.12,697.91a34.62,34.62,0,0,1-3.08,4.23v14.72H178V704.43a33.12,33.12,0,0,1-3.16,2.91,20.32,20.32,0,0,0-1.46-1.73,30.55,30.55,0,0,0,7.84-8.43ZM182,692a34.19,34.19,0,0,1-7.17,6.94,16.43,16.43,0,0,0-1.23-1.65,27.86,27.86,0,0,0,6.41-6.07Zm17.17,10.56H195v11.56c0,1.29-.31,1.93-1.23,2.27a21.08,21.08,0,0,1-5.27.31,7.26,7.26,0,0,0-.67-2c2,.06,3.84.06,4.37,0s.7-.14.7-.62V702.56h-9.35v-2H199.2Zm-.82-7.68H184.72v-2h13.66Z" style="fill:#040000"/><path d="M212.47,693c-.11.53-.25,1.09-.34,1.65-.17.81-.42,2.44-.73,3.92,1.29-.11,2.44-.19,3.11-.19,2.49,0,4.51,1,4.51,4.73,0,3.3-.45,7.67-1.6,10-.89,1.85-2.26,2.3-4.06,2.3a17.33,17.33,0,0,1-3.27-.39l-.37-2.38a12.76,12.76,0,0,0,3.42.61,2.32,2.32,0,0,0,2.41-1.42c.89-1.85,1.31-5.46,1.31-8.46,0-2.52-1.14-3-2.94-3-.67,0-1.76.09-3,.2-1,4-2.92,10.22-5.83,14.87l-2.27-.93c2.83-3.78,4.88-10,5.83-13.72-1.46.14-2.77.28-3.5.37s-1.79.19-2.49.33l-.23-2.43c.87,0,1.57,0,2.47,0s2.52-.17,4.2-.31a31.18,31.18,0,0,0,.7-6Zm9.52,3.16a47.43,47.43,0,0,1,5.07,9.86l-2.16,1.06c-.84-2.85-3-7.7-5-10Zm1.15.45a34.83,34.83,0,0,0-2.27-3.89l1.48-.62a40.38,40.38,0,0,1,2.33,3.84Zm3.16-1.15a32.35,32.35,0,0,0-2.32-3.86l1.48-.62a37,37,0,0,1,2.35,3.81Z" style="fill:#040000"/><path d="M253,697.15a11.26,11.26,0,0,0-.68,1.49,27.24,27.24,0,0,1-4.95,9.63,24.51,24.51,0,0,1-11.15,7.61l-2-1.82a21.62,21.62,0,0,0,15.62-15.76h-9.46a27.81,27.81,0,0,1-7.09,6.89l-1.93-1.46a22.78,22.78,0,0,0,8.79-9.46,8.63,8.63,0,0,0,.87-2.21l2.61.86c-.48.73-1,1.66-1.26,2.19a11.77,11.77,0,0,1-.68,1.17h7.62a5.31,5.31,0,0,0,1.82-.25Z" style="fill:#040000"/><path d="M259.4,702.53c.84.05,2.32.14,3.89.14h15.34c1.4,0,2.41-.09,3-.14v2.74c-.56,0-1.74-.14-3-.14H263.29c-1.54,0-3,.06-3.89.14Z" style="fill:#040000"/><path d="M293.56,704.38a42.26,42.26,0,0,1-5.38,7.7l-1.93-1.32a30.12,30.12,0,0,0,5.35-7.34Zm6-4.32v13.56c0,1.48-.73,2.24-2.41,2.24-1.18,0-2.86-.09-4-.2l-.22-2.24a21.07,21.07,0,0,0,3.25.34c.75,0,1.09-.34,1.09-1.07V700.06H289.5c-.84,0-1.63,0-2.38.09V697.8a21.79,21.79,0,0,0,2.38.14h7.78v-2.89a9.62,9.62,0,0,0-.2-2h2.64a12.61,12.61,0,0,0-.17,2v2.86h7.39a16.41,16.41,0,0,0,2.3-.14v2.32c-.76-.06-1.6-.06-2.27-.06Zm5.71,3.39a60.06,60.06,0,0,1,4.84,7.31L308,711.91a46.21,46.21,0,0,0-4.67-7.45Zm-.87-9.49a3.07,3.07,0,1,1,6.13,0,3.07,3.07,0,0,1-6.13,0Zm1.29,0a1.78,1.78,0,1,0,3.56,0,1.78,1.78,0,1,0-3.56,0Z" style="fill:#040000"/><path d="M327.69,708.8A26.4,26.4,0,0,0,337,698.5l1.34,2.38a28,28,0,0,1-9.4,9.94,30.08,30.08,0,0,1-11,4.36l-1.48-2.29A29,29,0,0,0,327.69,708.8ZM326,699.92l-1.77,1.77a57.9,57.9,0,0,0-7-5.85l1.6-1.71A62.33,62.33,0,0,1,326,699.92Z" style="fill:#040000"/><path d="M355,710.87c.08-1.06.11-2.85.11-4.31-2.57,1.4-4.37,2.83-4.37,4.65,0,2.18,2.16,2.49,5,2.49a48.91,48.91,0,0,0,7.56-.67l-.06,2.27a72,72,0,0,1-7.59.44c-4,0-7.17-.84-7.17-4.22s3.31-5.35,6.53-7a2.34,2.34,0,0,0-2.49-1.71,7.43,7.43,0,0,0-4.79,2c-.79.76-1.57,1.8-2.52,2.92l-1.91-1.43a29.4,29.4,0,0,0,6.39-8.46h-1.15c-1.18,0-3-.05-4.56-.17v-2.1a46.58,46.58,0,0,0,4.67.28c.59,0,1.18,0,1.82,0a15,15,0,0,0,.7-3.45l2.3.2c-.2.78-.45,1.93-.84,3.19a73.8,73.8,0,0,0,8.48-.84l0,2.07a87.66,87.66,0,0,1-9.18.79,20.18,20.18,0,0,1-2.49,4.25,7.89,7.89,0,0,1,3.83-1,3.47,3.47,0,0,1,3.67,2.52c1.91-.9,3.59-1.57,5-2.24.84-.37,1.51-.7,2.3-1.1l.89,2.1c-.7.2-1.7.59-2.43.87-1.57.62-3.56,1.43-5.66,2.41,0,1.6.06,3.95.09,5.29Z" style="fill:#040000"/><path d="M383.3,691.19a31.4,31.4,0,0,0,12.26,7.42,9.56,9.56,0,0,0-1.26,1.73,37.55,37.55,0,0,1-6.24-3.08v1.52H377.25v-1.6a39.72,39.72,0,0,1-6.44,3.36,8.83,8.83,0,0,0-1.18-1.65c4.73-1.74,9.41-4.85,11.71-7.7Zm7.58,10.33c-.86,1.74-2,3.75-3.1,5.49h3.55v9.8H389.2v-1.09H376v1.09h-2.05V707h11.4c.81-1.26,1.71-2.8,2.44-4.09H373.47V701.1h15.45l.4-.14Zm-1.68,7.34H376v5H389.2ZM387.64,697a27.62,27.62,0,0,1-5.21-4.09A25.85,25.85,0,0,1,377.5,697Z" style="fill:#040000"/><path d="M415.24,693.06c-.16.68-.33,1.63-.47,2.16s-.28,1.23-.45,1.88a8.69,8.69,0,0,1,7.5,8.93c0,5.51-3.94,8.9-9.88,9.71l-1.34-2c5.76-.51,9-3.56,9-7.82a6.72,6.72,0,0,0-5.76-6.91,36.31,36.31,0,0,1-4.06,9.43,17.09,17.09,0,0,0,1.7,1.94l-1.73,1.42c-.45-.5-.9-1-1.32-1.56-1.71,2.07-3.41,3.44-5.49,3.44s-3.89-1.76-3.89-5a11.68,11.68,0,0,1,4.29-8.57c-.31-.87-.59-1.73-.84-2.55a21.08,21.08,0,0,0-.9-2.49l2.32-.73c.14.76.37,1.68.56,2.44s.4,1.34.65,2.13a14.1,14.1,0,0,1,7.11-2c.17-.67.31-1.35.42-2a10.27,10.27,0,0,0,.17-2.1Zm-8.06,15.43c-.22-.33-.45-.7-.67-1.06a34.84,34.84,0,0,1-2.47-5.32,9.4,9.4,0,0,0-3,6.41c0,1.85.81,3,2.07,3S406,710.12,407.18,708.49Zm1.29-1.9a35.83,35.83,0,0,0,3.22-7.7,11.85,11.85,0,0,0-5.91,1.9,30.07,30.07,0,0,0,2.13,4.87C408.08,706,408.27,706.28,408.47,706.59Z" style="fill:#040000"/><path d="M445.51,695.22c-.5.34-1.12.76-1.54,1.06-1.37,1-5.09,4.32-7.22,6.11a11.78,11.78,0,0,1,3.75-.59c4.62,0,7.95,2.8,7.95,6.55,0,4.48-3.72,7.39-9.57,7.39-3.78,0-6.11-1.68-6.11-4,0-1.91,1.71-3.64,4.29-3.64a5.48,5.48,0,0,1,5.71,4.9,4.84,4.84,0,0,0,3.44-4.71c0-2.71-2.74-4.7-6.24-4.7-4.57,0-7.09,1.93-10.61,5.52l-1.63-1.66c2.3-1.9,5.85-4.87,7.48-6.21s5-4.2,6.35-5.43c-1.45,0-6.91.3-8.34.39a12.63,12.63,0,0,0-1.88.17l0-2.33a14.66,14.66,0,0,0,2,.09c1.43,0,8-.2,9.46-.34a9.92,9.92,0,0,0,1.51-.22Zm-4.79,18.34c-.25-2.18-1.56-3.7-3.66-3.7-1.26,0-2.22.76-2.22,1.71,0,1.37,1.6,2.16,3.67,2.16A13.78,13.78,0,0,0,440.72,713.56Z" style="fill:#040000"/><path d="M474.69,698c-.62.39-1.32.76-2.13,1.18a93.52,93.52,0,0,0-8.43,4.56c-2.57,1.68-4.11,3.5-4.11,5.6,0,2.3,2.18,3.73,6.55,3.73a40.73,40.73,0,0,0,8.87-1v2.52a53.57,53.57,0,0,1-8.76.68c-5.21,0-9-1.57-9-5.72,0-2.85,1.82-5.12,4.79-7.19a92.66,92.66,0,0,1-4-8.54l2.21-.9a64.39,64.39,0,0,0,3.72,8.21c2.61-1.57,5.6-3,7.12-3.9a10.62,10.62,0,0,0,2-1.31Z" style="fill:#040000"/><path d="M496.72,709.53c2,3,5.58,4.81,10.45,5.51a7.77,7.77,0,0,0-1.26,1.8c-5.46-1-9.27-3.31-11.4-7.31h-.25c-1.46,2.77-4.51,5.35-10.89,7.25a8.37,8.37,0,0,0-1.26-1.68c5.46-1.51,8.31-3.47,9.77-5.57h-9.49v-1.85h10.44a8.49,8.49,0,0,0,.53-2.63h-7.75v-1.74h7.81v-2.49h-8.26v-1.76h8.26v-2.33h2.07v2.33h8.65v-3.22H484.82v3.5h-2V694h10.67v-2.72h2.07V694h10.69v5.38h-2.1v1.48h-8.65v2.49h8.26v1.74h-8.31a12.71,12.71,0,0,1-.45,2.63h11.87v1.85Z" style="fill:#040000"/><path d="M513.86,696.87a8.75,8.75,0,0,1-2.6,5,5.92,5.92,0,0,0-1.4-1.34,7.45,7.45,0,0,0,2.32-5.83V692l1.65.48a48.32,48.32,0,0,0,6.47-1.15l1.4,1.29a44.29,44.29,0,0,1-7.67,1.23v1.43h8.4v1.62h-3.31v3.5h-1.84v-3.5Zm6.36,16.63a39.46,39.46,0,0,1-8.54,3.36,17.38,17.38,0,0,0-1.54-1.56,32.21,32.21,0,0,0,8.2-2.69Zm-6.61-12.57h18.17v11.4H513.61Zm2,3.33h14.11v-1.93H515.6Zm0,3.31h14.11v-2H515.6Zm0,3.36h14.11v-2H515.6ZM535,695.25v1.62h-4.14v3.56H529v-3.56h-3.89a6.85,6.85,0,0,1-2.91,3.87,4.59,4.59,0,0,0-1.29-1.38,5.32,5.32,0,0,0,2.69-4.81v-2.49l1.59.39a46.59,46.59,0,0,0,7.06-1.12l1.4,1.31a50.88,50.88,0,0,1-8.2,1.21v.75a4.94,4.94,0,0,1,0,.65Zm-8.4,17.44c3,1,6.36,2.19,8.4,3.11l-2.29,1a59.58,59.58,0,0,0-7.82-3.08Z" style="fill:#040000"/><path d="M537.77,713.14c6.44-5.63,9.41-9.72,9.41-13.24,0-2.36-1.23-4.06-3.78-4.06a5.74,5.74,0,0,0-4.26,2.38l-1.48-1.46c1.68-1.82,3.44-3,6.05-3,3.67,0,6,2.4,6,6.07,0,4.09-3.22,8.26-8,12.83,1.06-.09,2.32-.2,3.36-.2h5.68v2.21H537.77Z" style="fill:#040000"/><path d="M563.62,695.36c-.06,1.85-.14,3.78-.34,5.71h12.43s0,.73,0,1c-.5,9-.95,12.35-2,13.52a3.17,3.17,0,0,1-2.38,1,37.86,37.86,0,0,1-4.93-.11,4.18,4.18,0,0,0-.73-2,47.79,47.79,0,0,0,4.88.22,1.7,1.7,0,0,0,1.31-.36c.84-.76,1.32-3.84,1.71-11.23H563c-.81,5.49-2.89,10.69-8.4,13.77a6,6,0,0,0-1.51-1.62c7.75-4.12,8.14-12.74,8.31-19.88H553.9v-2h24.36v2Z" style="fill:#040000"/><path d="M605.64,714c0,1.34-.33,2-1.28,2.38a18,18,0,0,1-5,.36,8.75,8.75,0,0,0-.78-2.07c1.9.08,3.72.06,4.25,0s.7-.17.7-.7v-8.57H584.78v11.37h-2.07V693.15h22.93Zm-20.86-10.64H593v-8.21h-8.21Zm18.76,0v-8.21H595v8.21Z" style="fill:#040000"/><path d="M67.15,746c-.62.39-1.32.76-2.13,1.18a93.52,93.52,0,0,0-8.43,4.56c-2.57,1.68-4.11,3.5-4.11,5.6,0,2.3,2.18,3.73,6.55,3.73a40.73,40.73,0,0,0,8.87-1v2.52a53.57,53.57,0,0,1-8.76.68c-5.21,0-9-1.57-9-5.72,0-2.85,1.82-5.12,4.79-7.19a92.66,92.66,0,0,1-4-8.54l2.21-.9a64.39,64.39,0,0,0,3.72,8.21c2.61-1.57,5.6-3,7.12-3.9a10.62,10.62,0,0,0,2-1.31Z" style="fill:#040000"/><path d="M89,745.85a32.57,32.57,0,0,1-5,1,49.7,49.7,0,0,1-6,11.73l-2.18-1.12a39.87,39.87,0,0,0,5.93-10.36q-1.22.09-2.43.09c-1,0-2.19,0-3.22-.09l-.17-2.1a26,26,0,0,0,3.41.2c1,0,2-.06,3.08-.14a22.42,22.42,0,0,0,.87-4.79l2.49.22c-.28,1-.64,2.69-1.09,4.29a28.71,28.71,0,0,0,4.31-1Zm3.25,3.22a25.24,25.24,0,0,0,0,3c0,1,.14,2.83.2,4.51a18.62,18.62,0,0,1,5.74,3.47L96.91,762a19.36,19.36,0,0,0-4.45-3.16c0,.42,0,.81,0,1.12,0,2.21-1.46,4-4.87,4-3.06,0-5.55-1.26-5.55-4,0-2.55,2.41-4.2,5.55-4.2a13,13,0,0,1,2.63.25c-.09-2.27-.23-5-.28-6.92ZM90.33,758a10.18,10.18,0,0,0-2.8-.39c-2,0-3.39.92-3.39,2.18s1,2.16,3.2,2.16,3-1.26,3-2.64C90.36,758.9,90.36,758.45,90.33,758Zm7.39-8.12A33.37,33.37,0,0,0,91.4,746l1.09-1.74A42,42,0,0,1,99,748Z" style="fill:#040000"/><path d="M122,743.22c-.5.34-1.12.76-1.54,1.06-1.37,1-5.09,4.32-7.22,6.11a11.78,11.78,0,0,1,3.75-.59c4.62,0,8,2.8,8,6.55,0,4.48-3.72,7.39-9.57,7.39-3.78,0-6.11-1.68-6.11-4,0-1.91,1.71-3.64,4.29-3.64a5.48,5.48,0,0,1,5.71,4.9,4.84,4.84,0,0,0,3.44-4.71c0-2.71-2.74-4.7-6.24-4.7-4.57,0-7.09,1.93-10.61,5.52l-1.63-1.66c2.3-1.9,5.85-4.87,7.48-6.21s5-4.2,6.35-5.43c-1.45,0-6.91.3-8.34.39a12.63,12.63,0,0,0-1.88.17l0-2.33a14.66,14.66,0,0,0,2,.09c1.43,0,8-.2,9.46-.34a9.92,9.92,0,0,0,1.51-.22Zm-4.79,18.34c-.25-2.18-1.56-3.7-3.66-3.7-1.26,0-2.22.76-2.22,1.71,0,1.37,1.6,2.16,3.67,2.16A13.78,13.78,0,0,0,117.18,761.56Z" style="fill:#040000"/><path d="M136.78,754.22a11.15,11.15,0,0,0-.56,3.17c0,2.07,2.13,3.53,6.56,3.53a35.76,35.76,0,0,0,9.49-1.07l0,2.41a41,41,0,0,1-9.47,1c-5.63,0-8.9-1.85-8.9-5.32a17.75,17.75,0,0,1,.56-3.89ZM135.64,743a60,60,0,0,0,7.33.37c2.66,0,5.49-.2,7.48-.39v2.29c-1.88.14-4.93.34-7.48.34-2.77,0-5.12-.11-7.33-.31Z" style="fill:#040000"/><path d="M179.15,746c-.62.39-1.32.76-2.13,1.18a93.52,93.52,0,0,0-8.43,4.56c-2.57,1.68-4.11,3.5-4.11,5.6,0,2.3,2.18,3.73,6.55,3.73a40.73,40.73,0,0,0,8.87-1v2.52a53.57,53.57,0,0,1-8.76.68c-5.21,0-9-1.57-9-5.72,0-2.85,1.82-5.12,4.79-7.19a92.66,92.66,0,0,1-4-8.54l2.21-.9a64.39,64.39,0,0,0,3.72,8.21c2.61-1.57,5.6-3,7.12-3.9a10.62,10.62,0,0,0,2-1.31Z" style="fill:#040000"/><path d="M199.42,758.87c.08-1.06.11-2.85.11-4.31-2.57,1.4-4.37,2.83-4.37,4.65,0,2.18,2.16,2.49,5,2.49a48.91,48.91,0,0,0,7.56-.67l-.06,2.27a72,72,0,0,1-7.59.44c-4,0-7.17-.84-7.17-4.22s3.31-5.35,6.53-7a2.34,2.34,0,0,0-2.49-1.71,7.43,7.43,0,0,0-4.79,2c-.79.76-1.57,1.8-2.52,2.92l-1.91-1.43a29.4,29.4,0,0,0,6.39-8.46H193c-1.18,0-3-.05-4.56-.17v-2.1a46.58,46.58,0,0,0,4.67.28c.59,0,1.18,0,1.82,0a15,15,0,0,0,.7-3.45l2.3.2c-.2.78-.45,1.93-.84,3.19a73.8,73.8,0,0,0,8.48-.84l0,2.07a87.66,87.66,0,0,1-9.18.79,20.18,20.18,0,0,1-2.49,4.25,7.89,7.89,0,0,1,3.83-1,3.47,3.47,0,0,1,3.67,2.52c1.91-.9,3.59-1.57,5-2.24.84-.37,1.51-.7,2.3-1.1l.89,2.1c-.7.2-1.7.59-2.43.87-1.57.62-3.56,1.43-5.66,2.41,0,1.6.06,3.95.09,5.29Z" style="fill:#040000"/><path d="M229.13,749.27a65.69,65.69,0,0,1-5.57,3.53,76.08,76.08,0,0,0,11-1.77l1.37,1.43A77.42,77.42,0,0,1,223,754.34c-.16.72-.33,1.42-.53,2.1h13.39s-.06.61-.12.95c-.67,4.11-1.26,5.93-2.18,6.75a3.27,3.27,0,0,1-2.16.7c-.84,0-2.49,0-4.22-.09a4.49,4.49,0,0,0-.65-1.9c1.74.17,3.56.19,4.2.19s.95,0,1.21-.25c.61-.47,1.09-1.82,1.59-4.62H222c-.14.51-.28,1-.39,1.4l-2.1-.31c.45-1.34.95-3.24,1.43-5.12-1.93,1-3.92,1.82-5.88,2.58a10.83,10.83,0,0,0-1.34-1.66,56,56,0,0,0,7.75-3.3l.14-.64.9.11c1.15-.62,2.24-1.29,3.33-2h-11v-1.79h9.22v-3.22H217v-1.71h7.09v-3.33h2.07v3.33h6.66v1.34a37.71,37.71,0,0,0,3.14-3.36l1.71.93a43.09,43.09,0,0,1-6.19,6h7.31v1.79Zm-.62-1.79a45,45,0,0,0,4-3.22h-6.27v3.22Z" style="fill:#040000"/><path d="M259.79,749.83c-1.07.95-4.15,3.81-5.18,4.9a3.2,3.2,0,0,1,1,.08,2.5,2.5,0,0,1,2.13,2c.25.81.62,2.21.93,3.11s.95,1.48,2.38,1.48a23.21,23.21,0,0,0,5.23-.59l-.14,2.38a40.61,40.61,0,0,1-5.21.4c-2.21,0-3.61-.51-4.22-2.36-.26-.81-.68-2.43-.93-3.24-.33-1-.92-1.46-1.68-1.46a3,3,0,0,0-2,1c-1,1-4,4.14-5.6,6.13l-2.16-1.46a11.06,11.06,0,0,0,1.37-1.26c1.12-1.09,8.68-8.65,11.43-11.39-2.19.14-6.83.56-8.54.7-.9,0-1.63.17-2.24.25l-.2-2.46a21.73,21.73,0,0,0,2.35.05c1.6,0,8-.47,10.14-.73a5.64,5.64,0,0,0,1.32-.3l1.34,1.51A15.41,15.41,0,0,0,259.79,749.83Zm.95-7.73-.31,2.07c-2.77-.25-7.61-.87-11-1.48l.36-2.05A96.17,96.17,0,0,0,260.74,742.1Z" style="fill:#040000"/><path d="M290,743.22c-.5.34-1.12.76-1.54,1.06-1.37,1-5.09,4.32-7.22,6.11a11.78,11.78,0,0,1,3.75-.59c4.62,0,8,2.8,8,6.55,0,4.48-3.72,7.39-9.57,7.39-3.78,0-6.11-1.68-6.11-4,0-1.91,1.71-3.64,4.29-3.64a5.48,5.48,0,0,1,5.71,4.9,4.84,4.84,0,0,0,3.44-4.71c0-2.71-2.74-4.7-6.24-4.7-4.57,0-7.09,1.93-10.61,5.52l-1.63-1.66c2.3-1.9,5.85-4.87,7.48-6.21s5-4.2,6.35-5.43c-1.45,0-6.91.3-8.34.39a12.63,12.63,0,0,0-1.88.17l-.05-2.33a14.66,14.66,0,0,0,2,.09c1.43,0,8-.2,9.46-.34a9.92,9.92,0,0,0,1.51-.22Zm-4.79,18.34c-.25-2.18-1.56-3.7-3.66-3.7-1.26,0-2.22.76-2.22,1.71,0,1.37,1.6,2.16,3.67,2.16A13.78,13.78,0,0,0,285.18,761.56Z" style="fill:#040000"/><path d="M319.15,746c-.62.39-1.32.76-2.13,1.18a93.52,93.52,0,0,0-8.43,4.56c-2.57,1.68-4.11,3.5-4.11,5.6,0,2.3,2.18,3.73,6.55,3.73a40.73,40.73,0,0,0,8.87-1v2.52a53.57,53.57,0,0,1-8.76.68c-5.21,0-9-1.57-9-5.72,0-2.85,1.82-5.12,4.79-7.19a92.66,92.66,0,0,1-4-8.54l2.21-.9a64.39,64.39,0,0,0,3.72,8.21c2.61-1.57,5.6-3,7.12-3.9a10.62,10.62,0,0,0,2-1.31Z" style="fill:#040000"/><path d="M332.64,764.22a45.08,45.08,0,0,0-6.18-6.24l1.82-1.6a52.57,52.57,0,0,1,6.27,6.22Z" style="fill:#040000"/><path d="M365.29,740.9c-.11.5-.22,1.09-.33,1.62-.14.81-.4,2.44-.7,3.92,1.28-.08,2.43-.17,3.1-.17,2.47,0,4.51,1,4.51,4.71,0,3.3-.47,7.67-1.62,10-.87,1.85-2.24,2.33-4.06,2.33a17,17,0,0,1-3.25-.42l-.36-2.36a13.34,13.34,0,0,0,3.38.62,2.33,2.33,0,0,0,2.44-1.43c.87-1.87,1.29-5.46,1.29-8.48,0-2.52-1.15-3-2.91-3-.68,0-1.77.08-3,.2-1,4-2.89,10.19-5.83,14.89l-2.29-.92c2.83-3.78,4.9-10,5.82-13.75L358,749c-.64.09-1.76.23-2.49.34l-.22-2.44a22.43,22.43,0,0,0,2.46,0c.92,0,2.55-.16,4.23-.3a32.83,32.83,0,0,0,.7-6Zm9.55,2.94a48.29,48.29,0,0,1,5.07,9.91l-2.19,1c-.81-2.85-3-7.72-5-10Z" style="fill:#040000"/><path d="M397,745.85a32.57,32.57,0,0,1-5,1,49.7,49.7,0,0,1-6.05,11.73l-2.18-1.12a39.87,39.87,0,0,0,5.93-10.36q-1.22.09-2.43.09c-1,0-2.19,0-3.22-.09l-.17-2.1a26,26,0,0,0,3.41.2c1,0,2-.06,3.08-.14a22.42,22.42,0,0,0,.87-4.79l2.49.22c-.28,1-.64,2.69-1.09,4.29a28.71,28.71,0,0,0,4.31-1Zm3.25,3.22a25.24,25.24,0,0,0,0,3c0,1,.14,2.83.2,4.51a18.62,18.62,0,0,1,5.74,3.47l-1.21,1.9a19.36,19.36,0,0,0-4.45-3.16c0,.42,0,.81,0,1.12,0,2.21-1.46,4-4.87,4-3.06,0-5.55-1.26-5.55-4,0-2.55,2.41-4.2,5.55-4.2a13,13,0,0,1,2.63.25c-.09-2.27-.23-5-.28-6.92ZM398.33,758a10.18,10.18,0,0,0-2.8-.39c-2,0-3.39.92-3.39,2.18s1,2.16,3.2,2.16,3-1.26,3-2.64C398.36,758.9,398.36,758.45,398.33,758Zm7.39-8.12A33.37,33.37,0,0,0,399.4,746l1.09-1.74A42,42,0,0,1,407,748Z" style="fill:#040000"/><path d="M418.55,740.64a51.57,51.57,0,0,0-1.29,7.7c1.09-2.85,4-6.3,7.5-6.3,3.7,0,6.36,3.7,6.36,9.52,0,7.7-4.84,11.09-11.73,12.35l-1.32-2c6-.93,10.73-3.34,10.73-10.31,0-4.37-1.46-7.5-4.4-7.5-3.44,0-6.64,5-7,8.65a11.78,11.78,0,0,0,.05,3.39l-2.18.17a34.07,34.07,0,0,1-.28-4.4,72,72,0,0,1,.84-9c.11-.87.2-1.71.22-2.38Z" style="fill:#040000"/><path d="M448.14,752a20.63,20.63,0,0,1,6.08-1c4,0,6.94,2.21,6.94,5.51s-2.1,5.49-5.9,6.41a18.1,18.1,0,0,1-3.42.37l-.78-2.21a16.17,16.17,0,0,0,3.24-.2c2.44-.45,4.65-1.76,4.65-4.34,0-2.35-2.13-3.61-4.76-3.61a17.88,17.88,0,0,0-6,1.09c.06,2.35.11,4.79.11,6,0,2.58-1,3.39-2.46,3.39-2.18,0-5.8-2.1-5.8-4.59,0-2.27,2.89-4.68,6.08-6v-1.57c0-1.12,0-2.41,0-3.64-.76.06-1.46.09-2.05.09a35.06,35.06,0,0,1-3.52-.14l-.06-2.13a26,26,0,0,0,3.53.22c.64,0,1.37,0,2.13-.08,0-1.46,0-2.66,0-3.17a10.22,10.22,0,0,0-.17-2h2.44c-.06.51-.11,1.26-.14,1.91s-.06,1.76-.08,3a35.92,35.92,0,0,0,5.68-1.12l0,2.22c-1.63.36-3.75.72-5.77.95,0,1.31-.06,2.63-.06,3.75Zm-1.93,7.73c0-1,0-2.88-.08-4.9-2.24,1.07-3.89,2.63-3.89,3.89s1.9,2.36,3,2.36C445.88,761.06,446.21,760.58,446.21,759.71Zm10.92-16.29a45.9,45.9,0,0,1,6.33,4.06l-1.12,1.79a35.83,35.83,0,0,0-6.22-4.15Z" style="fill:#040000"/><path d="M474.41,746.16a32.71,32.71,0,0,1-2.3,3.44v15.18h-2V752a28.3,28.3,0,0,1-3.28,3,13.89,13.89,0,0,0-1.09-2,26.2,26.2,0,0,0,6.89-7.56Zm-.34-6.08a28,28,0,0,1-6.83,6.64,8.93,8.93,0,0,0-1.09-1.68,21.46,21.46,0,0,0,5.93-5.71Zm17.53,17.06h-4.17v5.37c0,1.12-.25,1.65-1.07,2a14.19,14.19,0,0,1-4.25.34,7.25,7.25,0,0,0-.67-1.91c1.56.06,3,.06,3.36,0s.56-.14.56-.5v-5.32H474.13v-1.8h11.23V753H474.77v-1.79H491.1V753h-3.67v2.38h4.17Zm-1.82-7.84h-13.3v-9.19h13.3ZM478,757.61a24.86,24.86,0,0,1,3.56,3.89l-1.6,1.12a25.29,25.29,0,0,0-3.44-4.06Zm9.69-15.93H478.5v2.24h9.21Zm0,3.75H478.5v2.27h9.21Z" style="fill:#040000"/><path d="M500.53,741.65a19.31,19.31,0,0,0-.53,1.88,64,64,0,0,0-1.34,10.61,28.73,28.73,0,0,0,.22,3.81c.48-1.26,1.09-2.89,1.54-4l1.2.9a62.68,62.68,0,0,0-2,6.21,7.47,7.47,0,0,0-.14,1.24l.09,1-2,.14a34.78,34.78,0,0,1-1-8.91,76,76,0,0,1,1.24-11.11,17.74,17.74,0,0,0,.19-2Zm6.33,13.44a10.37,10.37,0,0,0-.36,2.55c0,1.26.84,2.49,4.64,2.49a29.76,29.76,0,0,0,6.86-.73l0,2.36a37.34,37.34,0,0,1-6.91.56c-4.65,0-6.72-1.54-6.72-4.15a16,16,0,0,1,.44-3.27Zm-1.09-11.31a48.74,48.74,0,0,0,11.39,0v2.3a71.81,71.81,0,0,1-11.36,0Z" style="fill:#040000"/><path d="M532.76,750.25c-.22,9.38-.39,12.54-1.12,13.49a1.86,1.86,0,0,1-1.6.87,19,19,0,0,1-3,0,4.7,4.7,0,0,0-.53-1.88c1.14.12,2.18.14,2.6.14a.91.91,0,0,0,.87-.39c.45-.67.64-3.41.84-11.31h-3.42c-.11,4.37-.84,9.35-4,13.66a9.44,9.44,0,0,0-1.54-1.26c3.33-4.53,3.69-10,3.69-14.11v-3.83h-3.22v-1.91h4.87v-4.48h2v4.48h4.48v1.91h-6.27v3.66h5.32Zm4.09-5.41A18.46,18.46,0,0,1,534,749a11.83,11.83,0,0,0-1.71-1.31,19.44,19.44,0,0,0,4.54-8.51l2,.42a30.48,30.48,0,0,1-1.12,3.3h9.64v1.9ZM548,751.76a47.32,47.32,0,0,1-4.92,4c1.14,3.19,2.77,5.79,5.06,7.28a6.13,6.13,0,0,0-1.42,1.68c-3.81-2.72-5.8-8-6.84-14.37-.61.28-1.26.53-1.87.76v13.69h-2v-13c-.53.17-1,.31-1.51.45a6.57,6.57,0,0,0-1.26-1.71c3.92-.87,9.21-2.94,11.7-4.87l1.49,1.09a27.88,27.88,0,0,1-4.88,2.83,43.47,43.47,0,0,0,1,4.42,36.44,36.44,0,0,0,4-3.53Z" style="fill:#040000"/><path d="M559.58,745.91a34.62,34.62,0,0,1-3.08,4.23v14.72h-2.07V752.43a33.12,33.12,0,0,1-3.16,2.91,20.32,20.32,0,0,0-1.46-1.73,30.55,30.55,0,0,0,7.84-8.43ZM558.49,740a34.19,34.19,0,0,1-7.17,6.94,16.43,16.43,0,0,0-1.23-1.65,27.86,27.86,0,0,0,6.41-6.07Zm17.17,10.56h-4.23v11.56c0,1.29-.31,1.93-1.23,2.27a21.08,21.08,0,0,1-5.27.31,7.26,7.26,0,0,0-.67-2c2,.06,3.84.06,4.37,0s.7-.14.7-.62V750.56H560v-2h15.68Zm-.82-7.68H561.18v-2h13.66Z" style="fill:#040000"/><path d="M580.67,753.05c1.48-1.51,3.81-4.65,5.43-6.61s3.08-2.16,4.93-.31c1.59,1.68,3.81,4.45,5.57,6.36s4.42,4.76,6.92,7l-1.77,2c-2.1-2-4.65-4.79-6.55-7s-3.92-4.7-5.21-6.13c-1.2-1.26-1.71-1.09-2.63.08-1.29,1.63-3.58,4.71-5,6.39-.59.73-1.21,1.57-1.63,2.15l-2.07-2.15A17.71,17.71,0,0,0,580.67,753.05Z" style="fill:#040000"/><path d="M55.58,793.91a34.62,34.62,0,0,1-3.08,4.23v14.72H50.43V800.43a33.12,33.12,0,0,1-3.16,2.91,20.32,20.32,0,0,0-1.46-1.73,30.55,30.55,0,0,0,7.84-8.43ZM54.49,788a34.19,34.19,0,0,1-7.17,6.94,16.43,16.43,0,0,0-1.23-1.65,27.86,27.86,0,0,0,6.41-6.07Zm17.17,10.56H67.43v11.56c0,1.29-.31,1.93-1.23,2.27a21.08,21.08,0,0,1-5.27.31,7.26,7.26,0,0,0-.67-2c2,.06,3.84.06,4.37,0s.7-.14.7-.62V798.56H56v-2H71.66Zm-.82-7.68H57.18v-2H70.84Z" style="fill:#040000"/><path d="M80.25,789.32c-.17.5-.36,1.26-.5,1.79-.87,4-1.79,10-.79,14.59.4-1.18,1-2.83,1.46-4.2l1.23.75a61.21,61.21,0,0,0-1.79,6.11,7.59,7.59,0,0,0-.14,1.23l.08.95-1.9.22A30.64,30.64,0,0,1,76.44,802a74.34,74.34,0,0,1,1-11.06,11.72,11.72,0,0,0,.14-1.85Zm18.45,7a41.07,41.07,0,0,1-4.48.51v.95c0,6.38,0,10.89-5.88,14.36l-2-1.62A9.26,9.26,0,0,0,89,808.8c3-2.57,3.1-5.68,3.1-11V797c-1.17.06-2.38.08-3.52.08-1.32,0-3.28-.08-4.48-.19v-2.24a31.6,31.6,0,0,0,4.45.31c1.15,0,2.32,0,3.5-.09-.06-1.73-.11-3.58-.17-4.28s-.17-1.23-.25-1.65h2.6c0,.47,0,1-.08,1.62s0,2.44,0,4.17a32.46,32.46,0,0,0,4.5-.64Z" style="fill:#040000"/><path d="M123.88,810.32a20.56,20.56,0,0,0-6.7-4.18c0,.7.06,1.32.06,1.74,0,1.9-1.29,3.89-4.9,3.89-4,0-6.19-1.43-6.19-4.11,0-2.52,2.44-4.23,6.44-4.23a14.77,14.77,0,0,1,2.33.17c-.06-1.24-.12-2.55-.14-3.7h-1.54c-1.91,0-5-.17-7-.39v-2.13a48.89,48.89,0,0,0,7,.53h1.48v-4h-1.37c-1.93,0-4.87-.23-6.53-.42v-2.08a44,44,0,0,0,6.5.54h1.43v-1.82a14.72,14.72,0,0,0-.09-1.66H117a15.62,15.62,0,0,0-.14,1.85c0,.34,0,.87,0,1.54a61.87,61.87,0,0,0,7.11-.67l0,2c-2.19.23-4.57.45-7.17.59v4a75.3,75.3,0,0,0,7.7-.73l0,2.1c-2.61.34-5.07.53-7.7.64.05,1.43.14,2.89.19,4.2a22.82,22.82,0,0,1,8.07,4.32ZM115,805.53a14,14,0,0,0-2.69-.25c-2.63,0-4.06,1-4.06,2.26s1.09,2.24,3.84,2.24c1.59,0,2.94-.47,2.94-2.38C115,806.93,115,806.28,115,805.53Z" style="fill:#040000"/><path d="M146.36,794.08c0,1.56,0,3.27.06,4.53a6.86,6.86,0,0,1,.89,3.56c0,3.75-1.82,7.92-8.26,9.85l-1.93-1.87c3.64-.84,6.22-2.35,7.36-4.82a3.94,3.94,0,0,1-2.38.7,4.47,4.47,0,0,1-4.59-4.65,4.88,4.88,0,0,1,4.9-4.84,5.48,5.48,0,0,1,1.85.31c0-.81,0-1.79,0-2.75-4.2,0-8.9.23-12.37.48l-.06-2.18c3.08-.06,8.29-.23,12.4-.28,0-.79,0-1.43,0-1.82,0-.59-.11-1.4-.17-1.74h2.55l-.14,1.74c0,.42,0,1.06,0,1.79h.42c3.36,0,6.78,0,8.12,0l0,2.1c-1.57-.09-4.09-.14-8.15-.14Zm-1.48,6.07a2.48,2.48,0,0,0-2.47-1.71,2.82,2.82,0,0,0-2.8,2.92,2.67,2.67,0,0,0,2.83,2.74C144.06,804.1,145.13,802.78,144.88,800.15Z" style="fill:#040000"/><path d="M168.17,793.68c-.33.51-.81,1.26-1.23,1.94,0,.44-.08.89-.11,1.37,2.35-2.1,5.79-4.57,8.82-4.57,3.75,0,5.74,3.36,5.74,8A24.7,24.7,0,0,1,181,805a19.74,19.74,0,0,1,3.08,2.71l-1.17,1.82a22.21,22.21,0,0,0-2.47-2.41,5.27,5.27,0,0,1-5.37,3.7c-2.66,0-4.9-1.15-4.9-4,0-2.21,2-3.83,4.81-3.83a9.79,9.79,0,0,1,4,.84,29.53,29.53,0,0,0,.22-3.9c0-3.47-1.71-5.6-4-5.6-2.58,0-6.16,2.66-8.6,5.27-.08,1.26-.11,2.49-.11,3.55,0,2.52,0,4.2.11,6.7,0,.47.08,1.17.14,1.68h-2.44c0-.4.09-1.21.09-1.66,0-2.66,0-4,.08-7.11,0-.28,0-.64,0-1.06-1.34,2-3.16,4.7-4.51,6.55l-1.4-1.93c1.54-1.93,4.73-6.25,6.13-8.43.06-.9.12-1.79.17-2.66-1.26.14-3.67.48-5.4.7l-.23-2.3c.62,0,1.15,0,1.82,0,.9-.06,2.52-.23,4-.48.09-1.29.14-2.3.14-2.6a10.56,10.56,0,0,0-.11-2.08l2.66.09c-.14.67-.36,2.24-.56,4.17l.14-.06Zm10.42,12.18a8,8,0,0,0-3.78-1c-1.43,0-2.69.81-2.69,1.93,0,1.43,1.26,2,2.83,2C176.88,808.83,178,807.68,178.59,805.86Z" style="fill:#040000"/><path d="M194.72,808.08a4.27,4.27,0,1,1-4.29-4.26A4.29,4.29,0,0,1,194.72,808.08Zm-1.46,0a2.82,2.82,0,0,0-2.83-2.83,2.84,2.84,0,0,0,0,5.68A2.81,2.81,0,0,0,193.26,808.08Z" style="fill:#040000"/><path d="M87.48,104.09h4.93V89.58H88.26V86.76a14.94,14.94,0,0,0,5.33-1.92H97v19.25h4.31v3.69H87.48Z" style="fill:#00adff"/><path d="M109.9,96.49a24.29,24.29,0,0,0-5.55-3.38l2-2.69A23.91,23.91,0,0,1,112,93.49Zm-4.4,11.13a96.72,96.72,0,0,0,5-9.76l2.82,2.26c-1.36,3.26-3.07,6.79-4.68,9.77Zm2.75-25.7a21.15,21.15,0,0,1,5.62,3.23l-2.2,2.91a22,22,0,0,0-5.49-3.47ZM131.66,87v23.25h-3.78V109h-9.7v1.46h-3.63V87h5.21a41.22,41.22,0,0,0,.9-5.37L125,82c-.44,1.71-1,3.42-1.46,4.94Zm-13.48,3.53v5.61h9.7V90.51Zm9.7,14.94V99.53h-9.7v5.92Z" style="fill:#00adff"/><path d="M135.53,105.14c6.24-5.58,9.93-9.89,9.93-13.42,0-2.33-1.28-3.72-3.45-3.72a5.9,5.9,0,0,0-4.21,2.36l-2.48-2.49c2.11-2.23,4.15-3.47,7.28-3.47,4.34,0,7.23,2.79,7.23,7.07s-3.44,8.62-7.63,12.71c1.15-.12,2.67-.24,3.72-.24h5v3.84H135.53Z" style="fill:#00adff"/><path d="M178.81,83.38V110h-4v-2H161.08v2h-3.81V83.38ZM161.08,87.1v6.67h13.77V87.1Zm13.77,17.27v-7H161.08v7Z" style="fill:#00adff"/><path d="M198.06,105.42c1.18-.15,2.05-.31,2.86-.49,3.93-.93,7-3.75,7-8.22,0-4.25-2.29-7.41-6.42-8.12a66.1,66.1,0,0,1-1.83,8.34c-1.83,6.2-4.49,10-7.84,10s-6.26-3.75-6.26-8.93c0-7.07,6.17-13.14,14.14-13.14,7.59,0,12.4,5.3,12.4,12,0,6.45-4,11-11.72,12.22Zm-2.38-9.3a49.37,49.37,0,0,0,1.64-7.44,9.62,9.62,0,0,0-7.78,8.9c0,3.1,1.24,4.62,2.38,4.62S194.44,100.28,195.68,96.12Z" style="fill:#00adff"/><path d="M227.76,94.11c-.15,10-.31,13.7-1.08,14.85a2.82,2.82,0,0,1-2,1.3,18.79,18.79,0,0,1-3.19.12,9.07,9.07,0,0,0-.9-3.28c1,.09,1.76.12,2.26.12a.89.89,0,0,0,.87-.46c.4-.65.59-3.29.71-10.73h-2.23c-.12,4.71-.9,10-4.31,14.54a15.27,15.27,0,0,0-2.73-2.26c3.41-4.5,3.85-9.77,3.85-13.89V89.64h-3.17V86.23h4.65V81.52H224v4.71h4.59v2.36a22,22,0,0,0,2.91-7.07l3.63.68c-.25,1-.56,2-.9,3h9.64v3.35h-11a19.71,19.71,0,0,1-3.2,4.65,23.33,23.33,0,0,0-3-2.36,10.55,10.55,0,0,0,1.14-1.24h-5.61v3h5.55Zm17,2.57a51.82,51.82,0,0,1-4.77,3.94,12.85,12.85,0,0,0,4.9,6.66,13.16,13.16,0,0,0-2.52,3.1c-4.09-3-6-8.37-7.1-15l-1.08.46v14.64h-3.5V97.08l-.66.19a16.36,16.36,0,0,0-2.17-3.07c4.38-.87,9.93-3.13,12.69-5.27l2.63,1.92a29.28,29.28,0,0,1-4.9,3.1c.19,1.21.44,2.42.71,3.57a28,28,0,0,0,3.17-3.2Z" style="fill:#00adff"/><path d="M258.08,89.58a41.21,41.21,0,0,1-3.32,4.74v16.19h-3.69V98.39c-.87.83-1.7,1.61-2.54,2.29A37.49,37.49,0,0,0,246,97.49a30.2,30.2,0,0,0,8.52-9.27ZM256.93,83a41.66,41.66,0,0,1-8.53,8.15,21.25,21.25,0,0,0-2-3,27.62,27.62,0,0,0,7-6.6Zm18.23,12.34h-4.24V106.2c0,2-.38,3-1.74,3.56s-3.29.62-6.05.62a15.43,15.43,0,0,0-1.11-3.75c1.76.1,3.81.1,4.37.07s.77-.13.77-.59V95.32H258V91.81h17.14Zm-.77-8.53H259.32V83.28h15.07Z" style="fill:#00adff"/><line x1="317.4" y1="55.26" x2="317.4" y2="137.26" style="fill:none;stroke:#00adff;stroke-miterlimit:10;stroke-width:1.5px"/><path d="M359.53,83.89h4.18V70.58h-3.43v-1.9a11.66,11.66,0,0,0,4.16-1.46h2.26V83.89h3.75v2.47H359.53Z" style="fill:#00adff"/><path d="M386.15,65.25c0,.36,0,.8-.08,1.27.24,3.46,1.59,15.13,11.31,19.61a7.82,7.82,0,0,0-1.84,2c-6.29-3-9.18-9-10.53-14-1.25,5-4,10.58-10,14a8.7,8.7,0,0,0-2-1.9c10.4-5.54,10.24-17.6,10.42-21Z" style="fill:#00adff"/><path d="M417.2,72.09c-.16.33-.34,1-.5,1.43,3.12.93,5.07,3.27,5.07,6.18,0,3.67-2.34,7-8.45,8l-1.38-2.16c4.79-.52,7.28-3,7.28-6a4.24,4.24,0,0,0-3.25-4,20.78,20.78,0,0,1-5.56,8.12c.18.7.39,1.37.6,2l-2.37.7c-.13-.39-.26-.81-.36-1.25a9.05,9.05,0,0,1-4.19,1.25c-1.79,0-3.25-1.09-3.25-3.48,0-3.31,2.83-6.76,6.4-8.4.05-1.2.15-2.39.26-3.51h-1.25c-1.22,0-3.23-.11-4.32-.18l-.08-2.4a41.12,41.12,0,0,0,4.48.34h1.4l.18-1.74a13.1,13.1,0,0,0,.06-1.35l2.7.08a12.14,12.14,0,0,0-.31,1.22c-.11.49-.21,1.09-.31,1.71a48.14,48.14,0,0,0,8.89-1.09L419,70a82.2,82.2,0,0,1-9.2.94c-.08.88-.16,1.82-.23,2.78a16.71,16.71,0,0,1,4.1-.57,5.7,5.7,0,0,1,.73,0,10.27,10.27,0,0,0,.29-1.67Zm-9.47,10.63a32,32,0,0,1-.57-5.8c-2.26,1.41-3.87,3.69-3.87,5.49,0,1,.41,1.43,1.32,1.43A6.12,6.12,0,0,0,407.73,82.72Zm1.72-6.21a26.07,26.07,0,0,0,.39,4.49,16.91,16.91,0,0,0,3.85-5.79h-.16a13.49,13.49,0,0,0-4.08.67Z" style="fill:#00adff"/><path d="M439.84,71.25a49.76,49.76,0,0,1-5.17.86c-.24,1.12-.52,2.26-.81,3.36a76.83,76.83,0,0,1-4.05,11.85l-2.87-1a56,56,0,0,0,4.37-11.54c.24-.78.44-1.64.63-2.47-.73,0-1.41.05-2.06.05-1.19,0-2.13-.05-3.07-.11l-.05-2.54a24.85,24.85,0,0,0,3.15.2c.8,0,1.66,0,2.57-.1.13-.75.26-1.43.31-1.9a11.3,11.3,0,0,0,.08-2.34l3.15.24c-.18.65-.39,1.68-.49,2.21l-.32,1.5a43,43,0,0,0,4.63-.88ZM439,80a9.57,9.57,0,0,0-.37,2.23c0,1.17.63,2.21,3.9,2.21a29,29,0,0,0,5.15-.52l-.08,2.63a35.11,35.11,0,0,1-5.09.36c-4.19,0-6.35-1.38-6.35-3.92a17,17,0,0,1,.39-3.23Zm-1-6.35a46.85,46.85,0,0,1,4.81-.26,42.12,42.12,0,0,1,4.5.24l-.08,2.47a36.11,36.11,0,0,0-4.37-.32,42.69,42.69,0,0,0-4.86.26Z" style="fill:#00adff"/><path d="M459.21,65.77a45,45,0,0,0-1.12,6.37c1.12-2.37,3.62-5.12,6.71-5.12,3.51,0,6.11,3.45,6.11,9,0,7.18-4.5,10.48-11.05,11.68l-1.56-2.34c5.64-.89,9.86-3,9.86-9.34,0-4-1.33-6.63-3.8-6.63-3.12,0-6,4.63-6.19,8a11.63,11.63,0,0,0,.08,3l-2.52.19a30.92,30.92,0,0,1-.32-4.16,67,67,0,0,1,.79-8.3c.1-.86.18-1.74.2-2.42Z" style="fill:#00adff"/><path d="M487.16,73.85s0,.71,0,1c-.16,8.53-.32,11.52-1,12.43a2,2,0,0,1-1.58.93,13.58,13.58,0,0,1-2.71,0,5.51,5.51,0,0,0-.62-2.15,20.5,20.5,0,0,0,2.18.1.76.76,0,0,0,.78-.36c.39-.55.55-3,.68-9.81h-2.57c-.11,4-.76,8.53-3.65,12.41A12.07,12.07,0,0,0,476.89,87c3-4,3.33-8.76,3.33-12.43V70.86h-2.86V68.6h4.26v-4h2.32v4h4v2.11a19,19,0,0,0,2.68-6.19L493,65a23.64,23.64,0,0,1-.91,2.81h8.53v2.24h-9.52a16.7,16.7,0,0,1-2.62,3.87,14.21,14.21,0,0,0-2-1.53,9,9,0,0,0,1.3-1.54h-5.46v3Zm14.07,2.73a37.66,37.66,0,0,1-4.29,3.51,12.08,12.08,0,0,0,4.42,6.24,9,9,0,0,0-1.64,2c-3.43-2.5-5.2-7.18-6.14-13-.46.21-.93.39-1.4.57V88.39h-2.29V76.77l-1,.31a8.31,8.31,0,0,0-1.45-2c3.64-.78,8.42-2.68,10.71-4.47l1.77,1.3a25.66,25.66,0,0,1-4.32,2.57,32.11,32.11,0,0,0,.75,3.64,29,29,0,0,0,3.23-3Z" style="fill:#00adff"/><path d="M512.28,70.94a34.82,34.82,0,0,1-2.84,4V88.47H507V77.6a33.65,33.65,0,0,1-2.57,2.34,13.63,13.63,0,0,0-1.66-2.06,27.46,27.46,0,0,0,7.2-7.8Zm-1-5.46a34,34,0,0,1-6.87,6.58,10.73,10.73,0,0,0-1.37-2A23.74,23.74,0,0,0,509,64.52Zm15.6,10h-3.74v10c0,1.37-.32,2.08-1.3,2.47a16.45,16.45,0,0,1-4.92.39,9.35,9.35,0,0,0-.78-2.42c1.67,0,3.41,0,3.88,0s.65-.13.65-.49v-10h-8.22V73.15h14.43Zm-.73-7.1H513.55V66.05h12.61Z" style="fill:#00adff"/><path d="M538.28,65.53a38.45,38.45,0,0,1-2.63,5V88.36h-2.49V74.14A27.13,27.13,0,0,1,530,77.55a14.61,14.61,0,0,0-1.38-2.42A28.67,28.67,0,0,0,536,64.78Zm6.91,9c.84,6.37,2.4,10.66,4.87,11,.65,0,1-1.41,1.27-4.35a7.24,7.24,0,0,0,2,1.33c-.6,4.71-1.79,6-3.17,5.9-4.34-.36-6.37-5.51-7.36-13.49l-5.69.73-.37-2.29,5.83-.73c-.21-2.37-.37-4.91-.47-7.64h2.44c.08,2.59.21,5.07.42,7.3l7.62-1,.31,2.26Zm5.33-4.16a24.42,24.42,0,0,0-3.9-4.29l1.8-1.14a24.68,24.68,0,0,1,4,4.16Z" style="fill:#00adff"/><path d="M568.26,85.53h9.82v2.1H556.16v-2.1h9.55v-5.9h-8.3V77.55h8.3v-3.1h-5.1V73.1a36.36,36.36,0,0,1-4.06,2.55,8.93,8.93,0,0,0-1.5-2,28,28,0,0,0,10.61-9.21h2.47a28.62,28.62,0,0,0,11.12,8.9,14,14,0,0,0-1.56,2.15A33,33,0,0,1,573.53,73v1.48h-5.27v3.1h8.47v2.08h-8.47Zm-7-5.51a16.72,16.72,0,0,1,2.41,4.47l-2.1.93a16.91,16.91,0,0,0-2.29-4.62Zm11.36-7.7A29.19,29.19,0,0,1,567,66.86a27.85,27.85,0,0,1-5.39,5.46ZM570,84.62A28.72,28.72,0,0,0,572.6,80l2.31.86a45.46,45.46,0,0,1-3.14,4.57Z" style="fill:#00adff"/><path d="M375.81,120.18H372.9v6.34h-4.52v-6.34H358v-3.3l9.11-14.78h5.81v14.39h2.91Zm-7.43-3.69v-5c0-1.42.13-3.63.2-5h-.13c-.6,1.29-1.26,2.64-1.95,4l-3.8,6.08Z" style="fill:#00adff"/><path d="M378.18,114.21c0-8.45,3.3-12.58,8.28-12.58s8.26,4.16,8.26,12.58S391.41,127,386.46,127,378.18,122.63,378.18,114.21Zm11.95,0c0-6.83-1.59-8.81-3.67-8.81s-3.69,2-3.69,8.81,1.58,9,3.69,9S390.13,121.07,390.13,114.21Z" style="fill:#00adff"/><path d="M397.91,130.91c2.54-1,4-2.61,4-4.52h-.29a2.85,2.85,0,0,1-3-2.87,2.92,2.92,0,0,1,3.14-2.87c2.24,0,3.49,1.78,3.49,4.78,0,3.86-2.27,6.8-6.23,8.12Z" style="fill:#00adff"/><path d="M408.34,114.21c0-8.45,3.3-12.58,8.29-12.58s8.25,4.16,8.25,12.58S421.58,127,416.63,127,408.34,122.63,408.34,114.21Zm12,0c0-6.83-1.59-8.81-3.66-8.81s-3.7,2-3.7,8.81,1.58,9,3.7,9S420.29,121.07,420.29,114.21Z" style="fill:#00adff"/><path d="M427.78,114.21c0-8.45,3.3-12.58,8.28-12.58s8.25,4.16,8.25,12.58S441,127,436.06,127,427.78,122.63,427.78,114.21Zm12,0c0-6.83-1.59-8.81-3.67-8.81s-3.69,2-3.69,8.81,1.58,9,3.69,9S439.73,121.07,439.73,114.21Z" style="fill:#00adff"/><path d="M447.21,114.21c0-8.45,3.31-12.58,8.29-12.58s8.25,4.16,8.25,12.58S460.45,127,455.5,127,447.21,122.63,447.21,114.21Zm12,0c0-6.83-1.58-8.81-3.66-8.81s-3.7,2-3.7,8.81,1.59,9,3.7,9S459.16,121.07,459.16,114.21Z" style="fill:#00adff"/><path d="M495.76,124.77c0,2.15-.46,3.24-1.85,3.86s-3.3.73-6.23.73a16.13,16.13,0,0,0-1.42-3.93c1.88.13,4,.1,4.68.1s.86-.23.86-.79v-8H471.87v12.61h-4V100.64h27.85Zm-23.89-11.91h7.79v-8.32h-7.79Zm19.93,0v-8.32h-8.25v8.32Z" style="fill:#00adff"/><path d="M510.65,124.93a13.29,13.29,0,0,0,2.29-.36c3.3-.75,6.24-3.15,6.24-7.31a6.8,6.8,0,0,0-6.19-7.17,58.79,58.79,0,0,1-1.53,7.23c-1.56,5.25-3.69,8.19-6.27,8.19s-4.88-2.89-4.88-7.18c0-5.72,5.07-10.69,11.51-10.69,6.19,0,10.12,4.32,10.12,9.73s-3.46,9.12-9.75,10Zm-1.82-8.16a35.74,35.74,0,0,0,1.41-6.63,8.62,8.62,0,0,0-7.33,8c0,3,1.32,4.31,2.36,4.31S507.64,120.75,508.83,116.77Z" style="fill:#00adff"/><path d="M533.61,120.31c-2.6,1.32-5.41,2.73-7.59,3.77l-.94-2.42c.94-.37,2.11-.86,3.38-1.41v-7.74H525.6v-2.29h2.86V105h2.24v5.25h2.63v2.29H530.7v6.76c.78-.37,1.59-.73,2.39-1.1Zm5-3.07a12.65,12.65,0,0,1-1,1.56h10.87s0,.6,0,.91c-.42,5.2-.81,7.23-1.51,8a2.22,2.22,0,0,1-1.56.72,19.29,19.29,0,0,1-2.6,0,4.71,4.71,0,0,0-.54-2,18,18,0,0,0,2,.1c.39,0,.6,0,.81-.28.39-.44.73-1.93,1-5.59h-1.56a18,18,0,0,1-5.23,7.9,7.81,7.81,0,0,0-1.74-1.35,15.07,15.07,0,0,0,4.94-6.55h-2.05a20,20,0,0,1-6.19,6.78,6.64,6.64,0,0,0-1.61-1.45,16.81,16.81,0,0,0,5.61-5.33h-2.18a17.57,17.57,0,0,1-3.2,2.78,13.29,13.29,0,0,0-1.64-1.51,14.06,14.06,0,0,0,4.92-4.78h-3.33v-2.06h16.25v2.06Zm8.68-3.3h-12v-8.53h12Zm-2.24-6.79h-7.59v1.69h7.59Zm0,3.33h-7.59v1.71h7.59Z" style="fill:#00adff"/><path d="M564.24,104.76a28.88,28.88,0,0,0,11.26,9.07,10.84,10.84,0,0,0-1.59,2.16,33.42,33.42,0,0,1-4.21-2.63v1.85h-13v-1.77a34.6,34.6,0,0,1-4.18,2.65,9.2,9.2,0,0,0-1.49-1.92,28.8,28.8,0,0,0,10.69-9.41Zm-9,13.39h16V128.6h-2.47v-1H557.64v1h-2.37Zm14-5.1a29.54,29.54,0,0,1-6.14-5.93,27.36,27.36,0,0,1-5.85,5.93Zm-11.62,7.28v5.1h11.18v-5.1Z" style="fill:#00adff"/><path d="M275.81,451.39v12.75H285v.05l-17.82,15.16-17.83-15.16v-.05h9.15V451.39Z" style="fill:#58aac8"/><line x1="192.29" y1="240.73" x2="192.29" y2="242.23" style="fill:none;stroke:#c8c8c8;stroke-miterlimit:10"/><line x1="192.29" y1="245.29" x2="192.29" y2="280.47" style="fill:none;stroke:#c8c8c8;stroke-miterlimit:10;stroke-dasharray:3.0593345165252686,3.0593345165252686"/><line x1="192.29" y1="282" x2="192.29" y2="283.5" style="fill:none;stroke:#c8c8c8;stroke-miterlimit:10"/><line x1="192.29" y1="331.98" x2="192.29" y2="333.48" style="fill:none;stroke:#c8c8c8;stroke-miterlimit:10"/><line x1="192.29" y1="336.54" x2="192.29" y2="371.72" style="fill:none;stroke:#c8c8c8;stroke-miterlimit:10;stroke-dasharray:3.0593345165252686,3.0593345165252686"/><line x1="192.29" y1="373.25" x2="192.29" y2="374.75" style="fill:none;stroke:#c8c8c8;stroke-miterlimit:10"/><line x1="406.14" y1="240.73" x2="406.14" y2="242.23" style="fill:none;stroke:#c8c8c8;stroke-miterlimit:10"/><line x1="406.14" y1="245.29" x2="406.14" y2="280.47" style="fill:none;stroke:#c8c8c8;stroke-miterlimit:10;stroke-dasharray:3.0593345165252686,3.0593345165252686"/><line x1="406.14" y1="282" x2="406.14" y2="283.5" style="fill:none;stroke:#c8c8c8;stroke-miterlimit:10"/><line x1="620" y1="242.91" x2="620" y2="244.41" style="fill:none;stroke:#c8c8c8;stroke-miterlimit:10"/><line x1="620" y1="247.37" x2="620" y2="476.92" style="fill:none;stroke:#c8c8c8;stroke-miterlimit:10;stroke-dasharray:2.9619357585906982,2.9619357585906982"/><line x1="620" y1="478.4" x2="620" y2="479.9" style="fill:none;stroke:#c8c8c8;stroke-miterlimit:10"/><line x1="406.14" y1="331.98" x2="406.14" y2="333.48" style="fill:none;stroke:#c8c8c8;stroke-miterlimit:10"/><line x1="406.14" y1="336.54" x2="406.14" y2="371.72" style="fill:none;stroke:#c8c8c8;stroke-miterlimit:10;stroke-dasharray:3.0593345165252686,3.0593345165252686"/><line x1="406.14" y1="373.25" x2="406.14" y2="374.75" style="fill:none;stroke:#c8c8c8;stroke-miterlimit:10"/><line x1="406.14" y1="422.87" x2="406.14" y2="424.37" style="fill:none;stroke:#c8c8c8;stroke-miterlimit:10"/><line x1="406.14" y1="427.22" x2="406.14" y2="476.98" style="fill:none;stroke:#c8c8c8;stroke-miterlimit:10;stroke-dasharray:2.8436033725738525,2.8436033725738525"/><line x1="406.14" y1="478.4" x2="406.14" y2="479.9" style="fill:none;stroke:#c8c8c8;stroke-miterlimit:10"/><line x1="341.99" y1="422.87" x2="341.99" y2="424.37" style="fill:none;stroke:#c8c8c8;stroke-miterlimit:10"/><line x1="341.99" y1="427.22" x2="341.99" y2="476.98" style="fill:none;stroke:#c8c8c8;stroke-miterlimit:10;stroke-dasharray:2.8436033725738525,2.8436033725738525"/><line x1="341.99" y1="478.4" x2="341.99" y2="479.9" style="fill:none;stroke:#c8c8c8;stroke-miterlimit:10"/><line x1="341.99" y1="528.37" x2="341.99" y2="529.87" style="fill:none;stroke:#c8c8c8;stroke-miterlimit:10"/><line x1="341.99" y1="532.93" x2="341.99" y2="568.12" style="fill:none;stroke:#c8c8c8;stroke-miterlimit:10;stroke-dasharray:3.0593345165252686,3.0593345165252686"/><line x1="341.99" y1="569.65" x2="341.99" y2="571.15" style="fill:none;stroke:#c8c8c8;stroke-miterlimit:10"/><line x1="406.14" y1="528.37" x2="406.14" y2="529.87" style="fill:none;stroke:#c8c8c8;stroke-miterlimit:10"/><line x1="406.14" y1="532.93" x2="406.14" y2="568.12" style="fill:none;stroke:#c8c8c8;stroke-miterlimit:10;stroke-dasharray:3.0593345165252686,3.0593345165252686"/><line x1="406.14" y1="569.65" x2="406.14" y2="571.15" style="fill:none;stroke:#c8c8c8;stroke-miterlimit:10"/><path d="M49.18,214.63c-.11,6.91-.22,9.46-.75,10.25a2,2,0,0,1-1.39.9,13.19,13.19,0,0,1-2.21.08,5.87,5.87,0,0,0-.62-2.26c.67.06,1.22.08,1.57.08a.59.59,0,0,0,.59-.32c.28-.45.41-2.27.5-7.4H45.33c-.09,3.25-.62,6.93-3,10a10.75,10.75,0,0,0-1.88-1.56c2.35-3.1,2.65-6.74,2.65-9.58v-3.3H40.94V209.2h3.21V206h2.44v3.25h3.16v1.62a15.13,15.13,0,0,0,2-4.87l2.5.47c-.17.7-.39,1.41-.62,2.09H60.3v2.31H52.69A13.72,13.72,0,0,1,50.48,214a15.07,15.07,0,0,0-2-1.62,8.22,8.22,0,0,0,.79-.86H45.35v2.1h3.83Zm11.72,1.78a36.71,36.71,0,0,1-3.29,2.72A8.85,8.85,0,0,0,61,223.72a9.32,9.32,0,0,0-1.74,2.14c-2.82-2.05-4.13-5.77-4.9-10.37l-.74.32v10.1H51.19v-9.22l-.45.13a11.07,11.07,0,0,0-1.5-2.12A24.25,24.25,0,0,0,58,211.06l1.82,1.33a21.3,21.3,0,0,1-3.38,2.14c.13.83.3,1.67.49,2.46a18.77,18.77,0,0,0,2.18-2.21Z" style="fill:#72b447"/><path d="M70.09,211.51a27.74,27.74,0,0,1-2.29,3.27V226H65.26v-8.37c-.6.58-1.18,1.12-1.76,1.59A24.82,24.82,0,0,0,61.77,217a20.73,20.73,0,0,0,5.88-6.39ZM69.3,207a28.75,28.75,0,0,1-5.88,5.63A15.85,15.85,0,0,0,62,210.5,19,19,0,0,0,66.84,206Zm12.58,8.52H79V223c0,1.37-.26,2.07-1.2,2.46a12,12,0,0,1-4.17.42,10.6,10.6,0,0,0-.77-2.58c1.22.06,2.63.06,3,0s.53-.09.53-.41v-7.44H70.05v-2.42H81.88Zm-.54-5.89H71v-2.41H81.34Z" style="fill:#72b447"/><path d="M91.31,206.91a35.52,35.52,0,0,1-2,3.94v15H86.66V214.65a19.16,19.16,0,0,1-2.22,2.4A16.59,16.59,0,0,0,83,214.46a22.44,22.44,0,0,0,5.84-8.34Zm5.86,7.74c.6,4.75,1.73,7.92,3.44,8.13.49.05.75-1,.92-3.4a8.79,8.79,0,0,0,2.08,1.46c-.54,4.13-1.69,5.11-2.89,5-3.62-.35-5.31-4.37-6.08-10.89l-4.21.57-.36-2.46,4.32-.57c-.15-1.93-.28-4-.35-6.27h2.59c.05,2.09.13,4.11.28,5.92l6.1-.79.36,2.4Zm3.83-3.78a18.33,18.33,0,0,0-2.93-3.6l1.9-1.17a19.39,19.39,0,0,1,3.08,3.44Z" style="fill:#72b447"/><path d="M121.48,219.75c-.81,1.17-1.64,2.48-2.39,3.38h4.83v2.18H105.83v-2.18H110a14.57,14.57,0,0,0-1.78-3.45l2-.83h-3.28v-2.19h6.51v-2.11h-3.94V213.5a26.18,26.18,0,0,1-3.19,2,9.63,9.63,0,0,0-1.58-2.05,22.79,22.79,0,0,0,8.64-7.56H116a21.86,21.86,0,0,0,9.13,7.3,12,12,0,0,0-1.69,2.29,28.87,28.87,0,0,1-3.25-2v1.11h-4.09v2.11h6.59v2.19h-6.59v4.28h2.33l-1.39-.58a22.24,22.24,0,0,0,2-3.7Zm-11.18-.9a14.33,14.33,0,0,1,2,3.53l-1.75.75h2.89v-4.28Zm8.4-6.53a22.5,22.5,0,0,1-3.93-4,22,22,0,0,1-3.79,4Z" style="fill:#72b447"/><rect x="192.29" y="192.26" width="427.71" height="48.47" style="fill:#72b447"/><path d="M366.72,220.84h-2.14v4.65h-3.31v-4.65h-7.64v-2.42l6.69-10.86h4.26v10.57h2.14Zm-5.45-2.71v-3.66c0-1,.09-2.67.14-3.71h-.1c-.43,1-.92,1.94-1.43,2.91l-2.78,4.46Z" style="fill:#fff"/><path d="M368.46,216.45c0-6.2,2.43-9.23,6.09-9.23s6.05,3.06,6.05,9.23-2.42,9.38-6.05,9.38S368.46,222.63,368.46,216.45Zm8.78,0c0-5-1.17-6.46-2.69-6.46s-2.72,1.45-2.72,6.46,1.17,6.6,2.72,6.6S377.24,221.49,377.24,216.45Z" style="fill:#fff"/><path d="M383,228.72c1.86-.71,2.91-1.92,2.91-3.32h-.22a2.09,2.09,0,0,1-2.23-2.11,2.14,2.14,0,0,1,2.3-2.11c1.65,0,2.57,1.31,2.57,3.51a6.1,6.1,0,0,1-4.58,6Z" style="fill:#fff"/><path d="M390.62,216.45c0-6.2,2.42-9.23,6.08-9.23s6.06,3.06,6.06,9.23-2.43,9.38-6.06,9.38S390.62,222.63,390.62,216.45Zm8.77,0c0-5-1.16-6.46-2.69-6.46s-2.71,1.45-2.71,6.46,1.16,6.6,2.71,6.6S399.39,221.49,399.39,216.45Z" style="fill:#fff"/><path d="M404.89,216.45c0-6.2,2.43-9.23,6.08-9.23s6.06,3.06,6.06,9.23-2.42,9.38-6.06,9.38S404.89,222.63,404.89,216.45Zm8.77,0c0-5-1.16-6.46-2.69-6.46s-2.71,1.45-2.71,6.46,1.16,6.6,2.71,6.6S413.66,221.49,413.66,216.45Z" style="fill:#fff"/><path d="M419.17,216.45c0-6.2,2.42-9.23,6.08-9.23s6.06,3.06,6.06,9.23-2.43,9.38-6.06,9.38S419.17,222.63,419.17,216.45Zm8.77,0c0-5-1.16-6.46-2.69-6.46s-2.71,1.45-2.71,6.46,1.16,6.6,2.71,6.6S427.94,221.49,427.94,216.45Z" style="fill:#fff"/><path d="M454.82,224.21c0,1.57-.34,2.37-1.36,2.83s-2.42.54-4.58.54a12.07,12.07,0,0,0-1-2.89c1.38.1,3,.08,3.44.08s.63-.17.63-.59v-5.86H437.27v9.26h-2.91V206.5h20.46Zm-17.55-8.75H443v-6.1h-5.72Zm14.64,0v-6.1h-6.06v6.1Z" style="fill:#fff"/><rect x="192.29" y="283.5" width="213.86" height="48.47" style="fill:#4d4d96"/><path d="M248.51,314.68c4.87-4.36,7.75-7.73,7.75-10.49,0-1.82-1-2.91-2.69-2.91a4.63,4.63,0,0,0-3.29,1.84l-1.94-1.94a7.27,7.27,0,0,1,5.69-2.71,5.26,5.26,0,0,1,5.65,5.52c0,3.25-2.69,6.74-6,9.94.89-.1,2.08-.2,2.9-.2h3.91v3h-12Z" style="fill:#fff"/><path d="M262.81,307.7c0-6.2,2.42-9.23,6.08-9.23s6.06,3,6.06,9.23-2.43,9.38-6.06,9.38S262.81,313.88,262.81,307.7Zm8.77,0c0-5-1.16-6.47-2.69-6.47s-2.71,1.46-2.71,6.47,1.16,6.59,2.71,6.59S271.58,312.74,271.58,307.7Z" style="fill:#fff"/><path d="M277.3,320c1.87-.7,2.91-1.91,2.91-3.32H280a2.09,2.09,0,0,1-2.23-2.11,2.14,2.14,0,0,1,2.3-2.1c1.65,0,2.57,1.3,2.57,3.51a6.11,6.11,0,0,1-4.58,6Z" style="fill:#fff"/><path d="M285,307.7c0-6.2,2.42-9.23,6.08-9.23s6.06,3,6.06,9.23-2.42,9.38-6.06,9.38S285,313.88,285,307.7Zm8.77,0c0-5-1.16-6.47-2.69-6.47s-2.71,1.46-2.71,6.47,1.16,6.59,2.71,6.59S293.73,312.74,293.73,307.7Z" style="fill:#fff"/><path d="M299.24,307.7c0-6.2,2.42-9.23,6.08-9.23s6.05,3,6.05,9.23-2.42,9.38-6.05,9.38S299.24,313.88,299.24,307.7Zm8.77,0c0-5-1.17-6.47-2.69-6.47s-2.72,1.46-2.72,6.47,1.17,6.59,2.72,6.59S308,312.74,308,307.7Z" style="fill:#fff"/><path d="M313.51,307.7c0-6.2,2.42-9.23,6.08-9.23s6.06,3,6.06,9.23-2.42,9.38-6.06,9.38S313.51,313.88,313.51,307.7Zm8.77,0c0-5-1.16-6.47-2.69-6.47s-2.71,1.46-2.71,6.47,1.16,6.59,2.71,6.59S322.28,312.74,322.28,307.7Z" style="fill:#fff"/><path d="M349.16,315.45c0,1.58-.34,2.38-1.36,2.84s-2.42.53-4.58.53a11.58,11.58,0,0,0-1-2.88c1.38.1,3,.07,3.44.07s.63-.17.63-.58v-5.86H331.61v9.25h-2.9V297.74h20.45Zm-17.55-8.74h5.72V300.6h-5.72Zm14.64,0V300.6h-6.06v6.11Z" style="fill:#fff"/><rect x="341.99" y="479.9" width="278.01" height="48.47" style="fill:#e9a031"/><path d="M430.29,511.07c4.87-4.36,7.75-7.72,7.75-10.49,0-1.81-1-2.9-2.69-2.9a4.59,4.59,0,0,0-3.29,1.84l-1.94-1.94a7.25,7.25,0,0,1,5.69-2.72,5.27,5.27,0,0,1,5.65,5.53c0,3.25-2.69,6.73-6,9.93.89-.09,2.08-.19,2.9-.19h3.91v3h-12Z" style="fill:#fff"/><path d="M454.64,499a3.92,3.92,0,0,0-2.76-1.31c-2.06,0-3.76,1.55-3.9,6a5.22,5.22,0,0,1,3.68-1.92c3,0,5.14,1.8,5.14,5.65a5.61,5.61,0,0,1-5.62,6c-3.42,0-6.45-2.73-6.45-9.06,0-6.69,3.32-9.55,6.93-9.55a6.62,6.62,0,0,1,4.87,2Zm-1.11,8.46c0-2.13-1-3.13-2.55-3.13a3.54,3.54,0,0,0-2.93,1.89c.34,3.27,1.55,4.53,3.06,4.53C452.44,510.78,453.53,509.67,453.53,507.49Z" style="fill:#fff"/><path d="M459.08,516.36c1.87-.71,2.91-1.92,2.91-3.32h-.22a2.09,2.09,0,0,1-2.23-2.11,2.15,2.15,0,0,1,2.3-2.11c1.65,0,2.57,1.31,2.57,3.51a6.12,6.12,0,0,1-4.58,6Z" style="fill:#fff"/><path d="M466.74,504.1c0-6.21,2.42-9.24,6.08-9.24s6.06,3.06,6.06,9.24-2.42,9.37-6.06,9.37S466.74,510.28,466.74,504.1Zm8.77,0c0-5-1.16-6.47-2.69-6.47s-2.71,1.45-2.71,6.47,1.16,6.59,2.71,6.59S475.51,509.14,475.51,504.1Z" style="fill:#fff"/><path d="M481,504.1c0-6.21,2.43-9.24,6.09-9.24s6,3.06,6,9.24-2.42,9.37-6,9.37S481,510.28,481,504.1Zm8.78,0c0-5-1.17-6.47-2.69-6.47s-2.72,1.45-2.72,6.47,1.17,6.59,2.72,6.59S489.79,509.14,489.79,504.1Z" style="fill:#fff"/><path d="M495.29,504.1c0-6.21,2.42-9.24,6.08-9.24s6.06,3.06,6.06,9.24-2.42,9.37-6.06,9.37S495.29,510.28,495.29,504.1Zm8.77,0c0-5-1.16-6.47-2.69-6.47s-2.71,1.45-2.71,6.47,1.16,6.59,2.71,6.59S504.06,509.14,504.06,504.1Z" style="fill:#fff"/><path d="M530.94,511.85c0,1.58-.34,2.38-1.36,2.84s-2.42.53-4.58.53a11.8,11.8,0,0,0-1-2.89c1.38.1,2.95.08,3.44.08s.63-.17.63-.58V506H513.39v9.26h-2.9V494.14h20.45Zm-17.55-8.75h5.72V497h-5.72Zm14.64,0V497H522v6.1Z" style="fill:#fff"/><path d="M432.93,578.77a7.37,7.37,0,0,0-.57,1.23,17.81,17.81,0,0,1-3,5.72,16.06,16.06,0,0,1-6.91,4.82l-2-1.81a13.66,13.66,0,0,0,6.89-4.23,12.29,12.29,0,0,0,2.43-4.67H425a19.33,19.33,0,0,1-4.31,4.14l-1.91-1.42a15,15,0,0,0,5.33-5.51,7.72,7.72,0,0,0,.77-1.79l2.5.82c-.41.6-.84,1.37-1,1.74l-.06.09h3.44a5.46,5.46,0,0,0,1.49-.21Z" style="fill:#d93b3f"/><path d="M436.23,581.49c.62,0,1.86.1,2.75.1h9.19c.79,0,1.56-.06,2-.1v2.69c-.41,0-1.28-.09-2-.09H439c-1,0-2.12,0-2.75.09Z" style="fill:#d93b3f"/><path d="M457.6,583.27a27.15,27.15,0,0,1-3.3,4.77l-1.85-1.26a17.74,17.74,0,0,0,3.21-4.42Zm3.86-2.43v7.95c0,1-.56,1.61-1.78,1.61a25.21,25.21,0,0,1-2.78-.15l-.21-2.12a12.63,12.63,0,0,0,1.9.2c.44,0,.62-.17.63-.61,0-.64,0-6.06,0-6.86v0H454.9c-.52,0-1.18,0-1.66.07v-2.28a13,13,0,0,0,1.66.14h4.34V577.4a10.11,10.11,0,0,0-.15-1.49h2.53a12.6,12.6,0,0,0-.16,1.49v1.37h4a13.15,13.15,0,0,0,1.68-.12v2.24c-.53,0-1.2,0-1.66,0Zm3.49,1.47a39.92,39.92,0,0,1,2.93,4.5l-2,1.1a32.37,32.37,0,0,0-2.77-4.59Zm-1-5.73a2,2,0,1,1,2,2A2,2,0,0,1,464,576.58Zm1,0a.94.94,0,1,0,1.87,0,.94.94,0,0,0-1.87,0Z" style="fill:#d93b3f"/><path d="M477.41,585.56a16.23,16.23,0,0,0,6.23-6.65l1.33,2.41a18.23,18.23,0,0,1-6.33,6.33,18.56,18.56,0,0,1-6.35,2.41l-1.43-2.26A17.54,17.54,0,0,0,477.41,585.56Zm0-5.54-1.75,1.8a35.06,35.06,0,0,0-4.27-3.7l1.61-1.71A35.59,35.59,0,0,1,477.41,580Z" style="fill:#d93b3f"/><path d="M428.67,601.54a3.92,3.92,0,0,0-2.76-1.31c-2.06,0-3.76,1.55-3.9,6a5.22,5.22,0,0,1,3.68-1.92c3,0,5.14,1.8,5.14,5.65a5.61,5.61,0,0,1-5.63,6c-3.41,0-6.44-2.73-6.44-9.06,0-6.69,3.32-9.55,6.93-9.55a6.62,6.62,0,0,1,4.87,2ZM427.56,610c0-2.13-1-3.13-2.55-3.13a3.54,3.54,0,0,0-2.93,1.89c.34,3.27,1.55,4.53,3.05,4.53C426.46,613.29,427.56,612.18,427.56,610Z" style="fill:#d93b3f"/><path d="M433.11,618.87c1.86-.71,2.91-1.92,2.91-3.32h-.22a2.09,2.09,0,0,1-2.23-2.11,2.14,2.14,0,0,1,2.3-2.11c1.65,0,2.57,1.31,2.57,3.51a6.12,6.12,0,0,1-4.58,6Z" style="fill:#d93b3f"/><path d="M440.77,606.61c0-6.21,2.42-9.24,6.08-9.24s6.06,3.06,6.06,9.24-2.43,9.37-6.06,9.37S440.77,612.78,440.77,606.61Zm8.77,0c0-5-1.17-6.47-2.69-6.47s-2.72,1.45-2.72,6.47,1.17,6.59,2.72,6.59S449.54,611.65,449.54,606.61Z" style="fill:#d93b3f"/><path d="M455,606.61c0-6.21,2.42-9.24,6.08-9.24s6.06,3.06,6.06,9.24-2.42,9.37-6.06,9.37S455,612.78,455,606.61Zm8.77,0c0-5-1.16-6.47-2.69-6.47s-2.71,1.45-2.71,6.47,1.16,6.59,2.71,6.59S463.81,611.65,463.81,606.61Z" style="fill:#d93b3f"/><path d="M469.32,606.61c0-6.21,2.42-9.24,6.08-9.24s6.06,3.06,6.06,9.24S479,616,475.4,616,469.32,612.78,469.32,606.61Zm8.77,0c0-5-1.16-6.47-2.69-6.47s-2.72,1.45-2.72,6.47,1.17,6.59,2.72,6.59S478.09,611.65,478.09,606.61Z" style="fill:#d93b3f"/><path d="M505,614.36c0,1.58-.34,2.38-1.35,2.84s-2.43.53-4.58.53a12.23,12.23,0,0,0-1-2.89c1.38.1,2.95.08,3.44.08s.63-.17.63-.58v-5.87H487.42v9.26h-2.91V596.65H505Zm-17.54-8.75h5.72v-6.1h-5.72Zm14.64,0v-6.1H496v6.1Z" style="fill:#d93b3f"/><path d="M523.41,595.39a28,28,0,0,0,7.2,8.62,13.74,13.74,0,0,0-2.45,2.6c-.51-.46-1-1-1.55-1.55v.17c-.27,7.31-.56,10.17-1.41,11.19a2.9,2.9,0,0,1-2.2,1.14,24.29,24.29,0,0,1-3.66.07,7,7,0,0,0-1-2.91c1.34.1,2.6.12,3.2.12a1.11,1.11,0,0,0,1-.33c.49-.51.75-2.67,1-7.73h-4.77c-.61,4.65-2.18,8.79-8.46,11.14a9.59,9.59,0,0,0-1.91-2.66c5.47-1.77,6.73-5,7.22-8.48h-4.1v-1.7a17.21,17.21,0,0,1-1.94,1.74,17,17,0,0,0-2.47-2.32,20.09,20.09,0,0,0,7.15-9.06l3.1.89a28.91,28.91,0,0,1-4.8,7.63h13.09a41,41,0,0,1-5.07-7.43Z" style="fill:#d93b3f"/><path d="M47.7,299.1h4.49v3.68H51.08v1.62H47.66v.9h3.12V307H47.66v.92H52v1.95H41v-1.95h4.37V307H42.16V305.3h3.17v-.9H42v-1.62H40.9V299.1h4.36v-1.78H47.7Zm-5.6,11.48h9v6.36H48.64v-.73H44.39v.94H42.1ZM49.84,301h-6.7v1.59h2.19v-1.16h2.33v1.16h2.18Zm-5.45,11.47v1.82h4.25v-1.82Zm11.12-1.07H53.09v-12h2.42ZM60,297.58v16.49c0,1.41-.26,2.12-1.11,2.53a9.58,9.58,0,0,1-3.92.51,10.15,10.15,0,0,0-.83-2.63c1.24.06,2.46,0,2.89,0s.51-.13.51-.47V297.58Z" style="fill:#4d4d96"/><path d="M72.53,307.44a10.23,10.23,0,0,1-.08,1.05c-.35,4.73-.73,6.8-1.48,7.63a2.86,2.86,0,0,1-2.12.92,26.82,26.82,0,0,1-3.36,0,6.39,6.39,0,0,0-.94-2.68c1.28.13,2.65.15,3.23.15a1.39,1.39,0,0,0,1-.25c.45-.37.73-1.71,1-4.52H65.36c-.06.35-.12.67-.19,1l-2.57-.41a66.21,66.21,0,0,0,1.31-7.53h5.93v-2.44H63.4V298h9v7.18h-6.2c-.11.75-.24,1.52-.37,2.25Zm7.19-9.93v19.66H77.17V297.51Z" style="fill:#4d4d96"/><path d="M92.35,303.59a28.83,28.83,0,0,1-1.75,6.22,21.38,21.38,0,0,1,2.2,3.47l-2,1.73a19.51,19.51,0,0,0-1.45-2.63A14.48,14.48,0,0,1,84.93,317a11.47,11.47,0,0,0-1.71-2,11.85,11.85,0,0,0,4.56-4.85c-1.14-1.52-2.4-3-3.58-4.35L86,304.38c.92,1,1.91,2.08,2.83,3.21a24.63,24.63,0,0,0,1-4.32Zm11,.79H101.1V314c0,1.43-.25,2.18-1.06,2.59a8.73,8.73,0,0,1-3.86.55,10.4,10.4,0,0,0-.81-2.74c1.2.07,2.35,0,2.72,0s.51-.11.51-.45v-9.63H93.23v-1.54H83.82v-2.35h3.72v-3.28H90v3.28h4v1.45H98.6v-4.75h2.5v4.75h2.29Zm-8.34,1.69a16.9,16.9,0,0,1,2.38,4.51l-2.21,1.14a18,18,0,0,0-2.2-4.67Z" style="fill:#4d4d96"/><path d="M124.33,308.42a40.68,40.68,0,0,1-4.51,2.51,10.75,10.75,0,0,0,5,3.46,11.64,11.64,0,0,0-1.63,2.14c-4.06-1.67-6.41-5-7.76-9.56-.56.34-1.16.66-1.78,1,4.37,2.93,4.37,7.25,2.18,8.64a4.1,4.1,0,0,1-2.48.71c-.51,0-1.13,0-1.71,0a4.75,4.75,0,0,0-.73-2.27,28.69,28.69,0,0,1-4.34,1.6,15.33,15.33,0,0,0-1.43-1.83,26.25,26.25,0,0,0,8.81-3.68,4.77,4.77,0,0,0-.45-.58,25,25,0,0,1-6.65,2.71,10.59,10.59,0,0,0-1.37-1.71,24.65,24.65,0,0,0,6.67-2.18c-.21-.15-.44-.3-.68-.45a42.74,42.74,0,0,1-4.77,1.43,14.94,14.94,0,0,0-1.28-1.79,32.94,32.94,0,0,0,6.16-1.61h-4.05v-3.31c-.23.17-.47.32-.72.47a8.76,8.76,0,0,0-1.69-1.8,15.62,15.62,0,0,0,5.79-5.13l2.66.51-.65.9h3.77l.39-.11,1.73,1.14a17.53,17.53,0,0,1-1.44,2h5.16v5.35h-4.86a15.38,15.38,0,0,0,1.1,2.44,27.35,27.35,0,0,0,3.55-2.39ZM109.89,305h3.66V303.4h-3.66Zm1.37-4.62a13.19,13.19,0,0,1-1.13,1.11h4.25a10.57,10.57,0,0,0,.86-1.11Zm3.49,12.37a24.73,24.73,0,0,1-3.83,2.16,17.69,17.69,0,0,0,2,.08,2,2,0,0,0,1.31-.32A1.75,1.75,0,0,0,114.75,312.79ZM120,303.4h-4V305h4Z" style="fill:#4d4d96"/><path d="M134.59,315.36a12.23,12.23,0,0,0,3.68-2.36l2,1.28a15,15,0,0,1-4.55,2.85,16.17,16.17,0,0,0-1.18-1.22h-4.75v.86H127.7v-5.54l-.45.19A7.11,7.11,0,0,0,126,309.6a12.62,12.62,0,0,0,3.94-2.25l-1.42-1a10.51,10.51,0,0,1-.92.73,9.4,9.4,0,0,0-1.6-1.48,10.26,10.26,0,0,0,3.91-4.47l2.08.51a8.28,8.28,0,0,1-.49,1h2l.38-.11,1.44.66a12.88,12.88,0,0,1-2.1,3.85c1.13.77,2.18,1.54,2.89,2.14L134.63,311l0,0Zm-6-12.95h-2.05V299H130v-1.73h2.37V299h3.49v3.44h-2.12v-1.47h-5.11Zm3.85,9.59h-2.59v2h2.59Zm1.07-2c-.53-.43-1.18-.9-1.82-1.39a12.32,12.32,0,0,1-1.8,1.39Zm-3.12-5.69-.45.55,1.47,1a9.15,9.15,0,0,0,1-1.52Zm8.83-2.7c.09-.47.17-1,.26-1.45h-3.6V298h10v2.16h-3.71c-.17.51-.34,1-.51,1.45h3.79v11.28h-8.92V301.64Zm3.83,1.91h-4.23v1.3H143Zm0,3.06h-4.23v1.3H143Zm0,3.1h-4.23V311H143Zm.07,3.4a27.23,27.23,0,0,1,3.46,2.78l-2,1.31a23.36,23.36,0,0,0-3.33-2.94Z" style="fill:#4d4d96"/><path d="M58.16,502.32a15.14,15.14,0,0,1-5,6.89,24.92,24.92,0,0,0,7.6,1.92,13.12,13.12,0,0,0-1.63,2.48,22.74,22.74,0,0,1-8.51-2.76,28.24,28.24,0,0,1-8.54,2.72,9.71,9.71,0,0,0-1.39-2.46,27.82,27.82,0,0,0,7.6-1.95,16.48,16.48,0,0,1-3.6-4.62l1.89-.64h-4v-2.5h6.72v-2.48H41.52v-2.53h7.79v-2.78h2.63v2.78h7.83v2.53H51.94v2.48h4l.45-.09Zm-11,1.58a11.56,11.56,0,0,0,3.6,3.94,11.44,11.44,0,0,0,3.76-3.94Z" style="fill:#e9a031"/><path d="M67.8,505.66v5.11c0,1.3-.25,1.92-1,2.33a8.18,8.18,0,0,1-3.51.47,10,10,0,0,0-.73-2.4c1,.05,2,.05,2.31.05s.45-.13.45-.47v-4.54c-1,.22-1.95.43-2.8.6l-.54-2.5c1-.13,2.08-.34,3.34-.56V500h-3v-2.36h3v-4.06H67.8v4.06h2.74V500H67.8v3.27c.94-.19,1.89-.36,2.83-.56L70.8,505Zm12,7.89c-.1-.56-.28-1.2-.47-1.88-3.7.55-7.57,1.05-10.39,1.45l-.56-2.65,2.25-.22a111.19,111.19,0,0,0,3.14-16.1l2.78.45A135.34,135.34,0,0,1,73.24,510c1.69-.18,3.48-.39,5.28-.6A54.74,54.74,0,0,0,76.15,504l2.24-.79a44.31,44.31,0,0,1,3.92,9.41Z" style="fill:#e9a031"/><path d="M94.3,502.15a19.09,19.09,0,0,0-5.52,1c-.62.2-1.43.52-2,.73l-.79-3a20.16,20.16,0,0,0,2.31-.36,29.43,29.43,0,0,1,6.39-1c3.36,0,5.72,1.9,5.72,5.22,0,4.53-4.2,7.36-10.08,8.17l-1.54-2.65c5.26-.6,8.62-2.31,8.62-5.63C97.36,503.28,96.29,502.13,94.3,502.15Zm4.28-6.7-.43,2.61c-2.48-.17-7.08-.58-9.52-1l.43-2.57A60.35,60.35,0,0,0,98.58,495.45Z" style="fill:#e9a031"/><path d="M113.33,502.28c-.1,6.91-.21,9.45-.74,10.24a2,2,0,0,1-1.4.9,12.85,12.85,0,0,1-2.2.09,6.05,6.05,0,0,0-.62-2.27c.66.06,1.22.08,1.56.08a.6.6,0,0,0,.6-.32c.28-.45.41-2.26.49-7.4h-1.54c-.08,3.25-.62,6.93-3,10a10.37,10.37,0,0,0-1.88-1.57c2.35-3.1,2.65-6.74,2.65-9.58V499.2H105.1v-2.36h3.21v-3.25h2.44v3.25h3.16v1.63a14.86,14.86,0,0,0,2-4.88l2.51.47c-.18.71-.39,1.41-.62,2.1h6.65v2.31h-7.62a13.82,13.82,0,0,1-2.2,3.21,15.78,15.78,0,0,0-2-1.63,9.32,9.32,0,0,0,.79-.85H109.5v2.09h3.83Zm11.73,1.77a35.45,35.45,0,0,1-3.3,2.72,9,9,0,0,0,3.38,4.6,9.12,9.12,0,0,0-1.73,2.14c-2.82-2.06-4.13-5.78-4.9-10.38-.26.11-.49.22-.75.32v10.1h-2.41v-9.22l-.45.13a12.41,12.41,0,0,0-1.5-2.12,24.4,24.4,0,0,0,8.75-3.64L124,500a20.61,20.61,0,0,1-3.38,2.14c.12.83.3,1.67.49,2.46a20.42,20.42,0,0,0,2.18-2.2Z" style="fill:#e9a031"/><path d="M134.25,499.15a27.83,27.83,0,0,1-2.29,3.28v11.16h-2.55v-8.36c-.6.58-1.17,1.11-1.75,1.58a24.74,24.74,0,0,0-1.73-2.2,20.88,20.88,0,0,0,5.88-6.4Zm-.79-4.55a28.5,28.5,0,0,1-5.89,5.62,14.83,14.83,0,0,0-1.41-2.07,19.11,19.11,0,0,0,4.84-4.56ZM146,503.11h-2.93v7.51c0,1.37-.26,2.07-1.2,2.46a11.93,11.93,0,0,1-4.17.43,10.8,10.8,0,0,0-.77-2.59c1.21.06,2.63.06,3,0s.54-.08.54-.41v-7.44h-6.31v-2.42H146Zm-.54-5.88H135.1v-2.42h10.4Z" style="fill:#e9a031"/><path d="M155.46,494.55a33.1,33.1,0,0,1-2,3.94v15h-2.65V502.3a19.83,19.83,0,0,1-2.22,2.39,16.68,16.68,0,0,0-1.42-2.59,22.14,22.14,0,0,0,5.84-8.34Zm5.87,7.75c.59,4.75,1.73,7.91,3.44,8.13.49,0,.75-1,.92-3.4a9,9,0,0,0,2.07,1.45c-.53,4.13-1.69,5.11-2.88,5-3.62-.34-5.31-4.37-6.08-10.89l-4.21.58-.37-2.46,4.32-.58c-.15-1.93-.27-4-.34-6.27h2.59c0,2.1.13,4.11.28,5.93l6.1-.8.36,2.4Zm3.82-3.79a17.6,17.6,0,0,0-2.93-3.59l1.91-1.18a19.74,19.74,0,0,1,3.08,3.44Z" style="fill:#e9a031"/><path d="M185.64,507.39c-.81,1.18-1.65,2.48-2.39,3.38h4.83V513H170v-2.18h4.17a14.7,14.7,0,0,0-1.77-3.45l1.94-.83h-3.27v-2.18h6.51v-2.12h-3.94v-1.05a27.81,27.81,0,0,1-3.19,2,10,10,0,0,0-1.58-2.05,22.93,22.93,0,0,0,8.64-7.55h2.63a21.87,21.87,0,0,0,9.14,7.29,12,12,0,0,0-1.69,2.29,26.71,26.71,0,0,1-3.25-2v1.11h-4.09v2.12h6.59v2.18h-6.59v4.28h2.33l-1.39-.58a21.8,21.8,0,0,0,2-3.7Zm-11.19-.9a14.24,14.24,0,0,1,2,3.53l-1.75.75h2.89v-4.28Zm8.41-6.53a23.26,23.26,0,0,1-3.94-3.95,22.25,22.25,0,0,1-3.78,3.95Z" style="fill:#e9a031"/><rect x="192.29" y="374.75" width="149.7" height="48.47" style="fill:#58aac8"/><path d="M217.38,405.1h3.85V393.76H218v-2.2a11.55,11.55,0,0,0,4.17-1.51h2.64V405.1h3.37V408H217.38Z" style="fill:#fff"/><path d="M243.26,403.33h-2.13V408h-3.32v-4.66h-7.64v-2.42l6.69-10.86h4.27v10.57h2.13Zm-5.45-2.71V397c0-1,.09-2.67.14-3.71h-.1c-.43.95-.92,1.94-1.43,2.91l-2.78,4.46Z" style="fill:#fff"/><path d="M245.22,411.21c1.87-.7,2.91-1.92,2.91-3.32h-.22a2.09,2.09,0,0,1-2.23-2.11,2.15,2.15,0,0,1,2.31-2.11c1.64,0,2.56,1.31,2.56,3.52a6.11,6.11,0,0,1-4.58,6Z" style="fill:#fff"/><path d="M252.88,399c0-6.21,2.43-9.24,6.08-9.24S265,392.77,265,399s-2.42,9.37-6.06,9.37S252.88,405.13,252.88,399Zm8.77,0c0-5-1.16-6.47-2.69-6.47s-2.71,1.45-2.71,6.47,1.16,6.59,2.71,6.59S261.65,404,261.65,399Z" style="fill:#fff"/><path d="M267.16,399c0-6.21,2.42-9.24,6.08-9.24s6.06,3.06,6.06,9.24-2.43,9.37-6.06,9.37S267.16,405.13,267.16,399Zm8.77,0c0-5-1.16-6.47-2.69-6.47s-2.71,1.45-2.71,6.47,1.16,6.59,2.71,6.59S275.93,404,275.93,399Z" style="fill:#fff"/><path d="M281.43,399c0-6.21,2.43-9.24,6.09-9.24s6.05,3.06,6.05,9.24-2.42,9.37-6.05,9.37S281.43,405.13,281.43,399Zm8.77,0c0-5-1.16-6.47-2.68-6.47s-2.72,1.45-2.72,6.47,1.16,6.59,2.72,6.59S290.2,404,290.2,399Z" style="fill:#fff"/><path d="M317.08,406.7c0,1.58-.34,2.38-1.36,2.84s-2.42.53-4.58.53a11.58,11.58,0,0,0-1-2.88c1.38.09,3,.07,3.44.07s.63-.17.63-.58v-5.87H299.54v9.26h-2.91V389h20.45ZM299.54,398h5.72v-6.1h-5.72Zm14.63,0v-6.1h-6.05V398Z" style="fill:#fff"/><path d="M432.93,382.42a7.37,7.37,0,0,0-.57,1.23,17.81,17.81,0,0,1-3,5.72,16.06,16.06,0,0,1-6.91,4.82l-2-1.81a13.66,13.66,0,0,0,6.89-4.23,12.22,12.22,0,0,0,2.43-4.67H425a19.11,19.11,0,0,1-4.31,4.14l-1.91-1.42a15,15,0,0,0,5.33-5.5,8,8,0,0,0,.77-1.8l2.5.82c-.41.6-.84,1.37-1,1.74l-.06.09h3.44a5.9,5.9,0,0,0,1.49-.2Z" style="fill:#d93b3f"/><path d="M436.23,385.14c.62.05,1.86.1,2.75.1h9.19c.79,0,1.56-.06,2-.1v2.69c-.41,0-1.28-.09-2-.09H439c-1,0-2.12,0-2.75.09Z" style="fill:#d93b3f"/><path d="M457.6,386.92a27.15,27.15,0,0,1-3.3,4.77l-1.85-1.26a17.88,17.88,0,0,0,3.21-4.41Zm3.86-2.43v8c0,1-.56,1.6-1.78,1.6a25.21,25.21,0,0,1-2.78-.15l-.21-2.12a11.64,11.64,0,0,0,1.9.21c.44,0,.62-.18.63-.62,0-.63,0-6.06,0-6.86v0H454.9c-.52,0-1.18,0-1.66.07v-2.27a15.07,15.07,0,0,0,1.66.13h4.34v-1.37a9.82,9.82,0,0,0-.15-1.48h2.53a12.41,12.41,0,0,0-.16,1.48v1.37h4a13.15,13.15,0,0,0,1.68-.12v2.24c-.53,0-1.2-.05-1.66-.05ZM465,386a39.92,39.92,0,0,1,2.93,4.5l-2,1.1a33.54,33.54,0,0,0-2.77-4.59Zm-1-5.73a2,2,0,1,1,2,2A2,2,0,0,1,464,380.23Zm1,0a.94.94,0,1,0,1.87,0,.94.94,0,0,0-1.87,0Z" style="fill:#d93b3f"/><path d="M477.41,389.21a16.17,16.17,0,0,0,6.23-6.65L485,385a18.23,18.23,0,0,1-6.33,6.33,18.56,18.56,0,0,1-6.35,2.41l-1.43-2.26A17.37,17.37,0,0,0,477.41,389.21Zm0-5.54-1.75,1.8a36,36,0,0,0-4.27-3.7l1.61-1.71A37.49,37.49,0,0,1,477.41,383.67Z" style="fill:#d93b3f"/><path d="M428.67,405.19a3.92,3.92,0,0,0-2.76-1.31c-2.06,0-3.76,1.56-3.9,6a5.22,5.22,0,0,1,3.68-1.92c3,0,5.14,1.8,5.14,5.65a5.61,5.61,0,0,1-5.63,6c-3.41,0-6.44-2.73-6.44-9.06,0-6.69,3.32-9.54,6.93-9.54a6.66,6.66,0,0,1,4.87,2Zm-1.11,8.46c0-2.13-1-3.13-2.55-3.13a3.54,3.54,0,0,0-2.93,1.89c.34,3.28,1.55,4.54,3.05,4.54C426.46,417,427.56,415.83,427.56,413.65Z" style="fill:#d93b3f"/><path d="M433.11,422.52c1.86-.7,2.91-1.92,2.91-3.32h-.22a2.09,2.09,0,0,1-2.23-2.11,2.15,2.15,0,0,1,2.3-2.11c1.65,0,2.57,1.31,2.57,3.52a6.11,6.11,0,0,1-4.58,6Z" style="fill:#d93b3f"/><path d="M440.77,410.26c0-6.21,2.42-9.23,6.08-9.23s6.06,3.05,6.06,9.23-2.43,9.37-6.06,9.37S440.77,416.44,440.77,410.26Zm8.77,0c0-5-1.17-6.47-2.69-6.47s-2.72,1.45-2.72,6.47,1.17,6.59,2.72,6.59S449.54,415.3,449.54,410.26Z" style="fill:#d93b3f"/><path d="M455,410.26c0-6.21,2.42-9.23,6.08-9.23s6.06,3.05,6.06,9.23-2.42,9.37-6.06,9.37S455,416.44,455,410.26Zm8.77,0c0-5-1.16-6.47-2.69-6.47s-2.71,1.45-2.71,6.47,1.16,6.59,2.71,6.59S463.81,415.3,463.81,410.26Z" style="fill:#d93b3f"/><path d="M469.32,410.26c0-6.21,2.42-9.23,6.08-9.23s6.06,3.05,6.06,9.23-2.43,9.37-6.06,9.37S469.32,416.44,469.32,410.26Zm8.77,0c0-5-1.16-6.47-2.69-6.47s-2.72,1.45-2.72,6.47,1.17,6.59,2.72,6.59S478.09,415.3,478.09,410.26Z" style="fill:#d93b3f"/><path d="M505,418c0,1.58-.34,2.38-1.35,2.84s-2.43.53-4.58.53a12,12,0,0,0-1-2.88c1.38.09,2.95.07,3.44.07s.63-.17.63-.58v-5.87H487.42v9.26h-2.91V400.3H505Zm-17.54-8.75h5.72v-6.1h-5.72Zm14.64,0v-6.1H496v6.1Z" style="fill:#d93b3f"/><path d="M523.41,399a27.86,27.86,0,0,0,7.2,8.62,13.74,13.74,0,0,0-2.45,2.6c-.51-.46-1-1-1.55-1.55v.17c-.27,7.31-.56,10.17-1.41,11.19a2.9,2.9,0,0,1-2.2,1.14,24.29,24.29,0,0,1-3.66.07,7,7,0,0,0-1-2.91c1.34.1,2.6.13,3.2.13a1.12,1.12,0,0,0,1-.34c.49-.51.75-2.67,1-7.73h-4.77c-.61,4.65-2.18,8.79-8.46,11.14a9.59,9.59,0,0,0-1.91-2.66c5.47-1.77,6.73-5,7.22-8.48h-4.1v-1.7a17.32,17.32,0,0,1-1.94,1.75,16.56,16.56,0,0,0-2.47-2.33,20.09,20.09,0,0,0,7.15-9.06l3.1.89a29,29,0,0,1-4.8,7.64h13.09a41.44,41.44,0,0,1-5.07-7.44Z" style="fill:#d93b3f"/><path d="M419.26,313.42h3.22V303.2h-2.64v-1.46a9,9,0,0,0,3.2-1.12h1.73v12.8h2.88v1.89h-8.39Z" style="fill:#4d4d96"/><path d="M433.32,307.73a15.45,15.45,0,0,0-3.5-2.14l1-1.35a14.61,14.61,0,0,1,3.53,2Zm-2.82,7.68a58.33,58.33,0,0,0,3.31-6.32l1.42,1.13c-.92,2.08-2.07,4.43-3.11,6.31Zm1.46-16.6a15,15,0,0,1,3.61,2.05l-1.1,1.5a13.65,13.65,0,0,0-3.55-2.2ZM447,302.1v14.63h-1.9v-.82h-7.06v1h-1.82V302.1h3.31a34,34,0,0,0,.72-3.43l2.16.24c-.32,1.09-.66,2.23-1,3.19Zm-9,1.78V308h7.06v-4.13Zm7.06,10.24v-4.4h-7.06v4.4Z" style="fill:#4d4d96"/><path d="M463.53,304.36a9.82,9.82,0,0,0-.37,1.09,5,5,0,0,1,3.89,4.75c0,2.82-1.8,5.39-6.49,6.13l-1.06-1.66c3.67-.39,5.59-2.27,5.59-4.57A3.26,3.26,0,0,0,462.6,307a16.09,16.09,0,0,1-4.27,6.23c.13.54.29,1.06.45,1.53l-1.81.54c-.1-.3-.2-.62-.28-.95a7.07,7.07,0,0,1-3.21.95,2.39,2.39,0,0,1-2.5-2.67c0-2.54,2.18-5.19,4.91-6.45,0-.92.12-1.83.2-2.69h-1c-.94,0-2.47-.08-3.31-.14l-.06-1.84a31.31,31.31,0,0,0,3.43.26h1.08l.14-1.34a9.31,9.31,0,0,0,0-1l2.07.06a9,9,0,0,0-.23.93c-.08.38-.16.84-.24,1.32a37.19,37.19,0,0,0,6.82-.84l0,1.84a63.63,63.63,0,0,1-7.06.72q-.09,1-.18,2.13a12.64,12.64,0,0,1,3.15-.44,5.06,5.06,0,0,1,.56,0,7.35,7.35,0,0,0,.22-1.27Zm-7.26,8.16a24.77,24.77,0,0,1-.44-4.45c-1.74,1.08-3,2.83-3,4.21,0,.74.32,1.1,1,1.1A4.74,4.74,0,0,0,456.27,312.52Zm1.32-4.77a20.52,20.52,0,0,0,.3,3.45,13,13,0,0,0,2.95-4.45h-.12a10.18,10.18,0,0,0-3.13.52Z" style="fill:#4d4d96"/><path d="M480.92,303.72a39.12,39.12,0,0,1-4,.66c-.18.85-.4,1.73-.62,2.57a60.21,60.21,0,0,1-3.11,9.1l-2.2-.74a42.62,42.62,0,0,0,3.35-8.86c.18-.6.34-1.26.48-1.89-.56,0-1.08,0-1.57,0-.92,0-1.64,0-2.36-.08l0-2a18.35,18.35,0,0,0,2.42.16c.61,0,1.27,0,2-.08.1-.58.2-1.1.24-1.46a9.4,9.4,0,0,0,.06-1.79l2.42.18c-.14.5-.3,1.29-.38,1.69l-.24,1.16a34.24,34.24,0,0,0,3.55-.68Zm-.62,6.72a7.46,7.46,0,0,0-.28,1.72c0,.9.48,1.7,3,1.7a22.14,22.14,0,0,0,4-.4l-.06,2a27.22,27.22,0,0,1-3.91.28c-3.22,0-4.87-1.06-4.87-3a14,14,0,0,1,.29-2.48Zm-.78-4.87a34.66,34.66,0,0,1,3.69-.2,33.12,33.12,0,0,1,3.46.18l-.06,1.9a28.53,28.53,0,0,0-3.36-.24,32.42,32.42,0,0,0-3.73.2Z" style="fill:#4d4d96"/><path d="M495.79,299.51a34.06,34.06,0,0,0-.86,4.89c.86-1.82,2.78-3.94,5.15-3.94,2.7,0,4.69,2.66,4.69,6.91,0,5.51-3.45,8-8.48,9l-1.2-1.8c4.33-.67,7.57-2.27,7.57-7.16,0-3.07-1-5.09-2.92-5.09-2.39,0-4.59,3.55-4.75,6.15a8.89,8.89,0,0,0,.06,2.27l-1.93.14a23.69,23.69,0,0,1-.24-3.19,51.64,51.64,0,0,1,.6-6.37c.07-.66.13-1.33.15-1.85Z" style="fill:#4d4d96"/><path d="M526.89,309a11.39,11.39,0,0,1-2.78,4.69,11.33,11.33,0,0,0,3.81,1.71,5.7,5.7,0,0,0-1.09,1.44,11,11,0,0,1-4-2.06,13.81,13.81,0,0,1-3.7,2,6.1,6.1,0,0,0-.91-1.36v1.42h-1.78v-1.78c-2.36.26-4.71.52-6.53.7l-.14-1.61,1.82-.16v-6.41H510v-1.52h17.49v1.52h-9.22v7.7a11.81,11.81,0,0,0,3.35-1.67,12.25,12.25,0,0,1-2-3.26l1.08-.3h-1.8v-1.43h6.57l.32-.06Zm-1.66-3.88H512.34v-6h12.89Zm-11.9,2.46v1.12h3.14v-1.12Zm0,3.61h3.14V310h-3.14Zm3.14,2.34v-1h-3.14v1.3Zm6.9-13.12h-9.26v1.14h9.26Zm0,2.32h-9.26v1.16h9.26Zm-2.23,7.32a8.81,8.81,0,0,0,1.68,2.52,9.61,9.61,0,0,0,1.81-2.52Z" style="fill:#4d4d96"/><path d="M540.18,306c1.36,4.15,3.87,7.53,7.64,9.1a7.58,7.58,0,0,0-1.37,1.74c-3.73-1.74-6.15-5-7.71-9.2a13.79,13.79,0,0,1-7.7,9.2,6.49,6.49,0,0,0-1.42-1.56,12.42,12.42,0,0,0,7.49-9.28H530V304.1h7.43a50.08,50.08,0,0,0,.24-5.51h2a50.4,50.4,0,0,1-.28,5.51h8.05V306Z" style="fill:#4d4d96"/><path d="M549.56,314c4.33-3.84,6.57-6.69,6.57-9.11a2.4,2.4,0,0,0-2.5-2.69,4,4,0,0,0-2.89,1.64l-1.3-1.28a5.77,5.77,0,0,1,4.47-2.2,4.15,4.15,0,0,1,4.43,4.42c0,2.83-2.25,5.76-5.36,8.74.75-.08,1.67-.14,2.39-.14H559v1.95h-9.48Z" style="fill:#4d4d96"/><path d="M568.34,301.82c0,1.22-.08,2.46-.2,3.69H577s0,.6,0,.86c-.34,6.27-.68,8.66-1.46,9.52a2.47,2.47,0,0,1-1.88.82,25.24,25.24,0,0,1-3.47,0,4.33,4.33,0,0,0-.64-1.82c1.42.12,2.84.12,3.37.12a1.13,1.13,0,0,0,.94-.24c.58-.49.88-2.59,1.14-7.44h-7.08c-.58,3.83-2,7.4-5.85,9.6a5.57,5.57,0,0,0-1.34-1.5c5.33-2.87,5.55-8.62,5.71-13.59h-5V300h17.34v1.82Z" style="fill:#4d4d96"/><path d="M598.3,314.57c0,1.08-.24,1.64-1,2a10.93,10.93,0,0,1-3.66.34A6.16,6.16,0,0,0,593,315c1.28.06,2.56,0,2.94,0s.5-.12.5-.48V309H583.67v7.88h-1.85v-17H598.3Zm-14.63-7.4H589v-5.45h-5.35Zm12.76,0v-5.45h-5.57v5.45Z" style="fill:#4d4d96"/><path d="M206,433.52s0,.46,0,.66c-.1,5.61-.2,7.58-.63,8.18a1.27,1.27,0,0,1-1,.61,9.8,9.8,0,0,1-1.78,0,3.72,3.72,0,0,0-.41-1.42,12.6,12.6,0,0,0,1.43.07.53.53,0,0,0,.52-.24c.25-.36.36-1.95.44-6.45h-1.69a13.88,13.88,0,0,1-2.4,8.16,8.33,8.33,0,0,0-1.18-1c1.95-2.63,2.19-5.76,2.19-8.18v-2.44h-1.88v-1.49h2.81v-2.65h1.52v2.65h2.63v1.39a12.54,12.54,0,0,0,1.77-4.08l1.57.33a16.64,16.64,0,0,1-.6,1.85h5.61V431h-6.26a11.17,11.17,0,0,1-1.73,2.55,7.88,7.88,0,0,0-1.3-1,6.54,6.54,0,0,0,.86-1h-3.59v2Zm9.25,1.79a25.22,25.22,0,0,1-2.82,2.31,7.94,7.94,0,0,0,2.91,4.11,5.46,5.46,0,0,0-1.08,1.3c-2.26-1.65-3.42-4.73-4-8.52l-.93.37v8.2h-1.5v-7.65l-.69.21a5.33,5.33,0,0,0-1-1.34,20.28,20.28,0,0,0,7-2.94l1.17.86a17.74,17.74,0,0,1-2.84,1.69,22.46,22.46,0,0,0,.49,2.39,17.91,17.91,0,0,0,2.12-2Z" style="fill:#58aac8"/><path d="M222.5,431.6a24,24,0,0,1-1.87,2.62v8.91H219V436c-.56.56-1.14,1.09-1.69,1.54a8.56,8.56,0,0,0-1.1-1.35A18,18,0,0,0,221,431Zm-.65-3.59a22.59,22.59,0,0,1-4.52,4.32,7.81,7.81,0,0,0-.9-1.28,15.3,15.3,0,0,0,3.9-3.68Zm10.26,6.57h-2.46v6.58c0,.91-.21,1.37-.86,1.63a10.7,10.7,0,0,1-3.23.25,6.53,6.53,0,0,0-.51-1.59c1.09,0,2.24,0,2.55,0s.42-.09.42-.33v-6.56h-5.4v-1.53h9.49Zm-.48-4.67h-8.29v-1.53h8.29Z" style="fill:#58aac8"/><path d="M239.61,428a25.55,25.55,0,0,1-1.73,3.32v11.7h-1.64V433.7a17.16,17.16,0,0,1-2.06,2.24,9.35,9.35,0,0,0-.9-1.59,18.65,18.65,0,0,0,4.82-6.8Zm4.55,5.92c.54,4.19,1.57,7,3.19,7.2.43,0,.69-.92.84-2.86a4.82,4.82,0,0,0,1.32.88c-.39,3.09-1.18,3.93-2.09,3.88-2.85-.24-4.19-3.63-4.84-8.88l-3.74.48-.24-1.5,3.83-.48c-.14-1.56-.24-3.24-.31-5h1.61c.05,1.71.14,3.33.27,4.8l5-.63.21,1.49Zm3.5-2.74a16.4,16.4,0,0,0-2.56-2.82l1.18-.75a16.42,16.42,0,0,1,2.65,2.74Z" style="fill:#58aac8"/><path d="M259.33,441.2h6.47v1.38H251.38V441.2h6.28v-3.89H252.2v-1.37h5.46v-2H254.3V433a23,23,0,0,1-2.67,1.68,6.09,6.09,0,0,0-1-1.29,18.29,18.29,0,0,0,7-6.05h1.63a18.83,18.83,0,0,0,7.32,5.85,8.68,8.68,0,0,0-1,1.42,21.49,21.49,0,0,1-2.74-1.7v1h-3.47v2h5.58v1.37h-5.58Zm-4.58-3.63a11.42,11.42,0,0,1,1.59,2.94l-1.39.62a11,11,0,0,0-1.5-3.05Zm7.47-5.06a19.06,19.06,0,0,1-3.71-3.6,18.34,18.34,0,0,1-3.54,3.6Zm-1.76,8.09a19.37,19.37,0,0,0,1.73-3.05l1.52.57a32.39,32.39,0,0,1-2.07,3Z" style="fill:#58aac8"/><path d="M274.82,428.38c-.09.36-.18.79-.24,1.17s-.26,1.33-.41,2.1c.7,0,1.3-.08,1.69-.08,1.64,0,2.89.68,2.89,3a16.26,16.26,0,0,1-1,6.14,2.51,2.51,0,0,1-2.61,1.47,9.59,9.59,0,0,1-2-.25l-.29-1.78a9.27,9.27,0,0,0,2.08.36,1.35,1.35,0,0,0,1.39-.81,13.66,13.66,0,0,0,.75-4.94c0-1.46-.65-1.69-1.73-1.69-.34,0-.9,0-1.54.08a35.56,35.56,0,0,1-3.49,9.08l-1.76-.7a26.44,26.44,0,0,0,3.49-8.19l-1.83.2c-.44.06-1.21.16-1.69.24l-.16-1.84c.57,0,1.06,0,1.63,0s1.45-.09,2.41-.18a18.25,18.25,0,0,0,.39-3.62Zm5.83,1.7a29.89,29.89,0,0,1,3,6.16L282,437a20.56,20.56,0,0,0-3-6.28Z" style="fill:#58aac8"/><path d="M289.19,435.82a8.19,8.19,0,0,1,5.25-1.84c2.75,0,4.5,1.69,4.5,3.69,0,3.06-2.6,5.25-9.21,4.71l-.53-1.77c5.24.67,7.89-.73,7.89-3,0-1.25-1.16-2.12-2.79-2.12a6.35,6.35,0,0,0-5,2.12,3.7,3.7,0,0,0-.57.9l-1.57-.37a63.71,63.71,0,0,0,.85-7l1.82.24C289.61,432.51,289.32,434.78,289.19,435.82Zm.8-7.59a48.45,48.45,0,0,0,6.65,1.3l-.39,1.66c-1.66-.22-5.39-1-6.69-1.33Z" style="fill:#58aac8"/><path d="M307.46,428.93h3.74v2.79h-.92v1.06h-2.84v.92h2.64v1.12h-2.64v1H311V437h-8.75v-1.21H306v-1h-2.66V433.7H306v-.92h-2.8v-1.06h-.87v-2.79h3.64v-1.47h1.54Zm-4.19,8.91h7v5h-1.5v-.63H304.7v.82h-1.43Zm6.46-7.66h-6.05v1.44H306v-1h1.49v1h2.29Zm-5,8.86v2h4.08v-2Zm8.92-.41h-1.51V429.2h1.51Zm3.5-10.93V441c0,1-.19,1.44-.78,1.72a8.66,8.66,0,0,1-2.93.3,6.47,6.47,0,0,0-.55-1.66c1,0,2,0,2.36,0s.36-.08.36-.38V427.7Z" style="fill:#58aac8"/><path d="M327.22,435.55a5.27,5.27,0,0,1-.07.7c-.29,3.9-.58,5.53-1.18,6.14a2,2,0,0,1-1.51.62,19.26,19.26,0,0,1-2.66,0,3.87,3.87,0,0,0-.59-1.66c1.08.1,2.19.12,2.62.12a1.09,1.09,0,0,0,.77-.19c.38-.32.65-1.54.87-4.26h-4.05l-.17.82-1.59-.25c.36-1.49.77-3.84,1-5.65h4.86v-2.39h-5.38v-1.47h7v5.35h-5.05c-.1.7-.24,1.44-.36,2.12ZM333,427.6v15.48h-1.61V427.6Z" style="fill:#58aac8"/><path d="M201.09,356.23h3.75V359h-.93v1.06h-2.84V361h2.64v1.11h-2.64v1h3.6v1.21h-8.76v-1.21h3.67v-1h-2.66V361h2.66v-.93h-2.8V359h-.87v-2.79h3.64v-1.47h1.54Zm-4.19,8.91h7v5h-1.5v-.63h-4.07v.82H196.9Zm6.47-7.66h-6.06v1.44h2.27v-1h1.49v1h2.3Zm-5,8.86v2h4.07v-2Zm8.91-.41h-1.51v-9.42h1.51Zm3.5-10.93v13.33c0,1-.18,1.43-.78,1.71a8.63,8.63,0,0,1-2.93.3,6.63,6.63,0,0,0-.54-1.65c1,0,2,0,2.36,0s.36-.08.36-.37V355Z" style="fill:#58aac8"/><path d="M220.85,362.85a5.27,5.27,0,0,1-.07.7c-.29,3.9-.58,5.53-1.18,6.15a2,2,0,0,1-1.5.61,19.42,19.42,0,0,1-2.67,0,4,4,0,0,0-.58-1.66c1.07.1,2.19.12,2.61.12a1.07,1.07,0,0,0,.77-.19c.38-.32.65-1.54.88-4.26h-4.06l-.17.82-1.59-.25c.36-1.49.77-3.83,1-5.65h4.86v-2.39h-5.37v-1.47h6.94v5.35h-5c-.1.7-.24,1.44-.35,2.12Zm5.78-8v15.48H225V354.9Z" style="fill:#58aac8"/><path d="M236.73,359.47a23.51,23.51,0,0,1-1.42,5.14,21.31,21.31,0,0,1,1.83,2.86l-1.29,1.08a15.81,15.81,0,0,0-1.33-2.31,11.57,11.57,0,0,1-3.69,4,9.33,9.33,0,0,0-1.08-1.23,10,10,0,0,0,3.8-4.18c-.93-1.24-2-2.49-2.93-3.55l1.11-.91c.82.85,1.68,1.85,2.5,2.84a22.89,22.89,0,0,0,.94-4Zm8.84.7h-1.93v8.16c0,1-.22,1.43-.77,1.72a8,8,0,0,1-2.94.33,7,7,0,0,0-.52-1.69c1,0,2,0,2.24,0s.41-.08.41-.37v-8.16h-4.48v-1.29h-7.42v-1.47h3.11v-2.7h1.54v2.7h3.3v1.22h3.95v-3.94h1.58v3.94h1.93Zm-6.16,5.95a14.37,14.37,0,0,0-1.79-3.75l1.3-.61a13,13,0,0,1,1.86,3.68Z" style="fill:#58aac8"/><path d="M262.2,363.25a32.37,32.37,0,0,1-3.83,2.24,9,9,0,0,0,4.31,3.06,6.21,6.21,0,0,0-1,1.33c-3.28-1.3-5.32-4-6.43-7.66a14.32,14.32,0,0,1-1.61.87c3.46,2.31,3.61,5.77,1.9,6.86a2.93,2.93,0,0,1-1.81.5c-.38,0-.87,0-1.37,0a3.33,3.33,0,0,0-.43-1.42c.57.05,1.15.07,1.54.07a1.62,1.62,0,0,0,1.08-.27,1.73,1.73,0,0,0,.39-2.05,22.78,22.78,0,0,1-6.77,3.26,6.57,6.57,0,0,0-.92-1.18,20.41,20.41,0,0,0,7.15-3.18,6.25,6.25,0,0,0-.55-.67,19.2,19.2,0,0,1-5.44,2.28,7.58,7.58,0,0,0-.86-1.1A19.39,19.39,0,0,0,253,364.2a7.59,7.59,0,0,0-.75-.53,33.59,33.59,0,0,1-3.95,1.22,10.21,10.21,0,0,0-.82-1.15,28,28,0,0,0,5.4-1.57h-3.78v-2.76c-.26.18-.53.36-.82.54a4.61,4.61,0,0,0-1.08-1.12,13.31,13.31,0,0,0,4.72-4.21l1.64.35c-.18.27-.39.56-.61.84h3.4l.26-.07,1.08.7a15.67,15.67,0,0,1-1.22,1.67h4.42v4.06h-4.23a12.06,12.06,0,0,0,1,2.31,26.94,26.94,0,0,0,3.25-2.17ZM250.57,361H254v-1.68h-3.47Zm1.33-4a15.29,15.29,0,0,1-1.16,1.11h3.85a9.07,9.07,0,0,0,.85-1.11Zm7.39,2.29H255.6V361h3.69Z" style="fill:#58aac8"/><path d="M270.55,369.25a9.09,9.09,0,0,0,3.11-1.93l1.32.8a11.63,11.63,0,0,1-3.56,2.24,14.57,14.57,0,0,0-1-1h-3.71v.77h-1.35v-4.57c-.21.09-.41.19-.62.27a6,6,0,0,0-.82-1.14,10.51,10.51,0,0,0,3.4-2.07c-.48-.36-.95-.7-1.4-1a10,10,0,0,1-.94.8,8.53,8.53,0,0,0-1-.94,8.52,8.52,0,0,0,3.12-3.69l1.31.34a7.76,7.76,0,0,1-.46.91h1.94l.23-.07.91.41a9.94,9.94,0,0,1-1.67,3c.95.7,1.84,1.39,2.42,1.92l-.92,1.09-.24-.22Zm-4.87-10.5h-1.3v-2.59h2.82v-1.43h1.49v1.43h2.84v2.59h-1.36v-1.3h-4.49Zm4.44,6c-.49-.43-1.11-.91-1.76-1.41a11.45,11.45,0,0,1-1.76,1.41Zm-1,1.23h-2.49v2.07h2.49Zm-2-5.92c-.13.19-.27.36-.41.53l1.46,1a7.69,7.69,0,0,0,1-1.5Zm7.29-1.88c.1-.45.21-1,.29-1.42h-3.08v-1.37h7.91v1.37h-3.14c-.15.48-.32,1-.47,1.42h3.19v8.87h-6.91v-8.87Zm3.2,1.21h-4v1.39h4Zm0,2.52h-4v1.4h4Zm0,2.53h-4v1.42h4Zm-.39,2.92a21.69,21.69,0,0,1,2.84,2.17l-1.24.84a22.66,22.66,0,0,0-2.77-2.27Z" style="fill:#58aac8"/><path d="M288.72,368a10,10,0,0,0,1.51-.24,4.86,4.86,0,0,0,4.1-4.81,4.48,4.48,0,0,0-4.07-4.72,39,39,0,0,1-1,4.76c-1,3.46-2.43,5.39-4.12,5.39s-3.22-1.9-3.22-4.72a7.36,7.36,0,0,1,7.58-7,6.27,6.27,0,0,1,6.65,6.39c0,3.54-2.27,6-6.41,6.59Zm-1.2-5.37a23.89,23.89,0,0,0,.93-4.36,5.68,5.68,0,0,0-4.83,5.23c0,1.95.87,2.84,1.56,2.84S286.74,365.25,287.52,362.63Z" style="fill:#58aac8"/><path d="M305.83,355.85H298.7v-2.64h10.53v1.91c-3.68,4.49-4.17,7.72-4.43,13.92h-3.19C301.89,363.55,302.81,360,305.83,355.85Z" style="fill:#58aac8"/><path d="M311.17,361.07c0-5.48,2.14-8.16,5.37-8.16s5.35,2.7,5.35,8.16-2.14,8.27-5.35,8.27S311.17,366.52,311.17,361.07Zm7.75,0c0-4.43-1-5.72-2.38-5.72s-2.39,1.29-2.39,5.72,1,5.81,2.39,5.81S318.92,365.51,318.92,361.07Z" style="fill:#58aac8"/><path d="M323.37,360.13c0-2.53,1.27-4,3.08-4s3.1,1.45,3.1,4-1.28,4-3.1,4S323.37,362.68,323.37,360.13Zm4.4,0c0-1.86-.58-2.56-1.32-2.56s-1.3.7-1.3,2.56.57,2.62,1.3,2.62S327.77,362,327.77,360.13Zm6-4h1.49l-6.9,13.13h-1.47Zm-1.18,9.1c0-2.55,1.28-4,3.08-4s3.09,1.46,3.09,4-1.3,4-3.09,4S332.58,367.78,332.58,365.25Zm4.39,0c0-1.87-.58-2.59-1.31-2.59s-1.32.72-1.32,2.59.58,2.6,1.32,2.6S337,367.11,337,365.25Z" style="fill:#58aac8"/><path d="M242.13,269.57s0,.46,0,.67c-.1,5.61-.2,7.58-.63,8.18a1.3,1.3,0,0,1-1,.61,9.8,9.8,0,0,1-1.78,0,3.67,3.67,0,0,0-.41-1.42c.61.06,1.18.06,1.43.06a.51.51,0,0,0,.52-.24c.25-.36.36-2,.44-6.44H239a13.88,13.88,0,0,1-2.4,8.16,7.14,7.14,0,0,0-1.18-1c1.95-2.64,2.19-5.77,2.19-8.18v-2.44h-1.88v-1.49h2.81v-2.65H240v2.65h2.63v1.38a12.39,12.39,0,0,0,1.77-4.07l1.57.33a16.47,16.47,0,0,1-.6,1.84H251v1.47h-6.26a10.74,10.74,0,0,1-1.73,2.55,9.13,9.13,0,0,0-1.3-1,6.45,6.45,0,0,0,.86-1H239v2Zm9.25,1.8a26.37,26.37,0,0,1-2.82,2.31,7.91,7.91,0,0,0,2.91,4.1,5.93,5.93,0,0,0-1.08,1.3c-2.26-1.64-3.42-4.72-4-8.52-.31.14-.62.26-.93.38v8.19h-1.5v-7.64l-.69.2a5.5,5.5,0,0,0-1-1.33,20.3,20.3,0,0,0,7-2.94l1.17.85a17,17,0,0,1-2.84,1.7,22.46,22.46,0,0,0,.49,2.39,18.78,18.78,0,0,0,2.12-2Z" style="fill:#4d4d96"/><path d="M258.66,267.66a23,23,0,0,1-1.87,2.61v8.92H255.2V272a19.5,19.5,0,0,1-1.69,1.54,9,9,0,0,0-1.1-1.35,18,18,0,0,0,4.74-5.13Zm-.65-3.6a22.36,22.36,0,0,1-4.52,4.33,7.4,7.4,0,0,0-.9-1.28,15.47,15.47,0,0,0,3.9-3.68Zm10.26,6.57h-2.46v6.59c0,.9-.21,1.37-.86,1.62a10.61,10.61,0,0,1-3.23.26,6.53,6.53,0,0,0-.51-1.59c1.09,0,2.24,0,2.55,0s.42-.09.42-.33v-6.57h-5.4v-1.52h9.49Zm-.48-4.67H259.5v-1.52h8.29Z" style="fill:#4d4d96"/><path d="M275.77,264.1a25.55,25.55,0,0,1-1.73,3.32v11.7H272.4v-9.36a17.16,17.16,0,0,1-2.06,2.24,9.35,9.35,0,0,0-.9-1.59,18.69,18.69,0,0,0,4.82-6.81Zm4.55,5.92c.54,4.19,1.57,7,3.2,7.2.42,0,.68-.93.83-2.86a4.77,4.77,0,0,0,1.32.87c-.39,3.1-1.18,3.94-2.09,3.89-2.85-.24-4.19-3.63-4.84-8.88l-3.74.48-.24-1.51,3.83-.48c-.14-1.55-.24-3.23-.31-5h1.61c.05,1.72.14,3.34.27,4.81l5-.63.21,1.49Zm3.5-2.74a15.7,15.7,0,0,0-2.56-2.82l1.18-.76a16.81,16.81,0,0,1,2.65,2.74Z" style="fill:#4d4d96"/><path d="M295.49,277.25H302v1.39H287.54v-1.39h6.28v-3.88h-5.46V272h5.46v-2h-3.36v-.89a23,23,0,0,1-2.67,1.67,5.8,5.8,0,0,0-1-1.28,18.31,18.31,0,0,0,7-6.06h1.63a18.74,18.74,0,0,0,7.32,5.85,9.32,9.32,0,0,0-1,1.42A21.38,21.38,0,0,1,299,269v1h-3.47v2h5.58v1.37h-5.58Zm-4.58-3.62a11,11,0,0,1,1.59,2.94l-1.39.61a11,11,0,0,0-1.5-3Zm7.47-5.07a19,19,0,0,1-3.71-3.59,18.31,18.31,0,0,1-3.54,3.59Zm-1.76,8.09a18.83,18.83,0,0,0,1.73-3l1.52.56a31.1,31.1,0,0,1-2.07,3Z" style="fill:#4d4d96"/><path d="M311.49,276.76a11,11,0,0,0,1.5-.24,4.87,4.87,0,0,0,4.11-4.81A4.48,4.48,0,0,0,313,267a39.21,39.21,0,0,1-1,4.75c-1,3.46-2.43,5.39-4.12,5.39s-3.22-1.9-3.22-4.72a7.37,7.37,0,0,1,7.58-7,6.28,6.28,0,0,1,6.65,6.4c0,3.54-2.27,6-6.41,6.58Zm-1.2-5.37a23.35,23.35,0,0,0,.92-4.37,5.69,5.69,0,0,0-4.82,5.24c0,1.95.87,2.84,1.56,2.84S309.5,274,310.29,271.39Z" style="fill:#4d4d96"/><path d="M321,275.83l1.55-2.13a5.24,5.24,0,0,0,3.69,1.7,2.82,2.82,0,0,0,3-3.09,2.71,2.71,0,0,0-2.83-3,4,4,0,0,0-2.52.89l-1.52-1,.45-8.14h9v2.79h-6.1l-.31,3.56a4.26,4.26,0,0,1,2-.48c2.82,0,5.17,1.68,5.17,5.33a5.67,5.67,0,0,1-5.87,5.9A7.69,7.69,0,0,1,321,275.83Z" style="fill:#4d4d96"/><path d="M334.75,269.34c0-5.8,2.27-8.64,5.69-8.64s5.67,2.86,5.67,8.64-2.26,8.78-5.67,8.78S334.75,275.12,334.75,269.34Zm8.21,0c0-4.69-1.09-6-2.52-6s-2.53,1.36-2.53,6,1.08,6.17,2.53,6.17S343,274.06,343,269.34Z" style="fill:#4d4d96"/><path d="M347.65,268.89c0-2.53,1.27-4,3.08-4s3.1,1.46,3.1,4-1.28,4-3.1,4S347.65,271.44,347.65,268.89Zm4.4,0c0-1.87-.58-2.57-1.32-2.57s-1.3.7-1.3,2.57.57,2.61,1.3,2.61S352.05,270.75,352.05,268.89Zm6-4h1.49L352.63,278h-1.47Zm-1.18,9.1c0-2.55,1.28-4,3.08-4s3.09,1.45,3.09,4-1.3,4-3.09,4S356.86,276.53,356.86,274Zm4.39,0c0-1.86-.58-2.58-1.31-2.58s-1.32.72-1.32,2.58.58,2.6,1.32,2.6S361.25,275.87,361.25,274Z" style="fill:#4d4d96"/><path d="M353.79,367.14l1.48-2a5,5,0,0,0,3.53,1.63c1.6,0,2.7-.79,2.7-2.21s-.92-2.52-4.37-2.52v-2.27c2.91,0,3.85-1,3.85-2.42a1.9,1.9,0,0,0-2.12-2,4.54,4.54,0,0,0-3,1.42l-1.6-1.93a7,7,0,0,1,4.74-1.95c3.06,0,5.14,1.5,5.14,4.22a3.74,3.74,0,0,1-2.65,3.61v.11a4,4,0,0,1,3.16,3.89c0,2.91-2.54,4.6-5.56,4.6A6.76,6.76,0,0,1,353.79,367.14Z" style="fill:#d93b3f"/><path d="M366.78,361.07c0-5.48,2.13-8.16,5.36-8.16s5.35,2.7,5.35,8.16-2.14,8.27-5.35,8.27S366.78,366.52,366.78,361.07Zm7.74,0c0-4.43-1-5.72-2.38-5.72s-2.39,1.29-2.39,5.72,1,5.81,2.39,5.81S374.52,365.51,374.52,361.07Z" style="fill:#d93b3f"/><path d="M379,360.13c0-2.53,1.26-4,3.08-4s3.09,1.45,3.09,4-1.28,4-3.09,4S379,362.68,379,360.13Zm4.39,0c0-1.86-.58-2.56-1.31-2.56s-1.3.7-1.3,2.56.56,2.62,1.3,2.62S383.37,362,383.37,360.13Zm6-4h1.49L384,369.28h-1.47Zm-1.18,9.1c0-2.55,1.28-4,3.08-4s3.09,1.46,3.09,4-1.29,4-3.09,4S388.18,367.78,388.18,365.25Zm4.4,0c0-1.87-.59-2.59-1.32-2.59s-1.32.72-1.32,2.59.58,2.6,1.32,2.6S392.58,367.11,392.58,365.25Z" style="fill:#d93b3f"/><path d="M48.56,567.47c-.1,6.45-.2,8.82-.7,9.56a1.83,1.83,0,0,1-1.29.84,12.47,12.47,0,0,1-2.06.08,5.69,5.69,0,0,0-.58-2.12,13,13,0,0,0,1.46.08.56.56,0,0,0,.56-.29c.26-.42.38-2.12.46-6.91H45a15.71,15.71,0,0,1-2.78,9.36,9.35,9.35,0,0,0-1.75-1.46c2.19-2.89,2.47-6.28,2.47-8.94V564.6h-2v-2.2h3v-3h2.28v3h3v1.52A14,14,0,0,0,51,559.37l2.33.44c-.16.66-.36,1.32-.58,2h6.21v2.16H51.83a12.38,12.38,0,0,1-2,3,14.53,14.53,0,0,0-1.92-1.51,7.15,7.15,0,0,0,.74-.8H45v1.95h3.57Zm10.94,1.66a31.86,31.86,0,0,1-3.07,2.53A8.21,8.21,0,0,0,59.58,576,8.36,8.36,0,0,0,58,578c-2.63-1.92-3.85-5.39-4.57-9.68l-.7.3V578H50.44v-8.6l-.42.12a10.82,10.82,0,0,0-1.4-2,22.58,22.58,0,0,0,8.16-3.39l1.7,1.24a19.09,19.09,0,0,1-3.15,2c.12.78.28,1.56.46,2.3a18.6,18.6,0,0,0,2-2.06Z" style="fill:#d93b3f"/><path d="M68.08,564.56A26.32,26.32,0,0,1,66,567.61V578H63.57v-7.8c-.56.54-1.1,1-1.63,1.47a23.35,23.35,0,0,0-1.62-2.05,19.54,19.54,0,0,0,5.49-6Zm-.74-4.25a27,27,0,0,1-5.48,5.25,13.83,13.83,0,0,0-1.32-1.94,17.88,17.88,0,0,0,4.51-4.25Zm11.74,7.94H76.35v7c0,1.27-.24,1.93-1.12,2.29a11,11,0,0,1-3.89.4,9.65,9.65,0,0,0-.72-2.41c1.13.06,2.45.06,2.81,0s.5-.08.5-.38v-7H68V566h11Zm-.5-5.49h-9.7v-2.25h9.7Z" style="fill:#d93b3f"/><path d="M96,575.48c.59,0,.71-.38.79-2.74a6.6,6.6,0,0,0,2.16,1c-.24,3.15-.88,4-2.73,4h-2.3c-2.24,0-2.75-.74-2.75-3v-4.85H88.26c-.44,3.55-1.45,6.52-6.05,8.26a7.52,7.52,0,0,0-1.47-2.1c4-1.29,4.73-3.53,5-6.16H81.06v-2.3H88.7v-3.23H85.27a14.08,14.08,0,0,1-1.54,2.71,16.17,16.17,0,0,0-2.09-1,16.83,16.83,0,0,0,2.65-6.37l2.44.48c-.18.62-.38,1.26-.6,1.93H88.7v-2.69h2.42v2.69h6.1v2.28h-6.1v3.23h7.66v2.3H93.57v4.85c0,.66.1.76.72.76Z" style="fill:#d93b3f"/><path d="M103.27,562.52l8.54-.76c2-.16,4.2-.27,5.59-.33l0,2.55a20.4,20.4,0,0,0-3.81.26,6,6,0,0,0-4.17,5.53c0,3.25,3,4.43,6.39,4.59l-.92,2.73c-4.15-.26-8.07-2.49-8.07-6.78a7.83,7.83,0,0,1,2.92-6.09c-1.72.18-5.87.62-8.16,1.12l-.26-2.72C102.13,562.6,102.89,562.56,103.27,562.52Zm13,6.09-1.52.68a15.43,15.43,0,0,0-1.56-2.78l1.48-.61A25.06,25.06,0,0,1,116.25,568.61Zm2.31-1-1.5.72a17,17,0,0,0-1.63-2.69l1.45-.68A29.74,29.74,0,0,1,118.56,567.63Z" style="fill:#d93b3f"/><path d="M129.24,574.76c.76-.1,1.32-.2,1.84-.32a5.36,5.36,0,0,0,4.49-5.29c0-2.74-1.48-4.77-4.14-5.23a41.09,41.09,0,0,1-1.17,5.37c-1.18,4-2.9,6.43-5,6.43s-4-2.42-4-5.75c0-4.55,4-8.47,9.1-8.47,4.89,0,8,3.42,8,7.73,0,4.15-2.55,7.1-7.54,7.86Zm-1.54-6a31.66,31.66,0,0,0,1.06-4.79,6.2,6.2,0,0,0-5,5.73c0,2,.8,3,1.54,3S126.9,571.44,127.7,568.77Z" style="fill:#d93b3f"/><path d="M158.86,574.84v2.33H140.78v-2.33h7.7v-7h-6.41v-2.35h6.41v-6.13H151v6.13h6.5v2.35H151v7Z" style="fill:#d93b3f"/><path d="M178.76,565v2H164.29v1.2c0,2.8-.36,7-2.24,9.76a9.09,9.09,0,0,0-1.83-1.5c1.63-2.43,1.79-5.9,1.79-8.28V565h3.62a10.23,10.23,0,0,0-.76-2l.44-.12h-3.46v-2h6.75v-1.46H171v1.46h6.8v2h-2.47c-.46.76-.9,1.52-1.28,2.12Zm-6,10.69h5.93v2h-14v-2h5.73V573.9h-4.17v-1.8l-.14.14a9.87,9.87,0,0,0-1.88-1.13,9.3,9.3,0,0,0,2.51-3.9l2.1.48c-.12.36-.28.72-.44,1.08h2v-1.48h2.33v1.48h4.85v1.82h-4.85v1.49H177v1.82h-4.27Zm-2.33-3.57v-1.49h-3a12.59,12.59,0,0,1-1.13,1.49Zm-3.1-9.24a8.94,8.94,0,0,1,.74,2l-.6.16h4.69l-.36-.1a17,17,0,0,0,.72-2Z" style="fill:#d93b3f"/><path d="M188.2,570.27c-.72.2-1.42.44-2.15.66V578h-2.18v-6.45c-1.08.32-2.08.64-3,.88l-.58-2.25c1-.22,2.21-.54,3.57-.92v-3.81h-1.34a18.41,18.41,0,0,1-.74,2.55,16.09,16.09,0,0,0-1.67-1.1,24.83,24.83,0,0,0,1.14-6.42l2,.34c-.08.79-.18,1.57-.3,2.37h.94v-3.83h2.18v3.83h1.65v2.26h-1.65v3.21l1.83-.52Zm10.74-7.81s0,.8,0,1.08c-.38,8.9-.74,12.16-1.5,13.15a2.19,2.19,0,0,1-1.55,1,11.44,11.44,0,0,1-2.26.06,6.54,6.54,0,0,0-.66-2.31,16.22,16.22,0,0,0,1.78.08.84.84,0,0,0,.74-.38c.5-.64.85-3.36,1.17-10.52h-.1c-1,5-3,10.22-6.24,12.87a8.87,8.87,0,0,0-1.94-1.38c3.19-2.29,5.19-6.82,6.19-11.49h-.94c-.88,3.25-2.55,6.82-4.57,8.74a8.41,8.41,0,0,0-1.82-1.34c2-1.55,3.54-4.51,4.41-7.4h-1a14.82,14.82,0,0,1-2.06,3.57,13.57,13.57,0,0,0-1.8-1.34,16.47,16.47,0,0,0,3.28-7.52l2.15.4c-.2.92-.46,1.81-.74,2.69Z" style="fill:#d93b3f"/><path d="M218.78,561.68v2.26H204.31v2.77c0,3.22-.3,8.15-2.1,11.26a11,11,0,0,0-2.05-1.34c1.63-2.85,1.77-7,1.77-9.92v-5H209v-2.29h2.47v2.29Zm-6.49,4.43h6.23v2.1h-6.23v2.18h5.05V578h-2.43v-.72h-7.09V578h-2.31v-7.62h4.37v-6.15h2.41Zm2.62,6.37h-7.09v2.72h7.09Z" style="fill:#d93b3f"/><path d="M224.73,577.65a38.17,38.17,0,0,0-4.29-4.41l2.07-1.8a36.61,36.61,0,0,1,4.35,4.38Z" style="fill:#d93b3f"/><path d="M254.83,567c0,2,.8,6.47,4.19,8.93a21.53,21.53,0,0,0-1.46,2.09c-2.49-1.76-3.63-5.17-3.89-6.91A11.31,11.31,0,0,1,249.2,578a14,14,0,0,0-1.34-1.94l-1,.38a9.54,9.54,0,0,0-.28-1c-2,.63-4,1.29-5.62,1.79l-.74-2.17,1.39-.32v-9.42c-.13.1-.25.22-.39.32a7.71,7.71,0,0,0-1.36-1.64,12.27,12.27,0,0,0,3.85-4.67H246a32.27,32.27,0,0,1,3.43,3.55l-1.62,1.54a23.61,23.61,0,0,0-2.63-3.13,17.27,17.27,0,0,1-2.74,3.35h1.74v-1.54h2.12v1.54h2.27v1.69a16.74,16.74,0,0,0,2.36-7l2.31.32a29.14,29.14,0,0,1-.68,3.15h4.37l.36-.08,1.6.38a25.93,25.93,0,0,1-1.46,5.49l-1.87-.6a21.28,21.28,0,0,0,.75-3h-1.47Zm-7.59,4.55a30.42,30.42,0,0,1,1.6,3.74,11.43,11.43,0,0,0,3.67-8.29v-2h-.68a13,13,0,0,1-1.81,3.37,13.67,13.67,0,0,0-1.46-1v4.15h-4.79v2.74l2.18-.58c-.2-.5-.42-1-.62-1.42Zm-3.47-5.23v1h2.69v-1Zm0,2.54v1h2.69v-1Z" style="fill:#d93b3f"/><path d="M277.74,572.66a35.89,35.89,0,0,1-3.71,2.16,17.27,17.27,0,0,0,4.63,1.12,9,9,0,0,0-1.42,2.07c-4.35-.72-7.22-2.51-9-5.65H266v2.94l4.23-.36,0,2.09c-3,.3-6.09.58-8.39.78l-.31-2.17,2.07-.16v-9.62c-.7.39-1.44.75-2.16,1.07a9.43,9.43,0,0,0-1.37-1.95,20.69,20.69,0,0,0,8.08-5.67h2.38a20,20,0,0,0,8.52,5.45,11.54,11.54,0,0,0-1.5,2.11c-.7-.3-1.42-.66-2.13-1v5.84a6,6,0,0,0,.59-.44Zm-4-7.82a20.89,20.89,0,0,1-4.29-3.45,20.34,20.34,0,0,1-4.15,3.45h3V563.3h2.44v1.54ZM266,567.71H273v-1H266Zm0,2.8H273v-1.1H266Zm4.69,1.85a7.22,7.22,0,0,0,1.43,1.38c.74-.4,1.58-.88,2.34-1.38Z" style="fill:#d93b3f"/><path d="M298.62,561.68v2.26H284.15v2.77c0,3.22-.3,8.15-2.1,11.26a11,11,0,0,0-2.05-1.34c1.63-2.85,1.77-7,1.77-9.92v-5h7.11v-2.29h2.47v2.29Zm-6.49,4.43h6.23v2.1h-6.23v2.18h5.05V578h-2.43v-.72h-7.09V578h-2.31v-7.62h4.37v-6.15h2.41Zm2.62,6.37h-7.09v2.72h7.09Z" style="fill:#d93b3f"/><path d="M304.57,577.65a38.17,38.17,0,0,0-4.29-4.41l2.07-1.8a36.61,36.61,0,0,1,4.35,4.38Z" style="fill:#d93b3f"/><path d="M57.34,601.38c.28,0,.34-.28.4-2.34a5.85,5.85,0,0,0,1.82.84c-.18,2.74-.68,3.43-2,3.43H56.43c-1.62,0-2-.61-2-2.47v-3.21h-.88c-.3,2.63-1.12,4.75-3.87,6a5.71,5.71,0,0,0-.82-1.23H44.41v.81H42.33v-7.08c-.17.18-.35.36-.53.52a14,14,0,0,0-1.34-1.86,12.23,12.23,0,0,0,2.59-3.13H40.92v-1.86h1.2a10.52,10.52,0,0,0-1.44-1A9.75,9.75,0,0,0,42.77,585l2.1.5a11.79,11.79,0,0,1-.42,1.18h5.37v1.86H46.73c-.14.43-.3.87-.48,1.31H50v1.86H45.41c-.26.54-.54,1-.84,1.54H46a12,12,0,0,0,.5-1.5l2.13.36c-.22.4-.46.8-.68,1.14h1.94v1.55H47.7v1h1.88v1.48H47.7v.93h1.88v1.5H47.7v1h2.16v.46a5.11,5.11,0,0,0,1.74-3.53H50.5V585.77h7.92v11.86H56.53v3.17c0,.52,0,.58.27.58ZM44,589.82c.18-.42.36-.88.52-1.31h-1a10,10,0,0,1-.88,1.31Zm1.7,4.95h-1.3v1h1.3Zm0,2.46h-1.3v.93h1.3Zm-1.3,3.47h1.3v-1h-1.3Zm8.16-11.54h3.68v-1.31H52.57Zm0,3.2h3.68V591H52.57Zm0,3.19h3.68v-1.34H52.57Z" style="fill:#d93b3f"/><path d="M76.23,601.38c.63,0,.75-.44.83-3.15a7.56,7.56,0,0,0,2.18.95c-.24,3.5-.84,4.43-2.81,4.43H74.05c-2.26,0-2.81-.75-2.81-3v-6H68.4c-.34,4.19-1.26,7.39-6.48,9.14a6.66,6.66,0,0,0-1.44-2.07c4.57-1.36,5.11-3.81,5.39-7.07H61v-2.23h7.66V585h2.4v7.29h7.86v2.23H73.63v6c0,.7.1.82.76.82Zm-11.74-9.76a23.26,23.26,0,0,0-2.06-4.93l2.14-.82a21.07,21.07,0,0,1,2.24,4.83Zm13.31-5a45,45,0,0,1-2.75,4.91L73,590.72a24.72,24.72,0,0,0,2.32-5Z" style="fill:#d93b3f"/><path d="M96.33,601.64c.77,0,.93-.34,1-2.1a6.55,6.55,0,0,0,1.92.82c-.26,2.5-.86,3.25-2.8,3.25H93c-2.35,0-3-.63-3-2.91v-3.83l-.82.38-.82-1.94c-.08,4.89-.22,6.81-.68,7.45a1.81,1.81,0,0,1-1.27.81,10.45,10.45,0,0,1-2.06.1,5.59,5.59,0,0,0-.58-2.11,11.17,11.17,0,0,0,1.44.08.58.58,0,0,0,.58-.32c.26-.4.38-2.08.46-6.77H84.71c-.28,3.6-.92,6.83-2.58,9.1A6.8,6.8,0,0,0,80.44,602c2-2.74,2.15-7.13,2.21-11.74H80.74v-2.19h3.05v-3h2.28v3h3.11v1.49A14.29,14.29,0,0,0,91,585l2.33.44c-.16.7-.38,1.4-.6,2.08H99v2.15H91.79a12.18,12.18,0,0,1-1.13,1.94h1.45v1.91l1.08-.49V590.2h2v1.94l1.43-.66.08-.06.36-.26,1.48.52-.08.32c0,2.83,0,4.87-.08,5.47a1.39,1.39,0,0,1-.86,1.37,4.47,4.47,0,0,1-1.63.22,5.94,5.94,0,0,0-.44-1.73c.24,0,.52,0,.68,0s.26,0,.28-.3,0-1.28.06-3.18l-1.28.6V600h-2v-4.65l-1.08.5v4.81c0,.82.14.94,1.14.94ZM90,594.53v-2.07l-.18.2A13,13,0,0,0,88.06,591a7.46,7.46,0,0,0,.64-.72H84.89c0,.72,0,1.44-.06,2.14h3.59v.9l0,2Z" style="fill:#d93b3f"/><path d="M108.34,590.2h-7.8v-1.87h7.8Zm10,3.87a13.55,13.55,0,0,1-3.07,5.81,13.6,13.6,0,0,0,4.11,1.72,10.19,10.19,0,0,0-1.54,2,14,14,0,0,1-4.39-2.17,16.07,16.07,0,0,1-4.57,2.17,10,10,0,0,0-1.24-2v1h-4.17v.77h-2v-6.8h6.18v5a13,13,0,0,0,4-1.72,14.1,14.1,0,0,1-2.29-3.45l2-.66H108.6v-2.14h.68a11.1,11.1,0,0,0-1.66-1.43v.76h-6.14V591.1h6.14v1a4.49,4.49,0,0,0,1.94-4.09v-2.38h6.69v4.47c0,.56,0,.62.25.62h.5c.26,0,.34-.26.36-2a7.06,7.06,0,0,0,1.94.83c-.2,2.48-.72,3.18-2.06,3.18h-1.15c-1.6,0-2.06-.62-2.06-2.6v-2.41h-2.24V588c0,1.87-.39,4.15-2.47,5.56h7l.39-.1Zm-10.68,1.54h-6.14v-1.78h6.14Zm0-8.16h-6v-1.8h6Zm-2,11h-2.12v2.3h2.12Zm5.89-2.73a9.43,9.43,0,0,0,1.93,2.69,9.3,9.3,0,0,0,1.88-2.69Z" style="fill:#d93b3f"/><path d="M124.93,603.31a39,39,0,0,0-4.29-4.41l2.07-1.79a36.56,36.56,0,0,1,4.35,4.37Z" style="fill:#d93b3f"/><path d="M158.86,588.43a9.94,9.94,0,0,0-.78,1,20,20,0,0,1-4.81,5.47l-2.05-1.65a12,12,0,0,0,3.67-3.72h-10.4c-.84,0-1.5.06-2.44.14v-2.77a15.86,15.86,0,0,0,2.44.2h10.76a9.86,9.86,0,0,0,2-.18Zm-8.14,2.69c0,5-.1,9-5.55,11.93l-2.32-1.89a7.9,7.9,0,0,0,2.1-1.1c2.53-1.76,3-3.87,3-7.14a11.09,11.09,0,0,0-.14-1.8Z" style="fill:#d93b3f"/><path d="M177.7,589.52A8,8,0,0,0,177,591a20.78,20.78,0,0,1-3.47,6.67,18.8,18.8,0,0,1-8.06,5.62l-2.36-2.11a15.94,15.94,0,0,0,8-4.93,14.29,14.29,0,0,0,2.83-5.45h-5.61a22.71,22.71,0,0,1-5,4.83l-2.23-1.66a17.5,17.5,0,0,0,6.22-6.42,9.62,9.62,0,0,0,.9-2.1l2.92,1c-.48.7-1,1.6-1.22,2l-.06.11h4a6.83,6.83,0,0,0,1.74-.24Z" style="fill:#d93b3f"/><path d="M196.4,591.86a15.39,15.39,0,0,0,1.82-.12v2.59c-.5,0-1.26-.06-1.82-.06h-4.81a12.6,12.6,0,0,1-1.27,5.13,9.55,9.55,0,0,1-4,3.83L184,601.54a8.28,8.28,0,0,0,3.61-2.86,8.53,8.53,0,0,0,1.24-4.41h-5.49c-.58,0-1.36,0-1.91.08v-2.61c.59.06,1.29.12,1.91.12Zm-10.51-2.74c-.7,0-1.54,0-2.14.08v-2.57a14.9,14.9,0,0,0,2.12.14h8a15.67,15.67,0,0,0,2.16-.14v2.57c-.7,0-1.46-.08-2.16-.08Z" style="fill:#d93b3f"/><path d="M215.93,591.28a25,25,0,0,1-4.5,3.61v6.65a11,11,0,0,0,.14,2.15h-2.95a20.69,20.69,0,0,0,.1-2.15v-5.13a37.28,37.28,0,0,1-5.63,2.17l-1.34-2.31a26.63,26.63,0,0,0,7.05-2.7,19.62,19.62,0,0,0,5.13-4.15Z" style="fill:#d93b3f"/><path d="M225.61,598.78c0,.86.4,1.08,1.29,1.26a18.71,18.71,0,0,0,2.32.12,33.68,33.68,0,0,0,6.94-.7v2.92a56.51,56.51,0,0,1-7.1.42,21.71,21.71,0,0,1-3.35-.24c-1.74-.3-2.74-1.26-2.74-3V588.7a16.82,16.82,0,0,0-.16-2.07h3a15.24,15.24,0,0,0-.16,2.07v3.78a50.11,50.11,0,0,0,6.9-2.22,12.93,12.93,0,0,0,2.18-1.08l1.08,2.54c-.78.32-1.68.7-2.34.94a71.46,71.46,0,0,1-7.82,2.43Zm8.74-9.6a22,22,0,0,0-1.56-2.75l1.58-.66c.5.74,1.22,2,1.6,2.74Zm2.37-4.31a24.9,24.9,0,0,1,1.62,2.72l-1.58.68a21.14,21.14,0,0,0-1.61-2.76Z" style="fill:#d93b3f"/><path d="M256.28,591.86a15.39,15.39,0,0,0,1.82-.12v2.59c-.5,0-1.26-.06-1.82-.06h-4.81a12.6,12.6,0,0,1-1.27,5.13,9.55,9.55,0,0,1-4,3.83l-2.34-1.69a8.28,8.28,0,0,0,3.61-2.86,8.53,8.53,0,0,0,1.24-4.41h-5.49c-.58,0-1.36,0-1.91.08v-2.61c.59.06,1.29.12,1.91.12Zm-10.51-2.74c-.7,0-1.54,0-2.14.08v-2.57a14.9,14.9,0,0,0,2.12.14h8a15.67,15.67,0,0,0,2.16-.14v2.57c-.7,0-1.46-.08-2.16-.08Z" style="fill:#d93b3f"/><path d="M275.81,591.28a25,25,0,0,1-4.5,3.61v6.65a11,11,0,0,0,.14,2.15H268.5a20.69,20.69,0,0,0,.1-2.15v-5.13a37.28,37.28,0,0,1-5.63,2.17l-1.34-2.31a26.63,26.63,0,0,0,7.05-2.7,19.62,19.62,0,0,0,5.13-4.15Z" style="fill:#d93b3f"/><path d="M284.61,603.31a39,39,0,0,0-4.29-4.41l2.07-1.79a36.56,36.56,0,0,1,4.35,4.37Z" style="fill:#d93b3f"/><path d="M54.89,619.62a14.9,14.9,0,0,1-3.06,4.67,17.57,17.57,0,0,0,7.51,2.79,10.75,10.75,0,0,0-1.54,2.26A17.2,17.2,0,0,1,49.94,626a21.85,21.85,0,0,1-7.78,3.42,12.89,12.89,0,0,0-1.5-2.24,19.86,19.86,0,0,0,7.52-2.87,17.22,17.22,0,0,1-2.75-4.59L47.7,619a12,12,0,0,0,2.3,3.69,11.07,11.07,0,0,0,2.33-3.81Zm-6.49-3.2a22.33,22.33,0,0,1-5.51,4.89,19.27,19.27,0,0,0-2-1.83,15.4,15.4,0,0,0,5.05-4Zm5.37-1.12H41.18V613h7.54v-2.32h2.44V613H58.8v2.31H53.89a32.65,32.65,0,0,1,5.17,4.2l-2.12,1.63a30.48,30.48,0,0,0-5.07-4.45Z" style="fill:#d93b3f"/><path d="M65.47,624.81c.78,1.33,2.15,1.89,4.19,2,2.37.1,7.1,0,9.84-.18a9.83,9.83,0,0,0-.74,2.32c-2.45.12-6.69.16-9.12.06s-4-.68-5.17-2.22c-.92.78-1.86,1.56-3,2.4l-1.1-2.38A27.44,27.44,0,0,0,63.19,625v-4.35H60.66v-2.17h4.81Zm-1.18-8.93A16.66,16.66,0,0,0,61,612.63l1.63-1.52a17.13,17.13,0,0,1,3.48,3.08ZM69.4,626H67.16V615.68h4.48c-.9-.41-1.86-.81-2.68-1.13l1.54-1.28c.7.26,1.53.58,2.35.94a18.48,18.48,0,0,0,1.6-1.06H67.34v-1.8H76.5l.46-.12,1.42,1.14a22.67,22.67,0,0,1-3.55,2.7c.44.21.86.41,1.2.61h2.41v8.23c0,1-.18,1.45-.82,1.77a6,6,0,0,1-2.69.34,6.44,6.44,0,0,0-.58-1.85c.62,0,1.32,0,1.52,0s.3-.1.3-.3V623H73.81v2.91H71.7V623H69.4Zm0-8.56v1.08h2.3V617.4Zm2.3,3.85v-1.12H69.4v1.12Zm4.47-3.85H73.81v1.08h2.36Zm0,3.85v-1.12H73.81v1.12Z" style="fill:#d93b3f"/><path d="M98.12,623.35a11.68,11.68,0,0,1-2.25,3.09,1.67,1.67,0,0,0,1.33.92c.5,0,.68-.38.78-2a5.7,5.7,0,0,0,1.54,1.08c-.36,2.26-.92,2.86-2.48,2.86a3.3,3.3,0,0,1-2.73-1.6,14.61,14.61,0,0,1-3,1.58,8.79,8.79,0,0,0-1.24-1.52,12.34,12.34,0,0,0,3.33-1.8,18.29,18.29,0,0,1-.92-3.35H90.22c0,.26-.06.52-.1.76a16.49,16.49,0,0,1,2.37,1.83l-1.27,1.58a12.64,12.64,0,0,0-1.54-1.36A6.84,6.84,0,0,1,87,629.3a5.32,5.32,0,0,0-1.33-1.56c1.75-1.18,2.25-3.07,2.45-5.09H86.9v-.9l-.79,1.18c-.2-.6-.6-1.52-1-2.4v8.79H83V622a17,17,0,0,1-1.59,3.75,13.44,13.44,0,0,0-1-2A21,21,0,0,0,82.83,617h-2v-2.15H83v-4.12h2.12v4.12h1.77a5.08,5.08,0,0,0-.43-.38l.87-1.3.34.26a22.24,22.24,0,0,0,1-2.58l1.76.68c-.56,1-1.14,2.06-1.62,2.86.18.18.36.36.5.52.4-.68.74-1.34,1-1.94l1.34.66c0-.94,0-1.9,0-2.88h2.09c0,1.12,0,2.2,0,3.26l.58-.84.32.24a19.8,19.8,0,0,0,1-2.58l1.77.68c-.56,1-1.13,2.08-1.63,2.86l.52.52c.37-.66.73-1.34,1-1.92l1.62.8c-.8,1.26-1.76,2.71-2.63,3.89l1.19-.08c-.1-.28-.22-.56-.34-.82l1.34-.48a12.26,12.26,0,0,1,1,3l-1.42.6a7.76,7.76,0,0,0-.16-.78l-1.47.2a8.42,8.42,0,0,1,1.51,1.25l-.38.34h1.52v1.84H96.27Zm-6-2.54c0-.42-.1-.86-.16-1.29l-1.35.54c0-.18,0-.38-.08-.6l-3.66.42-.31-1.76.61,0c.38-.52.8-1.12,1.2-1.76a12.11,12.11,0,0,0-1.48-1.47V617H85.11v.86c.42.62,1.38,2.16,1.85,3Zm-1-4.27a11.88,11.88,0,0,1,.77,2.24c-.14-1.46-.24-3-.27-4.59-.8,1.23-1.74,2.63-2.6,3.75l1.08-.08a9.43,9.43,0,0,0-.32-.9Zm3.15,1.22c.32-.42.66-.92,1-1.44a12.77,12.77,0,0,0-1.6-1.61c0,1.07.08,2.09.16,3.09Zm1.6,3a11.17,11.17,0,0,0-1-.74l.9-.77c-.62.06-1.2.14-1.76.2l-.12-.56c.06.66.14,1.27.24,1.87Zm-1.38,1.84c.14.66.3,1.28.46,1.82a8.26,8.26,0,0,0,1.16-1.82Z" style="fill:#d93b3f"/><path d="M103.81,618.2v11.14H101.5V611.45h7.68v6.75Zm0-5.11v1h3.13v-1Zm3.13,3.49v-1h-3.13v1Zm11.38,10.24c0,1.1-.18,1.7-.82,2.08a5.48,5.48,0,0,1-2.75.44,7.3,7.3,0,0,0-.48-1.86,7,7,0,0,0-.62,1,6.72,6.72,0,0,1-3.77-2.52,7.65,7.65,0,0,1-4,2.5,7.57,7.57,0,0,0-1.38-1.54c2.24-.6,3.29-1.46,3.77-2.33h-3.41v-1.74h3.77v-1h-3.49v-1.66h1.55a7.43,7.43,0,0,0-.65-1.29l1.81-.5a6.64,6.64,0,0,1,1,1.79h2.08c.24-.59.52-1.31.68-1.81l2.17.56-.86,1.25h1.74v1.66h-3.87v1h4.07v1.74h-3.71a6,6,0,0,0,3.81,2.17,4,4,0,0,0-.38.42,10,10,0,0,0,1.12,0c.24,0,.32-.1.32-.34v-8.54H110.5v-6.81h7.82Zm-5.57-13.73v1H116v-1Zm3.24,3.53v-1.08h-3.24v1.08Z" style="fill:#d93b3f"/><path d="M131.3,616a29,29,0,0,1-3.44.68,36.19,36.19,0,0,1-4.23,8.46l-2.41-1.21a30.48,30.48,0,0,0,4-7c-.34,0-.68,0-1,0-.82,0-1.62,0-2.47-.06l-.18-2.31a24.86,24.86,0,0,0,2.63.14c.58,0,1.18,0,1.78-.06a16.86,16.86,0,0,0,.54-3.32l2.73.28c-.16.64-.4,1.64-.68,2.7a20.92,20.92,0,0,0,2.66-.62Zm2.59,1.78c-.06.84,0,1.66,0,2.53,0,.56.06,1.52.12,2.5a13.31,13.31,0,0,1,4.09,2.53l-1.32,2.12a17,17,0,0,0-2.67-2.1v.18c0,1.84-1,3.28-3.81,3.28-2.46,0-4.39-1.1-4.39-3.28,0-1.93,1.61-3.43,4.37-3.43.46,0,.92,0,1.33.08-.05-1.48-.16-3.21-.21-4.41Zm-2.18,6.55a6.85,6.85,0,0,0-1.59-.2c-1.14,0-1.88.48-1.88,1.17s.62,1.24,1.7,1.24c1.34,0,1.77-.78,1.77-1.83Zm5.57-5.49a26,26,0,0,0-4.75-2.82l1.28-2a35.49,35.49,0,0,1,4.87,2.67Z" style="fill:#d93b3f"/><path d="M155,616.56c-.6.36-1.22.7-2,1.06-1.22.64-3.07,1.48-4.89,2.65-1.63,1.08-2.73,2.22-2.73,3.6s1.36,2.17,4.11,2.17a33,33,0,0,0,6.45-.72l0,2.84a36.35,36.35,0,0,1-6.35.5c-3.93,0-6.91-1.1-6.91-4.51,0-2.18,1.38-3.8,3.28-5.19-.9-1.68-1.86-3.8-2.76-5.89l2.5-1a46.3,46.3,0,0,0,2.47,5.47c1.46-.86,2.86-1.56,3.77-2.1a12.23,12.23,0,0,0,1.82-1.17Zm.3-4.87a29.41,29.41,0,0,1,1.59,2.74l-1.61.68a23.94,23.94,0,0,0-1.56-2.78Zm2.37-.92a26.8,26.8,0,0,1,1.6,2.74l-1.58.68a22.33,22.33,0,0,0-1.61-2.76Z" style="fill:#d93b3f"/><path d="M163.15,613.85l8.54-.76c2-.16,4.2-.28,5.59-.34l0,2.55a20.4,20.4,0,0,0-3.81.26,6,6,0,0,0-4.17,5.53c0,3.26,3,4.43,6.39,4.59l-.92,2.74c-4.15-.26-8.07-2.5-8.07-6.79a7.85,7.85,0,0,1,2.92-6.09c-1.72.18-5.87.62-8.16,1.12l-.26-2.71C162,613.93,162.77,613.89,163.15,613.85Zm13,6.09-1.51.67a15.69,15.69,0,0,0-1.56-2.77l1.48-.62A24.47,24.47,0,0,1,176.12,619.94Zm2.32-1-1.5.72a17.57,17.57,0,0,0-1.63-2.7l1.45-.68A29.92,29.92,0,0,1,178.44,619Z" style="fill:#d93b3f"/><path d="M193.61,622a9.35,9.35,0,0,1-1.1,3.47,20,20,0,0,0,6.83,1.68,9.82,9.82,0,0,0-1.42,2.12,18.25,18.25,0,0,1-6.82-2.1,10.26,10.26,0,0,1-4.1,2.14,13,13,0,0,0-1.47-2,9.24,9.24,0,0,0,3.63-1.54,11.47,11.47,0,0,1-2.46-3l1.94-.6a8.25,8.25,0,0,0,1.86,2.06,6.5,6.5,0,0,0,.74-2.28h-4.46V616.2h4.59v-1.39h-5V613c-.36.76-.76,1.54-1.2,2.3v14.11h-2.26V618.66a22.07,22.07,0,0,1-1.63,1.87A15.65,15.65,0,0,0,180,618.1a21.31,21.31,0,0,0,4.83-7.45l2.19.72c-.18.42-.36.84-.54,1.28h4.87v-1.82h2.36v1.82H199v2.16h-5.29v1.39h4.75V622Zm-2.24-1.92v-2h-2.45v2Zm2.36-2v2h2.47v-2Z" style="fill:#d93b3f"/><path d="M217.62,626.52c0,1.28-.28,1.92-1.08,2.28a9.21,9.21,0,0,1-3.83.42,9,9,0,0,0-.76-2.28c1.12.06,2.44,0,2.8,0s.52-.12.52-.48v-3h-4.21v5.57h-2.4v-5.57h-4.07a11.46,11.46,0,0,1-2.52,5.93,8.73,8.73,0,0,0-1.87-1.54c2.17-2.4,2.35-5.95,2.35-8.74V612h15.07Zm-9-5.25v-2.45h-3.75v.36c0,.64,0,1.35-.06,2.09Zm-3.75-7v2.31h3.75v-2.31Zm10.36,0h-4.21v2.31h4.21Zm0,7v-2.45h-4.21v2.45Z" style="fill:#d93b3f"/><path d="M223,613.85l8.54-.76c2-.16,4.2-.28,5.59-.34l0,2.55a20.35,20.35,0,0,0-3.81.26,6,6,0,0,0-4.17,5.53c0,3.26,3,4.43,6.39,4.59l-.92,2.74c-4.15-.26-8.07-2.5-8.07-6.79a7.85,7.85,0,0,1,2.92-6.09c-1.72.18-5.87.62-8.16,1.12L221.1,614C221.89,613.93,222.65,613.89,223,613.85Zm13,6.09-1.51.67a15.69,15.69,0,0,0-1.56-2.77l1.48-.62A24.47,24.47,0,0,1,236,619.94Zm2.32-1-1.5.72a17.57,17.57,0,0,0-1.63-2.7l1.45-.68A29.92,29.92,0,0,1,238.32,619Z" style="fill:#d93b3f"/><path d="M256.94,618.5a22.87,22.87,0,0,1-3.05.8c.5,1.05,1.06,2.21,1.64,3.29l-1.18,1.5c-1.1-.2-3-.5-4.31-.66l.22-1.9c.78.1,1.55.16,2.09.22l-.9-2a50.5,50.5,0,0,1-8.68.12l-.1-2.28a40.1,40.1,0,0,0,7.89,0l-.34-.78-.48-1.12a39.16,39.16,0,0,1-6.81-.08l-.12-2.25a37.17,37.17,0,0,0,6,.22v0a17.81,17.81,0,0,0-1-1.7l2.82-.54a18.88,18.88,0,0,0,.61,2,24,24,0,0,0,3.8-.92l.42,2.22a28.68,28.68,0,0,1-3.4.79l.38.86.46,1a20.77,20.77,0,0,0,3.53-1Zm-11.07,3.71a5.87,5.87,0,0,0-.48,1.92c0,1.23.88,2.07,3.45,2.07a28.7,28.7,0,0,0,5.23-.44L254,628.3a34.92,34.92,0,0,1-5.09.38c-3.69,0-6-1.26-6-4a10.28,10.28,0,0,1,.48-2.7Z" style="fill:#d93b3f"/><path d="M275,613.91q-.72.45-1.38.9c-1.06.73-3.13,2.49-4.37,3.49a6.66,6.66,0,0,1,1.86-.22c3.35,0,5.9,2.09,5.9,5,0,3.11-2.37,5.59-7.14,5.59-2.76,0-4.83-1.26-4.83-3.24a3.32,3.32,0,0,1,3.55-3.07,4,4,0,0,1,4.21,3.37,2.87,2.87,0,0,0,1.62-2.69c0-1.78-1.8-3-4.09-3-3,0-5,1.62-7.13,4l-1.79-1.86c1.39-1.14,3.77-3.15,4.94-4.11s3.16-2.58,4.14-3.43c-1,0-3.74.14-4.77.22a13.07,13.07,0,0,0-1.62.16l-.08-2.58c.56.06,1.24.1,1.8.1,1,0,5.27-.1,6.38-.2a9.55,9.55,0,0,0,1.52-.2Zm-4.47,12.43c-.12-1.28-.86-2.11-1.94-2.11-.74,0-1.22.44-1.22.93,0,.74.84,1.24,2,1.24A10.44,10.44,0,0,0,270.52,626.34Z" style="fill:#d93b3f"/><polygon points="341.99 571.15 341.99 619.62 406.14 619.62 406.14 602.51 391.89 602.51 399.01 595.38 391.89 588.25 406.14 588.25 406.14 571.15 341.99 571.15" style="fill:#d93b3f"/><polygon points="341.99 374.75 341.99 423.22 406.14 423.22 406.14 406.12 391.89 406.12 399.01 398.99 391.89 391.86 406.14 391.86 406.14 374.75 341.99 374.75" style="fill:#d93b3f"/><line x1="192.29" y1="425.52" x2="192.29" y2="427.02" style="fill:none;stroke:#c8c8c8;stroke-miterlimit:10"/><line x1="192.29" y1="430.04" x2="192.29" y2="476.89" style="fill:none;stroke:#c8c8c8;stroke-miterlimit:10;stroke-dasharray:3.022390842437744,3.022390842437744"/><line x1="192.29" y1="478.4" x2="192.29" y2="479.9" style="fill:none;stroke:#c8c8c8;stroke-miterlimit:10"/><line x1="135.26" y1="216.49" x2="206.54" y2="216.49" style="fill:none;stroke:#231815;stroke-miterlimit:10;stroke-width:0.5px"/><line x1="155.93" y1="307.74" x2="206.54" y2="307.74" style="fill:none;stroke:#231815;stroke-miterlimit:10;stroke-width:0.5px"/><line x1="199.06" y1="504.14" x2="356.96" y2="504.14" style="fill:none;stroke:#231815;stroke-miterlimit:10;stroke-width:0.5px"/><line x1="303.49" y1="595.38" x2="356.96" y2="595.38" style="fill:none;stroke:#231815;stroke-miterlimit:10;stroke-width:0.5px"/></g></g></svg>