<svg xmlns="http://www.w3.org/2000/svg" viewBox="0 0 455 310"><g style="isolation:isolate"><g id="レイヤー_2" data-name="レイヤー 2"><g id="テキスト"><g style="mix-blend-mode:multiply"><rect width="455" height="310" rx="15" style="fill:#ffe1eb"/></g><rect x="14.5" y="16" width="426" height="87" rx="10" style="fill:#fffdf6"/><path d="M194,27.69a38,38,0,0,1-1.56,3.8V45.67h-2.26V35.43a20.52,20.52,0,0,1-1.34,1.72,16.8,16.8,0,0,0-1.12-2.58A21.15,21.15,0,0,0,191.84,27Zm12.22.29V45.45H204v-1h-7.52v1.16h-2.16V28ZM204,42.41V30.05h-7.52V42.41Zm-2.88-8.18V36H203v5.36H197.5V36h1.78V34.23H197V32.51h2.3v-2h1.84v2h2.42v1.72Zm.14,3.36h-2v2.1h2Z" style="fill:#ff4f8b"/><path d="M218.56,27.43c0,.32,0,.72-.06,1.14.16,2.76,1.16,11.38,8.62,14.88a7.82,7.82,0,0,0-1.84,2c-4.52-2.24-6.76-6.36-7.88-10a17.08,17.08,0,0,1-7.4,10,8.33,8.33,0,0,0-2-1.9c8-4.42,7.7-13.5,7.84-16.14Z" style="fill:#ff4f8b"/><path d="M236.08,35.09c-.1,6.46-.2,8.84-.7,9.58a1.83,1.83,0,0,1-1.3.84,12.47,12.47,0,0,1-2.06.08,5.69,5.69,0,0,0-.58-2.12c.62.06,1.14.08,1.46.08a.57.57,0,0,0,.56-.3c.26-.42.38-2.12.46-6.92h-1.44a15.76,15.76,0,0,1-2.78,9.38,9.76,9.76,0,0,0-1.76-1.46c2.2-2.9,2.48-6.3,2.48-9V32.21h-2V30h3V27h2.28v3h3v1.52A14.06,14.06,0,0,0,238.5,27l2.34.43c-.16.67-.36,1.33-.58,2h6.22v2.16h-7.12a12.76,12.76,0,0,1-2.06,3A14.59,14.59,0,0,0,235.38,33a7.15,7.15,0,0,0,.74-.8H232.5v2h3.58Zm11,1.66A32.35,32.35,0,0,1,244,39.29a8.35,8.35,0,0,0,3.16,4.3,8.36,8.36,0,0,0-1.62,2c-2.64-1.92-3.86-5.4-4.58-9.7l-.7.3v9.44H238V37l-.42.12a10.82,10.82,0,0,0-1.4-2,22.77,22.77,0,0,0,8.18-3.4L246,33a18.79,18.79,0,0,1-3.16,2c.12.78.28,1.56.46,2.3a17.9,17.9,0,0,0,2-2.06Z" style="fill:#ff4f8b"/><path d="M255.64,32.17a26.53,26.53,0,0,1-2.14,3.06V45.67h-2.38V37.85c-.56.54-1.1,1-1.64,1.48a23.43,23.43,0,0,0-1.62-2.06,19.49,19.49,0,0,0,5.5-6Zm-.74-4.27a26.64,26.64,0,0,1-5.5,5.27,13.83,13.83,0,0,0-1.32-1.94A17.79,17.79,0,0,0,252.6,27Zm11.76,8h-2.74v7c0,1.28-.24,1.94-1.12,2.3a11,11,0,0,1-3.9.4,9.85,9.85,0,0,0-.72-2.42c1.14.06,2.46.06,2.82,0s.5-.08.5-.38v-7h-5.9V33.61h11.06Zm-.5-5.5h-9.72V28.11h9.72Z" style="fill:#ff4f8b"/><path d="M194,27.69a38,38,0,0,1-1.56,3.8V45.67h-2.26V35.43a20.52,20.52,0,0,1-1.34,1.72,16.8,16.8,0,0,0-1.12-2.58A21.15,21.15,0,0,0,191.84,27Zm12.22.29V45.45H204v-1h-7.52v1.16h-2.16V28ZM204,42.41V30.05h-7.52V42.41Zm-2.88-8.18V36H203v5.36H197.5V36h1.78V34.23H197V32.51h2.3v-2h1.84v2h2.42v1.72Zm.14,3.36h-2v2.1h2Z" style="fill:#ff4f8b"/><path d="M218.56,27.43c0,.32,0,.72-.06,1.14.16,2.76,1.16,11.38,8.62,14.88a7.82,7.82,0,0,0-1.84,2c-4.52-2.24-6.76-6.36-7.88-10a17.08,17.08,0,0,1-7.4,10,8.33,8.33,0,0,0-2-1.9c8-4.42,7.7-13.5,7.84-16.14Z" style="fill:#ff4f8b"/><path d="M236.08,35.09c-.1,6.46-.2,8.84-.7,9.58a1.83,1.83,0,0,1-1.3.84,12.47,12.47,0,0,1-2.06.08,5.69,5.69,0,0,0-.58-2.12c.62.06,1.14.08,1.46.08a.57.57,0,0,0,.56-.3c.26-.42.38-2.12.46-6.92h-1.44a15.76,15.76,0,0,1-2.78,9.38,9.76,9.76,0,0,0-1.76-1.46c2.2-2.9,2.48-6.3,2.48-9V32.21h-2V30h3V27h2.28v3h3v1.52A14.06,14.06,0,0,0,238.5,27l2.34.43c-.16.67-.36,1.33-.58,2h6.22v2.16h-7.12a12.76,12.76,0,0,1-2.06,3A14.59,14.59,0,0,0,235.38,33a7.15,7.15,0,0,0,.74-.8H232.5v2h3.58Zm11,1.66A32.35,32.35,0,0,1,244,39.29a8.35,8.35,0,0,0,3.16,4.3,8.36,8.36,0,0,0-1.62,2c-2.64-1.92-3.86-5.4-4.58-9.7l-.7.3v9.44H238V37l-.42.12a10.82,10.82,0,0,0-1.4-2,22.77,22.77,0,0,0,8.18-3.4L246,33a18.79,18.79,0,0,1-3.16,2c.12.78.28,1.56.46,2.3a17.9,17.9,0,0,0,2-2.06Z" style="fill:#ff4f8b"/><path d="M255.64,32.17a26.53,26.53,0,0,1-2.14,3.06V45.67h-2.38V37.85c-.56.54-1.1,1-1.64,1.48a23.43,23.43,0,0,0-1.62-2.06,19.49,19.49,0,0,0,5.5-6Zm-.74-4.27a26.64,26.64,0,0,1-5.5,5.27,13.83,13.83,0,0,0-1.32-1.94A17.79,17.79,0,0,0,252.6,27Zm11.76,8h-2.74v7c0,1.28-.24,1.94-1.12,2.3a11,11,0,0,1-3.9.4,9.85,9.85,0,0,0-.72-2.42c1.14.06,2.46.06,2.82,0s.5-.08.5-.38v-7h-5.9V33.61h11.06Zm-.5-5.5h-9.72V28.11h9.72Z" style="fill:#ff4f8b"/><path d="M93.38,62.52c-.11,4.69-.19,6.28-.56,6.75a1,1,0,0,1-.8.44,10.18,10.18,0,0,1-1.49,0,2.42,2.42,0,0,0-.27-.94c.57.06,1.09.07,1.3.07a.47.47,0,0,0,.44-.19c.22-.34.32-1.71.42-5.66H90.71a11.82,11.82,0,0,1-2,6.83A5,5,0,0,0,88,69.2a11.61,11.61,0,0,0,1.85-7.06V60.22H88.19v-.95h2.43V57h1v2.24h2.24v.95H90.72v1.84h2.66Zm2.05-2.7A9.77,9.77,0,0,1,94,61.92a5.8,5.8,0,0,0-.85-.66A9.73,9.73,0,0,0,95.43,57l1,.21c-.16.56-.35,1.12-.56,1.65h4.82v1ZM101,63.28a24.44,24.44,0,0,1-2.47,2,7,7,0,0,0,2.54,3.64,3.27,3.27,0,0,0-.72.84c-1.9-1.36-2.89-4-3.41-7.19-.31.14-.63.27-.94.38v6.85H95v-6.5c-.26.09-.51.15-.75.23a3.22,3.22,0,0,0-.63-.86,17.36,17.36,0,0,0,5.85-2.44l.75.55a13.22,13.22,0,0,1-2.44,1.41,18.5,18.5,0,0,0,.49,2.22,18.72,18.72,0,0,0,2-1.77Z" style="fill:#040000"/><path d="M106.79,60.35a16.4,16.4,0,0,1-1.54,2.11v7.37h-1V63.61a16.12,16.12,0,0,1-1.59,1.46,9.2,9.2,0,0,0-.72-.87A15.34,15.34,0,0,0,105.83,60Zm-.54-3a16.92,16.92,0,0,1-3.59,3.48,8.44,8.44,0,0,0-.61-.83,13.71,13.71,0,0,0,3.2-3Zm8.58,5.29h-2.11v5.78c0,.64-.15,1-.62,1.13a10.15,10.15,0,0,1-2.63.16,3.44,3.44,0,0,0-.34-1c1,0,1.92,0,2.19,0s.35-.07.35-.3V62.68H107v-1h7.84Zm-.4-3.84h-6.84v-1h6.84Z" style="fill:#040000"/><path d="M122.92,57A15.14,15.14,0,0,0,129,61.82a5.55,5.55,0,0,0-.67.92A17.07,17.07,0,0,1,122.45,58a16,16,0,0,1-5.79,4.78,3.29,3.29,0,0,0-.6-.83,14.61,14.61,0,0,0,5.8-4.94Zm-6.13,7H128.3v1h-6.57c-.49,1-1.09,2.24-1.65,3.22l5.67-.21a19.5,19.5,0,0,0-1.85-1.89l.89-.48a18.79,18.79,0,0,1,3.29,3.66l-.94.57a10.57,10.57,0,0,0-.64-.94c-3.44.17-7.06.33-9.46.41l-.14-1,2.06-.06A26.7,26.7,0,0,0,120.47,65h-3.68Zm9-2.66v1h-6.63v-1Z" style="fill:#040000"/><path d="M135.31,65.77c-.36-.41-1.13-1.19-1.76-1.78v5.8h-1V64.37a13.91,13.91,0,0,1-2.15,1.74,4.72,4.72,0,0,0-.54-.94,12.21,12.21,0,0,0,4.38-4.6h-3.89v-1h2.2V57h1v2.6h1.22l.18,0,.59.39A12.92,12.92,0,0,1,133.73,63c.64.52,1.88,1.6,2.23,1.91ZM143,68.38v1h-7.84v-1h3.54V62.56h-3v-1h3V57.11h1v4.44h3v1h-3v5.82Z" style="fill:#040000"/><path d="M153.24,63.4A9.27,9.27,0,0,1,156,56.74l.84.43a8.78,8.78,0,0,0,0,12.47l-.84.43A9.31,9.31,0,0,1,153.24,63.4Z" style="fill:#040000"/><path d="M163.38,62.52c-.11,4.69-.19,6.28-.56,6.75a1,1,0,0,1-.8.44,10.18,10.18,0,0,1-1.49,0,2.42,2.42,0,0,0-.27-.94c.57.06,1.09.07,1.3.07a.47.47,0,0,0,.44-.19c.22-.34.32-1.71.42-5.66h-1.71a11.82,11.82,0,0,1-2,6.83,5,5,0,0,0-.77-.63,11.61,11.61,0,0,0,1.85-7.06V60.22h-1.61v-.95h2.43V57h1v2.24h2.24v.95h-3.14v1.84h2.66Zm2.05-2.7a9.77,9.77,0,0,1-1.42,2.1,5.8,5.8,0,0,0-.85-.66A9.73,9.73,0,0,0,165.43,57l1,.21c-.16.56-.35,1.12-.56,1.65h4.82v1ZM171,63.28a24.44,24.44,0,0,1-2.47,2,7,7,0,0,0,2.54,3.64,3.27,3.27,0,0,0-.72.84c-1.9-1.36-2.89-4-3.41-7.19-.31.14-.63.27-.94.38v6.85h-1v-6.5c-.26.09-.51.15-.75.23a3.22,3.22,0,0,0-.63-.86,17.36,17.36,0,0,0,5.85-2.44l.75.55a13.22,13.22,0,0,1-2.44,1.41,18.5,18.5,0,0,0,.49,2.22,18.72,18.72,0,0,0,2-1.77Z" style="fill:#040000"/><path d="M176.79,60.35a16.4,16.4,0,0,1-1.54,2.11v7.37h-1V63.61a16.12,16.12,0,0,1-1.59,1.46,9.2,9.2,0,0,0-.72-.87A15.34,15.34,0,0,0,175.83,60Zm-.54-3a16.92,16.92,0,0,1-3.59,3.48,8.44,8.44,0,0,0-.61-.83,13.71,13.71,0,0,0,3.2-3Zm8.58,5.29h-2.11v5.78c0,.64-.15,1-.62,1.13a10.15,10.15,0,0,1-2.63.16,3.44,3.44,0,0,0-.34-1c1,0,1.92,0,2.19,0s.35-.07.35-.3V62.68H177v-1h7.84Zm-.4-3.84h-6.84v-1h6.84Z" style="fill:#040000"/><path d="M190.88,57.48a19.67,19.67,0,0,1-1.5,2.83v9.47h-1v-8a15.73,15.73,0,0,1-1.88,2.06,6.55,6.55,0,0,0-.6-1,15.68,15.68,0,0,0,4.05-5.69Zm3.7,4.73c.47,3.71,1.38,6.22,2.88,6.36.41,0,.63-.8.77-2.41a4.19,4.19,0,0,0,.87.55c-.31,2.39-.87,3.12-1.6,3.08-2.29-.17-3.41-3.07-3.95-7.44l-3.36.42-.14-1,3.39-.42c-.11-1.3-.21-2.69-.26-4.14h1c0,1.41.13,2.77.27,4l4.19-.53.14,1Zm3.15-2.1a15.1,15.1,0,0,0-2.26-2.3l.76-.5a15,15,0,0,1,2.31,2.24Z" style="fill:#040000"/><path d="M204.63,66.9c-1.5.51-3.1,1.06-4.35,1.46l-.23-1c.51-.15,1.16-.35,1.87-.59V63h-1.59V62h1.59v-3h-1.73V58h4.34v1h-1.61v3h1.41v1h-1.41v3.46l1.52-.5ZM213,68.39v1h-9v-1h4.26V66.47h-3.18v-1h3.18V63.88h-3V57.65h7.12v6.23h-3.05v1.64h3.26v1h-3.26v1.92Zm-6.82-8.07h2.13V58.56h-2.13Zm0,2.65h2.13V61.18h-2.13Zm5.17-4.41h-2.15v1.76h2.15Zm0,2.62h-2.15V63h2.15Z" style="fill:#040000"/><path d="M226.79,58.81v1H216.26v2.62c0,2.13-.2,5.27-1.39,7.38a3.84,3.84,0,0,0-.88-.58c1.13-2,1.25-4.81,1.25-6.8V58.81h5.14V57h1.06v1.79Zm-4.89,2.95h4.7v.94h-4.7v2h3.76v5.07h-1v-.52h-6.05v.54h-1V64.71h3.32V60.1h1.05Zm2.71,3.87h-6.05v2.69h6.05Z" style="fill:#040000"/><path d="M231.77,63.4A9.28,9.28,0,0,1,229,70.07l-.84-.43a8.75,8.75,0,0,0,0-12.47l.84-.43A9.24,9.24,0,0,1,231.77,63.4Z" style="fill:#040000"/><path d="M248.5,61.92A1.49,1.49,0,1,1,247,63.4,1.48,1.48,0,0,1,248.5,61.92Z" style="fill:#040000"/><path d="M268.81,62.52a19.85,19.85,0,0,1-2.51,3.4l-.84-.53a15.66,15.66,0,0,0,1.64-2.18h-4v5.28c0,.64-.17.94-.66,1.09a10.25,10.25,0,0,1-2.52.17,5.68,5.68,0,0,0-.39-1c1,0,1.9,0,2.18,0s.34-.07.34-.28V63.21H256.3v-1h7.25c-1.19-.6-2.78-1.33-4-1.86l.53-.77c.77.31,1.68.69,2.54,1.06a16.57,16.57,0,0,0,2.66-1.91h-7.63v-1h8.64l.24-.06.75.58a21.48,21.48,0,0,1-3.64,2.84c.57.25,1.12.52,1.51.73l-.23.36h2.88l.21-.08Z" style="fill:#040000"/><path d="M271.71,65.11a12.23,12.23,0,0,1-1,3.56,3.57,3.57,0,0,0-.81-.39,10.29,10.29,0,0,0,.91-3.34Zm2.57-3.63a11.52,11.52,0,0,1,1.38,2.85l-.82.39a5,5,0,0,0-.27-.8l-1.2.07v5.83h-1V64.05l-2.28.11-.08-.94.92,0a14.84,14.84,0,0,0,.94-1.24,12.2,12.2,0,0,0-1.84-2l.54-.67.42.36a18.57,18.57,0,0,0,1.24-2.6l.93.35a26.3,26.3,0,0,1-1.6,2.81,10,10,0,0,1,.86,1c.57-.88,1.1-1.79,1.49-2.55l.9.39a44.47,44.47,0,0,1-2.9,4.18l2.24-.1c-.21-.44-.45-.87-.68-1.25Zm.36,3.41a12.05,12.05,0,0,1,.94,2.69l-.83.28a14.06,14.06,0,0,0-.89-2.72Zm8-4.83c-.25,6.27-.45,8.44-1,9.13a1.47,1.47,0,0,1-1.16.56,16.15,16.15,0,0,1-2.16,0,2.37,2.37,0,0,0-.34-1c.94.08,1.8.08,2.15.08a.7.7,0,0,0,.6-.21c.46-.47.7-2.6.91-8.07H277a10.58,10.58,0,0,1-1.3,2,8,8,0,0,0-.91-.61A12.18,12.18,0,0,0,277.27,57l1.05.24a16.4,16.4,0,0,1-.85,2.28h5.14Zm-4.05,6.16A14.75,14.75,0,0,0,276.67,63l.84-.4a13.77,13.77,0,0,1,2,3.19Z" style="fill:#040000"/><path d="M295.13,60.73a9.43,9.43,0,0,0,1.27-.07v1.17c-.14,0-.66,0-1.27,0h-1.54v.49c0,3.74-.8,5.66-4,7.09l-.94-.88c2.55-1,3.82-2.19,3.82-6.11v-.59h-4v2.27c0,.52,0,1.14.06,1.28H287.3c0-.14.05-.75.05-1.28V61.79h-1.5c-.61,0-1.24,0-1.41.06V60.63a9.77,9.77,0,0,0,1.41.1h1.5V58.94c0-.45,0-.89-.05-1h1.24a9.64,9.64,0,0,0-.07,1v1.79h4V59a10,10,0,0,0-.06-1.15h1.26a9.17,9.17,0,0,0-.07,1.15v1.75Z" style="fill:#040000"/><path d="M309.56,58.63a22.18,22.18,0,0,1-3.75,3v6a10.13,10.13,0,0,0,.08,1.5h-1.37a13.76,13.76,0,0,0,.08-1.5V62.37a27.94,27.94,0,0,1-5.27,2.18l-.64-1.09A22.09,22.09,0,0,0,305,60.88a15.62,15.62,0,0,0,3.69-3.09Z" style="fill:#040000"/><path d="M322.89,65.13a36.33,36.33,0,0,0-5.51-2.26l0,4.62c0,.45,0,1.19.08,1.66h-1.34c.05-.45.08-1.14.08-1.66V59.34a9.41,9.41,0,0,0-.11-1.46h1.37c0,.44-.1,1-.1,1.46v2.28a44.11,44.11,0,0,1,6,2.32Z" style="fill:#040000"/><path d="M327.71,65.11a12.23,12.23,0,0,1-1,3.56,3.57,3.57,0,0,0-.81-.39,10.29,10.29,0,0,0,.91-3.34ZM329.24,64v5.83h-.92V64.05l-2.2.12-.09-.92.93,0c.29-.38.61-.83.92-1.29a11.9,11.9,0,0,0-1.81-2l.54-.67c.14.11.26.23.4.36a16.72,16.72,0,0,0,1.26-2.6l.91.36c-.47.92-1.06,2-1.58,2.82a9.16,9.16,0,0,1,.81.91c.55-.87,1-1.77,1.42-2.51l.88.39a48.21,48.21,0,0,1-2.79,4.18l2.08-.09a11.51,11.51,0,0,0-.66-1.26l.73-.29a11.09,11.09,0,0,1,1.31,2.85l-.78.35c-.06-.23-.14-.51-.25-.81Zm1.22.86a12.56,12.56,0,0,1,.89,2.55l-.79.26a13.29,13.29,0,0,0-.86-2.56Zm5.1,3.6h3.37v.93H331v-.93h3.55v-2.3h-2.66v-.93h2.66v-2h1v2h2.76v.93h-2.76ZM338.32,58a8.76,8.76,0,0,1-2.51,3.68A9.47,9.47,0,0,0,339.09,63a5.63,5.63,0,0,0-.65.87A10.34,10.34,0,0,1,335,62.3a13,13,0,0,1-3.37,1.64,4.05,4.05,0,0,0-.61-.86,11.05,11.05,0,0,0,3.18-1.44,9.08,9.08,0,0,1-2-2.8l.56-.19h-1.44v-.92h6.08l.2,0Zm-5.13.65a7.09,7.09,0,0,0,1.81,2.4,7.65,7.65,0,0,0,1.9-2.4Z" style="fill:#040000"/><path d="M351.88,59.72v10h-1.05v-.79h-8.65v.86h-1V59.72h4.8V57h1v2.69Zm-9.7,1v3h3.76v-3Zm0,7.15h3.76V64.8h-3.76Zm4.8-7.15v3h3.85v-3Zm3.85,7.15V64.8H347v3.11Z" style="fill:#040000"/><path d="M357.32,69.51a22.27,22.27,0,0,0-3.09-3.12l.91-.8a26.33,26.33,0,0,1,3.14,3.11Z" style="fill:#040000"/><path d="M154.94,88.56a10.45,10.45,0,0,0-3.34-2.09c0,.35,0,.66,0,.87,0,1-.64,2-2.45,2-2,0-3.09-.72-3.09-2.06s1.22-2.12,3.22-2.12a7.27,7.27,0,0,1,1.16.09c0-.62-.05-1.28-.07-1.85h-.77c-1,0-2.49-.09-3.49-.2V82.09a26,26,0,0,0,3.49.26h.74v-2h-.68c-1,0-2.44-.11-3.27-.21v-1a22.75,22.75,0,0,0,3.25.26h.72v-.91c0-.22,0-.63,0-.82h1.19a5.38,5.38,0,0,0-.07.92c0,.17,0,.43,0,.77A28.76,28.76,0,0,0,155,79v1c-1.09.11-2.28.22-3.58.29v2c1.33-.06,2.6-.18,3.85-.36v1c-1.3.17-2.53.26-3.85.32,0,.71.07,1.44.1,2.1a11.21,11.21,0,0,1,4,2.16Zm-4.44-2.4a7.34,7.34,0,0,0-1.34-.12c-1.32,0-2,.5-2,1.13s.54,1.12,1.92,1.12c.8,0,1.47-.24,1.47-1.19C150.52,86.86,150.5,86.54,150.5,86.16Z" style="fill:#040000"/><path d="M165.92,80.48a26.42,26.42,0,0,1-2.87.47c-.13.6-.28,1.25-.44,1.84a40.74,40.74,0,0,1-2.17,6.36l-1.23-.41a30,30,0,0,0,2.32-6.21c.13-.46.24-1,.35-1.47-.44,0-.86,0-1.26,0-.61,0-1.12,0-1.61-.06L159,80a13.11,13.11,0,0,0,1.67.1c.46,0,1,0,1.48-.06.1-.51.17-.94.21-1.22a6.59,6.59,0,0,0,0-1.15l1.36.11c-.09.31-.19.83-.25,1.11l-.21,1a20.35,20.35,0,0,0,2.65-.5Zm-.55,4.86a5.13,5.13,0,0,0-.19,1.24c0,.66.3,1.29,2.28,1.29a15.84,15.84,0,0,0,2.7-.26l0,1.13a20.28,20.28,0,0,1-2.67.18c-2.19,0-3.34-.67-3.34-2a8.19,8.19,0,0,1,.21-1.64ZM165,82c.73-.07,1.64-.11,2.54-.11A23.09,23.09,0,0,1,170,82l0,1.06a20.81,20.81,0,0,0-2.33-.16A22,22,0,0,0,165,83Z" style="fill:#040000"/><path d="M175.11,78.07a6.65,6.65,0,0,0-.23.93,34.17,34.17,0,0,0-.69,5.59,11.93,11.93,0,0,0,.13,1.89c.22-.62.54-1.45.78-2l.59.46a30,30,0,0,0-1,3.07,2.2,2.2,0,0,0-.07.61c0,.14,0,.34,0,.48l-1,.08a16.66,16.66,0,0,1-.54-4.39,44.5,44.5,0,0,1,.63-5.83,5.72,5.72,0,0,0,.1-1Zm9,10.1a10.56,10.56,0,0,0-2.08-1.59v.26a2.1,2.1,0,0,1-2.41,2.26c-1.86,0-2.89-.77-2.89-2s1-2.11,2.86-2.11a6.5,6.5,0,0,1,1.29.12c0-1.06-.13-2.39-.14-3.54-.45,0-.88,0-1.33,0-.79,0-1.51,0-2.33-.09V80.45a22.87,22.87,0,0,0,2.36.12l1.3,0V78.82a6,6,0,0,0-.07-.84H182a7.53,7.53,0,0,0-.08.83c0,.38,0,1,0,1.67a17.22,17.22,0,0,0,2.39-.33v1.1c-.75.12-1.57.21-2.39.26,0,1.39.11,2.78.17,3.94a9.41,9.41,0,0,1,2.73,1.81Zm-3.19-2.06a4.17,4.17,0,0,0-1.41-.23c-1,0-1.75.47-1.75,1.11s.67,1.08,1.66,1.08c1.18,0,1.52-.58,1.52-1.5A3.78,3.78,0,0,0,180.94,86.11Z" style="fill:#040000"/><path d="M191.85,80.39c.05-.35.11-.73.15-1.13h-5.58v-1h5.68c0-.48.07-.94.08-1.33l1.19.08c0,.41-.1.83-.15,1.25h5.42v1h-5.56c-.06.4-.13.78-.18,1.13h4.17V86.9h-7.35V80.39Zm6.92,8.67H188.16v.74h-1v-9h1v7.33h10.61Zm-2.72-7.87h-5.34v1.12h5.34Zm0,1.88h-5.34V84.2h5.34Zm0,1.89h-5.34v1.17h5.34Z" style="fill:#040000"/><path d="M208.48,82.66c-.2.44-.42.91-.65,1.39h5v.88h-1.67a5.69,5.69,0,0,1-1.27,2.63A17.18,17.18,0,0,1,212.57,89l-.66.79a16.22,16.22,0,0,0-2.8-1.55,10.47,10.47,0,0,1-4.76,1.54,3.2,3.2,0,0,0-.42-.87,10,10,0,0,0,4.16-1.12c-.61-.24-1.21-.46-1.78-.66l-.21.4-.91-.33c.33-.61.75-1.43,1.16-2.28h-2.07v-.77l-1.22.38v4c0,.59-.13.88-.48,1.06a4.67,4.67,0,0,1-1.85.19,4.09,4.09,0,0,0-.31-1c.63,0,1.21,0,1.39,0s.24-.06.24-.27V84.85l-1.88.57-.24-1c.58-.14,1.32-.35,2.12-.59v-3h-1.88v-1h1.88V77h1v2.8h1.36v1h-1.36v2.76l1.34-.39.13.91h2.23c.22-.48.42-1,.6-1.39h-3.15v-.91h2.43a10.71,10.71,0,0,0-.56-2.23l.68-.14h-2V78.5h3.3V77h1v1.5h3.38v.88h-1.76l.5.07c-.28.79-.6,1.68-.88,2.3h2.54v.91Zm-1.07,2.27c-.23.5-.47,1-.71,1.44.71.21,1.47.48,2.23.79a4.75,4.75,0,0,0,1.19-2.23ZM207,79.38a8.93,8.93,0,0,1,.6,2.27l-.38.1h2.53l-.33-.06a18.45,18.45,0,0,0,.79-2.31Z" style="fill:#040000"/><path d="M218.23,80.2a15.25,15.25,0,0,1-1.14,2v7.54h-1V83.6a13.42,13.42,0,0,1-1.58,1.61,8.29,8.29,0,0,0-.66-.91,12.21,12.21,0,0,0,3.43-4.41Zm-2.49.47h-1V78.21H220V77h1v1.19h5.33v2.28h-1.05V79.16h-9.55Zm7.12,1c-.16.51-.33,1-.48,1.47h3.46v6.59h-1v-.49H220v.53h-1V83.19h2.34a14.3,14.3,0,0,0,.35-1.47h-3.36v-.94h8.07v.94Zm2,2.38H220v1.6h4.83Zm0,4.28V86.57H220v1.81Z" style="fill:#040000"/><path d="M230.6,83.23a9.83,9.83,0,0,0-2.46-1.48l.58-.77a11.12,11.12,0,0,1,2.46,1.4Zm-2,5.68A43.17,43.17,0,0,0,231,84.43l.79.63c-.65,1.45-1.51,3.2-2.24,4.49Zm.87-11.75A10.26,10.26,0,0,1,232,78.61l-.61.83a10.25,10.25,0,0,0-2.52-1.53Zm10.63,2.35V89.68h-1.05v-.6h-5.43v.71h-1V79.51h2.31a19.18,19.18,0,0,0,.59-2.41l1.17.15c-.22.76-.47,1.59-.71,2.26Zm-6.48,1V83.7h5.43V80.52Zm5.43,7.53V84.68h-5.43v3.37Z" style="fill:#040000"/><path d="M247.23,82.17s0,.34,0,.48c-.09,4.63-.18,6.2-.53,6.66a1,1,0,0,1-.81.45,10.3,10.3,0,0,1-1.48,0,2.43,2.43,0,0,0-.27-.92c.57,0,1.09,0,1.29,0s.32,0,.43-.19c.24-.32.32-1.68.41-5.58h-1.68c-.17,2.66-.6,5.09-1.78,6.67a3.14,3.14,0,0,0-.79-.69c1.46-1.93,1.63-5.4,1.69-8.85h-1.53v-1h2.46V77h1v2.25H248v1h-3.36q0,1-.06,1.92Zm2.2-2.25a9.82,9.82,0,0,1-1.36,2.25,8.18,8.18,0,0,0-.8-.73A10.17,10.17,0,0,0,249.33,77l1,.21a16.13,16.13,0,0,1-.52,1.75h5v1Zm3.85,8.92c.62,0,.73-.27.78-1.61a3.19,3.19,0,0,0,.89.38c-.13,1.65-.44,2.11-1.61,2.11h-2.85c-1.38,0-1.76-.31-1.76-1.54V84.75l-.84.39-.39-.85,1.23-.58V81.53h.94v1.73l1.31-.61V80.43h.9v1.8l1.54-.72.07-.07.17-.12.66.23,0,.17c0,2,0,3.76-.08,4.15a.75.75,0,0,1-.63.75,3.7,3.7,0,0,1-1.05.09,2.78,2.78,0,0,0-.22-.81c.26,0,.61,0,.72,0s.26,0,.3-.27.07-1.44.07-3.11l-1.5.72v4.19H251V83.67l-1.31.63v3.89c0,.54.12.65.89.65Z" style="fill:#040000"/><path d="M261.37,80.18h-5.28v-.85h5.28ZM260.88,89h-3.25v.65h-.91v-4.7h4.16Zm-4.13-7.77h4.14V82h-4.14Zm0,1.85h4.14v.84h-4.14Zm4.1-4.74h-4v-.84h4Zm-3.22,7.47v2.35H260V85.8Zm5.83-6.65a4.1,4.1,0,0,1-1.8,3.65,5,5,0,0,0-.75-.69,3.22,3.22,0,0,0,1.55-3V77.45h4.37v3.42c0,.31,0,.36.27.36h.7c.25,0,.31-.18.33-1.52a2.41,2.41,0,0,0,.87.37c-.08,1.64-.33,2-1.08,2h-1c-.86,0-1.11-.27-1.11-1.26v-2.5h-2.39Zm4.7,4.1a9.07,9.07,0,0,1-2.36,4.13A8.63,8.63,0,0,0,269,88.89a4.12,4.12,0,0,0-.68.89A9.6,9.6,0,0,1,265,88.05a10.78,10.78,0,0,1-3.51,1.74,3.92,3.92,0,0,0-.56-.91,9.51,9.51,0,0,0,3.3-1.54,9.57,9.57,0,0,1-2-3l.92-.28a8,8,0,0,0,1.81,2.7A7.36,7.36,0,0,0,266.85,84h-5.3V83h5.76l.18,0Z" style="fill:#040000"/><path d="M271.9,79.44c.91-.08,3.53-.34,6.07-.56,1.52-.13,2.82-.2,3.74-.24v1.12A11,11,0,0,0,279,80a4.84,4.84,0,0,0-3.17,4.38c0,2.7,2.52,3.56,4.78,3.64l-.41,1.18c-2.56-.11-5.49-1.49-5.49-4.58a5.6,5.6,0,0,1,2.58-4.68c-1.22.14-5,.5-6.5.81l-.13-1.23C271.19,79.49,271.63,79.47,271.9,79.44Zm9,4-.71.34a13.3,13.3,0,0,0-1.15-2l.71-.3A15.29,15.29,0,0,1,280.9,83.4Zm1.6-.6-.73.34a12.38,12.38,0,0,0-1.19-2l.7-.32A20.3,20.3,0,0,1,282.5,82.8Z" style="fill:#040000"/><path d="M296.81,82.52a19.85,19.85,0,0,1-2.51,3.4l-.84-.53a15.66,15.66,0,0,0,1.64-2.18h-4v5.28c0,.64-.17.94-.66,1.09a10.25,10.25,0,0,1-2.52.17,5.68,5.68,0,0,0-.39-1c1,0,1.9,0,2.18,0s.34-.07.34-.28V83.21H284.3v-1h7.25c-1.19-.6-2.78-1.33-4-1.86l.53-.77c.77.31,1.68.69,2.54,1.06a16.57,16.57,0,0,0,2.66-1.91h-7.63v-1h8.64l.24-.06.75.58a21.48,21.48,0,0,1-3.64,2.84c.57.25,1.12.52,1.51.73l-.23.36h2.88l.21-.08Z" style="fill:#040000"/><path d="M299.71,85.11a12.23,12.23,0,0,1-1,3.56,3.57,3.57,0,0,0-.81-.39,10.29,10.29,0,0,0,.91-3.34Zm2.57-3.63a11.52,11.52,0,0,1,1.38,2.85l-.82.39a5,5,0,0,0-.27-.8l-1.2.07v5.83h-1V84.05l-2.28.11-.08-.94.92,0a14.84,14.84,0,0,0,.94-1.24,12.2,12.2,0,0,0-1.84-2l.54-.67q.21.17.42.36a18.57,18.57,0,0,0,1.24-2.6l.93.35a26.3,26.3,0,0,1-1.6,2.81,10,10,0,0,1,.86,1c.57-.88,1.1-1.79,1.49-2.55l.9.39a44.47,44.47,0,0,1-2.9,4.18l2.24-.1c-.21-.44-.45-.87-.68-1.25Zm.36,3.41a12.05,12.05,0,0,1,.94,2.69l-.83.28a14.06,14.06,0,0,0-.89-2.72Zm8-4.83c-.25,6.27-.45,8.44-1,9.13a1.47,1.47,0,0,1-1.16.56,16.15,16.15,0,0,1-2.16,0,2.37,2.37,0,0,0-.34-1c.94.08,1.8.08,2.15.08a.7.7,0,0,0,.6-.21c.46-.47.7-2.6.91-8.07H305a10.58,10.58,0,0,1-1.3,2,8,8,0,0,0-.91-.61A12.18,12.18,0,0,0,305.27,77l1.05.24a16.4,16.4,0,0,1-.85,2.28h5.14Zm-4.05,6.16A14.75,14.75,0,0,0,304.67,83l.84-.4a13.77,13.77,0,0,1,2,3.19Z" style="fill:#040000"/><path d="M60.68,278.41a18.42,18.42,0,0,1-1.38,2.43v8.55H57.51V283.1a10.77,10.77,0,0,1-1.33,1.23,12.1,12.1,0,0,0-1.09-1.79,12.27,12.27,0,0,0,3.81-4.74Zm-2.85.34H56v-3.06H61.8v-1.23h2v1.23h5.89v2.83h-2V277.4H57.83Zm8.24,1.76-.43,1.18h3.54v7.72H67.29v-.55H62.9v.56H61.09v-7.73h2.6c.08-.38.17-.78.25-1.18H60.53v-1.67h9.22v1.67Zm1.22,2.78H62.9v1.16h4.39Zm0,4V286H62.9v1.27Z" style="fill:#ff4f8b"/><path d="M74.25,282.17a12.46,12.46,0,0,0-2.87-1.74l1-1.39a12.41,12.41,0,0,1,2.9,1.58ZM72,287.92a47.92,47.92,0,0,0,2.61-5L76,284.05c-.71,1.68-1.59,3.5-2.42,5Zm1.43-13.27a10.71,10.71,0,0,1,2.89,1.67l-1.13,1.5A11.27,11.27,0,0,0,72.32,276Zm12.08,2.61v12h-2v-.62h-5v.75H76.65V277.26h2.69a21,21,0,0,0,.46-2.77l2.24.22c-.22.88-.5,1.77-.75,2.55Zm-7,1.82V282h5v-2.9Zm5,7.72v-3.06h-5v3.06Z" style="fill:#ff4f8b"/><path d="M94.33,286.78c.61-.08,1-.16,1.47-.25a4.29,4.29,0,0,0,3.6-4.24,3.92,3.92,0,0,0-3.31-4.2,35.15,35.15,0,0,1-1,4.31c-.94,3.2-2.32,5.15-4,5.15s-3.23-1.94-3.23-4.61a7.07,7.07,0,0,1,7.3-6.79,6.05,6.05,0,0,1,6.4,6.2c0,3.33-2,5.7-6,6.31ZM93.09,282a25.06,25.06,0,0,0,.85-3.84,5,5,0,0,0-4,4.59c0,1.6.64,2.39,1.23,2.39S92.45,284.13,93.09,282Z" style="fill:#ff4f8b"/><path d="M117.16,285.87a17.13,17.13,0,0,0-1.36-1.1,7.93,7.93,0,0,1-4,4.29l-1.69-1.38a6.86,6.86,0,0,0,4-4,11.49,11.49,0,0,0-3.71-1.28,34.36,34.36,0,0,1-1.84,3.81,2.73,2.73,0,0,1-2.47,1.4,2.37,2.37,0,0,1-2.43-2.57c0-2.44,2.22-4.33,5.41-4.48.45-1,.9-2.09,1.26-2.85-.62,0-2,.07-2.7.12-.34,0-.9.08-1.3.14l-.08-2.05a12.25,12.25,0,0,0,1.31.06c.9,0,2.6-.06,3.33-.12a4.43,4.43,0,0,0,1.08-.24l1.26,1a4.18,4.18,0,0,0-.53.67,32,32,0,0,0-1.55,3.39,14.28,14.28,0,0,1,3.41,1c0-.19,0-.37.05-.55a9.77,9.77,0,0,0,0-1.72l2.08.24a25.14,25.14,0,0,1-.3,2.94c.65.37,1.23.75,1.69,1.06Zm-8.9-3.47c-1.76.27-2.72,1.34-2.72,2.33,0,.45.27.76.59.76s.55-.15.84-.55A21.05,21.05,0,0,0,108.26,282.4Z" style="fill:#ff4f8b"/><path d="M122.87,289.1a30.29,30.29,0,0,0-3.44-3.53l1.66-1.44a28.8,28.8,0,0,1,3.49,3.5Z" style="fill:#ff4f8b"/><path d="M147.63,288.08a11.86,11.86,0,0,0-3.21-2.19c0,.21,0,.4,0,.56,0,1.36-1,2.4-3.12,2.4-2.53,0-3.87-1-3.87-2.64s1.47-2.72,3.92-2.72c.33,0,.65,0,1,0,0-.48-.05-1-.06-1.44h-.82c-.93,0-2.75-.08-3.81-.2l0-1.88a28.11,28.11,0,0,0,3.82.29h.76v-1.65h-.76a25.56,25.56,0,0,1-3.44-.24V276.6a20.09,20.09,0,0,0,3.44.31h.78v-.72a5.78,5.78,0,0,0-.08-1.09h2.16c0,.32-.09.72-.11,1.12v.62a30.86,30.86,0,0,0,3.77-.38l0,1.82c-1,.1-2.32.23-3.84.31l0,1.65c1.6-.07,2.93-.21,4.23-.37v1.87c-1.43.16-2.66.27-4.19.32,0,.59.06,1.23.11,1.84a12.26,12.26,0,0,1,4.43,2.4Zm-5.22-2.85a9.11,9.11,0,0,0-1.3-.11c-1.12,0-1.73.43-1.73,1s.56,1,1.65,1c.85,0,1.39-.25,1.39-1.17C142.42,285.73,142.42,285.5,142.41,285.23Z" style="fill:#ff4f8b"/><path d="M160.57,278.84c-.95.21-2,.39-3.08.52-.14.68-.3,1.39-.48,2a50,50,0,0,1-2.51,7.33l-2.22-.74a34.87,34.87,0,0,0,2.73-7.14c.12-.41.23-.86.34-1.31l-1,0c-.77,0-1.36,0-1.92-.06l0-2a16.74,16.74,0,0,0,2,.12c.47,0,.93,0,1.41,0,.06-.36.11-.66.14-.92a8.45,8.45,0,0,0,.07-1.6l2.42.19c-.12.44-.26,1.14-.34,1.49l-.13.61c.9-.14,1.79-.32,2.66-.53Zm-.32,5.21a5.31,5.31,0,0,0-.23,1.32c0,.69.4,1.2,2.1,1.2a18.23,18.23,0,0,0,3.3-.32l-.08,2a25.92,25.92,0,0,1-3.24.22c-2.67,0-4-.93-4-2.53a10.67,10.67,0,0,1,.27-2.11Zm-.93-4c.88-.08,2-.16,3-.16s1.86.05,2.79.14L165.1,282a22.18,22.18,0,0,0-2.72-.19,24.76,24.76,0,0,0-3.06.17Z" style="fill:#ff4f8b"/><path d="M171.37,275.69a14.32,14.32,0,0,0-.39,1.41,42.09,42.09,0,0,0-.75,6.13,8.72,8.72,0,0,0,.06,1c.21-.56.47-1.08.71-1.61l1,.78a38,38,0,0,0-1.13,3.78,2.83,2.83,0,0,0-.08.74c0,.16,0,.43,0,.65l-1.79.13a19.12,19.12,0,0,1-.62-5.06,47.52,47.52,0,0,1,.65-6.61,11,11,0,0,0,.15-1.55Zm9.73,12a16.11,16.11,0,0,0-1.92-1.59c-.1,1.51-1,2.6-3.11,2.6s-3.55-.93-3.55-2.6,1.36-2.72,3.52-2.72a6.8,6.8,0,0,1,1,.07c-.05-1-.1-2.13-.11-3.25h-1.14c-.93,0-1.82,0-2.77-.09v-1.89c.92.09,1.83.14,2.77.14H177c0-.79,0-1.43,0-1.76a8.77,8.77,0,0,0-.1-1.05h2.28c0,.31-.08.69-.1,1s-.05.94-.05,1.65c.87-.1,1.7-.21,2.45-.37v2c-.77.11-1.6.21-2.46.27,0,1.54.11,2.8.17,3.87a10.18,10.18,0,0,1,3.06,2.05Zm-3.94-2.58a5.07,5.07,0,0,0-1.28-.18c-.9,0-1.5.37-1.5,1s.64.92,1.47.92,1.31-.51,1.31-1.44Z" style="fill:#ff4f8b"/><path d="M188.68,278.41a18.42,18.42,0,0,1-1.38,2.43v8.55h-1.79V283.1a10.77,10.77,0,0,1-1.33,1.23,12.1,12.1,0,0,0-1.09-1.79,12.27,12.27,0,0,0,3.81-4.74Zm-2.85.34H184v-3.06h5.83v-1.23h1.95v1.23h5.89v2.83h-1.95V277.4h-9.86Zm8.24,1.76-.43,1.18h3.54v7.72h-1.89v-.55H190.9v.56h-1.81v-7.73h2.6c.08-.38.17-.78.25-1.18h-3.41v-1.67h9.22v1.67Zm1.22,2.78H190.9v1.16h4.39Zm0,4V286H190.9v1.27Z" style="fill:#ff4f8b"/><path d="M202.25,282.17a12.46,12.46,0,0,0-2.87-1.74l1-1.39a12.41,12.41,0,0,1,2.9,1.58ZM200,287.92a47.92,47.92,0,0,0,2.61-5l1.46,1.17c-.71,1.68-1.59,3.5-2.42,5Zm1.43-13.27a10.71,10.71,0,0,1,2.89,1.67l-1.13,1.5a11.27,11.27,0,0,0-2.84-1.79Zm12.08,2.61v12h-1.95v-.62h-5v.75h-1.87V277.26h2.69a21,21,0,0,0,.46-2.77l2.24.22c-.22.88-.5,1.77-.75,2.55Zm-7,1.82V282h5v-2.9Zm5,7.72v-3.06h-5v3.06Z" style="fill:#ff4f8b"/><path d="M218.63,282.85H215.4v-1.67h3.23v-3.41h1.74v3.41h3.24v1.67h-3.24v3.4h-1.74Z" style="fill:#ff4f8b"/><path d="M236.15,281.6a11.73,11.73,0,0,1-2.45,3.74,13.9,13.9,0,0,0,6,2.24,9.17,9.17,0,0,0-1.23,1.81,13.8,13.8,0,0,1-6.31-2.7,17.51,17.51,0,0,1-6.24,2.73,10.37,10.37,0,0,0-1.2-1.79,15.83,15.83,0,0,0,6-2.3,13.93,13.93,0,0,1-2.2-3.68l1.82-.55a9.65,9.65,0,0,0,1.84,3A8.78,8.78,0,0,0,234.1,281ZM231,279a18.19,18.19,0,0,1-4.42,3.92,16.11,16.11,0,0,0-1.6-1.48,12.22,12.22,0,0,0,4-3.21Zm4.31-.9h-10.1v-1.86h6.05v-1.85h1.95v1.85h6.13v1.86h-3.94a25.76,25.76,0,0,1,4.15,3.36l-1.7,1.31a24.77,24.77,0,0,0-4.06-3.57Z" style="fill:#ff4f8b"/><path d="M244.63,285.76c.62,1.07,1.73,1.52,3.36,1.58,1.91.08,5.7,0,7.89-.14a8.08,8.08,0,0,0-.59,1.86c-2,.09-5.36.12-7.31,0s-3.19-.54-4.15-1.77c-.74.62-1.49,1.25-2.39,1.92l-.88-1.91a22.23,22.23,0,0,0,2.25-1.45V282.4h-2v-1.75h3.86Zm-.94-7.16A13.37,13.37,0,0,0,241,276l1.31-1.21a13.92,13.92,0,0,1,2.79,2.46Zm4.09,8.09H246v-8.25h3.59c-.72-.33-1.49-.65-2.15-.91l1.23-1c.56.21,1.24.46,1.89.75a15,15,0,0,0,1.28-.85h-5.7V275h7.35l.37-.1,1.14.92a18.35,18.35,0,0,1-2.85,2.16c.35.17.69.33,1,.49H255V285c0,.77-.14,1.17-.65,1.42a4.84,4.84,0,0,1-2.16.27,5.33,5.33,0,0,0-.47-1.48H253c.19,0,.24-.08.24-.24v-.73h-1.89v2.33h-1.7v-2.33h-1.84Zm0-6.87v.86h1.84v-.86Zm1.84,3.09V282h-1.84v.9Zm3.59-3.09h-1.89v.86h1.89Zm0,3.09V282h-1.89v.9Z" style="fill:#ff4f8b"/><path d="M270.81,284.59a9,9,0,0,1-1.81,2.48,1.35,1.35,0,0,0,1.07.74c.4,0,.55-.31.63-1.57a4.3,4.3,0,0,0,1.23.86c-.29,1.81-.74,2.29-2,2.29a2.64,2.64,0,0,1-2.2-1.28,11.76,11.76,0,0,1-2.41,1.27,6.76,6.76,0,0,0-1-1.22,10.09,10.09,0,0,0,2.68-1.44,14.24,14.24,0,0,1-.74-2.69h-1.81a5.63,5.63,0,0,1-.08.61,12.6,12.6,0,0,1,1.91,1.47l-1,1.27a8.92,8.92,0,0,0-1.23-1.09,5.47,5.47,0,0,1-2.13,3.07,4.53,4.53,0,0,0-1.07-1.25c1.41-.94,1.81-2.46,2-4.08h-1v-.72l-.64.94c-.16-.48-.48-1.21-.8-1.92v7.05h-1.69v-5.91a13.81,13.81,0,0,1-1.28,3,11.62,11.62,0,0,0-.8-1.62,16.91,16.91,0,0,0,1.95-5.39H257v-1.73h1.72v-3.3h1.69v3.3h1.43c-.11-.11-.24-.21-.35-.3l.7-1,.27.2a17.48,17.48,0,0,0,.79-2.06l1.41.54c-.45.77-.92,1.65-1.3,2.29.14.15.29.29.4.42.32-.55.59-1.07.82-1.56l1.07.53c0-.75,0-1.52,0-2.3h1.68q0,1.34,0,2.61l.46-.67.26.19a17.23,17.23,0,0,0,.78-2.07l1.43.55c-.45.8-.92,1.66-1.32,2.29l.42.41c.3-.53.59-1.07.82-1.54l1.29.65c-.64,1-1.41,2.17-2.11,3.12l1-.07c-.08-.22-.18-.45-.27-.65l1.07-.39a9.5,9.5,0,0,1,.83,2.37l-1.13.48c0-.17-.07-.4-.13-.62l-1.19.16a5.9,5.9,0,0,1,1.22,1l-.3.27h1.21V284h-2.24Zm-4.79-2c0-.34-.08-.69-.12-1l-1.09.43c0-.14,0-.3-.07-.48-1,.11-2,.24-2.93.34l-.25-1.41.49,0c.31-.41.64-.89,1-1.4a10.14,10.14,0,0,0-1.18-1.19v1.7h-1.46v.69c.34.49,1.11,1.73,1.49,2.4Zm-.8-3.43a9.55,9.55,0,0,1,.63,1.79c-.11-1.16-.19-2.4-.23-3.68-.64,1-1.39,2.12-2.08,3l.87-.06a6,6,0,0,0-.26-.72Zm2.53,1c.26-.34.53-.74.8-1.15a9.76,9.76,0,0,0-1.28-1.3c0,.86.07,1.68.13,2.48Zm1.28,2.45a7.15,7.15,0,0,0-.77-.59l.72-.63-1.4.16-.1-.45c0,.53.11,1,.19,1.51Zm-1.1,1.47c.11.53.24,1,.37,1.46a7,7,0,0,0,.93-1.46Z" style="fill:#ff4f8b"/><path d="M275.37,280.46v8.93h-1.86V275.05h6.16v5.41Zm0-4.1v.79h2.51v-.79Zm2.51,2.8v-.83h-2.51v.83Zm9.12,8.22c0,.88-.14,1.36-.65,1.66a4.5,4.5,0,0,1-2.21.35,6.34,6.34,0,0,0-.39-1.49,6,6,0,0,0-.49.77,5.39,5.39,0,0,1-3-2,6.16,6.16,0,0,1-3.2,2,6,6,0,0,0-1.1-1.24c1.79-.48,2.64-1.17,3-1.87h-2.74v-1.39h3v-.83h-2.8V282h1.25a6.78,6.78,0,0,0-.53-1l1.45-.4a5,5,0,0,1,.77,1.44h1.67c.19-.48.41-1.06.54-1.46l1.75.45-.69,1H284v1.33h-3.1v.83h3.26v1.39h-3a4.86,4.86,0,0,0,3.06,1.75,1.94,1.94,0,0,0-.3.33,6.34,6.34,0,0,0,.89,0c.19,0,.26-.08.26-.27v-6.85h-4.4v-5.46H287Zm-4.46-11v.79h2.59v-.79Zm2.59,2.84v-.87h-2.59v.87Z" style="fill:#ff4f8b"/><path d="M295.75,286.78c.61-.08,1.06-.16,1.47-.25a4.29,4.29,0,0,0,3.61-4.24,3.93,3.93,0,0,0-3.32-4.2,33.29,33.29,0,0,1-.94,4.31c-.95,3.2-2.32,5.15-4.05,5.15s-3.24-1.94-3.24-4.61a7.07,7.07,0,0,1,7.3-6.79,6.06,6.06,0,0,1,6.41,6.2c0,3.33-2.05,5.7-6.05,6.31Zm-1.23-4.8a26.3,26.3,0,0,0,.85-3.84,5,5,0,0,0-4,4.59c0,1.6.64,2.39,1.23,2.39S293.88,284.13,294.52,282Z" style="fill:#ff4f8b"/><path d="M313.21,283.33a14.31,14.31,0,0,0,2.56-3.24l-4.93,1v4.24c0,1,.29,1.34,2,1.34a27.91,27.91,0,0,0,5.06-.52l-.06,2.16a38.06,38.06,0,0,1-5,.35c-3.65,0-4.17-.88-4.17-2.77V281.5c-1.43.29-2.69.55-3.37.71l-.38-2.1c.75-.1,2.16-.34,3.75-.63v-2.29a13.44,13.44,0,0,0-.13-1.82H311a13.17,13.17,0,0,0-.14,1.82v1.89c2.34-.43,4.58-.89,5.3-1.05a5.12,5.12,0,0,0,1.13-.39l1.54,1.2c-.14.23-.38.58-.53.87a22.38,22.38,0,0,1-3.31,4.66Z" style="fill:#ff4f8b"/><path d="M326.07,283l-1.95.74a33.53,33.53,0,0,0-1.46-3.7l1.92-.69C325,280.14,325.75,282.08,326.07,283Zm8.13-3.33c-.19.52-.29.85-.38,1.17a12.94,12.94,0,0,1-2.18,4.69,12.49,12.49,0,0,1-5.36,4l-1.68-1.71a9.45,9.45,0,0,0,7.34-8.84ZM329.61,282l-1.92.67a27.94,27.94,0,0,0-1.3-3.55l1.91-.62C328.6,279.16,329.38,281.24,329.61,282Z" style="fill:#ff4f8b"/><path d="M349.21,284.32a45.13,45.13,0,0,0-5.78-2.39v4.53c0,.47.08,1.59.14,2.23h-2.49a18.43,18.43,0,0,0,.16-2.23v-9.19a11.34,11.34,0,0,0-.16-1.93h2.49a18.39,18.39,0,0,0-.14,1.93v2.36a51.26,51.26,0,0,1,6.69,2.48Z" style="fill:#ff4f8b"/><path d="M363.19,276.64a6.77,6.77,0,0,0,.91-.07,2.53,2.53,0,0,1,0-.3,1.92,1.92,0,1,1,1.92,1.9h-.2l-.13.48a16.26,16.26,0,0,1-2.4,5.82,12.65,12.65,0,0,1-6.44,4.42l-1.74-1.9a10.51,10.51,0,0,0,6.27-3.77,10.12,10.12,0,0,0,1.89-4.51h-7.46c-.74,0-1.49,0-1.9.06v-2.25a18.7,18.7,0,0,0,1.9.13Zm3.72-.37a.93.93,0,1,0-.92.91A.93.93,0,0,0,366.91,276.27Z" style="fill:#ff4f8b"/><path d="M382.68,280.36a5.47,5.47,0,0,0-.3.68,11.52,11.52,0,0,1-2.37,4.43,12.07,12.07,0,0,1-5.72,3.46l-1.6-1.81a10.83,10.83,0,0,0,5.56-2.8,7.07,7.07,0,0,0,1.65-2.77h-7.73c-.39,0-1.19,0-1.86.08v-2.08c.67.06,1.36.09,1.86.09h7.92a3.32,3.32,0,0,0,1.17-.16Zm-10.9-4.64a12.46,12.46,0,0,0,1.67.08h6.16a13.94,13.94,0,0,0,1.73-.08v2.07c-.43,0-1.19-.05-1.76-.05h-6.13c-.52,0-1.2,0-1.67.05Z" style="fill:#ff4f8b"/><path d="M392.2,284.4a15.24,15.24,0,0,0,5.83-6.23l1.24,2.26a16.91,16.91,0,0,1-5.92,5.92,17.39,17.39,0,0,1-5.94,2.26l-1.34-2.12A16.39,16.39,0,0,0,392.2,284.4Zm0-5.19-1.63,1.68a33.84,33.84,0,0,0-4-3.45l1.51-1.61A34.56,34.56,0,0,1,392.2,279.21Z" style="fill:#ff4f8b"/><path d="M253,174.18c3.37-.5,11.29-.91,17.7-2,8.14-1.36,15.82-2.94,16.39-3.45s-3.1-22.3-5.57-23.51-20.84-4.33-25-5.08S248.89,174.79,253,174.18Z" style="fill:#00739e"/><path d="M267.31,179.28a14.5,14.5,0,0,1-4.48-.71c-1.77-.55-2.18-3-2.18-5.58,0-3.22,1.74-5.35,3.59-5.35,1.43,0,3,0,3,0S268,178.23,267.31,179.28Z" style="fill:#181220"/><path d="M270.26,173.46c0,3.21-1.5,5.82-3.36,5.82s-3.35-2.61-3.35-5.82,1.5-5.82,3.35-5.82S270.26,170.24,270.26,173.46Z" style="fill:#515151"/><path d="M284.42,175.92a15,15,0,0,1-3.56-.47c-1-.3-2.12-2-2.12-4.73s1.48-4.73,3.07-4.73c1.21,0,2.59,0,2.59,0S285,175,284.42,175.92Z" style="fill:#181220"/><path d="M287,171c0,2.75-1.28,5-2.86,5s-2.86-2.22-2.86-5,1.28-5,2.86-5S287,168.21,287,171Z" style="fill:#515151"/><path d="M235.45,175.74A14.39,14.39,0,0,1,231,175c-.73-.28-1.94-1.9-1.94-5.11s1.51-5.82,3.36-5.82c1.42,0,3,0,3,0S236.13,174.69,235.45,175.74Z" style="fill:#181220"/><path d="M238.4,169.92c0,3.21-1.51,5.82-3.36,5.82s-3.36-2.61-3.36-5.82,1.51-5.82,3.36-5.82S238.4,166.71,238.4,169.92Z" style="fill:#515151"/><polygon points="226.37 158.31 223.04 157.6 223.28 152.08 226.84 151.85 226.37 158.31" style="fill:#515151"/><path d="M290,146.75c-2-.95-33.81-6.64-34.26-6.72-3.56-.66-26.88-.27-28.18,1.18s-4,21.82-3.56,26.63a4.55,4.55,0,0,0,.95,2.73c.77,1.1,14.26,2.89,25.13,3.56A44.58,44.58,0,0,0,262.4,173c.21-4.22,1.9-6.07,4.8-6,3.56.45,3.44,5.94,3.47,5.22,2.12-.39,8.18-1.34,9.65-1.86,0-2.4,1.39-5.17,3.86-5.17a3.62,3.62,0,0,1,2.88,3.58l3-.91C290.88,167.33,291.33,147.36,290,146.75Z" style="fill:#008abd"/><path d="M250.73,162.18c-1.44.53-7.45.49-13.25.11-6.1-.39-11.95-1.15-11.95-2,0-1.55,1.4-13.42,2-14s23.43-.72,23.94,0S251.4,161.94,250.73,162.18Z" style="fill:#b3dae6"/><path d="M249,144.4c-.24.26-5.62.14-10,.13s-8.94.1-9.06-.12a6.72,6.72,0,0,1,.3-2.38c.49-.41,18.33-.71,18.75-.25A10.74,10.74,0,0,1,249,144.4Z" style="fill:#606973"/><polygon points="252.87 158.07 249.07 158.07 249.54 151.85 253.1 151.85 252.87 158.07" style="fill:#515151"/><path d="M250.29,167.53c-.53.39-24.86-1.61-25.28-2.12s.11-2.85.11-2.85l12.63,1.16,12.9.72S250.81,167.14,250.29,167.53Z" style="fill:#f6d44b"/><polygon points="241.35 171.56 232.16 170.61 232.19 167.9 241.38 168.85 241.35 171.56" style="fill:#fcfdff"/><path d="M285.94,171c0,1.57-.62,2.83-1.39,2.83s-1.38-1.26-1.38-2.83.62-2.83,1.38-2.83S285.94,169.39,285.94,171Z" style="fill:#f1efe3"/><path d="M269.21,173.52c0,1.95-.78,3.53-1.73,3.53s-1.73-1.58-1.73-3.53.78-3.52,1.73-3.52S269.21,171.58,269.21,173.52Z" style="fill:#f1efe3"/><polygon points="257.88 172.21 255.7 172.45 255.7 150.26 257.88 150.49 257.88 172.21" style="fill:#b3dae6"/><polygon points="260.6 171.74 258.64 171.97 258.64 150.73 260.6 150.96 260.6 171.74" style="fill:#b3dae6"/><polygon points="283.32 158.35 278.22 158.58 278.22 146.55 283.32 147.49 283.32 158.35" style="fill:#b3dae6"/><polygon points="276.82 158.58 270.76 158.82 270.76 145.11 276.82 146.29 276.82 158.58" style="fill:#b3dae6"/><polygon points="269.42 158.82 262.18 159.05 262.18 143.7 269.42 144.88 269.42 158.82" style="fill:#b3dae6"/><polygon points="289.36 157.88 284.49 158.11 284.49 147.72 289.36 148.67 289.36 157.88" style="fill:#b3dae6"/><polygon points="251.88 152.45 250.71 152.45 250.71 150.06 252.39 149.28 252.39 148.69 253.56 148.69 253.56 150.04 251.88 150.81 251.88 152.45" style="fill:#515151"/><polygon points="252.13 159.68 250.06 159.68 250.06 157.25 251.23 157.25 251.23 158.51 252.13 158.51 252.13 159.68" style="fill:#515151"/><path d="M267.61,167.06s5.3-6.68,21.75-7.36c0,0-14.17,2.7-13.85,11.68l-4.84.82S270.59,168.12,267.61,167.06Z" style="fill:#69c1d3"/><path d="M272.92,171.82s-1.79-8.74,16.44-12.12c-7.29,3.14-12.66,6-12.54,11.43Z" style="fill:#0080a4"/><path d="M291.18,211.93a1.12,1.12,0,0,1-.23-2.22c.53-.12,53.38-11.52,79.36-18.07a1.12,1.12,0,0,1,.55,2.18c-26,6.55-78.91,18-79.44,18.08Z" style="fill:#b9baba"/><path d="M302.64,227.92a1.12,1.12,0,0,1-.42-2.16l68.33-27.82a1.12,1.12,0,1,1,.84,2.08l-68.33,27.82A1,1,0,0,1,302.64,227.92Z" style="fill:#b9baba"/><path d="M329.8,216.29a1.19,1.19,0,0,1-.37-.06l-23.05-8.09a1.12,1.12,0,1,1,.74-2.11l23.05,8.08a1.12,1.12,0,0,1-.37,2.18Z" style="fill:#b9baba"/><path d="M318.39,221a1.12,1.12,0,0,1-.53-.13l-19.44-10.34a1.12,1.12,0,1,1,1.05-2l19.44,10.34a1.12,1.12,0,0,1,.47,1.52A1.11,1.11,0,0,1,318.39,221Z" style="fill:#b9baba"/><path d="M306.75,207.08s-8.39-6.49,1.6-15c10.63-9,6-14.53,21.38-15.75,10.85-.85,21.61,9.56,40.85,13.36,10.55,2.08,5.27,7.11,1.86,8.64-4.25,1.9-32.2,12.54-42.56,12.45C324.53,210.76,309.8,209.42,306.75,207.08Z" style="fill:#fff"/><path d="M314.39,185.47c3.64,1.54,16.2,4.55,19.23,3.07,2-1,.75-4.28.14-5.62-.51-1.15-1.65-1.33-3.46-1.26-2.77.11-8.45-1.54-11.15-2.28C316.81,181,315.92,183.16,314.39,185.47Z" style="fill:#88bddd"/><polygon points="329.35 193.47 321.55 191.51 322.45 189.78 330.55 190.53 329.35 193.47" style="fill:#f3ac38"/><path d="M376.19,195.28c-6,2.68-30.43,13-46,13-15.09,0-25.66-.59-26.79-8a9.42,9.42,0,0,0,3.28,9.83c3,2.33,14.47,3.8,23.13,3.72,12.66-.13,30.87-9.65,35.2-11.37C370.66,200.19,376.19,197.47,376.19,195.28Z" style="fill:#809baf"/><path d="M376.54,192.79c-11.72,1.22-33.65,2.37-38.9,2.66,1.13.79,1.81,3.21,8.22,2.31,3.23-.45,19.88-2.48,30.86-4A1.64,1.64,0,0,0,376.54,192.79Z" style="fill:#006ba2"/><path d="M376.7,194.18c-12.68,1.93-31,4.62-35.74,5.2,1.43,1.4,2.54,1.13,4.15,1.18,2.19.08,19.31-3.65,31.33-5.8A1,1,0,0,0,376.7,194.18Z" style="fill:#006ba2"/><polygon points="344.61 193.88 341.19 194.03 341.19 182.07 344.61 183.58 344.61 193.88" style="fill:#88bddd"/><polygon points="349.36 193.73 346.39 193.88 346.39 184.38 349.36 185.58 349.36 193.73" style="fill:#88bddd"/><polygon points="353.65 193.58 351.14 193.73 351.14 186.19 353.65 187.17 353.65 193.58" style="fill:#88bddd"/><polygon points="357.32 193.43 355.11 193.58 355.11 187.69 357.32 188.52 357.32 193.43" style="fill:#88bddd"/><polygon points="364.73 193.23 363.04 193.31 363.03 189.73 364.71 190.11 364.73 193.23" style="fill:#88bddd"/><polygon points="367.23 193.1 365.69 193.18 365.67 190.43 367.21 190.73 367.23 193.1" style="fill:#88bddd"/><polygon points="369.64 192.94 368.18 193.02 368.18 190.9 369.64 191.2 369.64 192.94" style="fill:#88bddd"/><polygon points="371.96 192.79 370.65 192.87 370.65 191.35 371.96 191.65 371.96 192.79" style="fill:#88bddd"/><polygon points="373.81 192.64 372.8 192.72 372.8 191.8 373.81 191.95 373.81 192.64" style="fill:#88bddd"/><polygon points="361.91 199.22 358.51 200.27 358.51 188.53 361.91 189.44 361.91 199.22" style="fill:#e8e8e8"/><path d="M358.14,200.78V188.05l4.15,1.1v10.34Zm.75-11.76v10.74l2.65-.82v-9.22Z" style="fill:#b9baba"/><path d="M311.81,188.75l5.73,1.89,1.36-2L314,186.07C313.42,186.89,312.56,187.82,311.81,188.75Z" style="fill:#f3ac38"/><polygon points="240.32 205.08 238.11 205.08 238.93 195.07 240.32 205.08" style="fill:#f5f5f5"/><path d="M240.32,205.52h-2.21a.43.43,0,0,1-.32-.14.46.46,0,0,1-.12-.34l.82-10a.45.45,0,0,1,.43-.41.44.44,0,0,1,.45.38l1.39,10a.44.44,0,0,1-.1.35A.45.45,0,0,1,240.32,205.52Zm-1.73-.88h1.23l-.77-5.56Z" style="fill:#d6d6d7"/><path d="M212.29,235.33c4.68.44-19.7-.69-8.75,7.55,1.61,1.21,3.36-.59,4.69,1,1.06,1.3,1.53,2.9,3.6,3.4,2.31.56,4.18-1.42,6.4-1.6,3.37-.29,3.68,1.75,6,3.18,1.9,1.15,5.88,1.36,8.13.9s3.75-2.17,5.88-2.71,6.07-.26,7.85.72a37.22,37.22,0,0,0,6.55,1.85c2.35.35,5.84.89,8.14.27,2.53-.69,2.56-2.35,3.95-4.06s4.54,2.37,6.55,2.34c3.21,0,2.2-4.91,7.63-4.91,6.17,0,9.26-5.44-.63-5.91a20.13,20.13,0,0,1-6.74-2.06c-3.72-1.81-5-5.61-9.41-5.14-5.46.58-10.32,4.09-15.93,2.38-2.69-.82-4.85-2-7.69-1.13-2.23.7-3.81,2-6.38,1.59-2-.35-3.72-1.67-5.65-2-2.63-.42-2.48.2-4.22,1.84a10.72,10.72,0,0,1-5.71,2.44c-1.56.09-2.64-.9-4.07,0" style="fill:#5dbcdd"/><path d="M250,203.81l-14.68-.28a36.61,36.61,0,0,1-1.89,6.68c8.8-.31,18.39,0,18.39,0A8.19,8.19,0,0,0,250,203.81Z" style="fill:#f1f1f1"/><path d="M233,210.55l.18-.45a37,37,0,0,0,1.88-6.62l0-.27,15.1.29.1.11a8.42,8.42,0,0,1,1.88,6.67l-.06.26h-.26c-.1,0-9.68-.31-18.37,0Zm9.13-.79c4.63,0,8.42.1,9.46.13a8,8,0,0,0-1.69-5.76l-14.26-.27a37.43,37.43,0,0,1-1.7,6C236.66,209.79,239.5,209.76,242.08,209.76Z" style="fill:#d6d6d7"/><polygon points="264.26 210.55 253.86 210.55 256.43 199.61 264.26 200.38 264.26 210.55" style="fill:#8b8b8b"/><path d="M264.58,210.87H253.46l2.72-11.6,8.4.82Zm-10.31-.64h9.67v-9.56l-7.27-.71Z" style="fill:#7d7d7e"/><path d="M268.31,208.52s-39.17-.23-40,0c-2.78.75-5.83,7.95-9.26,14.73,21.79-.6,52.87,0,52.87,0S271.32,209.27,268.31,208.52Z" style="fill:#f1f1f1"/><path d="M218.5,223.59l.24-.48c.59-1.15,1.16-2.31,1.72-3.45,2.84-5.79,5.3-10.79,7.74-11.44.87-.24,36.1,0,40.11,0h.08c3.15.78,3.77,13.57,3.83,15v.34h-.33c-.32,0-31.33-.59-52.86,0Zm23.86-.92c14.23,0,27,.22,29.21.26-.26-5.49-1.33-13.51-3.3-14.09-10.82-.06-38.94-.19-39.91,0-2.16.58-4.67,5.7-7.33,11.11-.49,1-1,2-1.48,3C226.64,222.73,234.71,222.67,242.36,222.67Z" style="fill:#d6d6d7"/><path d="M268.14,239.55c-3,2.59-35.63,2.32-44.35.51C212.14,237.65,214,232,201.3,219.7c31.68.6,80,0,80,0S275.76,233,268.14,239.55Z" style="fill:#f1f1f1"/><path d="M247.31,241.78c-9.94,0-19.56-.57-23.58-1.41-7.35-1.52-9.47-4.4-13-9.18a81,81,0,0,0-9.67-11.27l-.59-.56.81,0c31.32.59,79.53,0,80,0h.49l-.19.45c-.06.13-5.67,13.4-13.27,20h0c-2,1.74-14.82,2-20.23,2ZM202.09,220a80.13,80.13,0,0,1,9.17,10.78c3.54,4.82,5.49,7.47,12.6,8.94,11.06,2.29,41.71,1.59,44.07-.44l.21.24-.21-.24c6.7-5.8,11.85-16.93,12.9-19.29C275.69,220.08,231.71,220.57,202.09,220Z" style="fill:#d6d6d7"/><path d="M211.75,232c3.11,4.19,5.34,6.66,12,8.05,8.72,1.81,41.34,2.08,44.35-.51,2.38-2.06,6.44-7.54,6.44-7.54C248.9,234.72,211.75,232,211.75,232Z" style="fill:#3e3a39"/><path d="M238.11,213.63v-3.2s-9.15-.05-12.23-.09l-1.85,3C228.87,213.86,238.11,213.63,238.11,213.63Z" style="fill:#a3d7e9"/><path d="M233.43,213.92c-3,0-6.86-.06-9.43-.33l-.38,0,2.13-3.45h.13c3.05,0,12.14.09,12.23.09h.23v3.68h-.23S236.05,213.92,233.43,213.92Zm-9-.77c4.42.41,12,.28,13.44.25v-2.73L226,210.58Z" style="fill:#9e9e9f"/><rect x="239.99" y="210.61" width="3.45" height="2.8" style="fill:#a3d7e9"/><path d="M243.69,213.66h-4v-3.3h4Zm-3.45-.51h2.94v-2.28h-2.94Z" style="fill:#9e9e9f"/><rect x="245.15" y="210.61" width="3.45" height="2.8" style="fill:#a3d7e9"/><path d="M248.85,213.66h-4v-3.3h4Zm-3.45-.51h2.94v-2.28H245.4Z" style="fill:#9e9e9f"/><rect x="250.3" y="210.61" width="3.45" height="2.8" style="fill:#a3d7e9"/><path d="M254,213.66h-4v-3.3h4Zm-3.45-.51h2.94v-2.28h-2.94Z" style="fill:#9e9e9f"/><rect x="255.46" y="210.61" width="3.45" height="2.8" style="fill:#a3d7e9"/><path d="M259.16,213.66h-4v-3.3h4Zm-3.45-.51h3v-2.28h-3Z" style="fill:#9e9e9f"/><rect x="260.62" y="210.61" width="3.45" height="2.8" style="fill:#a3d7e9"/><path d="M264.32,213.66h-3.95v-3.3h3.95Zm-3.45-.51h2.95v-2.28h-2.95Z" style="fill:#9e9e9f"/><rect x="265.78" y="210.61" width="3.45" height="2.8" style="fill:#a3d7e9"/><path d="M269.48,213.66h-4v-3.3h4Zm-3.45-.51H269v-2.28H266Z" style="fill:#9e9e9f"/><rect x="225.51" y="215.23" width="3.79" height="2.8" style="fill:#a3d7e9"/><path d="M229.56,218.3h-4.32V215h4.32Zm-3.79-.54H229V215.5h-3.26Z" style="fill:#9e9e9f"/><path d="M225.51,218v-2.8H223c-.5,1-.92,1.89-1.35,2.8Z" style="fill:#a3d7e9"/><path d="M225.76,218.28h-4.49l.17-.36c.43-.91.85-1.8,1.35-2.8l.07-.14h2.9Zm-3.69-.5h3.18v-2.29h-2.08C222.77,216.3,222.42,217,222.07,217.78Z" style="fill:#9e9e9f"/><rect x="229.06" y="215.23" width="3.79" height="2.8" style="fill:#a3d7e9"/><path d="M233.11,218.3h-4.32V215h4.32Zm-3.78-.54h3.25V215.5h-3.25Z" style="fill:#9e9e9f"/><rect x="232.61" y="215.23" width="3.79" height="2.8" style="fill:#a3d7e9"/><path d="M236.66,218.3h-4.31V215h4.31Zm-3.78-.54h3.25V215.5h-3.25Z" style="fill:#9e9e9f"/><rect x="236.16" y="215.23" width="3.79" height="2.8" style="fill:#a3d7e9"/><path d="M240.22,218.3H235.9V215h4.32Zm-3.79-.54h3.25V215.5h-3.25Z" style="fill:#9e9e9f"/><rect x="239.72" y="215.23" width="3.79" height="2.8" style="fill:#a3d7e9"/><path d="M243.77,218.3h-4.32V215h4.32Zm-3.79-.54h3.26V215.5H240Z" style="fill:#9e9e9f"/><rect x="243.25" y="215.23" width="3.79" height="2.8" style="fill:#a3d7e9"/><path d="M247.3,218.3H243V215h4.32Zm-3.79-.54h3.26V215.5h-3.26Z" style="fill:#9e9e9f"/><rect x="246.8" y="215.23" width="3.79" height="2.8" style="fill:#a3d7e9"/><path d="M250.85,218.3h-4.32V215h4.32Zm-3.79-.54h3.26V215.5h-3.26Z" style="fill:#9e9e9f"/><rect x="250.35" y="215.23" width="3.79" height="2.8" style="fill:#a3d7e9"/><path d="M254.4,218.3h-4.32V215h4.32Zm-3.78-.54h3.25V215.5h-3.25Z" style="fill:#9e9e9f"/><rect x="253.9" y="215.23" width="3.79" height="2.8" style="fill:#a3d7e9"/><path d="M258,218.3h-4.31V215H258Zm-3.78-.54h3.25V215.5h-3.25Z" style="fill:#9e9e9f"/><rect x="257.46" y="215.23" width="3.79" height="2.8" style="fill:#a3d7e9"/><path d="M261.51,218.3h-4.32V215h4.32Zm-3.79-.54H261V215.5h-3.25Z" style="fill:#9e9e9f"/><rect x="261.01" y="215.23" width="3.79" height="2.8" style="fill:#a3d7e9"/><path d="M265.06,218.3h-4.31V215h4.31Zm-3.78-.54h3.25V215.5h-3.25Z" style="fill:#9e9e9f"/><rect x="264.56" y="215.23" width="3.79" height="2.8" style="fill:#a3d7e9"/><path d="M268.61,218.3H264.3V215h4.31Zm-3.78-.54h3.25V215.5h-3.25Z" style="fill:#9e9e9f"/><polygon points="271.52 218.03 268.12 218.03 268.12 215.23 271.03 215.23 271.52 218.03" style="fill:#a3d7e9"/><path d="M271.83,218.3h-4V215h3.4Zm-3.45-.54h2.82l-.39-2.26h-2.43Z" style="fill:#9e9e9f"/><path d="M261.83,198.29c.19-.46.18-3,1.49-3.22.31-.89.28-2.1.88-2.91.83-1.12,1.58-1.8,2.55-1.57.43-1.86,1.84-3.61,5-2.11,1.71-2.73,5.72-2.68,7.78-.69,1.4,1.35,1.9,4.15.11,5.31.51,3.29-3.73,4.33-6.08,3.16-1,2.13-5,1.62-5.35,0-.35,1.2-2.41,1.52-3.45,1a3.33,3.33,0,0,1-1,1A3.89,3.89,0,0,1,261.83,198.29Z" style="fill:#fff"/><path d="M217.84,240.44c-3.44,1-8.55.6-8.71-.65s8.59-2.53,10.75-1.52c1.14.53.07,1.34,3.2,1.13,1.43-.1,3.08-1.28,5.18-.73,1.12.3,0,1.28,1,1.68a4.88,4.88,0,0,0,3.9-.43c.14-.91.74-2,4.19-2.07,3,0,3,1.69,3.78,2.42a4.49,4.49,0,0,0,5,.39c.6-.28-.26-.58.78-.89.81-.23,2.26-.63,3.23-.15.23.84,2.25.45,4.71-.21,1.18-.31,6.87-1.08,7.59-.28.54.59-6.06,1-2.94,1.67s2.12-.67,3.56-.89c1.71-.27,1.85.41,2.84.44a12.71,12.71,0,0,0,3.28-.43c1.44-.3,6.07-1.54,5.75-.12-.14.6-3.1.87-4.08,1.33-.8.38.5.61-1.45.77-1.24.1-2.37-.49-3.79-.39-3.33.24-6.16,2.81-10.7,1.32-.52-.17-.88-.8-1.2-.85-1.94-.27-.91.35-2,.42-2.44.16-3.41-.76-5.05-.61s-.65,1.07-3.48,1.13c-3,.07-3-.69-4.89-1-2.91-.55-2.34.17-4.55.57-1.83.34-5.25.22-4-.62-1.17-.25-2.53-.28-3.69-.51s-1.11-.78-3.21-.64c1.41.47.87,1.38-1.25,1.47-4.22.18-3.29-.79-3.74-.91" style="fill:#c1e4f0"/><path d="M357.08,232.79c.31,0,9.07-15.25,17.85-15.25H384l.27.1h9.1c8.78,0,12,17.4,12.34,17.4" style="fill:#d72b17"/><path d="M374.06,219.46s-6.83,2.45-9.81,11.56H384V219.81Z" style="fill:#76171c"/><path d="M385.61,219.92,386,231l15.4,0s-2.45-9.31-5.42-10.89Z" style="fill:#76171c"/><path d="M400.4,231H359c-10.43,0-12.42,6.61-12.76,10h0a5,5,0,0,0,0,1.52c0,.25,0,.38,0,.38h.06a2,2,0,0,0,2.13,1.62H407a1.58,1.58,0,0,0,1.47-1.62h0S409.59,230.83,400.4,231Z" style="fill:#d72b17"/><path d="M366.7,244a5.6,5.6,0,1,1-5.6-5.6A5.6,5.6,0,0,1,366.7,244Z" style="fill:#504e4d"/><path d="M365.13,244a4,4,0,1,1-4-4A4,4,0,0,1,365.13,244Z" style="fill:#aeaeae"/><path d="M400.84,244a5.6,5.6,0,1,1-5.6-5.6A5.6,5.6,0,0,1,400.84,244Z" style="fill:#504e4d"/><path d="M399.26,244a4,4,0,1,1-4-4A4,4,0,0,1,399.26,244Z" style="fill:#aeaeae"/><path d="M350.62,239.6c0,.09.19.21,0,0Z" style="fill:#fff"/><path d="M352.52,233.64c-2.73-.4-5,5.6-1.9,6h.5C353.85,239.31,355.32,234.05,352.52,233.64Z" style="fill:#fff"/><path d="M349.15,238.3c-.06,0,0,.23,0,0Z" style="fill:#edd870"/><path d="M350.58,236.7c-2.44-.6-1.67,3.48.4,3.05l.43-.15C353.7,238.6,353.59,237.44,350.58,236.7Z" style="fill:#edd870"/><rect x="377.21" y="233.29" width="5.43" height="1.75" style="fill:#76171c"/><rect x="395.32" y="233.29" width="5.43" height="1.75" style="fill:#76171c"/><path d="M362.76,244a1.66,1.66,0,1,1-1.66-1.66A1.66,1.66,0,0,1,362.76,244Z" style="fill:#fff"/><path d="M396.9,244a1.67,1.67,0,1,1-1.66-1.66A1.66,1.66,0,0,1,396.9,244Z" style="fill:#fff"/><path d="M364.32,139.33c2.91-1.14,7.65-1.38,13-2.65,3.56-.85,5.63-.51,3.85,1.3-2.37,2.42-7.64,8.12-12.27,6.17S362,140.24,364.32,139.33Z" style="fill:#fff"/><path d="M376.41,157h0l-6.84-1.65-1.17,4.9,6.84,1.64h0c.76.18,1.64-.76,2-2.12S377.17,157.16,376.41,157Z" style="fill:#d7d7d7"/><path d="M370.36,158.11c-.32,1.35-1.2,2.3-2,2.12s-1.12-1.43-.8-2.78,1.21-2.3,2-2.12S370.69,156.76,370.36,158.11Z" style="fill:#d7d7d7"/><path d="M382.39,160.78h0l-6.31-1.52L375,163.78l6.31,1.51h0c.7.17,1.51-.7,1.81-1.95S383.09,161,382.39,160.78Z" style="fill:#d7d7d7"/><path d="M376.82,161.83c-.3,1.24-1.12,2.11-1.82,1.95s-1-1.32-.73-2.57,1.11-2.11,1.81-2S377.11,160.58,376.82,161.83Z" style="fill:#d7d7d7"/><path d="M380.52,137.65c1.11.55,3.32-1.26,2.32-2.09-.81-.32-2.94-1.15-3.72-.75a2.3,2.3,0,0,0-.82,1.84Z" style="fill:#fff"/><path d="M394.79,148.33c4.83-.86,9.82-2.39,13.08-3,1.92-.36,4.58.62,3.85,1.31-2.05,1.94-9,6.46-12.39,6.5C394.3,153.21,392.36,148.76,394.79,148.33Z" style="fill:#d03419"/><path d="M356.85,134.87s-4.86-2.78-11,1.3-9.21,2-11.42,4.31c-1.2,1.26-4.1,2.13,13.21,9.33a142.4,142.4,0,0,0,26.24,8.1s23.07,4,33.81.47a5.2,5.2,0,0,0,3-3.43C411.25,153.3,390.59,148.38,356.85,134.87Z" style="fill:#fff"/><path d="M341.9,138.18c-2.72.7-6.88.58-6.49,2.44.32,1.48,3.29,4,14.42,8.44,34.42,13.59,51.59,8.66,54.12,8,0,0-20.49,2-36.81-3.59C349,147.25,333.62,141.29,341.9,138.18Z" style="fill:#d03419"/><path d="M360.58,151.09c-2.17-2.15,2.77-3.71,12.26-.49,3.16,1.08,11.33,9.7,21.3,17,1.86,1.36-1.35,2.19-4,1.44S360.58,151.09,360.58,151.09Z" style="fill:#fff"/><path d="M391.76,167.18s2.3-1.48,3.41-1.49c1.45,0,2.57,2,2.57,2,0,.77-3.68,2.66-4.83,2.4S388.54,168.86,391.76,167.18Z" style="fill:#fff"/><path d="M403,155.51c1.34,1.67,2.9,4.66,4.25,6.75.82,1.28-1.64,1.24-2.62.94,0,0-8.55-5.91-9.16-7.1C393.57,152.49,402.21,154.58,403,155.51Z" style="fill:#fff"/><path d="M345.23,136.13c-.74,1.5,2.76,3.57,2.76,3.57l2.49-2.4a6.1,6.1,0,0,1-2.38-2.58A17.9,17.9,0,0,1,345.23,136.13Z" style="fill:#96d4e7"/><path d="M348,139.87a.15.15,0,0,1-.09,0c-.15-.09-3.64-2.17-2.83-3.8a.15.15,0,0,1,.1-.09,18.18,18.18,0,0,0,2.84-1.4.24.24,0,0,1,.14,0,.18.18,0,0,1,.11.1,5.83,5.83,0,0,0,2.31,2.51.18.18,0,0,1,.09.13.2.2,0,0,1-.06.15l-2.48,2.39A.17.17,0,0,1,348,139.87Zm-2.63-3.6c-.42,1.06,1.63,2.6,2.61,3.2l2.22-2.13A6.15,6.15,0,0,1,348,135,17.68,17.68,0,0,1,345.36,136.27Z" style="fill:#b0b1b1"/><path d="M348.7,140.31l2.23-2.44a34.47,34.47,0,0,0,3.46,1.9l-2,2.49A11.89,11.89,0,0,1,348.7,140.31Z" style="fill:#96d4e7"/><path d="M352.42,142.44h-.05a11.91,11.91,0,0,1-3.79-2,.16.16,0,0,1-.06-.13.24.24,0,0,1,.05-.13l2.23-2.44a.18.18,0,0,1,.22,0,34.26,34.26,0,0,0,3.44,1.88.19.19,0,0,1,.11.12.21.21,0,0,1,0,.16l-2,2.49A.21.21,0,0,1,352.42,142.44ZM349,140.3a11.93,11.93,0,0,0,3.39,1.75l1.76-2.21c-1.09-.5-2.69-1.46-3.15-1.74Z" style="fill:#b0b1b1"/><rect x="357.17" y="141.46" width="4.18" height="2.51" transform="translate(108.67 437.06) rotate(-71.25)" style="fill:#fff"/><path d="M359.89,145.32l-2.71-.92,1.46-4.3,2.71.93Zm-2.26-1.14,2,.69,1.22-3.62-2-.69Z" style="fill:#b9baba"/><rect x="361.3" y="142.93" width="2.39" height="2.15" transform="translate(109.59 440.95) rotate(-71.25)" style="fill:#96d4e7"/><path d="M363.12,145.66h-.05l-2-.69a.22.22,0,0,1-.1-.09.23.23,0,0,1,0-.14l.77-2.26a.18.18,0,0,1,.23-.12l2,.69a.17.17,0,0,1,.11.23l-.77,2.26A.17.17,0,0,1,363.12,145.66Zm-1.8-1,1.69.58.66-1.92-1.7-.58Z" style="fill:#b0b1b1"/><rect x="364.01" y="143.85" width="2.39" height="2.15" transform="translate(110.53 444.11) rotate(-71.24)" style="fill:#96d4e7"/><path d="M365.84,146.58h-.06l-2-.69a.2.2,0,0,1-.11-.09.23.23,0,0,1,0-.14l.77-2.26a.17.17,0,0,1,.23-.11l2,.69a.15.15,0,0,1,.11.08.23.23,0,0,1,0,.14l-.77,2.27A.19.19,0,0,1,365.84,146.58Zm-1.81-1,1.7.57.65-1.92-1.7-.58Z" style="fill:#b0b1b1"/><rect x="366.82" y="144.8" width="2.39" height="2.15" transform="translate(111.51 447.41) rotate(-71.24)" style="fill:#96d4e7"/><path d="M368.65,147.53h-.06l-2-.69a.18.18,0,0,1-.11-.22l.77-2.27a.15.15,0,0,1,.09-.1.15.15,0,0,1,.13,0l2,.69a.18.18,0,0,1,.11.23l-.77,2.26a.15.15,0,0,1-.09.1A.11.11,0,0,1,368.65,147.53Zm-1.8-1,1.69.58.65-1.93-1.69-.57Z" style="fill:#b0b1b1"/><rect x="373.16" y="146.95" width="2.39" height="2.15" transform="translate(113.74 454.84) rotate(-71.23)" style="fill:#96d4e7"/><path d="M375,149.68h-.05l-2-.69a.18.18,0,0,1-.11-.22l.77-2.27a.18.18,0,0,1,.09-.1.22.22,0,0,1,.14,0l2,.69a.18.18,0,0,1,.1.09.14.14,0,0,1,0,.14l-.77,2.26A.16.16,0,0,1,375,149.68Zm-1.8-1,1.69.58.66-1.93-1.7-.57Z" style="fill:#b0b1b1"/><rect x="375.87" y="147.87" width="2.39" height="2.15" transform="translate(114.72 458.04) rotate(-71.23)" style="fill:#96d4e7"/><path d="M377.7,150.6h-.06l-2-.7a.18.18,0,0,1-.11-.22l.77-2.27a.18.18,0,0,1,.23-.11l2,.69a.24.24,0,0,1,.11.09.17.17,0,0,1,0,.14l-.77,2.26a.15.15,0,0,1-.08.11Zm-1.81-1,1.69.58.66-1.93-1.7-.57Z" style="fill:#b0b1b1"/><rect x="378.68" y="148.83" width="2.39" height="2.15" transform="translate(115.81 461.43) rotate(-71.25)" style="fill:#96d4e7"/><path d="M380.51,151.56h-.06l-2-.69a.24.24,0,0,1-.11-.09.17.17,0,0,1,0-.14l.77-2.26a.18.18,0,0,1,.22-.11l2,.69a.18.18,0,0,1,.1.09.22.22,0,0,1,0,.14l-.77,2.26A.19.19,0,0,1,380.51,151.56Zm-1.81-1,1.7.57.65-1.92-1.69-.58Z" style="fill:#b0b1b1"/><rect x="385.11" y="151.01" width="2.39" height="2.15" transform="translate(118.09 468.99) rotate(-71.25)" style="fill:#96d4e7"/><path d="M386.94,153.74h-.06l-2-.69a.18.18,0,0,1-.11-.22l.77-2.27a.15.15,0,0,1,.09-.1.2.2,0,0,1,.13,0l2,.69a.19.19,0,0,1,.11.23l-.77,2.26a.19.19,0,0,1-.09.11Zm-1.8-1,1.69.58.65-1.93-1.69-.57Z" style="fill:#b0b1b1"/><rect x="387.83" y="151.94" width="2.39" height="2.15" transform="translate(119.06 472.18) rotate(-71.25)" style="fill:#96d4e7"/><path d="M389.65,154.66h0l-2-.69a.19.19,0,0,1-.11-.23l.77-2.27a.18.18,0,0,1,.09-.1.22.22,0,0,1,.14,0l2,.69a.19.19,0,0,1,.11.23l-.77,2.26A.16.16,0,0,1,389.65,154.66Zm-1.8-1,1.69.58.66-1.93-1.7-.57Z" style="fill:#b0b1b1"/><rect x="390.64" y="152.89" width="2.39" height="2.15" transform="translate(120.11 475.54) rotate(-71.25)" style="fill:#96d4e7"/><path d="M392.47,155.62h-.06l-2-.69a.17.17,0,0,1-.11-.09.22.22,0,0,1,0-.14l.77-2.26a.22.22,0,0,1,.09-.1.17.17,0,0,1,.14,0l2,.69a.17.17,0,0,1,.11.23l-.76,2.26a.22.22,0,0,1-.09.1A.12.12,0,0,1,392.47,155.62Zm-1.81-1,1.7.57.65-1.92-1.7-.58Z" style="fill:#b0b1b1"/><rect x="369.12" y="145.52" width="4.18" height="2.51" transform="translate(112.9 451.1) rotate(-71.25)" style="fill:#fff"/><path d="M371.83,149.38l-2.71-.92,1.46-4.3,2.71.92Zm-2.25-1.15,2,.69,1.23-3.61-2-.69Z" style="fill:#b9baba"/><rect x="381.06" y="149.57" width="4.18" height="2.51" transform="translate(117.03 465.05) rotate(-71.23)" style="fill:#fff"/><path d="M383.78,153.44l-2.71-.93,1.46-4.29,2.71.92Zm-2.26-1.15,2,.69,1.23-3.62-2-.69Z" style="fill:#b9baba"/><rect x="45.13" y="222.19" width="78.69" height="18.5" style="fill:#b3dae6"/><rect x="43.59" y="229.63" width="94.02" height="3.42" style="fill:#c19b79"/><rect x="43.06" y="222.46" width="3.1" height="25.06" style="fill:#c19b79"/><rect x="66.05" y="222.46" width="3.1" height="25.06" style="fill:#c19b79"/><rect x="89.05" y="222.46" width="3.1" height="25.06" style="fill:#c19b79"/><rect x="125.7" y="144.19" width="37.46" height="11.37" style="fill:#c8bb9b"/><rect x="43.28" y="161.05" width="119.92" height="62.14" style="fill:#c8bb9b"/><polygon points="169.25 164.08 37.23 164.08 43.28 153.99 163.19 153.99 169.25 164.08" style="fill:#5c83a4"/><polygon points="169.25 223.86 37.23 223.86 43.28 213.77 163.19 213.77 169.25 223.86" style="fill:#5c83a4"/><rect x="48.61" y="166.4" width="16.53" height="10.08" style="fill:#b3dae6"/><rect x="47.58" y="173.9" width="18.6" height="3.62" style="fill:#806663"/><rect x="48.61" y="182.94" width="16.53" height="10.07" style="fill:#b3dae6"/><rect x="47.58" y="190.43" width="18.6" height="3.62" style="fill:#806663"/><rect x="48.61" y="199.47" width="16.53" height="10.08" style="fill:#b3dae6"/><rect x="47.58" y="206.96" width="18.6" height="3.62" style="fill:#806663"/><rect x="71.86" y="166.4" width="16.53" height="10.08" style="fill:#b3dae6"/><rect x="70.83" y="173.9" width="18.6" height="3.62" style="fill:#806663"/><rect x="71.86" y="182.94" width="16.53" height="10.07" style="fill:#b3dae6"/><rect x="70.83" y="190.43" width="18.6" height="3.62" style="fill:#806663"/><rect x="71.86" y="199.47" width="16.53" height="10.08" style="fill:#b3dae6"/><rect x="70.83" y="206.96" width="18.6" height="3.62" style="fill:#806663"/><rect x="95.11" y="166.4" width="16.53" height="10.08" style="fill:#b3dae6"/><rect x="94.08" y="173.9" width="18.6" height="3.62" style="fill:#806663"/><rect x="95.11" y="182.94" width="16.53" height="10.07" style="fill:#b3dae6"/><rect x="94.08" y="190.43" width="18.6" height="3.62" style="fill:#806663"/><rect x="95.11" y="199.47" width="16.53" height="10.08" style="fill:#b3dae6"/><rect x="94.08" y="206.96" width="18.6" height="3.62" style="fill:#806663"/><rect x="118.36" y="166.4" width="16.53" height="10.08" style="fill:#b3dae6"/><rect x="117.33" y="173.9" width="18.6" height="3.62" style="fill:#806663"/><rect x="118.36" y="182.94" width="16.53" height="10.07" style="fill:#b3dae6"/><rect x="117.33" y="190.43" width="18.6" height="3.62" style="fill:#806663"/><rect x="118.36" y="199.47" width="16.53" height="10.08" style="fill:#b3dae6"/><rect x="117.33" y="206.96" width="18.6" height="3.62" style="fill:#806663"/><rect x="141.61" y="166.4" width="16.53" height="10.08" style="fill:#b3dae6"/><rect x="140.58" y="173.9" width="18.6" height="3.62" style="fill:#806663"/><rect x="141.61" y="182.94" width="16.53" height="10.07" style="fill:#b3dae6"/><rect x="140.58" y="190.43" width="18.6" height="3.62" style="fill:#806663"/><rect x="141.61" y="199.47" width="16.53" height="10.08" style="fill:#b3dae6"/><rect x="140.58" y="206.96" width="18.6" height="3.62" style="fill:#806663"/><polygon points="144.26 135.06 130.05 142.22 158.69 142.22 144.26 135.06" style="fill:#c8bb9b"/><polygon points="144.16 136.04 156.08 141.84 159.11 141.84 144.16 134.57 129.53 141.84 132.49 141.84 144.16 136.04" style="fill:#806663"/><polygon points="158.99 142.09 144.16 134.89 129.65 142.09 129.4 141.58 144.16 134.25 159.24 141.58 158.99 142.09" style="fill:#5c83a4"/><polygon points="129.63 141.48 121.21 145.38 167.64 145.38 159.11 141.48 129.63 141.48" style="fill:#5c83a4"/><rect x="130.61" y="147.03" width="4.13" height="4.65" style="fill:#b3dae6"/><rect x="138.4" y="147.03" width="4.13" height="4.65" style="fill:#b3dae6"/><rect x="146.19" y="147.03" width="4.13" height="4.65" style="fill:#b3dae6"/><rect x="153.99" y="147.03" width="4.13" height="4.65" style="fill:#b3dae6"/><path d="M58,238.7A4.93,4.93,0,0,1,53.78,237l.84-.56-.42.28.42-.29c0,.07,1.12,1.57,4.2,1.23,2.69-.3,3.49-1.63,3.52-1.69l.88.49c0,.07-1,1.84-4.29,2.2A8.44,8.44,0,0,1,58,238.7Z" style="fill:#4f271d"/><path d="M58.33,238.75l-.49-.88a5.21,5.21,0,0,0,2.06-2.07l1,.36A6.13,6.13,0,0,1,58.33,238.75Z" style="fill:#4f271d"/><rect x="56.82" y="236.07" width="1.01" height="2.95" transform="translate(-91.42 43.67) rotate(-23.93)" style="fill:#4f271d"/><path d="M52.05,230.35a4.4,4.4,0,0,1-4.21-2.74l1-.32-.48.16.48-.16a3.42,3.42,0,0,0,3.84,2,4.91,4.91,0,0,0,3.8-2.57l.91.43a5.93,5.93,0,0,1-4.6,3.15C52.5,230.33,52.27,230.35,52.05,230.35Z" style="fill:#4f271d"/><path d="M53.08,230.13l-.77-.65a9.13,9.13,0,0,0,1.42-2.37l1,.35A10.3,10.3,0,0,1,53.08,230.13Z" style="fill:#4f271d"/><rect x="50.84" y="226.86" width="1.01" height="3.03" transform="translate(-73.09 30.11) rotate(-19.44)" style="fill:#4f271d"/><path d="M49.16,229s-.34,10.26.5,12.45-1.85,4.87-1.85,4.87H53.7s1.68-4.37.84-5.88-2.69-4.37-2.69-7.23A5.07,5.07,0,0,0,49.16,229Z" style="fill:#4f271d"/><path d="M53.85,242.09s3-.75,3.7-1.45a15,15,0,0,0,1.16-2.33l-1.41-.08a7,7,0,0,1-.83,1.53,11.27,11.27,0,0,1-2.87.54Z" style="fill:#4f271d"/><path d="M50.52,239.31c-2.81.17-4.76-1.31-7.92-2.95l2.39-.42s1.48.59,2,.75a30.78,30.78,0,0,0,3.36.66Z" style="fill:#4f271d"/><path d="M43.64,236.57a4.4,4.4,0,0,1-4.21-2.73l1-.33-.48.16.48-.16a3.41,3.41,0,0,0,3.84,2A4.91,4.91,0,0,0,48,233l.91.42a5.89,5.89,0,0,1-4.6,3.15A5.69,5.69,0,0,1,43.64,236.57Z" style="fill:#4f271d"/><path d="M44.67,236.36l-.77-.66a9.13,9.13,0,0,0,1.42-2.37l1,.35A10.24,10.24,0,0,1,44.67,236.36Z" style="fill:#4f271d"/><rect x="42.43" y="233.08" width="1.01" height="3.03" transform="matrix(0.94, -0.33, 0.33, 0.94, -75.62, 27.66)" style="fill:#4f271d"/><path d="M40.08,234.68c-1.32.26-4,1-5.38-.17s-.84-3.19,1.51-5,4.37-3.53,7.4-3.87c2.35-.26,4.38,1.85,6.9,3.37,3.36,2,2.8,4.13,1.68,5.38-1.52,1.68-3.37.16-6.9,0A23.26,23.26,0,0,0,40.08,234.68Z" style="fill:#006037"/><path d="M55.24,237c-1.32.26-4,1-5.38-.17s-.84-3.19,1.52-5,4.37-3.53,7.39-3.87c2.35-.26,4.38,1.86,6.9,3.37,3.36,2,2.81,4.13,1.68,5.38-1.51,1.68-3.36.16-6.89,0A23.36,23.36,0,0,0,55.24,237Z" style="fill:#006037"/><path d="M49,228.12c-1.32.26-4,1-5.38-.17s-.84-3.19,1.51-5,4.38-3.53,7.4-3.87c2.35-.26,4.38,1.85,6.9,3.37,3.36,2,2.8,4.13,1.68,5.38-1.52,1.68-3.36.16-6.9,0A23.26,23.26,0,0,0,49,228.12Z" style="fill:#006037"/><path d="M83.22,238.28c3,0,4.12-1.64,4.17-1.72l-.83-.57c0,.07-1.13,1.56-4.21,1.23-2.68-.3-3.48-1.64-3.51-1.69L78,236c0,.08,1,1.85,4.29,2.21A8.71,8.71,0,0,0,83.22,238.28Z" style="fill:#4f271d"/><path d="M82.85,238.33l.48-.89a5.22,5.22,0,0,1-2-2.06l-1,.35A6.12,6.12,0,0,0,82.85,238.33Z" style="fill:#4f271d"/><rect x="82.38" y="236.62" width="2.95" height="1.01" transform="translate(-166.9 217.66) rotate(-66.09)" style="fill:#4f271d"/><path d="M89.13,229.92a4.4,4.4,0,0,0,4.21-2.73l-1-.32.48.16-.48-.17a3.4,3.4,0,0,1-3.84,2,4.91,4.91,0,0,1-3.8-2.57l-.91.43a5.91,5.91,0,0,0,4.6,3.14A5.69,5.69,0,0,0,89.13,229.92Z" style="fill:#4f271d"/><path d="M88.1,229.71l.77-.66a9.34,9.34,0,0,1-1.43-2.37l-.94.36A10.3,10.3,0,0,0,88.1,229.71Z" style="fill:#4f271d"/><rect x="88.32" y="227.45" width="3.03" height="1.01" transform="translate(-155.02 236.79) rotate(-70.56)" style="fill:#4f271d"/><path d="M92,228.54s.33,10.26-.51,12.45,1.85,4.87,1.85,4.87H87.48s-1.69-4.37-.84-5.88,2.69-4.38,2.69-7.23A5.07,5.07,0,0,1,92,228.54Z" style="fill:#4f271d"/><path d="M87.33,241.67s-3-.75-3.7-1.46a15,15,0,0,1-1.16-2.33l1.41-.08a6.6,6.6,0,0,0,.83,1.54,11.19,11.19,0,0,0,2.87.54Z" style="fill:#4f271d"/><path d="M90.66,238.88c2.81.17,4.76-1.31,7.91-2.94l-2.38-.42s-1.48.59-2,.74a31.56,31.56,0,0,1-3.36.67Z" style="fill:#4f271d"/><path d="M97.54,236.15a4.38,4.38,0,0,0,4.2-2.74l-.95-.32.48.16-.48-.16a3.41,3.41,0,0,1-3.84,2,4.89,4.89,0,0,1-3.8-2.57l-.92.43a6,6,0,0,0,4.61,3.15C97.08,236.13,97.31,236.15,97.54,236.15Z" style="fill:#4f271d"/><path d="M96.51,235.93l.77-.65a9.28,9.28,0,0,1-1.43-2.38l-.94.36A10.3,10.3,0,0,0,96.51,235.93Z" style="fill:#4f271d"/><rect x="96.72" y="233.67" width="3.03" height="1.01" transform="translate(-155.28 248.9) rotate(-70.56)" style="fill:#4f271d"/><path d="M101.1,234.26c1.32.25,4,1,5.38-.17s.84-3.19-1.52-5-4.37-3.53-7.39-3.87c-2.35-.26-4.38,1.85-6.9,3.36-3.36,2-2.8,4.13-1.68,5.38,1.51,1.68,3.36.17,6.89,0A23.28,23.28,0,0,1,101.1,234.26Z" style="fill:#006037"/><path d="M84.72,237.52c1.32.25,4,1,5.38-.17s.84-3.2-1.51-5-4.37-3.53-7.4-3.86c-2.34-.26-4.37,1.85-6.89,3.36-3.37,2-2.81,4.13-1.68,5.38,1.51,1.68,3.36.17,6.89,0A22.61,22.61,0,0,1,84.72,237.52Z" style="fill:#006037"/><path d="M92.79,227.55c1.32.25,4,1,5.38-.17s.84-3.2-1.51-5-4.37-3.52-7.4-3.86c-2.35-.26-4.38,1.85-6.89,3.36-3.37,2-2.81,4.13-1.69,5.38,1.52,1.68,3.37.17,6.9,0A23.19,23.19,0,0,1,92.79,227.55Z" style="fill:#006037"/><rect x="34.73" y="238.24" width="102.09" height="11.95" style="fill:#c8bb9b"/><polygon points="33.43 238.5 136.77 238.5 136.77 236.17 35.04 236.17 33.43 238.5" style="fill:#5c83a4"/><rect x="111.87" y="234.11" width="52.7" height="16.08" style="fill:#d1baba"/><rect x="124.47" y="235.05" width="27.79" height="15.13" style="fill:#b3dae6"/><rect x="154.44" y="238" width="8.83" height="9.24" style="fill:#325c2e"/><rect x="121.97" y="236.06" width="2.52" height="14.12" style="fill:#c19b79"/><rect x="152.01" y="236.06" width="2.52" height="14.12" style="fill:#c19b79"/><rect x="123.65" y="236.73" width="29.09" height="5.88" style="fill:#ecebea"/><rect x="108.77" y="233.07" width="4.91" height="17.11" style="fill:#c19b79"/><rect x="163.28" y="233.07" width="4.91" height="17.11" style="fill:#c19b79"/><rect x="106.91" y="226.02" width="63.03" height="10.97" style="fill:#c8bb9b"/><polygon points="138.26 211.2 116.31 222.26 160.54 222.26 138.26 211.2" style="fill:#c8bb9b"/><polygon points="138.18 212.68 156.59 221.63 161.28 221.63 138.18 210.41 115.58 221.63 120.17 221.63 138.18 212.68" style="fill:#806663"/><polygon points="161.12 221.94 138.19 210.8 115.74 221.94 115.42 221.3 138.18 210 161.43 221.3 161.12 221.94" style="fill:#5c83a4"/><rect x="121.76" y="227.11" width="33.33" height="5.72" style="fill:#a88d74"/><polygon points="115.68 250.19 115.18 245.98 116.52 243.8 119.89 243.13 121.57 245.81 123.25 248 123.08 250.19 115.68 250.19" style="fill:#706e6f"/><polygon points="115.83 221.12 102.82 227.14 174.16 227.14 160.99 221.12 115.83 221.12" style="fill:#5c83a4"/><rect x="130.67" y="236.95" width="0.25" height="5.68" style="fill:#c0c0b9"/><rect x="137.99" y="236.95" width="0.25" height="5.68" style="fill:#c0c0b9"/><rect x="145.3" y="236.95" width="0.25" height="5.68" style="fill:#c0c0b9"/><path d="M140.4,216a1.79,1.79,0,0,1,.65,1.32c0,1.19-1.38,2.16-3.09,2.16s-3.1-1-3.1-2.16a1.8,1.8,0,0,1,.66-1.32,2.1,2.1,0,0,0-1.14,1.72c0,1.3,1.6,2.35,3.58,2.35s3.58-1.05,3.58-2.35A2.1,2.1,0,0,0,140.4,216Z" style="fill:#806663"/><path d="M139.37,218.68a1.38,1.38,0,0,0,.39-1,2.37,2.37,0,0,0-.34-1,2.33,2.33,0,0,1-.31-1,1.46,1.46,0,0,1,.79-1.28l0,0a1.36,1.36,0,0,0-.39,1,2.29,2.29,0,0,0,.34,1,2.37,2.37,0,0,1,.31,1,1.47,1.47,0,0,1-.79,1.28Z" style="fill:#806663"/><path d="M136.25,218.68a1.38,1.38,0,0,0,.39-1,2.37,2.37,0,0,0-.34-1,2.3,2.3,0,0,1-.3-1,1.46,1.46,0,0,1,.79-1.28l0,0a1.37,1.37,0,0,0-.4,1,2.29,2.29,0,0,0,.34,1,2.37,2.37,0,0,1,.31,1,1.47,1.47,0,0,1-.79,1.28Z" style="fill:#806663"/><path d="M137.84,218.71a1.71,1.71,0,0,0,.35-1.09,3,3,0,0,0-.3-1.1,3.12,3.12,0,0,1-.28-1.09,1.72,1.72,0,0,1,.71-1.42l0,.05a1.76,1.76,0,0,0-.35,1.08,3,3,0,0,0,.31,1.11,3.07,3.07,0,0,1,.28,1.09,1.71,1.71,0,0,1-.72,1.42Z" style="fill:#806663"/><rect x="129.88" y="231.61" width="16.31" height="4.37" style="fill:#d69436"/><path d="M146.47,236.27H129.59v-5h16.88Zm-16.31-.58H145.9v-3.8H130.16Z" style="fill:#806663"/></g></g></g></svg>