<svg xmlns="http://www.w3.org/2000/svg" xmlns:xlink="http://www.w3.org/1999/xlink" viewBox="0 0 270 61.17"><defs><clipPath id="clip-path" transform="translate(0 0)"><rect width="270" height="61.17" style="fill:none"/></clipPath></defs><g id="レイヤー_2" data-name="レイヤー 2"><g id="テキスト"><g style="clip-path:url(#clip-path)"><path d="M24.31,46.82H0V29.23L12.15,16.05,24.31,29.23Zm-23-1.35H23V29.76L12.15,18.05,1.35,29.76Z" transform="translate(0 0)" style="fill:#25aa9d"/><path d="M256.64,11.91l-1-2.28.62-.78c.06-.07,0-.16-.06-.23l-.31-.25c-.09-.07-.22-.1-.27,0l-.35.43L254.57,7l.58-.73a.16.16,0,0,0,0-.23l-.31-.25a.2.2,0,0,0-.27,0l-.3.38-.7-1.61,2.21-2.77a1.18,1.18,0,0,0,0-1.63,1.17,1.17,0,0,0-1.58.41L252,3.34,250.27,3l.31-.38a.14.14,0,0,0,0-.22l-.31-.25c-.09-.07-.23-.09-.28,0l-.58.73-1.88-.33.35-.44c.06-.07,0-.15,0-.22l-.31-.25c-.09-.07-.23-.11-.28,0l-.63.78-2.43-.43a.35.35,0,0,0-.31.12l-.68.85a.29.29,0,0,0,.11.47l6.45,2.82-2.15,2.69a1.61,1.61,0,0,0-.24.36l-2.13.13-.33.41a.27.27,0,0,0,.14.44l2.21.7,1.16,2a.25.25,0,0,0,.44,0l.33-.42-.34-2.1a2.13,2.13,0,0,0,.29-.31l2.15-2.69,4.18,5.65a.29.29,0,0,0,.48,0l.68-.86a.35.35,0,0,0,.05-.33" transform="translate(0 0)" style="fill:#1f8bad"/><path d="M218.9,23.51a.35.35,0,0,1-.34-.33.35.35,0,0,1,.34-.35l1.34,0a.33.33,0,0,1,.35.33.34.34,0,0,1-.32.35l-1.36,0Zm-2.7,0h0l-1.36-.05a.34.34,0,0,1,0-.67l1.34,0a.34.34,0,0,1,.33.35A.33.33,0,0,1,216.2,23.51ZM223,23.3a.35.35,0,0,1-.34-.31.34.34,0,0,1,.3-.37c.51-.05,1-.1,1.33-.16a.34.34,0,0,1,.1.67c-.38.06-.84.12-1.36.16Zm-10.81-.06h0l-.46-.07c-.24,0-.55-.09-.91-.17a.34.34,0,1,1,.15-.66l.86.17.44.06a.34.34,0,0,1,0,.67Zm-29.1-.19a.33.33,0,0,1-.34-.33.34.34,0,0,1,.34-.34c.35,0,.81,0,1.33-.05a.34.34,0,1,1,0,.67c-.54,0-1,.05-1.37.05Zm-2.7-.1h0c-.45,0-.91-.1-1.36-.17a.33.33,0,1,1,.11-.66c.43.06.87.12,1.32.16a.34.34,0,0,1,.3.37A.33.33,0,0,1,180.35,23Zm6.74-.25a.32.32,0,0,1-.33-.28A.34.34,0,0,1,187,22l1.31-.24a.33.33,0,0,1,.4.26.33.33,0,0,1-.26.4c-.46.1-.91.18-1.34.25Zm39.85-.15a.35.35,0,0,1-.33-.26.34.34,0,0,1,.26-.41c.34-.08.65-.16.83-.22l.44-.14a.34.34,0,1,1,.21.64l-.44.14c-.19.07-.52.15-.89.24Zm-18.75-.21-.09,0c-.42-.11-.86-.24-1.31-.38a.34.34,0,0,1-.23-.42.34.34,0,0,1,.43-.22l1.29.37a.34.34,0,0,1-.09.67Zm-31.83-.12h-.09l-1.31-.4a.33.33,0,0,1-.21-.43.32.32,0,0,1,.42-.21c.42.14.85.27,1.28.38a.34.34,0,0,1-.09.67ZM191,21.75a.34.34,0,0,1-.1-.66c.41-.14.83-.29,1.25-.46a.35.35,0,0,1,.44.19.34.34,0,0,1-.19.44c-.43.17-.86.33-1.29.47Zm39.78-.43a.34.34,0,0,1-.32-.23.34.34,0,0,1,.21-.43L232,20.2a.34.34,0,0,1,.44.2.34.34,0,0,1-.2.43l-1.28.47Zm-26.5-.18-.11,0-1.29-.45a.34.34,0,0,1,.23-.64l1.28.45a.34.34,0,0,1-.11.66Zm-9.56-1a.35.35,0,0,1-.3-.17.33.33,0,0,1,.14-.46c.38-.22.77-.45,1.13-.69a.35.35,0,0,1,.47.1.34.34,0,0,1-.1.47c-.38.25-.77.49-1.18.71A.29.29,0,0,1,194.75,20.13Zm39.83-.31a.34.34,0,0,1-.31-.2.34.34,0,0,1,.17-.45q.6-.27,1.2-.57a.34.34,0,1,1,.31.6c-.41.21-.82.4-1.23.59Zm-34.08-.1a.31.31,0,0,1-.13,0l-1.25-.54a.34.34,0,1,1,.28-.62l1.23.54a.33.33,0,0,1,.18.44A.34.34,0,0,1,200.5,19.72Zm37.66-1.8a.34.34,0,0,1-.29-.16.34.34,0,0,1,.11-.47c.37-.23.74-.47,1.12-.73a.34.34,0,0,1,.47.1.33.33,0,0,1-.09.47c-.38.26-.77.5-1.15.74A.34.34,0,0,1,238.16,17.92Zm-41.29,0a.29.29,0,0,1-.18,0l-.34-.23c-.3-.22-.56-.38-.78-.53a.34.34,0,0,1-.1-.47.34.34,0,0,1,.47-.1l.8.55.32.21a.34.34,0,0,1,.09.47A.32.32,0,0,1,196.87,17.9Zm1.21-.07a.33.33,0,0,1-.26-.13.34.34,0,0,1,.05-.48c.35-.27.7-.56,1-.84a.34.34,0,1,1,.43.52c-.35.29-.71.58-1.06.85A.32.32,0,0,1,198.08,17.83Zm43.39-2.25a.32.32,0,0,1-.26-.12.34.34,0,0,1,0-.48c.34-.27.69-.55,1-.85a.33.33,0,0,1,.47,0,.32.32,0,0,1,0,.47c-.35.31-.7.59-1,.87A.31.31,0,0,1,241.47,15.58Zm-47.85-.1a.31.31,0,0,1-.22-.09,13,13,0,0,1-1-1,.34.34,0,0,1,.51-.45c.28.32.59.63.92.94a.34.34,0,0,1,0,.48A.33.33,0,0,1,193.62,15.48Zm7.56-.27a.35.35,0,0,1-.23-.09.34.34,0,0,1,0-.48,10.62,10.62,0,0,0,.85-1,.34.34,0,0,1,.47-.07.35.35,0,0,1,.07.48,13.54,13.54,0,0,1-.9,1.06A.35.35,0,0,1,201.18,15.21Zm43.34-2.3a.31.31,0,0,1-.24-.1.34.34,0,0,1,0-.48l.35-.34a.34.34,0,0,1,.48.48l-.36.35A.36.36,0,0,1,244.52,12.91Zm-53.34-.64a.32.32,0,0,1-.3-.2,7.26,7.26,0,0,1-.47-1.33.33.33,0,0,1,.25-.41.35.35,0,0,1,.41.25,6.67,6.67,0,0,0,.42,1.21.34.34,0,0,1-.17.45A.32.32,0,0,1,191.18,12.27Zm12.31-.38a.28.28,0,0,1-.15,0,.33.33,0,0,1-.15-.45,10.69,10.69,0,0,0,.54-1.21.34.34,0,0,1,.63.25,12.62,12.62,0,0,1-.57,1.26A.33.33,0,0,1,203.49,11.89ZM190.6,8.31h0a.34.34,0,0,1-.29-.38,7.62,7.62,0,0,1,.29-1.37.34.34,0,1,1,.65.19A7.39,7.39,0,0,0,190.94,8,.34.34,0,0,1,190.6,8.31Zm14-.29a.34.34,0,0,1-.34-.33,6.8,6.8,0,0,0-.12-1.29.34.34,0,0,1,.28-.39.33.33,0,0,1,.39.27,9.1,9.1,0,0,1,.13,1.4.34.34,0,0,1-.33.34ZM192,4.56a.36.36,0,0,1-.2-.06.34.34,0,0,1-.08-.47A7.2,7.2,0,0,1,192.69,3a.34.34,0,0,1,.48,0,.33.33,0,0,1,0,.47,7,7,0,0,0-.85,1A.32.32,0,0,1,192,4.56Zm11.48-.39a.32.32,0,0,1-.28-.15,6.48,6.48,0,0,0-.81-1,.34.34,0,0,1,0-.48.34.34,0,0,1,.48,0,6.36,6.36,0,0,1,.9,1.1.33.33,0,0,1-.1.47A.29.29,0,0,1,203.52,4.17ZM195.16,2a.34.34,0,0,1-.15-.65A9.51,9.51,0,0,1,196.33.9a.34.34,0,0,1,.42.23.34.34,0,0,1-.24.42A7.67,7.67,0,0,0,195.3,2Zm5.25-.37a.25.25,0,0,1-.12,0,5.54,5.54,0,0,0-1.23-.31.32.32,0,0,1-.29-.37.34.34,0,0,1,.37-.3,5.67,5.67,0,0,1,1.39.35.34.34,0,0,1-.12.65Z" transform="translate(0 0)" style="fill:#b4b4b5"/><path d="M39.2,46.91c-4.26,0-7.22-2.15-8.33-6.06l-.05-.17,3.43-1.42.06.21c.82,2.92,2.52,4.22,5.51,4.22,3.44,0,6.22-2.1,6.75-5.11s-1.77-4.42-5.38-6.12a17.92,17.92,0,0,1-5-3,5.71,5.71,0,0,1-1.48-5.08c.76-4.28,5.11-7.5,10.13-7.5,3.65,0,6.3,1.62,7.44,4.56l.07.16L49.1,23.2,49,23c-.89-2-2.38-2.94-4.83-2.94-3,0-5.53,1.7-5.94,4.06-.32,1.8.28,3.13,4.36,5,2.93,1.33,4.24,2,5.49,3.12a6.37,6.37,0,0,1,2,6.32c-.88,5-5.26,8.34-10.9,8.34" transform="translate(0 0)" style="fill:#1f8bad"/><path d="M53.72,46.62l2.63-14.93h3.24L57,46.62ZM58.85,27A1.8,1.8,0,0,1,57,24.83a2.63,2.63,0,0,1,2.52-2.08,1.83,1.83,0,0,1,1.43.63,1.85,1.85,0,0,1,.38,1.52A2.65,2.65,0,0,1,58.85,27" transform="translate(0 0)" style="fill:#231815"/><path d="M74.29,46.62l1.43-8.11a3.81,3.81,0,0,0-.5-3.14,3,3,0,0,0-2.37-.89,5.32,5.32,0,0,0-5.26,4.38l-1.37,7.76H63l2.63-14.93h3.23l-.21,1.22a8.7,8.7,0,0,1,4.91-1.51,5.4,5.4,0,0,1,4.31,1.79,6.38,6.38,0,0,1,1.08,5.38l-1.42,8Z" transform="translate(0 0)" style="fill:#231815"/><path d="M86.87,61.17a6.39,6.39,0,0,1-5.09-2,6.51,6.51,0,0,1-1.13-5.46l0-.16H84l0,.22A4,4,0,0,0,84.62,57a3.48,3.48,0,0,0,2.76,1.07c2.62,0,4.49-1.71,5-4.57l1.43-8.11a8.77,8.77,0,0,1-4.91,1.5,6.61,6.61,0,0,1-5.2-2.23,6.68,6.68,0,0,1-1.3-5.56,9.43,9.43,0,0,1,9.17-7.72A6.59,6.59,0,0,1,96,32.94l.22-1.25h3.23L95.6,53.59c-.83,4.67-4.17,7.58-8.73,7.58m4.22-26.69a5.63,5.63,0,0,0-5.38,4.82,4,4,0,0,0,.77,3.3,3.77,3.77,0,0,0,3,1.27,5.6,5.6,0,0,0,5.47-4.71,4.1,4.1,0,0,0-.73-3.41,3.93,3.93,0,0,0-3.09-1.27" transform="translate(0 0)" style="fill:#231815"/><polygon points="102.12 46.62 107.32 17.15 110.55 17.15 105.35 46.62 102.12 46.62" style="fill:#231815"/><path d="M119.06,46.91a6.77,6.77,0,0,1-5.32-2.25,6.66,6.66,0,0,1-1.29-5.54,9.46,9.46,0,0,1,9.21-7.72,6.36,6.36,0,0,1,6.2,3.88A9.15,9.15,0,0,1,128,40l0,.16H115.56a3.82,3.82,0,0,0,1,2.72A3.94,3.94,0,0,0,119.5,44a6,6,0,0,0,4.89-2.72l.09-.13,2.75,1.26-.14.19a9.85,9.85,0,0,1-8,4.29m5.87-9.51a3.64,3.64,0,0,0-3.76-3.07,5.75,5.75,0,0,0-4.91,3.07Z" transform="translate(0 0)" style="fill:#231815"/><path d="M150.11,46.91c-4.26,0-7.22-2.15-8.33-6.06l-.05-.17,3.43-1.42.05.21c.83,2.92,2.53,4.22,5.51,4.22,3.45,0,6.23-2.1,6.76-5.11s-1.78-4.42-5.38-6.12a17.4,17.4,0,0,1-5-3,5.71,5.71,0,0,1-1.48-5.08c.75-4.28,5.1-7.5,10.12-7.5,3.66,0,6.3,1.62,7.45,4.56l.06.16L160,23.2l-.08-.18c-.89-2-2.38-2.94-4.83-2.94-3,0-5.53,1.7-5.94,4.06-.32,1.8.28,3.13,4.36,5,2.92,1.33,4.24,2,5.49,3.12a6.36,6.36,0,0,1,2,6.32c-.88,5-5.26,8.34-10.9,8.34" transform="translate(0 0)" style="fill:#25aa9d"/><path d="M170.49,46.91a5.42,5.42,0,0,1-4.32-1.79,6.34,6.34,0,0,1-1.07-5.34l1.42-8.09h3.23l-1.43,8.15a3.73,3.73,0,0,0,.5,3.1,2.91,2.91,0,0,0,2.37.9,5.25,5.25,0,0,0,5.26-4.35l1.37-7.8h3.23l-2.63,14.93h-3.23l.21-1.21a8.62,8.62,0,0,1-4.91,1.5" transform="translate(0 0)" style="fill:#231815"/><path d="M181.15,61.17l5.2-29.48h3.23l-.21,1.21a8.8,8.8,0,0,1,4.91-1.5,6.59,6.59,0,0,1,5.19,2.23,6.7,6.7,0,0,1,1.31,5.56,9.43,9.43,0,0,1-9.17,7.72,6.56,6.56,0,0,1-4.44-1.53l-2.79,15.79ZM193.8,34.48a5.6,5.6,0,0,0-5.55,4.75A4,4,0,0,0,189,42.6a3.87,3.87,0,0,0,3,1.27,5.65,5.65,0,0,0,5.38-4.64,4.23,4.23,0,0,0-.75-3.54,3.62,3.62,0,0,0-2.87-1.21" transform="translate(0 0)" style="fill:#231815"/><path d="M200.46,61.17l5.2-29.48h3.23l-.22,1.21a8.85,8.85,0,0,1,4.92-1.5,6.59,6.59,0,0,1,5.19,2.23,6.66,6.66,0,0,1,1.3,5.56,9.41,9.41,0,0,1-9.16,7.72,6.56,6.56,0,0,1-4.44-1.53l-2.79,15.79Zm12.65-26.69a5.6,5.6,0,0,0-5.55,4.75,4.07,4.07,0,0,0,.74,3.37,3.89,3.89,0,0,0,3,1.27,5.65,5.65,0,0,0,5.38-4.64,4.27,4.27,0,0,0-.75-3.54,3.62,3.62,0,0,0-2.87-1.21" transform="translate(0 0)" style="fill:#231815"/><path d="M229.12,46.91A6.49,6.49,0,0,1,224,44.7,6.79,6.79,0,0,1,222.68,39a9.5,9.5,0,0,1,9.18-7.62,6.31,6.31,0,0,1,6.54,7.79,9.5,9.5,0,0,1-9.28,7.72m2.23-12.43A5.69,5.69,0,0,0,226,39.3a4,4,0,0,0,.78,3.29,3.71,3.71,0,0,0,2.91,1.28,5.73,5.73,0,0,0,5.4-4.75,4,4,0,0,0-.76-3.37,3.76,3.76,0,0,0-3-1.27" transform="translate(0 0)" style="fill:#231815"/><path d="M240.64,46.62l2.64-14.93h3.23l-.12.66a6.19,6.19,0,0,1,3.34-1,4.76,4.76,0,0,1,4.77,3.44l.05.16-3.23,1.56-.06-.23c-.32-1.3-.95-1.85-2.08-1.85-1.92,0-3.41,1.43-3.81,3.66l-1.49,8.48Z" transform="translate(0 0)" style="fill:#231815"/><polygon points="259.29 46.62 261.76 32.62 257.25 32.62 257.79 29.55 262.3 29.55 263.45 23.04 266.68 23.04 265.53 29.55 270 29.55 269.46 32.62 264.99 32.62 262.52 46.62 259.29 46.62" style="fill:#231815"/></g></g></g></svg>