<svg xmlns="http://www.w3.org/2000/svg" viewBox="0 0 750 61.98"><g id="レイヤー_2" data-name="レイヤー 2"><g id="テキスト"><path d="M195.1,30.33h7.35v6h-1.82V39H195v1.47h5.11v2.76H195v1.51h7v3.19h-18V44.75h7.14V43.24H186V40.48h5.18V39h-5.53V36.35H184v-6h7.14V27.42h4Zm-9.17,18.8H200.6V59.52h-4V58.33h-7v1.54h-3.75ZM198.6,33.48H187.65v2.59h3.57V34.18H195v1.89h3.57Zm-8.92,18.76v3h7v-3Zm18.2-1.75h-4V30.92h4Zm7.31-22.65v27c0,2.31-.42,3.47-1.82,4.13s-3.53.84-6.4.84a17,17,0,0,0-1.37-4.3c2,.1,4,.07,4.73.07s.84-.21.84-.77v-27Z" style="fill:#3d528f"/><path d="M235.74,44s0,1.15-.14,1.72c-.56,7.73-1.19,11.13-2.42,12.49a4.75,4.75,0,0,1-3.46,1.51,44.86,44.86,0,0,1-5.5.07,10.35,10.35,0,0,0-1.54-4.38c2.1.21,4.34.25,5.29.25a2.25,2.25,0,0,0,1.57-.42c.74-.6,1.19-2.8,1.58-7.39H224c-.1.56-.21,1.08-.31,1.58l-4.2-.67a111,111,0,0,0,2.13-12.32h9.7v-4H220.79V28.54h14.67V40.3H225.31c-.18,1.23-.39,2.49-.6,3.68ZM247.5,27.74V59.91h-4.17V27.74Z" style="fill:#3d528f"/><path d="M268.18,37.68a47.58,47.58,0,0,1-2.87,10.19,35.08,35.08,0,0,1,3.61,5.67l-3.33,2.83a31.77,31.77,0,0,0-2.38-4.3A23.47,23.47,0,0,1,256,59.63a18.48,18.48,0,0,0-2.8-3.26,19.41,19.41,0,0,0,7.45-7.94c-1.85-2.49-3.92-5-5.84-7.11l3-2.35c1.51,1.61,3.12,3.4,4.62,5.25a40,40,0,0,0,1.68-7.07ZM286.24,39H282.5V54.73c0,2.34-.42,3.57-1.75,4.23s-3.4.91-6.3.91a17.4,17.4,0,0,0-1.33-4.48c2,.11,3.85.07,4.44.07s.84-.17.84-.73V39h-8.78V36.45h-15.4V32.6h6.09V27.25h4V32.6h6.47V35h7.63V27.21h4.1V35h3.74Zm-13.65,2.77a27.31,27.31,0,0,1,3.89,7.39L272.87,51a29.06,29.06,0,0,0-3.6-7.63Z" style="fill:#3d528f"/><path d="M320.51,45.59a64.87,64.87,0,0,1-7.39,4.1,17.75,17.75,0,0,0,8.12,5.67,18.9,18.9,0,0,0-2.66,3.5c-6.65-2.73-10.5-8.19-12.7-15.65A32,32,0,0,1,303,44.78c7.14,4.8,7.14,11.87,3.57,14.15a6.8,6.8,0,0,1-4.06,1.15c-.84,0-1.85,0-2.8-.07a7.83,7.83,0,0,0-1.19-3.71,47,47,0,0,1-7.1,2.63,26.31,26.31,0,0,0-2.35-3c5-1.12,10.92-3.47,14.42-6a8.62,8.62,0,0,0-.73-.95,41,41,0,0,1-10.89,4.45,16.58,16.58,0,0,0-2.24-2.8A41,41,0,0,0,300.52,47c-.35-.25-.73-.5-1.12-.74a72.94,72.94,0,0,1-7.8,2.35,22.3,22.3,0,0,0-2.1-2.94,56,56,0,0,0,10.08-2.63H293V37.64a12.12,12.12,0,0,1-1.19.77A13.77,13.77,0,0,0,289,35.47a25.49,25.49,0,0,0,9.48-8.4l4.34.84-1.05,1.47h6.16l.63-.17,2.84,1.85a28.9,28.9,0,0,1-2.35,3.26h8.44v8.75h-7.95a25.66,25.66,0,0,0,1.79,4,43.77,43.77,0,0,0,5.81-3.92Zm-23.63-5.53h6v-2.7h-6Zm2.24-7.56a24.54,24.54,0,0,1-1.85,1.82h7a17.92,17.92,0,0,0,1.4-1.82Zm5.71,20.23a40.19,40.19,0,0,1-6.27,3.54,27.35,27.35,0,0,0,3.22.14,3.24,3.24,0,0,0,2.14-.53A2.85,2.85,0,0,0,304.83,52.73Zm8.61-15.37h-6.51v2.7h6.51Z" style="fill:#3d528f"/><path d="M350.85,36.49c-1.05.63-2.17,1.22-3.43,1.85a107.62,107.62,0,0,0-9.66,5.15c-2.9,1.89-4.83,3.88-4.83,6.3s2.42,3.82,7.21,3.82a58,58,0,0,0,11.34-1.26l-.07,5a67.74,67.74,0,0,1-11.13.84c-6.89,0-12.11-1.92-12.11-7.87,0-3.86,2.42-6.69,5.74-9.14-1.61-3-3.29-6.65-4.86-10.33l4.37-1.78a81.63,81.63,0,0,0,4.34,9.59c2.84-1.65,5.85-3.19,7.49-4.1a23.53,23.53,0,0,0,3.19-2.1Z" style="fill:#3d528f"/><path d="M377.59,36.45a49.6,49.6,0,0,1-6,1.19,63.86,63.86,0,0,1-7.42,14.85l-4.23-2.14A53.09,53.09,0,0,0,367,38.1c-.6,0-1.19,0-1.79,0-1.43,0-2.83,0-4.34-.1L360.55,34a45.3,45.3,0,0,0,4.62.24c1,0,2.06,0,3.11-.1a29.65,29.65,0,0,0,1-5.81l4.79.49c-.28,1.12-.7,2.87-1.19,4.72a36.93,36.93,0,0,0,4.66-1.08Zm4.55,3.12c-.1,1.47,0,2.9,0,4.44,0,1,.11,2.66.21,4.38a23,23,0,0,1,7.18,4.45l-2.31,3.71a31.43,31.43,0,0,0-4.69-3.68v.32c0,3.22-1.75,5.74-6.69,5.74-4.3,0-7.7-1.93-7.7-5.74,0-3.4,2.84-6,7.67-6,.8,0,1.61.08,2.34.15-.1-2.6-.28-5.64-.38-7.74Zm-3.81,11.48a12.27,12.27,0,0,0-2.8-.35c-2,0-3.29.84-3.29,2.07s1.08,2.17,3,2.17c2.35,0,3.12-1.37,3.12-3.22Zm9.76-9.63a46,46,0,0,0-8.33-4.93L382,33.06a61.54,61.54,0,0,1,8.54,4.69Z" style="fill:#3d528f"/><path d="M419.56,32.85c-.84.52-1.65,1-2.42,1.57-1.85,1.3-5.49,4.38-7.66,6.13a11.43,11.43,0,0,1,3.25-.39c5.88,0,10.36,3.68,10.36,8.72,0,5.46-4.16,9.8-12.53,9.8-4.83,0-8.47-2.2-8.47-5.67,0-2.8,2.56-5.39,6.23-5.39,4.27,0,6.86,2.63,7.39,5.92a5.06,5.06,0,0,0,2.83-4.73c0-3.11-3.15-5.22-7.17-5.22-5.32,0-8.79,2.84-12.5,7l-3.15-3.26c2.45-2,6.62-5.53,8.68-7.21s5.53-4.51,7.25-6c-1.79,0-6.55.25-8.37.39a21.87,21.87,0,0,0-2.83.28l-.14-4.52a30.24,30.24,0,0,0,3.15.18c1.82,0,9.24-.18,11.2-.35a18.17,18.17,0,0,0,2.66-.35Zm-7.84,21.81c-.21-2.24-1.51-3.71-3.4-3.71-1.29,0-2.13.77-2.13,1.64,0,1.3,1.47,2.17,3.5,2.17A18.39,18.39,0,0,0,411.72,54.66Z" style="fill:#3d528f"/><path d="M442.52,41.42c-.18,11.31-.35,15.48-1.23,16.77A3.17,3.17,0,0,1,439,59.66a21.34,21.34,0,0,1-3.61.14,10,10,0,0,0-1-3.71c1.08.11,2,.14,2.55.14a1,1,0,0,0,1-.52c.46-.74.67-3.71.81-12.12h-2.52c-.14,5.32-1,11.35-4.87,16.42a16.52,16.52,0,0,0-3.08-2.55c3.85-5.08,4.34-11,4.34-15.69V36.38H429V32.53h5.25V27.21h4v5.32h5.18v2.66a24.3,24.3,0,0,0,3.29-8l4.1.77c-.28,1.16-.63,2.31-1,3.43h10.89v3.78H448.26a22.24,22.24,0,0,1-3.61,5.25,25.71,25.71,0,0,0-3.36-2.66,11.7,11.7,0,0,0,1.3-1.4h-6.34v3.43h6.27Zm19.18,2.91a58.77,58.77,0,0,1-5.39,4.45,14.57,14.57,0,0,0,5.53,7.52A14.52,14.52,0,0,0,459,59.8c-4.62-3.36-6.75-9.45-8-17l-1.23.53V59.87h-3.95V44.78l-.74.21a18.84,18.84,0,0,0-2.45-3.46c4.94-1,11.2-3.54,14.32-6l3,2.17a32.48,32.48,0,0,1-5.53,3.5c.21,1.37.49,2.73.81,4a31.74,31.74,0,0,0,3.57-3.61Z" style="fill:#3d528f"/><path d="M476.75,36.31A46.1,46.1,0,0,1,473,41.67V59.94h-4.16V46.25c-1,1-1.93,1.82-2.87,2.6a42.9,42.9,0,0,0-2.84-3.61,34.08,34.08,0,0,0,9.63-10.47Zm-1.3-7.45a47.07,47.07,0,0,1-9.62,9.2,24.73,24.73,0,0,0-2.31-3.39,31.32,31.32,0,0,0,7.91-7.46ZM496,42.79h-4.79V55.08c0,2.24-.42,3.39-2,4s-3.71.7-6.83.7a17.05,17.05,0,0,0-1.26-4.23c2,.1,4.31.1,4.94.07s.87-.14.87-.67V42.79H476.68v-4H496Zm-.87-9.63h-17V29.21h17Z" style="fill:#3d528f"/><path d="M524.1,33.65c-.56,1-1.08,2-1.54,2.73h7v19c0,2.06-.42,3.18-1.79,3.85s-3.32.7-6,.7a17.15,17.15,0,0,0-1.19-3.54H512V58.3h-3.68v-11H522V56c1.23,0,2.31,0,2.73,0,.6,0,.77-.17.77-.7V44.57c-.52,1-1.4,1.41-2.8,1.41h-2.83c-3.12,0-3.75-.95-3.75-3.79V40h-2.83c-.32,3.89-1.61,6.13-6.93,7.36a8.44,8.44,0,0,0-1.51-2.45v15h-4V36.38h6.23A23.18,23.18,0,0,0,506,33.65h-6.33V29.87h13V27.25H517v2.62h13.37v3.78ZM504.85,44.37c3.75-.74,4.55-2,4.8-4.42h-4.8Zm13.13-8c.42-.84.91-1.82,1.29-2.73h-8.75a16.27,16.27,0,0,1,1.12,2.73Zm.28,14H512v2.94h6.3ZM525.5,40h-5.81v2.21c0,.73.11.84.7.84h1.82c.6,0,.74-.25.84-1.93a10.14,10.14,0,0,0,2.45,1Z" style="fill:#3d528f"/><path d="M535,44.16h13.34V59.73h-4.17V58.16H539v1.75h-4Zm4,4v6h5.21v-6Zm21.38-6.9H539.85V28.58h20.51Zm-4.23-8.68H543.88v4.72h12.25Zm9,11.59V59.77h-4.2V58.16h-5.57v1.75h-4V44.16Zm-4.2,10v-6h-5.57v6Z" style="fill:#3d528f"/><path d="M0,60.67H134.05V27.5A26.27,26.27,0,0,1,160.24,1.31H589.76A26.27,26.27,0,0,1,616,27.5V60.67H750" style="fill:none;stroke:#3d528f;stroke-miterlimit:10;stroke-width:2.619px"/></g></g></svg>