<svg xmlns="http://www.w3.org/2000/svg" viewBox="0 0 800 35.5"><g id="レイヤー_2" data-name="レイヤー 2"><g id="テキスト"><path d="M297.2,17.4h4.2v3.44h-1v1.52h-3.2v.84h2.92v1.58h-2.92v.86h4v1.83H290.9V25.64H295v-.86h-3V23.2h3v-.84h-3.16V20.84h-1V17.4h4.08V15.74h2.28ZM292,28.15h8.38v5.94h-2.26v-.68h-4v.88H292Zm7.24-8.95h-6.26v1.48h2V19.6h2.18v1.08h2Zm-5.1,10.73v1.7h4v-1.7Zm10.4-1h-2.26V17.74h2.26ZM308.68,16V31.41c0,1.32-.24,2-1,2.36a8.8,8.8,0,0,1-3.66.48,9.74,9.74,0,0,0-.78-2.46c1.16.06,2.3,0,2.7,0s.48-.12.48-.44V16Z" style="fill:#3d528f"/><path d="M320.42,25.21a8.85,8.85,0,0,1-.08,1c-.32,4.43-.68,6.37-1.38,7.15a2.71,2.71,0,0,1-2,.86,25.59,25.59,0,0,1-3.14,0,6,6,0,0,0-.88-2.5c1.2.12,2.48.14,3,.14a1.3,1.3,0,0,0,.9-.24c.42-.34.68-1.6.9-4.22h-4.06q-.09.48-.18.9l-2.4-.38a63.46,63.46,0,0,0,1.22-7h5.54V18.6h-6V16.38h8.38V23.1h-5.8c-.1.71-.22,1.42-.34,2.11Zm6.72-9.29V34.31h-2.38V15.92Z" style="fill:#3d528f"/><path d="M339,21.6a27.42,27.42,0,0,1-1.64,5.83,19.81,19.81,0,0,1,2.06,3.24l-1.9,1.62a18.67,18.67,0,0,0-1.36-2.46,13.45,13.45,0,0,1-4.1,4.32,10.43,10.43,0,0,0-1.6-1.86,11.1,11.1,0,0,0,4.26-4.54c-1.06-1.42-2.24-2.85-3.34-4.07l1.7-1.34c.86.92,1.78,1.94,2.64,3a23.79,23.79,0,0,0,1-4.05Zm10.32.74h-2.14v9c0,1.34-.24,2-1,2.42a8,8,0,0,1-3.6.52,9.8,9.8,0,0,0-.76-2.56c1.12.06,2.2,0,2.54,0s.48-.1.48-.42v-9h-5V20.9H331V18.7h3.48V15.64h2.28V18.7h3.7v1.36h4.36V15.62h2.34v4.44h2.14Zm-7.8,1.59a15.55,15.55,0,0,1,2.22,4.22l-2.06,1.06a16.66,16.66,0,0,0-2.06-4.36Z" style="fill:#3d528f"/><path d="M368.86,26.13a37,37,0,0,1-4.22,2.34,10.09,10.09,0,0,0,4.64,3.24,10.56,10.56,0,0,0-1.52,2c-3.8-1.56-6-4.68-7.26-8.95a16.45,16.45,0,0,1-1.66.91c4.08,2.74,4.08,6.78,2,8.08a3.89,3.89,0,0,1-2.32.66c-.48,0-1.06,0-1.6,0a4.48,4.48,0,0,0-.68-2.12,27.18,27.18,0,0,1-4.06,1.5A15.33,15.33,0,0,0,350.88,32a24.42,24.42,0,0,0,8.24-3.44,4.94,4.94,0,0,0-.42-.54,23.41,23.41,0,0,1-6.22,2.54A9.77,9.77,0,0,0,351.2,29a23.33,23.33,0,0,0,6.24-2l-.64-.43a39.44,39.44,0,0,1-4.46,1.35,13.22,13.22,0,0,0-1.2-1.69,30.42,30.42,0,0,0,5.76-1.5h-3.78v-3.1a7.91,7.91,0,0,1-.68.44,7.88,7.88,0,0,0-1.58-1.68,14.6,14.6,0,0,0,5.42-4.8l2.48.48-.6.84h3.52l.36-.1,1.62,1.06a16.45,16.45,0,0,1-1.34,1.86h4.82v5H362.6a14.76,14.76,0,0,0,1,2.29,24.26,24.26,0,0,0,3.32-2.25ZM355.36,23h3.42V21.42h-3.42Zm1.28-4.32a13.06,13.06,0,0,1-1.06,1h4a10.24,10.24,0,0,0,.8-1Zm3.26,11.57a22.8,22.8,0,0,1-3.58,2,15.61,15.61,0,0,0,1.84.08,1.86,1.86,0,0,0,1.22-.3A1.63,1.63,0,0,0,359.9,30.21Zm4.92-8.79H361.1V23h3.72Z" style="fill:#3d528f"/><path d="M386.2,20.92c-.6.36-1.24.7-2,1.06a58.61,58.61,0,0,0-5.52,2.95C377.06,26,376,27.14,376,28.53s1.38,2.18,4.12,2.18a33.13,33.13,0,0,0,6.48-.72l0,2.86a38.74,38.74,0,0,1-6.36.48c-3.94,0-6.92-1.1-6.92-4.5,0-2.2,1.38-3.82,3.28-5.23-.92-1.7-1.88-3.8-2.78-5.9l2.5-1a46.44,46.44,0,0,0,2.48,5.48c1.62-.94,3.34-1.82,4.28-2.34a13.68,13.68,0,0,0,1.82-1.2Z" style="fill:#3d528f"/><path d="M401.48,20.9a29,29,0,0,1-3.44.68,36.63,36.63,0,0,1-4.24,8.49l-2.42-1.22a30.28,30.28,0,0,0,4-7c-.34,0-.68,0-1,0-.82,0-1.62,0-2.48-.06l-.18-2.32a25.18,25.18,0,0,0,2.64.14c.58,0,1.18,0,1.78-.06a16.86,16.86,0,0,0,.54-3.32l2.74.28c-.16.64-.4,1.64-.68,2.7a20.92,20.92,0,0,0,2.66-.62Zm2.6,1.78c-.06.84,0,1.67,0,2.54,0,.57.06,1.53.12,2.51a13.19,13.19,0,0,1,4.1,2.54L407,32.39a17.63,17.63,0,0,0-2.68-2.1v.18c0,1.84-1,3.28-3.82,3.28-2.46,0-4.4-1.1-4.4-3.28,0-1.94,1.62-3.44,4.38-3.44.46,0,.92,0,1.34.08-.06-1.48-.16-3.22-.22-4.43Zm-2.18,6.57a7,7,0,0,0-1.6-.2c-1.14,0-1.88.48-1.88,1.18s.62,1.24,1.7,1.24c1.34,0,1.78-.78,1.78-1.84Zm5.58-5.51a26.41,26.41,0,0,0-4.76-2.82L404,19a35.64,35.64,0,0,1,4.88,2.68Z" style="fill:#3d528f"/><path d="M425.46,18.84q-.72.45-1.38.9c-1.06.74-3.14,2.5-4.38,3.5a6.66,6.66,0,0,1,1.86-.22c3.36,0,5.92,2.11,5.92,5,0,3.12-2.38,5.6-7.16,5.6-2.76,0-4.84-1.26-4.84-3.24A3.33,3.33,0,0,1,419,27.29a4,4,0,0,1,4.22,3.38,2.89,2.89,0,0,0,1.62-2.7c0-1.79-1.8-3-4.1-3-3,0-5,1.62-7.14,4l-1.8-1.87c1.4-1.13,3.78-3.16,5-4.12s3.16-2.58,4.14-3.44c-1,0-3.74.14-4.78.22a13.07,13.07,0,0,0-1.62.16l-.08-2.58c.56.06,1.24.1,1.8.1,1,0,5.28-.1,6.4-.2a9.55,9.55,0,0,0,1.52-.2ZM421,31.31c-.12-1.28-.86-2.12-1.94-2.12-.74,0-1.22.44-1.22.94,0,.74.84,1.24,2,1.24A10.44,10.44,0,0,0,421,31.31Z" style="fill:#3d528f"/><path d="M438.58,23.74c-.1,6.47-.2,8.85-.7,9.59a1.83,1.83,0,0,1-1.3.84,12.47,12.47,0,0,1-2.06.08,5.69,5.69,0,0,0-.58-2.12c.62.06,1.14.08,1.46.08a.57.57,0,0,0,.56-.3c.26-.42.38-2.12.46-6.93H435a15.77,15.77,0,0,1-2.78,9.39,9.76,9.76,0,0,0-1.76-1.46c2.2-2.9,2.48-6.31,2.48-9V20.86h-2v-2.2h3v-3h2.28v3h3v1.52A14.06,14.06,0,0,0,441,15.62l2.34.44c-.16.66-.36,1.32-.58,2H449v2.16h-7.12a12.76,12.76,0,0,1-2.06,3,14.59,14.59,0,0,0-1.92-1.52,7.15,7.15,0,0,0,.74-.8H435v2h3.58Zm11,1.66A31,31,0,0,1,446.46,28a8.35,8.35,0,0,0,3.16,4.3,8.36,8.36,0,0,0-1.62,2c-2.64-1.92-3.86-5.4-4.58-9.7-.24.09-.46.19-.7.3v9.44h-2.26V25.67l-.42.12a10.49,10.49,0,0,0-1.4-2,23,23,0,0,0,8.18-3.41l1.7,1.24a18.79,18.79,0,0,1-3.16,2c.12.79.28,1.57.46,2.3a18.7,18.7,0,0,0,2-2.05Z" style="fill:#3d528f"/><path d="M458.14,20.82A27.51,27.51,0,0,1,456,23.89V34.33h-2.38V26.51c-.56.54-1.1,1-1.64,1.48a23.43,23.43,0,0,0-1.62-2.06,19.64,19.64,0,0,0,5.5-6Zm-.74-4.26a26.85,26.85,0,0,1-5.5,5.26,13.83,13.83,0,0,0-1.32-1.94,17.79,17.79,0,0,0,4.52-4.26Zm11.76,8h-2.74v7c0,1.28-.24,1.94-1.12,2.3a11,11,0,0,1-3.9.4,9.85,9.85,0,0,0-.72-2.42c1.14.06,2.46.06,2.82,0s.5-.08.5-.38v-7h-5.9V22.26h11.06Zm-.5-5.5h-9.72V16.76h9.72Z" style="fill:#3d528f"/><path d="M485.2,19.3c-.32.58-.62,1.12-.88,1.56h4V31.71c0,1.18-.24,1.82-1,2.2a8.91,8.91,0,0,1-3.46.4,9.61,9.61,0,0,0-.68-2h-4.88v1.1h-2.1V27.11H484v5c.7,0,1.32,0,1.56,0s.44-.1.44-.4V25.55a1.55,1.55,0,0,1-1.6.8h-1.62c-1.78,0-2.14-.54-2.14-2.17V22.9H479c-.18,2.23-.92,3.51-4,4.21a4.7,4.7,0,0,0-.86-1.4v8.56h-2.26V20.86h3.56a13.33,13.33,0,0,0-.62-1.56h-3.62V17.14h7.44v-1.5h2.42v1.5h7.64V19.3Zm-11,6.13c2.14-.42,2.6-1.15,2.74-2.53H474.2Zm7.5-4.57c.24-.48.52-1,.74-1.56h-5a9.55,9.55,0,0,1,.64,1.56Zm.16,8h-3.6v1.68h3.6Zm4.14-6h-3.32v1.26c0,.42.06.48.4.48h1c.34,0,.42-.13.48-1.1a5.82,5.82,0,0,0,1.4.56Z" style="fill:#3d528f"/><path d="M491.44,25.31h7.62v8.9h-2.38v-.9h-3v1h-2.26Zm2.26,2.28V31h3V27.59Zm12.22-3.95H494.2V16.4h11.72Zm-2.42-5h-7v2.7h7Zm5.12,6.63v8.92h-2.4v-.92H503v1h-2.28v-9ZM506.22,31V27.59H503V31Z" style="fill:#3d528f"/><path d="M0,34.75H262v-19a15,15,0,0,1,15-15H523a15,15,0,0,1,15,15v19H800" style="fill:none;stroke:#3d528f;stroke-miterlimit:10;stroke-width:1.5px"/></g></g></svg>