<svg xmlns="http://www.w3.org/2000/svg" viewBox="0 0 320 52"><g id="レイヤー_2" data-name="レイヤー 2"><g id="テキスト"><rect width="320" height="52" rx="6.57" style="fill:#ff4f8b"/><path d="M82.14,17.54a13.73,13.73,0,0,1,3.23-.45C88,17.09,90,18.47,90,20.78c0,2-1,3.49-3.7,4.15a13.28,13.28,0,0,1-2.21.27L83.3,23a12,12,0,0,0,2.07-.12c1.36-.23,2.45-.93,2.45-2.15S86.8,19,85.34,19a12,12,0,0,0-3.17.46c0,1.35.09,2.64.09,3.22,0,2.09-.77,2.63-1.85,2.63-1.65,0-4-1.41-4-3.2,0-1.47,1.72-3,3.77-3.89,0-.39,0-.78,0-1.17V15.6l-.91,0c-.76,0-1.61,0-2.34-.08l0-2a18.14,18.14,0,0,0,2.33.13l1,0c0-.6,0-1.09,0-1.38a13.85,13.85,0,0,0-.12-1.48h2.31c0,.31-.1,1-.13,1.47s0,.78,0,1.2a21.83,21.83,0,0,0,3.09-.63l.05,2.11c-1,.22-2.11.39-3.21.53,0,.51,0,1,0,1.51Zm-1.85,4.72c0-.42,0-1.19-.05-2.07-1,.52-1.72,1.22-1.72,1.82s.78,1,1.22,1S80.29,22.84,80.29,22.26Zm6.93-9.69a38.64,38.64,0,0,1,4.13,2.36l-1,1.74a25.52,25.52,0,0,0-4-2.45Z" style="fill:#fff"/><path d="M95.4,17.08V26h-2V10.75h6.49v6.33Zm0-4.78v.92H98V12.3ZM98,15.55v-1H95.4v1Zm1,8v.95H97.15V18.25h6.58v5.34Zm0-3.67v2h2.8v-2Zm8.68,3.65c0,1.12-.23,1.7-1,2a8.31,8.31,0,0,1-3.33.39,7.29,7.29,0,0,0-.68-2.07,23.83,23.83,0,0,0,2.47,0c.32,0,.44-.1.44-.4V17.09h-4.61V10.75h6.66ZM103,12.28v.94h2.69v-.94Zm2.69,3.28v-1H103v1Z" style="fill:#fff"/><path d="M113.25,14.44c0,1.09,0,2.37.1,3.57.24,2.43.75,4.08,1.8,4.08.8,0,1.47-2,1.79-3.3l1.7,2c-1.12,2.93-2.18,4-3.54,4-1.83,0-3.45-1.66-3.92-6.18-.16-1.55-.19-3.51-.19-4.54a9.93,9.93,0,0,0-.12-1.7l2.58,0A14.59,14.59,0,0,0,113.25,14.44ZM125,21.36l-2.23.85c-.26-2.7-1.16-6.66-3-8.74l2.14-.71C123.47,14.71,124.76,18.78,125,21.36Z" style="fill:#fff"/><path d="M135.4,10.12A17.08,17.08,0,0,0,142.68,16a9.34,9.34,0,0,0-1.31,1.82,20.13,20.13,0,0,1-2.6-1.61v1.17H130.3V16.16a23.25,23.25,0,0,1-2.63,1.66,8.18,8.18,0,0,0-1.28-1.64,18,18,0,0,0,6.92-6.06ZM129.18,19H140v7h-2.08v-.63h-6.71V26h-2Zm8.75-3.47a18.34,18.34,0,0,1-3.48-3.45,17.32,17.32,0,0,1-3.38,3.45Zm-6.76,5.26v2.77h6.71V20.82Z" style="fill:#fff"/><path d="M150.31,14.05c-.22.29-.58.83-.87,1.28,0,.17,0,.32,0,.49a8.17,8.17,0,0,1,5-1.75A4.44,4.44,0,0,1,159,18.61c0,3.4-2.13,5.44-6.31,6.27l-1-2c3-.46,5.06-1.65,5.06-4.28a2.56,2.56,0,0,0-2.73-2.5,7,7,0,0,0-4.78,2.16c0,.47,0,1,0,1.39,0,1.38,0,2.79.1,4.37,0,.3.08.92.12,1.29h-2.32c0-.36.06-1,.06-1.24,0-1.31,0-2.28.06-3.71-.71,1.07-1.54,2.3-2.12,3.11l-1.33-1.87c1-1.15,2.65-3.4,3.61-4.81l.06-1.17-3,.39-.21-2.16a14.39,14.39,0,0,0,1.46,0c.5,0,1.23-.12,1.94-.22,0-.63.07-1.11.07-1.3a8.44,8.44,0,0,0-.07-1.49l2.47.07c-.11.47-.24,1.34-.38,2.39Z" style="fill:#fff"/><path d="M173,11.23c-.05.25-.08,1-.1,1.44,0,.67,0,1.26-.05,1.82l1.27-.08,1.62-.12v2.07c-.29,0-1.18,0-1.64,0s-.79,0-1.29.07a30.74,30.74,0,0,1-.25,3.36c-.17.89-.6,1.11-1.46,1.11a19.88,19.88,0,0,1-2.54-.26l.05-1.85a10.79,10.79,0,0,0,1.55.2c.34,0,.48-.06.53-.39a19.19,19.19,0,0,0,.12-2c-1.48.12-3.13.27-4.58.43,0,1.54,0,3.09,0,3.8.06,1.65.19,2,2.72,2a31.14,31.14,0,0,0,5-.45l-.09,2.32c-1.14.13-3.19.27-4.79.27-4.37,0-4.9-.92-5-3.83,0-.71,0-2.34,0-3.92l-1.14.12c-.53.06-1.58.23-2,.3l-.23-2.16c.48,0,1.26,0,2.11-.1l1.28-.12v-1.7a12.16,12.16,0,0,0-.14-1.87h2.38a13,13,0,0,0-.1,1.75c0,.39,0,1,0,1.62l4.59-.43v-1.9a13.22,13.22,0,0,0-.12-1.53Z" style="fill:#fff"/><path d="M181.86,11.43c-.13.34-.34,1.19-.41,1.5a45.21,45.21,0,0,0-.8,6.51,8,8,0,0,0,.07,1.09c.22-.6.5-1.16.75-1.72l1,.83a40.16,40.16,0,0,0-1.21,4,3.13,3.13,0,0,0-.08.78c0,.17,0,.46,0,.69l-1.9.14a20.28,20.28,0,0,1-.66-5.37,50.64,50.64,0,0,1,.69-7,12.31,12.31,0,0,0,.16-1.65Zm10.34,12.7a18,18,0,0,0-2-1.68c-.1,1.6-1,2.75-3.3,2.75s-3.77-1-3.77-2.75,1.44-2.89,3.74-2.89a7.63,7.63,0,0,1,1.1.07c-.05-1-.1-2.26-.12-3.45h-1.2c-1,0-1.94,0-3-.1v-2a28.56,28.56,0,0,0,3,.15c.39,0,.79,0,1.18,0,0-.83,0-1.51,0-1.87a9.73,9.73,0,0,0-.1-1.1h2.41c0,.32-.08.73-.1,1.08s-.05,1-.05,1.76c.92-.11,1.8-.23,2.6-.4v2.1c-.82.11-1.7.22-2.62.28,0,1.64.12,3,.19,4.12a10.87,10.87,0,0,1,3.25,2.17ZM188,21.39a5.77,5.77,0,0,0-1.36-.18c-1,0-1.6.39-1.6,1s.68,1,1.56,1c1,0,1.4-.54,1.4-1.53Z" style="fill:#fff"/><path d="M199.17,19.32a7.13,7.13,0,0,0-.29,1.7c0,1.07,1,1.85,3.45,1.85a23.69,23.69,0,0,0,5.91-.66l0,2.36a25.48,25.48,0,0,1-5.85.58c-3.85,0-5.79-1.29-5.79-3.6a10.57,10.57,0,0,1,.34-2.43Zm-1.43-7.14a42.87,42.87,0,0,0,4.59.21c1.67,0,3.59-.11,4.88-.24v2.26c-1.17.08-3.27.2-4.86.2-1.77,0-3.23-.08-4.61-.18Z" style="fill:#fff"/><path d="M224.46,14.48c-1.75.27-4.42.59-6.68.71-.22,1-.49,2.09-.76,2.91A8.16,8.16,0,0,1,221.2,17c2.72,0,4.52,1.47,4.52,3.61,0,3.79-3.64,5.15-9.08,4.57L216.05,23c3.69.6,7.41.16,7.41-2.33,0-1-.88-1.85-2.52-1.85a5.77,5.77,0,0,0-4.65,2,4.61,4.61,0,0,0-.48.73l-2-.71a27,27,0,0,0,1.92-5.65c-1.07,0-2.05-.08-2.9-.17V13a24.12,24.12,0,0,0,3.29.33c0-.26.09-.48.11-.68a10.46,10.46,0,0,0,.08-1.7l2.38.1a16.66,16.66,0,0,0-.39,1.71l-.1.52a41.72,41.72,0,0,0,6.22-.8Z" style="fill:#fff"/><path d="M233.19,18.18a8.25,8.25,0,0,1,4.94-1.6c3,0,4.68,1.82,4.68,3.86,0,3.08-2.43,5.44-9.44,4.83l-.64-2.21c5.05.71,7.71-.53,7.71-2.67,0-1.09-1-1.88-2.51-1.88a5.87,5.87,0,0,0-4.64,2,3.35,3.35,0,0,0-.63,1l-2-.49a61.48,61.48,0,0,0,.84-7l2.27.31C233.59,15.19,233.3,17.21,233.19,18.18Zm.52-7.31a52.1,52.1,0,0,0,6.73,1.31l-.51,2.08c-1.7-.23-5.45-1-6.76-1.35Z" style="fill:#fff"/><path d="M107.9,36.67c0-3.26,2-5.22,4.51-5.22a3.88,3.88,0,0,1,2.85,1.27l-.86,1a2.67,2.67,0,0,0-2-.9c-1.73,0-2.92,1.44-2.92,3.8s1.11,3.83,2.88,3.83a2.94,2.94,0,0,0,2.22-1.06l.84,1a3.93,3.93,0,0,1-3.11,1.44C109.83,41.82,107.9,40,107.9,36.67Z" style="fill:#fff"/><path d="M116.56,37.92a3.55,3.55,0,1,1,7,0,3.54,3.54,0,1,1-7,0Zm5.44,0c0-1.59-.73-2.65-1.92-2.65s-1.9,1.06-1.9,2.65.74,2.63,1.9,2.63S122,39.5,122,37.92Z" style="fill:#fff"/><path d="M125.44,34.17h1.28l.12,1h0A3.61,3.61,0,0,1,129.36,34c1.59,0,2.3,1.06,2.3,3v4.71h-1.57V37.13c0-1.29-.38-1.8-1.26-1.8a2.56,2.56,0,0,0-1.84,1v5.3h-1.55Z" style="fill:#fff"/><path d="M134.17,39.2V35.42h-1.08V34.25l1.15-.08.18-2.07h1.32v2.07h1.94v1.25h-1.94v3.79c0,.9.31,1.36,1.09,1.36a2.38,2.38,0,0,0,.8-.17l.28,1.15a4.63,4.63,0,0,1-1.46.27C134.76,41.82,134.17,40.78,134.17,39.2Z" style="fill:#fff"/><path d="M138.88,39.66c0-1.6,1.36-2.43,4.47-2.77,0-.87-.32-1.63-1.42-1.63a4.12,4.12,0,0,0-2.17.76L139.18,35a5.7,5.7,0,0,1,3-1c1.86,0,2.72,1.18,2.72,3.17v4.5h-1.28l-.14-.86h0a3.68,3.68,0,0,1-2.38,1A2.06,2.06,0,0,1,138.88,39.66Zm4.47.06V37.88c-2.21.27-3,.83-3,1.67s.5,1,1.17,1A2.66,2.66,0,0,0,143.35,39.72Z" style="fill:#fff"/><path d="M146.61,37.92A3.67,3.67,0,0,1,150.3,34a3.17,3.17,0,0,1,2.19.86l-.77,1a2,2,0,0,0-1.35-.59c-1.25,0-2.15,1.06-2.15,2.65s.86,2.63,2.11,2.63a2.55,2.55,0,0,0,1.63-.68l.64,1a3.64,3.64,0,0,1-2.42.92C148.16,41.82,146.61,40.4,146.61,37.92Z" style="fill:#fff"/><path d="M154.41,39.2V35.42h-1.09V34.25l1.16-.08.18-2.07H156v2.07h1.94v1.25H156v3.79c0,.9.31,1.36,1.08,1.36a2.28,2.28,0,0,0,.8-.17l.29,1.15a4.64,4.64,0,0,1-1.47.27C155,41.82,154.41,40.78,154.41,39.2Z" style="fill:#fff"/><path d="M162.52,38.87v-4.7h1.56v4.51c0,1.3.37,1.8,1.25,1.8.69,0,1.17-.33,1.8-1.12V34.17h1.56v7.48h-1.28l-.12-1.13h0a3.14,3.14,0,0,1-2.45,1.3C163.21,41.82,162.52,40.78,162.52,38.87Z" style="fill:#fff"/><path d="M170.26,40.79l.73-1a3.32,3.32,0,0,0,2.12.85c.9,0,1.32-.43,1.32-1s-.84-1-1.66-1.3c-1-.38-2.13-.91-2.13-2.17s1-2.19,2.65-2.19a4,4,0,0,1,2.43.88l-.73,1a2.82,2.82,0,0,0-1.68-.65c-.81,0-1.19.4-1.19.92s.77.88,1.59,1.18c1,.4,2.2.86,2.2,2.27s-1,2.27-2.84,2.27A4.58,4.58,0,0,1,170.26,40.79Z" style="fill:#fff"/><path d="M180.63,30.81h1.55v2.87l-.05,1.48A3.49,3.49,0,0,1,184.55,34c1.59,0,2.3,1.06,2.3,3v4.71h-1.57V37.13c0-1.29-.38-1.8-1.26-1.8a2.54,2.54,0,0,0-1.84,1v5.3h-1.55Z" style="fill:#fff"/><path d="M188.55,37.92A3.63,3.63,0,0,1,192,34c2,0,3,1.43,3,3.55a4.23,4.23,0,0,1-.06.79h-4.86a2.26,2.26,0,0,0,2.31,2.28,3.16,3.16,0,0,0,1.79-.56l.54,1a4.54,4.54,0,0,1-2.53.78A3.59,3.59,0,0,1,188.55,37.92Zm5.11-.68c0-1.29-.59-2-1.67-2a2,2,0,0,0-1.92,2Z" style="fill:#fff"/><path d="M196.76,34.17H198l.12,1.35h0A2.58,2.58,0,0,1,200.32,34a1.9,1.9,0,0,1,.85.16l-.29,1.36a2.27,2.27,0,0,0-.75-.12c-.61,0-1.34.42-1.82,1.6v4.67h-1.55Z" style="fill:#fff"/><path d="M201.79,37.92A3.63,3.63,0,0,1,205.21,34c2,0,3,1.43,3,3.55a4.12,4.12,0,0,1-.07.79h-4.85a2.26,2.26,0,0,0,2.31,2.28,3.11,3.11,0,0,0,1.78-.56l.55,1a4.57,4.57,0,0,1-2.53.78A3.59,3.59,0,0,1,201.79,37.92Zm5.11-.68c0-1.29-.58-2-1.67-2a2,2,0,0,0-1.91,2Z" style="fill:#fff"/><path d="M209.8,40.74a1.05,1.05,0,1,1,2.1,0,1.05,1.05,0,1,1-2.1,0Z" style="fill:#fff"/><polyline points="41.95 17 50.95 26 41.95 35" style="fill:none;stroke:#fff;stroke-linecap:round;stroke-linejoin:round;stroke-width:2px"/><polyline points="30 17 39 26 30 35" style="fill:none;stroke:#fff;stroke-linecap:round;stroke-linejoin:round;stroke-width:2px"/><polyline points="278.05 35 269.05 26 278.05 17" style="fill:none;stroke:#fff;stroke-linecap:round;stroke-linejoin:round;stroke-width:2px"/><polyline points="290 35 281 26 290 17" style="fill:none;stroke:#fff;stroke-linecap:round;stroke-linejoin:round;stroke-width:2px"/></g></g></svg>